<svg id="Clouds" xmlns="http://www.w3.org/2000/svg" xmlns:xlink="http://www.w3.org/1999/xlink" viewBox="0 0 792 612"><defs><style>.cls-1{fill:none;}.cls-2{clip-path:url(#clip-path);}.cls-3{fill:url(#linear-gradient);}.cls-4{fill:url(#linear-gradient-2);}.cls-5{fill:url(#linear-gradient-3);}.cls-6{fill:url(#linear-gradient-4);}.cls-7{fill:url(#linear-gradient-5);}.cls-8{fill:url(#linear-gradient-6);}.cls-9{fill:url(#linear-gradient-7);}.cls-10{fill:url(#linear-gradient-8);}</style><clipPath id="clip-path"><rect class="cls-1" width="792" height="612"/></clipPath><linearGradient id="linear-gradient" x1="480.62" y1="29.68" x2="480.62" y2="-141.35" gradientUnits="userSpaceOnUse"><stop offset="0" stop-color="#9eb0c4"/><stop offset="0.27" stop-color="#bec7d2"/><stop offset="0.37" stop-color="#ccd4de"/><stop offset="0.52" stop-color="#dbe2eb"/><stop offset="0.71" stop-color="#e3eaf3"/><stop offset="1" stop-color="#e6edf5"/></linearGradient><linearGradient id="linear-gradient-2" x1="480.62" y1="31.55" x2="480.62" y2="-143.22" gradientUnits="userSpaceOnUse"><stop offset="0" stop-color="#9eb0c4"/><stop offset="0.21" stop-color="#bfc9d4"/><stop offset="0.25" stop-color="#c8d0da"/><stop offset="0.39" stop-color="#dde2e8"/><stop offset="0.54" stop-color="#eceef2"/><stop offset="0.72" stop-color="#f4f6f8"/><stop offset="1" stop-color="#f7f8fa"/></linearGradient><linearGradient id="linear-gradient-3" x1="212.18" y1="35" x2="212.18" y2="-120.36" gradientUnits="userSpaceOnUse"><stop offset="0" stop-color="#738ca8"/><stop offset="0.27" stop-color="#bec7d2"/><stop offset="0.32" stop-color="#c4ccd7"/><stop offset="0.49" stop-color="#d3dae4"/><stop offset="0.69" stop-color="#dbe2ec"/><stop offset="1" stop-color="#dee5ee"/></linearGradient><linearGradient id="linear-gradient-4" x1="212.18" y1="36.78" x2="212.18" y2="-122.13" gradientUnits="userSpaceOnUse"><stop offset="0" stop-color="#738ca8"/><stop offset="0.27" stop-color="#bec7d2"/><stop offset="0.28" stop-color="#c1cad5"/><stop offset="0.41" stop-color="#d6dee7"/><stop offset="0.56" stop-color="#e5ecf5"/><stop offset="0.73" stop-color="#edf4fd"/><stop offset="1" stop-color="#f0f7ff"/></linearGradient><linearGradient id="linear-gradient-5" x1="509.75" y1="702.83" x2="509.75" y2="609.17" gradientTransform="matrix(-1, 0, 0, 1, 798.16, -656)" gradientUnits="userSpaceOnUse"><stop offset="0" stop-color="#dae1ea"/><stop offset="0.33" stop-color="#d7dfe8"/><stop offset="0.54" stop-color="#cfd6e0"/><stop offset="0.72" stop-color="#c0c9d4"/><stop offset="0.73" stop-color="#bec7d2"/><stop offset="1" stop-color="#9eb0c4"/></linearGradient><linearGradient id="linear-gradient-6" x1="509.75" y1="704.67" x2="509.75" y2="607.33" gradientTransform="matrix(-1, 0, 0, 1, 798.16, -656)" gradientUnits="userSpaceOnUse"><stop offset="0" stop-color="#e6edf5"/><stop offset="0.29" stop-color="#e3eaf3"/><stop offset="0.48" stop-color="#dbe2eb"/><stop offset="0.63" stop-color="#ccd4de"/><stop offset="0.73" stop-color="#bec7d2"/><stop offset="1" stop-color="#9eb0c4"/></linearGradient><linearGradient id="linear-gradient-7" x1="285.85" y1="709.23" x2="285.85" y2="615.57" gradientTransform="matrix(-1, 0, 0, 1, 798.16, -656)" gradientUnits="userSpaceOnUse"><stop offset="0" stop-color="#dae1ea"/><stop offset="0.28" stop-color="#d6dde7"/><stop offset="0.55" stop-color="#cad2dd"/><stop offset="0.73" stop-color="#bec7d2"/><stop offset="1" stop-color="#9eb0c4"/></linearGradient><linearGradient id="linear-gradient-8" x1="285.85" y1="711.07" x2="285.85" y2="613.73" xlink:href="#linear-gradient-6"/></defs><title>Artboard 2</title><g class="cls-2"><path class="cls-3" d="M320.4,20.78l.59.37c8.59,5.5,20.05,8.53,32.27,8.53,14.08,0,27.56-4,37-10.86l.68-.5.72.45c9.56,5.92,20.38,6.11,30.78.35l.66-.37.63.42c6.78,4.51,15.39,6.9,24.9,6.9,11.47,0,23.42-3.51,32-9.39l.85-.59.73.72c4.55,4.48,16,7.38,29.29,7.38,17.23,0,32.41-4.54,40.63-12.15l.56-.52.72.26A34.28,34.28,0,0,0,572.75,13l.67-.15.49.48c8.33,8.26,24.25,14,38.71,14,10.63,0,19.86-3,26.71-8.63l.6-.49.71.32c7,3.17,15.63,2.71,24.67-1.37l.7-.31.59.47c7.65,6,16.08,9.25,24.38,9.25a28.48,28.48,0,0,0,18.45-6.49l.88-.74.81.83c4.81,4.9,11.68,7.6,19.37,7.6,8,0,15.91-2.93,21.19-7.83l.67-.63.8.46a40.67,40.67,0,0,0,19.9,5.72h0c9.5,0,17-4.52,17.08-10.3,0-2.05-1.06-4.3-3.08-6.34C783.39,5.16,777.64,3,771.68,3A25.23,25.23,0,0,0,761.76,5l-.77.33-.6-.59A25,25,0,0,0,743-2.08a25.59,25.59,0,0,0-12.54,3.27l-.89.49-.66-.77a21,21,0,0,0-16.22-7.14,24.48,24.48,0,0,0-13.46,4.07l-1.14.78-.65-1.22A10.47,10.47,0,0,0,688-8.53a12.59,12.59,0,0,0-4.77,1L682-7l-.42-1.28a16.58,16.58,0,0,0-15.78-11c-6,0-11.36,3.22-14.56,8.83l-.63,1.12-1.11-.68a25.42,25.42,0,0,0-20-2.81l-1.12.32-.39-1.1C624.2-23.93,609-32,599.7-31.14l-1.18.12-.17-1.17a15.72,15.72,0,0,0-1.69-5.1l-.48-.88.75-.65c6.35-5.61,9.12-12.25,7.81-18.72-1.1-5.44-5.21-10.35-10-11.94l-1.28-.43.53-1.25c2.75-6.42,1.86-14.12-2.38-20.6s-11-10.52-17.72-10.58h-.85l-.3-.79c-6.52-17-21.32-18.81-27.38-18.81-9.58,0-18.73,4.07-22.77,10.13l-.54.8-.91-.31a30.24,30.24,0,0,0-18-.5,28.45,28.45,0,0,0-17.13,14,26.43,26.43,0,0,0-1.94,20.74l.56,1.74-1.83-.11a20,20,0,0,0-4.05.18l-1.09.16-.28-1.07c-2.47-9.15-9-14.62-17.51-14.62a20.28,20.28,0,0,0-9.68,2.52l-1.16.63-.57-1.19c-2.93-6.15-10.55-9.78-18.38-8.7l-1.35.18-.07-1.35c-.8-16.15-16.54-24.36-29.88-23.15l-1,.09-.32-.92c-4.86-13.73-17-18.63-26.81-18.63s-20.89,5.06-22.49,16.16l-.21,1.45-1.4-.44A27.16,27.16,0,0,0,326.88-123l-.76.37-.63-.58A28.66,28.66,0,0,0,305.84-131c-10.6,0-20.34,5.66-24.81,14.43-4.95,9.69-2.9,21.62,5.76,33.57l.59.81-.67.75c-5.74,6.47-6.25,16.23-1.28,24.88l.71,1.24-1.32.53c-9.48,3.89-15.15,14.92-13.19,25.65l.29,1.59-1.61-.12a25.73,25.73,0,0,0-21.91,9.87l-.83,1.09-1-.93A18.87,18.87,0,0,0,233.73-23a17.8,17.8,0,0,0-11.85,4.62l-.62.57-.75-.36a20.67,20.67,0,0,0-8.75-2c-9.16,0-16.43,7-18.66,11.9l-.38.84-.93-.12a25.07,25.07,0,0,0-3.24-.22c-9.73,0-16.85,5.86-17.4,11.32A9.78,9.78,0,0,0,174,11.09c3.91,4.33,10.9,6.92,18.68,6.92,7.42,0,15.42-2.3,23.14-6.65l1-.55.65.89c5.34,7.24,14.82,11.39,26,11.39a43.25,43.25,0,0,0,20.94-5.28l.76-.44.67.56c7.46,6.31,21,7.26,28.45,7.26,9.87,0,20.36-1.7,25.5-4.12Z"/><path class="cls-4" d="M521.32-113.26a32.26,32.26,0,0,0-18.69-.37,30.4,30.4,0,0,0-18.27,14.89A28.4,28.4,0,0,0,482-77.38a19.37,19.37,0,0,0-3,.16c-2.8-9.71-9.93-15.48-19.16-15.48a22.08,22.08,0,0,0-10,2.45c-3-5.73-9.6-9.39-16.94-9.39-.8,0-1.62,0-2.43.13-1.24-16.74-17.41-25.33-31.4-24.28-5.28-14.32-18.09-19.43-28.4-19.43-12.54,0-22.38,7-24.23,17a29,29,0,0,0-20,1.25,30.52,30.52,0,0,0-20.61-7.94c-11.3,0-21.69,6.07-26.48,15.46-5.23,10.24-3.22,22.7,5.63,35.12-5.85,6.91-6.44,17-1.52,26.06C273.8-51.88,268-40.65,269.66-29.56a27.53,27.53,0,0,0-22.34,10.11,20.52,20.52,0,0,0-13.59-5.4A19.71,19.71,0,0,0,220.92-20a22.41,22.41,0,0,0-9.16-2c-10.27,0-17.68,7.54-20.17,12.58a25.83,25.83,0,0,0-3-.18c-9.9,0-18.55,5.83-19.27,13a11.76,11.76,0,0,0,3.35,9c4.27,4.72,11.77,7.53,20.07,7.53,7.59,0,15.73-2.29,23.58-6.62C222,20.7,231.89,25,243.46,25A45.27,45.27,0,0,0,265,19.64c8,6.44,21.75,7.41,29.32,7.41,10.09,0,20.45-1.65,26-4.14,8.85,5.57,20.55,8.64,33,8.64,14.3,0,28-4,37.74-11,9.94,6,21.23,6.19,32,.36,7,4.58,15.88,7,25.62,7,11.64,0,23.79-3.52,32.63-9.44,5.15,4.68,16.64,7.56,30.22,7.56,17.49,0,33-4.63,41.62-12.4a36.13,36.13,0,0,0,19.75,1.25c8.72,8.45,25,14.32,39.79,14.32,10.91,0,20.45-3,27.6-8.81,7.34,3.19,16.25,2.74,25.52-1.37,7.9,6.17,16.62,9.42,25.24,9.42a30.33,30.33,0,0,0,19.2-6.56,28.74,28.74,0,0,0,20.31,7.77c8.29,0,16.52-3,22.13-8a42.21,42.21,0,0,0,20.43,5.75h0c10.7,0,18.85-5.22,19-12.14,0-2.55-1.25-5.29-3.61-7.69-4-4.06-10.26-6.49-16.71-6.49a26.86,26.86,0,0,0-10.27,2.06A27,27,0,0,0,743-3.95,27.51,27.51,0,0,0,730-.69a22.94,22.94,0,0,0-17.3-7.41,26.33,26.33,0,0,0-13.94,4A12.14,12.14,0,0,0,688-10.4a14.42,14.42,0,0,0-4.87.87,18.53,18.53,0,0,0-17.35-11.7A18.31,18.31,0,0,0,649.92-12a27.18,27.18,0,0,0-13.73-3.7,26.35,26.35,0,0,0-6.7.85C625.19-25.55,610-33.63,600.1-33a17.23,17.23,0,0,0-1.57-4.7c6.62-6,9.47-13.14,8.05-20.17C605.37-63.84,601.16-69,596-71c2.69-6.87,1.66-15-2.78-21.75s-11.67-11.2-18.85-11.43c-7-17.69-22.57-19.61-29-19.61C535.41-123.82,525.82-119.6,521.32-113.26ZM755.83,16a38.42,38.42,0,0,1-24.76,9.18c-7.09,0-13.22-2.14-17.78-6.19A30.28,30.28,0,0,0,717,14.3l2.52-4L716,13.52a35.24,35.24,0,0,1-24.25,9.68c-10.77,0-22.17-4.52-33.88-13.45l-4.62-3.52L657,10.65a61.83,61.83,0,0,0,4.8,5,35.58,35.58,0,0,1-11,1.86A27.54,27.54,0,0,1,629,7.05l-2-2.56.92,3.13a20.52,20.52,0,0,0,7.82,10.27c-6.1,4.21-14,6.44-23,6.44-14.33,0-27.69-5.36-35-10.89A30.77,30.77,0,0,0,593,1.31l2.53-4L592,.52a38.15,38.15,0,0,1-26,10.17c-8.33,0-20.8-2.71-32.84-15.65l-4-4.26,3,5a40.79,40.79,0,0,0,16.55,16c-8.28,5.84-23.41,9.58-39,9.58-11.27,0-20.51-2-25-5.45A28,28,0,0,0,491,8.79l2.7-4.54L490,8c-8.3,8.56-25.12,14.55-40.89,14.55-16.4,0-30-6.17-38.29-17.37L406.66-.35l3.06,6.22a38,38,0,0,0,9.41,12.2,31.92,31.92,0,0,1-12.41,2.56c-9.22,0-18.66-4.24-26.58-11.93l-4.77-4.63,3.82,5.44A40.76,40.76,0,0,0,387.26,18c-8,5.51-20.3,8.79-33.22,8.79-21.69,0-39.64-8.35-48-22.34l-4-6.75L304.92,5a36.59,36.59,0,0,0,11.31,15c-4.36,1.56-13.1,3-22.7,3-6.74,0-18.76-.75-25-5.7a22.33,22.33,0,0,0,6.59-7.47l3-5.82L274.08,9.2c-5.15,6.51-16.58,10.88-28.45,10.88-10.49,0-19.68-3.36-25.35-9.23a74.46,74.46,0,0,0,7.38-5.44l6.69-5.56L226.94,4.4c-12.24,7.52-23.44,11.33-33.26,11.33-7.28,0-13.56-2.24-17.22-6.15A8.06,8.06,0,0,1,173.9,4c.25-3.81,7.11-9.55,16.89-9.55,6.16,0,12.34,2.14,18.38,6.37l6.25,4.37L210-.16a33,33,0,0,0-14.12-8.48c2.23-3.74,8-9,15.7-9a18,18,0,0,1,6.27,1.16,14,14,0,0,0-2.43,9.22L215.85-3l.77-4.18c1.31-7.09,8.68-12.85,16.44-12.85a18.68,18.68,0,0,1,11.76,4.46A25.25,25.25,0,0,0,242.15-.36l.79,6.45.45-6.48c1.07-15.29,14.13-24.43,26.15-24.43,9,0,16.5,4.84,20.61,13.27l3.47,7.09L291.31-12c-2.74-9-8.8-15-17.09-16.91-1.41-10.12,3.57-20,11.73-23.42A40.87,40.87,0,0,0,301.85-40l5.7,2.63-5.07-3.7c-13.36-9.74-19.69-22.38-16.52-33,2.54-8.49,10.61-13.88,21.59-14.42l7.51-.37-7.47-.88c-7.93-.93-14.91.78-19.91,4.84-7.07-10.92-8.46-21.58-3.9-30.1,4.2-7.83,13.1-12.9,22.68-12.9a25.25,25.25,0,0,1,15.88,5.46c-6.09,4.47-9.77,11.56-10.65,20.55L311-94.33l2-7.37c3.45-12.91,12.88-20.62,25.25-20.62,11.31,0,22.41,6.52,27.6,16.22l3.13,5.86-2-6.34a29.57,29.57,0,0,0-17-18.39c1.86-8.07,10.37-13.66,20.91-13.66,8.65,0,19.35,4.1,23.79,15.54A22.9,22.9,0,0,0,383-116.54l-3.32,3.6,4.12-2.65a29.94,29.94,0,0,1,16.05-4.52c9,0,16.94,3.6,21.89,9.86,5.37,6.8,6.81,16.28,4.16,27.42l-1.51,6.36,2.69-6a38.31,38.31,0,0,0,3.46-12.8A16.38,16.38,0,0,1,446-87.78a23.74,23.74,0,0,0-7.66,10.84l-1.66,4.77,2.77-4.22C443.82-83,451.72-87.5,459.13-87.5c7,0,12.49,4,15.41,11.3C468.31-74,464-69.12,462.36-62.35l-1.44,6,2.61-5.54c3.07-6.51,10.25-10.56,18.74-10.56a22.29,22.29,0,0,1,15.88,6.14L500.5-64,499.16-67c-2.06-4.75-6.53-8.27-12.3-9.7-3.32-13.07,3.95-25.93,17.39-30.69a25.69,25.69,0,0,1,8.58-1.46A25.26,25.26,0,0,1,532-100.27c3.73,4.32,7.81,12.1,6,24.61l-1.67,11.44,2.89-11.2c4.15-16.08-.83-29.43-13.33-35.92a32.18,32.18,0,0,1,19.89-7,25.89,25.89,0,0,1,23.84,14.57,23.33,23.33,0,0,0-11.53,6.7l-3.69,3.72,4.46-2.75a18.36,18.36,0,0,1,9.76-2.7c10.15,0,20.35,7.39,23.23,16.83,1.58,5.18,2.14,15.3-11.9,24.73L573.54-53l7-3.22c5.94-2.73,10.41-6.35,13.3-10.77A15.56,15.56,0,0,1,601.59-56c.51,3.45-.11,8.69-5.86,14.27-3.94-4.31-9.94-6.77-16.57-6.77a30.3,30.3,0,0,0-8,1.11l-4,1.1,4.14.13c11.09.35,19.14,4,22.67,10.28,3.38,6,2.44,14-2.71,23.08l-2.49,4.4,3.48-3.66c5.1-5.35,7.9-11.19,8.12-16.92a8.72,8.72,0,0,1,1.17-.08c7.74,0,20.56,8.5,23.87,15.67A24.89,24.89,0,0,0,613.34-1.48L611,3.23l3.34-4a29.07,29.07,0,0,1,22.46-10.48A29.88,29.88,0,0,1,648.37-9a29.42,29.42,0,0,0-1.76,5.5L644.9,4.45l2.9-7.56c3.74-9.72,11.64-13.18,17.79-13.18a15.26,15.26,0,0,1,12.12,5.66c2.42,3.06,4.83,8.64,2.63,17.85L679,12.78l2.5-5.14A23.54,23.54,0,0,0,684.09-5.5a8.53,8.53,0,0,1,3.78-.87,7.93,7.93,0,0,1,7.49,4.92,24.28,24.28,0,0,0-4.83,6L688,9.13l3.57-3.84A28.48,28.48,0,0,1,712-3.61c5.71,0,16.24,2,22.63,15L736.93,16,735.83,11a26.39,26.39,0,0,0-3.38-8.36A19.31,19.31,0,0,1,742.17.2a26,26,0,0,1,15.2,4.94,35.84,35.84,0,0,0-4.28,3l-5.25,4.34,6-3.31a31.49,31.49,0,0,1,15.43-4.31c7.29,0,12.75,3,15.43,5.81a6.47,6.47,0,0,1,2.15,4.3c-.18,3.47-5.53,8.27-15.15,8.27a41,41,0,0,1-16.7-4,20.2,20.2,0,0,0,1.8-2.39l2.4-3.73Z"/><path class="cls-5" d="M50.46,28.43l.57.36A41.14,41.14,0,0,0,72.92,35a41.83,41.83,0,0,0,29-11.38l.7-.68.81.57c6.19,4.37,15.3,7.09,23.78,7.09,7,0,13.26-1.78,18.06-5.16l.66-.46.67.44c6.28,4.08,14.6,6.33,23.43,6.33a50,50,0,0,0,27.12-7.83l.58-.38.62.32A37.89,37.89,0,0,0,215.87,28a44.55,44.55,0,0,0,20.42-5l.7-.38.61.52c5.34,4.5,14.83,7.3,24.77,7.3,9.68,0,18.32-2.55,24.32-7.19l.64-.49.7.41c7,4.22,15.92,6.45,25.82,6.45a71.26,71.26,0,0,0,28.31-5.9l.49-.22.48.22a18,18,0,0,0,7.41,1.48,19.67,19.67,0,0,0,6.31-1l.54-.21.5.31c7.31,4.55,17.14,4.27,27-1l.47-.25.5.18a39,39,0,0,0,13.27,2.46h0c6.9,0,13-2.19,16.31-5.85A7.64,7.64,0,0,0,417.66,14c-.48-4.82-7.22-8.74-15-8.74a25.78,25.78,0,0,0-12.51,3.33L389.3,9l-.63-.71c-4.91-5.52-13.57-8.76-22-8.2l-1.15.08L365.38-1c-.7-7.58-4.64-13.3-10.82-15.68l-.85-.32.1-.91a24.55,24.55,0,0,0-6.27-18.4c-3.74-4.17-8.49-6.47-13.39-6.47a18.81,18.81,0,0,0-9.22,2.59l-1.54.86L323.18-41c-1.25-10.18-10.41-19.11-19.59-19.11a13.54,13.54,0,0,0-2.71.28l-.82.17-.43-.71c-2.8-4.57-6.68-8-10.63-9.38l-.74-.27-.05-.79c-.45-8.34-7.78-16.64-16.69-18.88l-.7-.18-.16-.7c-2.1-9-12.51-17.24-21.83-17.24a13.79,13.79,0,0,0-2.26.18l-.83.14-.41-.75c-4.08-7.55-12.71-12.07-23.09-12.07a36.62,36.62,0,0,0-9.41,1.24c-12.34,3.31-23.32,17.77-19.54,35.37l.26,1.22-1.22.2C180-80.27,177.82-72.9,177.6-68.69l-.07,1.34-1.32-.23a29.18,29.18,0,0,0-5.09-.45,27.37,27.37,0,0,0-25.07,15.92,22.63,22.63,0,0,0-1.55,4.78l-.26,1.26L143-46.43a19.29,19.29,0,0,0-5.47-.78,22.74,22.74,0,0,0-22.17,22l-.08,2.07-1.74-1.11a21.07,21.07,0,0,0-11.37-3.33c-9.75,0-21.13,6.81-24.58,22L77.3-4.27l-1.24-.42C68.31-7.26,59.9-3.16,55.61,4.94L54.9,6.29l-1.13-1c-4.64-4.19-11.35-6.5-18.9-6.5C21.73-1.23,6.92,6,6.67,16.42,6.59,19.69,8.12,23.09,11,26c4.65,4.76,12.17,7.6,20.12,7.6a40.52,40.52,0,0,0,18.78-4.87Z"/><path class="cls-6" d="M102.76,25.24c6.55,4.47,15.63,7.14,24.41,7.14,7.23,0,13.71-1.82,18.75-5.26,6.53,4.13,15.06,6.4,24.07,6.4A51.91,51.91,0,0,0,197.8,25.6a39.8,39.8,0,0,0,18.06,4.15,46.4,46.4,0,0,0,20.91-5c5.69,4.61,15.45,7.47,25.6,7.47,9.9,0,18.79-2.6,25.08-7.32,7.22,4.25,16.34,6.5,26.4,6.5a72.93,72.93,0,0,0,28.79-6,19.81,19.81,0,0,0,7.9,1.54,21.56,21.56,0,0,0,6.65-1,23.92,23.92,0,0,0,12.41,3.36A34.06,34.06,0,0,0,385.49,25a40.71,40.71,0,0,0,13.63,2.47h0c7.38,0,14-2.4,17.61-6.43a9.31,9.31,0,0,0,2.69-7.24c-.58-5.8-7.95-10.35-16.79-10.35a27.42,27.42,0,0,0-13,3.34c-5.2-5.58-14-8.89-22.59-8.47-.89-7.83-5-13.78-11.47-16.44a26.48,26.48,0,0,0-6.76-19.32c-4.08-4.56-9.3-7.07-14.7-7.07a20.23,20.23,0,0,0-9.34,2.41c-1.75-10.65-11.47-19.81-21.23-19.81a15.69,15.69,0,0,0-2.67.23c-2.9-4.6-6.86-8.08-11-9.64-.69-8.84-8.33-17.52-17.66-20-2.45-9.59-13.53-18.26-23.47-18.26a15.08,15.08,0,0,0-2.14.15c-4.47-7.92-13.57-12.64-24.45-12.64a38,38,0,0,0-9.87,1.3c-13,3.47-24.56,18.51-20.94,36.86-9.25,1.72-14.88,7-15.56,14.53a30.53,30.53,0,0,0-4.76-.37,29.17,29.17,0,0,0-26.69,17,25.25,25.25,0,0,0-1.53,4.54,21,21,0,0,0-5.37-.69,24.53,24.53,0,0,0-23.88,22.75,22.85,22.85,0,0,0-11.47-3.08c-10.32,0-22.33,7-26.17,22.75a17.11,17.11,0,0,0-4.78-.69c-6.67,0-13,4.09-16.82,10.72C49.46-.71,42.56-3,34.87-3c-14,0-29.7,8-30,19.39C4.8,20.13,6.51,24,9.69,27.25c5.05,5.17,12.84,8.13,21.39,8.13a42.15,42.15,0,0,0,19.3-4.91,42.91,42.91,0,0,0,22.54,6.31A43.7,43.7,0,0,0,102.76,25.24ZM383.3,12.92C390.26,8,396.53,7,400.56,7c8.36,0,13.76,4.12,13.95,7.08a6.35,6.35,0,0,1-2,4.45c-1.46,1.55-5.8,5.15-14.71,5.15A43.3,43.3,0,0,1,384,21.21l-.23-.08-.22.1a32.35,32.35,0,0,1-14,3.44A26.88,26.88,0,0,1,350,16.07l-2.08-2.3,1.09,2.9a17.57,17.57,0,0,0,4.18,6.16c-.66.06-1.36.1-2.06.1A21.69,21.69,0,0,1,335,16l-2.35-2.58L334,16.58a17.11,17.11,0,0,0,4.39,6.18,80.19,80.19,0,0,1-24.52,3.94c-11.76,0-28.12-2.88-39.2-16.61l-4.16-5.16,3.18,5.81A36.41,36.41,0,0,0,284.1,22.66c-5,3.31-12.58,5.2-21.09,5.2-8.75,0-17-2-22.41-5.41A25.92,25.92,0,0,0,249,13.82l1.9-3.46-2.83,2.75c-7.37,7.16-19.85,11.78-31.8,11.79A43.41,43.41,0,0,1,182.44,9.19l-4.27-5,3.31,5.67a40.56,40.56,0,0,0,12.29,13.35,51.15,51.15,0,0,1-23.64,5.7c-14.64,0-27.55-6.1-34.54-16.3l-2.31-3.39,1.26,3.9a24.89,24.89,0,0,0,7.76,11.33c-4.63,2.7-10.65,3.28-15,3.28-8.32,0-17.15-2.17-21.82-5.33a35.74,35.74,0,0,0,6.23-10.18L113.41,8l-2.71,3.67c-9.67,13.06-23,20.25-37.52,20.25a43.92,43.92,0,0,1-22.61-6.38l-.27-.16-.29.14a42.48,42.48,0,0,1-18.56,4.77c-7,0-13.28-2.37-17.36-6.51-2.22-2.25-3.53-4.87-3.49-7,.1-6.75,11.86-15,25.46-15C46.8,1.77,55.73,7,61.19,16.56l2.33,4.06-1.24-4.51a25.86,25.86,0,0,0-5.1-9.87C60.37.66,65.87-2.92,71.31-2.92a13,13,0,0,1,3.9.61,49.92,49.92,0,0,0,.57,15.66l1.53,8.11L77,13.21C76.29-2.47,81.5-11.33,86-16a23.66,23.66,0,0,1,17.14-7.51c9.62,0,18.17,6,22.31,15.71L129,.57l-2.47-8.78c-1.89-6.72-5.29-12.21-9.83-15.91,1.46-12.66,12.1-20.48,21.21-20.48a16.21,16.21,0,0,1,4.36.59,22.1,22.1,0,0,0,7.24,18l4.65,4.12-3.79-4.92c-5.43-7-5-17.44-1.78-23.64a26.37,26.37,0,0,1,23.72-14.72,29.06,29.06,0,0,1,3.72.25,18.58,18.58,0,0,0,4.34,9.35l2.11,2.26-1.12-2.88c-2.41-6.23-2.58-11.43-.5-15.44,1.93-3.74,5.87-6.42,11.69-8a46.33,46.33,0,0,0,7.53,13.92l5,6.47-4-7.12c-6.32-11.25-7.36-23.84-2.87-34.54,3.27-7.78,9-13.28,15.72-15.09a33.37,33.37,0,0,1,8.76-1.17c7.78,0,14.58,2.71,19.15,7.62,4.73,5.09,6.88,12.46,6.23,21.31l-.81,11,2-10.81c1.23-6.72.93-12.69-.88-17.76a6.91,6.91,0,0,1,.8,0c6.86,0,15.93,7.56,18.62,13.82A16.66,16.66,0,0,0,254-85.74l-4.27,5.21,5.12-4.38A13.83,13.83,0,0,1,264.05-88c8.95,0,18.12,6.24,20.86,14.2,2.58,7.51-.86,15.44-9.7,22.33L269.44-47l6.42-3.52c10.05-5.51,13.16-12,13.93-16.76a18.77,18.77,0,0,1,7,7,17,17,0,0,0-5.22,4.34l-4.27,5.21,5.12-4.39A12.17,12.17,0,0,1,300.5-58c5.18,0,10.9,2.8,14.93,7.3a19.36,19.36,0,0,1,5.2,15.11l-.13,1.2,1-.63a23.42,23.42,0,0,1,12.13-3.89c10.66,0,17.45,10,18.65,19.75a20.83,20.83,0,0,0-9.75.35l-3.85,1.05,4,.12c12.88.38,19.22,5.43,20.48,16.37a23.73,23.73,0,0,0-14.39,8.18l-3.14,3.85,4-3c4.3-3.26,10.39-5.06,17.16-5.06a35.49,35.49,0,0,1,20,5.85A31.09,31.09,0,0,0,382.54,12l-5.17,5Z"/><path class="cls-7" d="M267.56,37.54l-.71.58c-6.69,5.54-17.87,8.71-30.68,8.71-11.36,0-22.3-2.57-30-7.06l-.72-.42-.65.52c-4.45,3.51-12.67,5.6-22,5.6-12.48,0-24.68-3.65-31.82-9.53l-.62-.5-.71.35a19.77,19.77,0,0,1-8.84,2.12c-4.67,0-11.43-1.74-17.14-10L123,27l-1,.62a43.86,43.86,0,0,1-22.25,6.27c-6,0-11.28-1.46-15.32-4.21l-.74-.5-.71.54c-7.71,6-17.56,5.57-28.38-1.25L54,28.05l-.61.31a39.05,39.05,0,0,1-17,4.23h0c-6.31,0-11.92-2-15-5.27a7.28,7.28,0,0,1-2.23-5.44c.32-4.91,7-10.38,15.41-10.38a21.3,21.3,0,0,1,10.53,2.86l.82.46.66-.68A19.15,19.15,0,0,1,60.39,8.28a14.86,14.86,0,0,1,6.93,1.56l.83.45.64-.68A22.82,22.82,0,0,1,85,2.77,20.06,20.06,0,0,1,93.4,4.58l.9.41.59-.79c4.46-6,12.38-9.41,21.75-9.41,5.85,0,11.48,1.43,15.07,3.83l.65.44.67-.41c5.1-3.13,12.6-5,20-5a37,37,0,0,1,17.81,4.19l1.22.68.51-1.31a17.94,17.94,0,0,1,16-11.23L190-14l.24-1A18.21,18.21,0,0,1,201.3-27.48l.91-.33-.11-1a14.25,14.25,0,0,1,3.56-11.46c3.66-4.13,9.56-6.59,15.79-6.59A19.58,19.58,0,0,1,239.12-36.7l.35.64h.72a21.79,21.79,0,0,1,15.95,6.67l.71.76.86-.57a19.21,19.21,0,0,1,10.51-3.11c9.18,0,17.09,6.15,18.41,14.32l.2,1.28L288.1-17a19.61,19.61,0,0,1,4.12-.44,17.19,17.19,0,0,1,15.85,9.72l.5,1,1-.39c6.64-2.54,13.22-1.58,17.57,2.56l.95.91.83-1a13.63,13.63,0,0,1,10.38-4.45,13.7,13.7,0,0,1,7,1.85l.82.49.67-.68c3.31-3.32,8.33-5.16,14.12-5.16,9.82,0,19.73,5.12,23.05,11.89l.44.9,1-.25a20.26,20.26,0,0,1,5-.64A17.47,17.47,0,0,1,404.74,5l.72.83.91-.63A22.5,22.5,0,0,1,419,1.4a18.84,18.84,0,0,1,11,3.3l.86.61.73-.75c3.82-3.94,10.37-6.19,18-6.19,10.75,0,20.33,4.28,23.3,10.4l.55,1.13,1.11-.57a19.56,19.56,0,0,1,8.74-2.12,15.38,15.38,0,0,1,10.44,3.87l.58.53.72-.32A39.59,39.59,0,0,1,510.7,8a35.51,35.51,0,0,1,16.12,3.79l.57.29.57-.29a25.8,25.8,0,0,1,12.15-3.13c10,0,17.15,6.07,17.51,11.74a11.44,11.44,0,0,1-3.44,8.46c-3.78,4-9.81,6.33-16.55,6.33s-14.17-2.32-21.41-6.72l-.27-.16-.32,0a30,30,0,0,1-16.52-5.71l-.94-.7-.75.9a23.5,23.5,0,0,1-18.69,8.57,30.51,30.51,0,0,1-17.5-5.6l-.73-.54-.72.55a23.79,23.79,0,0,1-14.22,4.94,22.92,22.92,0,0,1-12-3.44l-.68-.42-.66.45c-6.48,4.47-15.67,7-25.23,7a46.25,46.25,0,0,1-21.34-4.86l-.67-.36-.62.44c-5.06,3.59-11.89,5.56-19.25,5.56a30.76,30.76,0,0,1-13.38-2.75L351,32l-.61.48A31.35,31.35,0,0,1,331,38.89a28.68,28.68,0,0,1-16.18-4.68l-.8-.56-.72.67c-5.65,5.2-16,8.57-26.37,8.57-7.36,0-14-1.72-18.62-4.84Z"/><path class="cls-8" d="M555.52,30.09a13.25,13.25,0,0,0,3.94-9.83c-.42-6.5-8.3-13.45-19.35-13.45A27.74,27.74,0,0,0,527.38,10,37.62,37.62,0,0,0,510.7,6.14a41.15,41.15,0,0,0-16,3.32,17.21,17.21,0,0,0-11.37-4.09,21.38,21.38,0,0,0-9,2.05C470.72,1,460.71-3.47,449.59-3.47c-7.87,0-14.73,2.32-18.93,6.38A20.73,20.73,0,0,0,419-.44a24.58,24.58,0,0,0-13.25,3.86,19.42,19.42,0,0,0-14.34-6,22.1,22.1,0,0,0-5,.57c-3.85-7.25-14-12.47-24.47-12.47-6.09,0-11.43,1.9-15.08,5.36A15.7,15.7,0,0,0,339.33-11,15.46,15.46,0,0,0,328-6.32c-4.72-4.17-11.59-5.18-18.5-2.71a19,19,0,0,0-17.24-10.24,21.09,21.09,0,0,0-3.89.36c-1.75-8.73-10.27-15.25-20.1-15.25A21,21,0,0,0,257.14-31a23.76,23.76,0,0,0-16.59-6.89,21.37,21.37,0,0,0-19.1-10.77c-6.74,0-13.16,2.7-17.16,7.22A16,16,0,0,0,200.22-29a20.2,20.2,0,0,0-11.66,13.19,19.88,19.88,0,0,0-17.4,11.77,39,39,0,0,0-18.09-4.1c-7.61,0-15.3,1.89-20.67,5.06C128.52-5.59,122.66-7,116.64-7,106.89-7,98.57-3.5,93.71,2.71A21.87,21.87,0,0,0,85,.94,24.82,24.82,0,0,0,67.77,8a17.11,17.11,0,0,0-7.38-1.57,21.06,21.06,0,0,0-14.77,6.09,23,23,0,0,0-11-2.87c-9.7,0-16.87,6.38-17.24,12.09a9,9,0,0,0,2.72,6.83c3.43,3.66,9.54,5.85,16.36,5.85a40.84,40.84,0,0,0,17.48-4.27c11.23,7,21.65,7.34,29.85,1.23a29,29,0,0,0,16,4.28,45.85,45.85,0,0,0,22.73-6.24c6.09,8.51,13.3,10.31,18.31,10.31a21.64,21.64,0,0,0,9.31-2.13c7.59,6.08,19.77,9.7,32.68,9.7,9.64,0,17.91-2.09,22.79-5.74,8,4.51,19.08,7.1,30.58,7.1,13,0,24.45-3.22,31.5-8.85,4.92,3.17,11.74,4.91,19.26,4.91,10.6,0,21.21-3.42,27.25-8.74A30.71,30.71,0,0,0,331,40.73a33.29,33.29,0,0,0,20.22-6.59,32.56,32.56,0,0,0,13.87,2.78c7.59,0,14.68-2,20-5.69A48.29,48.29,0,0,0,407,36.14c9.76,0,19.19-2.6,25.94-7.13a24.75,24.75,0,0,0,12.65,3.51,25.45,25.45,0,0,0,14.95-5,32.54,32.54,0,0,0,18.22,5.69,25.36,25.36,0,0,0,19.74-8.79,32.29,32.29,0,0,0,16.93,5.73C523,34.69,530.46,37,537.63,37S551.4,34.49,555.52,30.09Zm-41.38-9.67,6.27-4.07c5.76-3.73,11.6-5.62,17.36-5.62,10.12,0,17,6,17.13,10a8.92,8.92,0,0,1-2.86,6c-2,2-6.57,5.45-15.13,5.45-6.75,0-14.37-2.13-22.65-6.34l-.28-.06c-7.15-.05-16.87-6.67-21.49-11.35L491,12.93l.42,2a13.87,13.87,0,0,0,3.59,6.42A24.35,24.35,0,0,1,477.6,28.5c-10.17,0-19.33-5.54-23.13-11L452.75,15l.62,3a14.21,14.21,0,0,0,4,6.84,19.26,19.26,0,0,1-11.16,3.52,22.76,22.76,0,0,1-9.58-2.21,27,27,0,0,0,3.23-3.52l2.7-3.59L439,21.72c-7.28,5.59-19.53,8.93-32.76,8.93-13.07,0-24.14-3.24-30.37-8.89L372,18.3l2.89,4.25A25.39,25.39,0,0,0,381.33,29c-4,2.33-10.37,3.75-16.83,3.75a27.74,27.74,0,0,1-9.95-1.54,26.65,26.65,0,0,0,5.55-8.74l1.61-4.09-2.66,3.5a34.71,34.71,0,0,1-27.76,14,33.94,33.94,0,0,1-24.2-9.92l-2.36-2.41,1.37,3.09a21.26,21.26,0,0,0,4.84,6.83c-5.13,4.48-13.86,7.13-23.54,7.13-6.54,0-12.59-1.27-16.76-3.5a18.73,18.73,0,0,0,3.51-5.64l1.61-4.1-2.66,3.5c-6,7.84-19.18,12.33-36.28,12.33s-33.76-4.75-40.42-11.56l-3.81-3.88,2.84,4.63a24.85,24.85,0,0,0,6.45,6.85c-3.66,2.33-9.36,3.55-16.58,3.55-11.4,0-24.69-3.12-31.51-7.33a14.33,14.33,0,0,0,4.75-5.9l1.17-3-2.19,2.34a21.23,21.23,0,0,1-14.88,6.27c-6,0-11.65-2.88-16.34-8.34a16.09,16.09,0,0,0,5.29-7l1.25-3.73-2.32,3.17C126.35,25,114,31.1,101.18,31.1A28.27,28.27,0,0,1,87.52,28a29,29,0,0,0,5.88-9.89l1-3-2.92,3.49C87.63,23.18,81.17,31,70.66,31a28.8,28.8,0,0,1-12.4-3.17A62,62,0,0,0,67.4,21l4.87-4.36L66.67,20c-13,7.82-23.2,9.47-29.51,9.47s-11.67-1.65-14.35-4.4a4.21,4.21,0,0,1-1.39-2.95c.1-3.45,5.89-8.48,14.74-8.48a31.13,31.13,0,0,1,14.56,4L55,19.93l-3.61-3.28c-.7-.63-1.42-1.23-2.19-1.81,2.88-3.06,7.77-4.43,11.5-4.43a11.08,11.08,0,0,1,4.49.82A13.92,13.92,0,0,0,63,18.64l0,2.46,1.13-2.18c4.14-8,13.47-13.55,22.69-13.55a22.48,22.48,0,0,1,16.33,7l4.63,4.74-3.69-5.5a25.3,25.3,0,0,0-6.66-6.88c4.73-5.45,14.15-7.4,20.93-7.4A24.08,24.08,0,0,1,129-.61c-2.57,2.32-3.91,5-3.91,7.66V9.94l1.17-2.65c2.57-5.81,15.68-10.53,29.23-10.53,9.84,0,18.11,2.4,23.28,6.77l5.05,4.26-4.18-5.11a25.41,25.41,0,0,0-4.85-4.56c1.45-5.36,8.31-9.89,13.21-10a16.9,16.9,0,0,0,1.18,7.05l1.28,3.19L190.31-5c-.15-5.51,2.3-11.28,6.73-15.83,4.69-4.83,10.86-7.3,15.8-6.27l3.81.79-3.39-1.92a14.21,14.21,0,0,0-8.69-1.81,12.27,12.27,0,0,1,3.09-9.25c3-3.38,8.1-5.39,13.55-5.39a19,19,0,0,1,15.3,7.1c-6.08.91-10.9,4-13,8.44l-1.42,3,2.39-2.26c3.36-3.16,8.53-5,14.19-5,8.42,0,19.67,4.28,23.66,16.33l2.07,6.27-.88-6.54a24.77,24.77,0,0,0-3.59-10.12,17.38,17.38,0,0,1,8.65-2.28c7.81,0,14.61,4.94,16.39,11.83a13.71,13.71,0,0,0-7.76,6.51l-1,2.09,1.9-1.32a23.67,23.67,0,0,1,13.17-3.94c9.46,0,16.69,5.45,19.83,15l2.09,6.3-.9-6.58a29.5,29.5,0,0,0-1.15-5.11c5.45-2,10.57-1.34,14.77,2A10.6,10.6,0,0,0,325,.58L324.88,3l1.27-2.1c2.44-4,8.45-6.8,14.62-6.8,5,0,9,1.77,11.39,5l2.32,3.13-1.25-3.69a13.79,13.79,0,0,0-2.85-4.86c2.81-2.39,7-3.71,11.86-3.71,8.45,0,17.21,3.89,20.8,9.15A16.4,16.4,0,0,0,374.51,7l-1.42,3,2.39-2.25a21.83,21.83,0,0,1,14.9-5.48c8.62,0,16,4.33,18.91,11l2.37,5.52-1.2-5.88a20.84,20.84,0,0,0-2.3-6.15A27.08,27.08,0,0,1,420,4c6.51,0,12.24,2.33,15.72,6.39l3.53,4.11-2.52-4.79a19.15,19.15,0,0,0-2.71-3.9C437.44,2.78,443.18,1,450,1c9.57,0,18.16,3.36,21.22,8.21-2.38,1.75-3.89,3.81-4.27,5.85l-.47,2.54L468,15.58c2.4-3.16,8.46-5.36,14.72-5.36a22,22,0,0,1,15.67,6L501.2,19l-1.84-3.5a20.29,20.29,0,0,0-1.68-2.7,30.06,30.06,0,0,1,12.44-2.59,36.18,36.18,0,0,1,13,2.46,39.4,39.4,0,0,0-3.41,2.75Z"/></g><path class="cls-9" d="M491.45,43.94l-.7.58c-6.69,5.54-17.87,8.71-30.68,8.71-11.36,0-22.3-2.57-30-7.06l-.71-.42-.66.52c-4.44,3.51-12.66,5.6-22,5.6-12.48,0-24.68-3.65-31.82-9.53l-.62-.5-.71.35a19.9,19.9,0,0,1-8.84,2.12c-4.67,0-11.43-1.74-17.14-10l-.66-1-1,.62a43.85,43.85,0,0,1-22.25,6.26c-6,0-11.29-1.45-15.33-4.2l-.73-.5-.71.54c-7.71,6-17.57,5.57-28.38-1.25l-.58-.37-.61.31a39.23,39.23,0,0,1-17,4.23h0c-6.31,0-11.92-2-15-5.27a7.26,7.26,0,0,1-2.23-5.45c.31-4.9,7-10.37,15.41-10.37A21.24,21.24,0,0,1,269,20.76l.83.46.66-.68a19.15,19.15,0,0,1,13.77-5.87,14.79,14.79,0,0,1,6.92,1.57l.83.45.65-.68a22.82,22.82,0,0,1,16.19-6.84A20.1,20.1,0,0,1,317.3,11l.9.41.59-.8c4.45-6,12.38-9.4,21.75-9.4C346.38,1.19,352,2.62,355.6,5l.65.44.67-.41c5.11-3.13,12.6-5,20.05-5a36.85,36.85,0,0,1,17.81,4.19l1.22.68.51-1.31a17.94,17.94,0,0,1,16-11.23l1.37,0,.23-1A18.25,18.25,0,0,1,425.2-21.08l.91-.34-.12-1a14.29,14.29,0,0,1,3.57-11.46c3.66-4.13,9.56-6.59,15.78-6.59A19.6,19.6,0,0,1,463-30.3l.35.63h.72A21.79,21.79,0,0,1,480-23l.7.76.87-.57a19.19,19.19,0,0,1,10.51-3.12c9.18,0,17.09,6.16,18.4,14.33l.21,1.28,1.27-.28a19.61,19.61,0,0,1,4.12-.44A17.21,17.21,0,0,1,532-1.32l.5,1,1-.39c6.64-2.54,13.21-1.58,17.56,2.56l1,.91.83-1a14.3,14.3,0,0,1,17.4-2.6l.81.49.68-.68c3.31-3.32,8.32-5.16,14.12-5.16,9.82,0,19.72,5.12,23,11.89l.44.9,1-.25a20.14,20.14,0,0,1,5-.64,17.49,17.49,0,0,1,13.31,5.75l.72.84.91-.63A22.5,22.5,0,0,1,642.91,7.8a18.88,18.88,0,0,1,11,3.3l.85.61.74-.75c3.82-3.94,10.37-6.19,18-6.19,10.74,0,20.33,4.28,23.3,10.4l.55,1.13,1.11-.57a19.53,19.53,0,0,1,8.74-2.13,15.34,15.34,0,0,1,10.43,3.88l.59.52.72-.31a39.42,39.42,0,0,1,15.67-3.31,35.66,35.66,0,0,1,16.12,3.78l.57.3.56-.3A26,26,0,0,1,764,15c10,0,17.15,6.07,17.52,11.74a11.48,11.48,0,0,1-3.44,8.45c-3.78,4-9.81,6.34-16.55,6.34s-14.17-2.32-21.42-6.72l-.26-.16-.32,0A30.2,30.2,0,0,1,723,29l-.93-.7-.75.9a23.52,23.52,0,0,1-18.7,8.57,30.5,30.5,0,0,1-17.49-5.6l-.73-.54-.73.55a23.74,23.74,0,0,1-14.22,4.94,22.91,22.91,0,0,1-12-3.44l-.68-.42-.66.45c-6.48,4.47-15.67,7-25.23,7a46.2,46.2,0,0,1-21.35-4.87l-.66-.35-.62.44c-5.06,3.59-11.89,5.56-19.25,5.56a30.84,30.84,0,0,1-13.39-2.75l-.7-.35-.61.48a31.35,31.35,0,0,1-19.39,6.43,28.68,28.68,0,0,1-16.18-4.68l-.8-.56-.73.67c-5.64,5.2-16,8.57-26.36,8.57-7.36,0-14-1.72-18.62-4.84Z"/><path class="cls-10" d="M779.42,36.49a13.24,13.24,0,0,0,3.93-9.83c-.41-6.5-8.29-13.45-19.35-13.45a27.73,27.73,0,0,0-12.72,3.18,37.49,37.49,0,0,0-16.68-3.85,41.41,41.41,0,0,0-16.05,3.31,17.22,17.22,0,0,0-11.36-4.08,21.39,21.39,0,0,0-9,2.05C694.61,7.38,684.6,2.93,673.49,2.93c-7.87,0-14.73,2.32-18.93,6.38A20.75,20.75,0,0,0,642.92,6a24.58,24.58,0,0,0-13.25,3.86,19.43,19.43,0,0,0-14.34-6,22,22,0,0,0-5,.58C606.48-2.84,596.29-8,585.86-8c-6.09,0-11.43,1.9-15.08,5.36a15.73,15.73,0,0,0-7.55-1.87A15.46,15.46,0,0,0,551.85.08c-4.71-4.17-11.58-5.18-18.5-2.71a18.94,18.94,0,0,0-17.23-10.24,21.09,21.09,0,0,0-3.89.36c-1.75-8.74-10.28-15.25-20.11-15.25A21,21,0,0,0,481-24.61a23.72,23.72,0,0,0-16.59-6.89,21.38,21.38,0,0,0-19.11-10.77c-6.74,0-13.15,2.69-17.16,7.22a16,16,0,0,0-4.06,12.41A20.2,20.2,0,0,0,412.46-9.45a19.88,19.88,0,0,0-17.4,11.77A39,39,0,0,0,377-1.78c-7.61,0-15.3,1.88-20.67,5.06C352.42.81,346.56-.65,340.54-.65c-9.75,0-18.07,3.55-22.93,9.76a21.88,21.88,0,0,0-8.73-1.78,24.83,24.83,0,0,0-17.21,7.08,17.11,17.11,0,0,0-7.38-1.57,21,21,0,0,0-14.77,6.09,22.93,22.93,0,0,0-11-2.87c-9.7,0-16.87,6.37-17.24,12.09A9,9,0,0,0,244,35c3.43,3.66,9.54,5.85,16.35,5.85a40.85,40.85,0,0,0,17.49-4.27c11.22,7,21.65,7.34,29.85,1.23a29.13,29.13,0,0,0,16,4.28,46,46,0,0,0,22.73-6.24c6.09,8.51,13.3,10.31,18.31,10.31A21.67,21.67,0,0,0,374,44c7.59,6.08,19.77,9.7,32.68,9.7,9.64,0,17.91-2.09,22.79-5.74,8,4.51,19.07,7.1,30.58,7.1,13,0,24.45-3.22,31.5-8.85,4.92,3.17,11.74,4.91,19.26,4.91,10.59,0,21.21-3.42,27.25-8.74a30.68,30.68,0,0,0,16.82,4.74,33.29,33.29,0,0,0,20.22-6.59A32.56,32.56,0,0,0,589,43.32c7.59,0,14.67-2,20-5.69a48.26,48.26,0,0,0,21.88,4.91c9.76,0,19.19-2.6,25.94-7.13a24.74,24.74,0,0,0,12.64,3.51,25.52,25.52,0,0,0,15-5,32.51,32.51,0,0,0,18.22,5.69,25.37,25.37,0,0,0,19.74-8.79,32.18,32.18,0,0,0,16.92,5.72c7.6,4.58,15.07,6.91,22.24,6.91S775.3,40.89,779.42,36.49ZM738,26.82l6.28-4.07c5.76-3.73,11.6-5.62,17.35-5.62,10.13,0,17,6,17.14,10a9,9,0,0,1-2.86,6c-2,2-6.57,5.45-15.14,5.45-6.74,0-14.36-2.13-22.65-6.34l-.27-.06c-7.15-.06-16.87-6.67-21.49-11.35l-1.45-1.47.42,2A13.78,13.78,0,0,0,719,27.78,24.37,24.37,0,0,1,701.5,34.9c-10.17,0-19.33-5.54-23.13-11l-1.72-2.5.62,3a14.21,14.21,0,0,0,4,6.84,19.36,19.36,0,0,1-11.16,3.52,22.71,22.71,0,0,1-9.58-2.21A26.19,26.19,0,0,0,663.72,29l2.7-3.59-3.56,2.73c-7.28,5.59-19.53,8.93-32.76,8.93-13.07,0-24.14-3.24-30.37-8.89l-3.81-3.46L598.81,29a25.39,25.39,0,0,0,6.42,6.41c-4,2.33-10.38,3.75-16.83,3.75a27.74,27.74,0,0,1-9.95-1.54A26.92,26.92,0,0,0,584,28.83l1.61-4.1-2.67,3.51a34.67,34.67,0,0,1-27.75,14A33.92,33.92,0,0,1,531,32.29l-2.36-2.41L530,33a21.29,21.29,0,0,0,4.85,6.83c-5.14,4.47-13.87,7.13-23.54,7.13-6.54,0-12.59-1.27-16.77-3.5a18.57,18.57,0,0,0,3.52-5.64l1.61-4.1L497,37.19C491,45,477.81,49.52,460.71,49.52S427,44.76,420.29,38l-3.8-3.88,2.84,4.63a25,25,0,0,0,6.44,6.85c-3.65,2.33-9.35,3.55-16.57,3.55-11.4,0-24.7-3.12-31.51-7.33a14.41,14.41,0,0,0,4.75-5.9l1.16-3-2.18,2.33a21.21,21.21,0,0,1-14.88,6.28c-6,0-11.65-2.88-16.35-8.34a16.12,16.12,0,0,0,5.3-7l1.25-3.73-2.33,3.17c-4.16,5.71-16.56,11.86-29.33,11.86a28.27,28.27,0,0,1-13.66-3.14,29.1,29.1,0,0,0,5.88-9.89l1-3-2.92,3.48c-3.86,4.66-10.31,12.45-20.82,12.45a28.8,28.8,0,0,1-12.4-3.17,62,62,0,0,0,9.14-6.8L296.17,23l-5.6,3.38c-13,7.82-23.2,9.47-29.51,9.47s-11.67-1.65-14.35-4.41a4.24,4.24,0,0,1-1.4-2.94c.11-3.46,5.9-8.48,14.75-8.48a31.13,31.13,0,0,1,14.56,4l4.31,2.27-3.61-3.27c-.7-.63-1.42-1.23-2.19-1.82,2.88-3.05,7.77-4.42,11.5-4.42a11.08,11.08,0,0,1,4.49.82,13.74,13.74,0,0,0-2.2,7.41l0,2.46,1.13-2.18c4.14-8,13.47-13.56,22.69-13.56a22.49,22.49,0,0,1,16.33,7l4.63,4.74L328,18.05a25.38,25.38,0,0,0-6.67-6.89c4.74-5.44,14.15-7.39,20.94-7.39a24.12,24.12,0,0,1,10.55,2c-2.57,2.32-3.92,5-3.91,7.66v2.88l1.17-2.64c2.57-5.81,15.68-10.53,29.23-10.53,9.84,0,18.11,2.4,23.28,6.77l5,4.26-4.17-5.12a25.68,25.68,0,0,0-4.85-4.55c1.45-5.36,8.31-9.89,13.21-10A16.9,16.9,0,0,0,413,1.6l1.28,3.19-.1-3.43c-.16-5.51,2.3-11.28,6.73-15.84,4.69-4.82,10.85-7.29,15.8-6.26l3.81.79-3.39-1.92a14.23,14.23,0,0,0-8.7-1.81,12.32,12.32,0,0,1,3.1-9.25c3-3.38,8.1-5.4,13.54-5.4a19,19,0,0,1,15.3,7.1c-6.07.91-10.89,4-13,8.45l-1.42,3,2.39-2.26c3.35-3.16,8.53-5,14.19-5,8.42,0,19.67,4.28,23.65,16.33l2.07,6.27L487.39-11a24.76,24.76,0,0,0-3.58-10.12,17.36,17.36,0,0,1,8.65-2.28c7.81,0,14.61,4.94,16.39,11.83A13.68,13.68,0,0,0,501.09-5l-1,2.09L502-4.28a23.67,23.67,0,0,1,13.17-3.94c9.46,0,16.69,5.45,19.83,15l2.08,6.3-.89-6.58A29.5,29.5,0,0,0,535,1.34c5.44-2,10.56-1.34,14.76,2A10.53,10.53,0,0,0,548.92,7l-.14,2.45,1.27-2.1c2.44-4,8.45-6.8,14.62-6.8,5,0,9,1.77,11.39,5l2.32,3.12L577.13,5A13.79,13.79,0,0,0,574.28.11c2.81-2.39,7-3.71,11.85-3.71,8.45,0,17.22,3.89,20.8,9.15a16.38,16.38,0,0,0-8.52,7.82l-1.42,3,2.39-2.25a21.83,21.83,0,0,1,14.9-5.48c8.62,0,16,4.33,18.91,11l2.36,5.52-1.2-5.89a20.59,20.59,0,0,0-2.29-6.14,27.08,27.08,0,0,1,11.88-2.72c6.5,0,12.23,2.33,15.72,6.39l3.53,4.11-2.52-4.79a19.15,19.15,0,0,0-2.71-3.9c3.38-3,9.12-4.78,15.9-4.78,9.56,0,18.16,3.36,21.21,8.21-2.37,1.75-3.88,3.81-4.26,5.85L690.34,24,691.9,22c2.4-3.16,8.45-5.36,14.72-5.36a22,22,0,0,1,15.67,6l2.8,2.78-1.83-3.5a21.06,21.06,0,0,0-1.68-2.71A30.06,30.06,0,0,1,734,16.57,36.18,36.18,0,0,1,747,19a37.94,37.94,0,0,0-3.41,2.75Z"/></svg>