<svg id="Clouds" xmlns="http://www.w3.org/2000/svg" xmlns:xlink="http://www.w3.org/1999/xlink" viewBox="0 0 1080 600"><defs><style>.cls-1{fill:none;}.cls-2{clip-path:url(#clip-path);}.cls-3{fill:url(#linear-gradient);}.cls-4{fill:url(#linear-gradient-2);}.cls-5{fill:url(#linear-gradient-3);}.cls-6{fill:url(#linear-gradient-4);}.cls-7{fill:url(#linear-gradient-5);}.cls-8{fill:url(#linear-gradient-6);}.cls-9{fill:url(#linear-gradient-7);}.cls-10{fill:url(#linear-gradient-8);}</style><clipPath id="clip-path"><rect class="cls-1" width="1080" height="612"/></clipPath><linearGradient id="linear-gradient" x1="217.86" y1="651.07" x2="217.86" y2="487.62" gradientUnits="userSpaceOnUse"><stop offset="0" stop-color="#697d8f"/><stop offset="0.05" stop-color="#748798"/><stop offset="0.26" stop-color="#9cabb9"/><stop offset="0.46" stop-color="#bdc8d3"/><stop offset="0.65" stop-color="#d3dce6"/><stop offset="0.84" stop-color="#e1e9f1"/><stop offset="1" stop-color="#e6edf5"/></linearGradient><linearGradient id="linear-gradient-2" x1="217.86" y1="652.6" x2="217.86" y2="486.1" gradientUnits="userSpaceOnUse"><stop offset="0" stop-color="#526b82"/><stop offset="0.03" stop-color="#5a7288"/><stop offset="0.2" stop-color="#8c9dac"/><stop offset="0.38" stop-color="#b5c0ca"/><stop offset="0.55" stop-color="#d6dce1"/><stop offset="0.71" stop-color="#eceff2"/><stop offset="0.87" stop-color="#fafbfc"/><stop offset="1" stop-color="#fff"/></linearGradient><linearGradient id="linear-gradient-3" x1="233.24" y1="649.56" x2="233.24" y2="501.13" gradientTransform="matrix(-1, 0, 0, 1, 601.93, 0)" gradientUnits="userSpaceOnUse"><stop offset="0" stop-color="#9eb0c4"/><stop offset="0.27" stop-color="#bec7d2"/><stop offset="0.37" stop-color="#ccd4de"/><stop offset="0.52" stop-color="#dbe2eb"/><stop offset="0.71" stop-color="#e3eaf3"/><stop offset="1" stop-color="#e6edf5"/></linearGradient><linearGradient id="linear-gradient-4" x1="233.24" y1="651.08" x2="233.24" y2="499.61" gradientTransform="matrix(-1, 0, 0, 1, 601.93, 0)" gradientUnits="userSpaceOnUse"><stop offset="0" stop-color="#9eb0c4"/><stop offset="0.27" stop-color="#bfc9d4"/><stop offset="0.31" stop-color="#c8d0da"/><stop offset="0.43" stop-color="#dde2e8"/><stop offset="0.58" stop-color="#eceef2"/><stop offset="0.74" stop-color="#f4f6f8"/><stop offset="1" stop-color="#f7f8fa"/></linearGradient><linearGradient id="linear-gradient-5" x1="832.22" y1="626.06" x2="832.22" y2="481.24" gradientTransform="matrix(1, 0, 0, 1, 0, 0)" xlink:href="#linear-gradient-3"/><linearGradient id="linear-gradient-6" x1="832.22" y1="627.58" x2="832.22" y2="479.72" gradientTransform="matrix(1, 0, 0, 1, 0, 0)" xlink:href="#linear-gradient-4"/><linearGradient id="linear-gradient-7" x1="580.42" y1="640.94" x2="580.42" y2="547.27" gradientUnits="userSpaceOnUse"><stop offset="0" stop-color="#9eb0c4"/><stop offset="0.27" stop-color="#bec7d2"/><stop offset="0.28" stop-color="#c0c9d4"/><stop offset="0.46" stop-color="#cfd6e0"/><stop offset="0.67" stop-color="#d7dfe8"/><stop offset="1" stop-color="#dae1ea"/></linearGradient><linearGradient id="linear-gradient-8" x1="580.41" y1="642.78" x2="580.41" y2="545.44" gradientTransform="matrix(1, 0, 0, 1, 0, 0)" xlink:href="#linear-gradient-3"/></defs><title>Artboard 2</title><g class="cls-2"><path class="cls-3" d="M315.77,641.17l.33.31c6.44,6,16,9.59,25.53,9.59A41.34,41.34,0,0,0,365.85,643l.69-.49.61.59c3.25,3.14,9.35,4.94,16.75,4.94,7.58,0,15-1.92,19.78-5.13l.58-.39.57.4c2.32,1.64,6.5,2.57,11.48,2.57,6.11,0,12.21-1.4,15.52-3.58l.44-.29.49.2a20.06,20.06,0,0,0,7.31,1.39c7.77,0,13.58-4.47,13.94-8.49a6.49,6.49,0,0,0-1.93-5c-2.81-3.07-8-4.91-13.8-4.91a33.36,33.36,0,0,0-10.94,2l-.7.25-.44-.59a16.75,16.75,0,0,0-13.7-6.71,19.83,19.83,0,0,0-12.88,4.83l-.83.72-.66-.88a17.57,17.57,0,0,0-14.29-6.83,19.61,19.61,0,0,0-7,1.3l-.94.35-.37-.93c-3.31-8.27-10.62-13.4-19.09-13.4a28.16,28.16,0,0,0-13.55,3.85l-1.09.6-.37-1.19C338.8,599.9,330.68,597,324.51,597a16.7,16.7,0,0,0-11.41,4l-1,1-.59-1.3a15,15,0,0,0-10-8l-.89-.23.14-.91A15.24,15.24,0,0,0,297,579.08a22,22,0,0,0-16-7.5,15.23,15.23,0,0,0-4.11.54l-1.19.33-.1-1.24c-.42-5.69-5.23-10.66-11.7-12.07l-1-.22.24-1A13.74,13.74,0,0,0,260.22,546a20.7,20.7,0,0,0-15.7-7.51,15.52,15.52,0,0,0-14.3,8.86l-.73,1.4-1-1.24a13,13,0,0,0-10.41-4.71,16.6,16.6,0,0,0-5,.8l-1.07.35-.23-1.11c-1.61-7.65-8.62-15.56-17.58-15.56a14.44,14.44,0,0,0-2.18.16l-.88.13-.25-.85a15.42,15.42,0,0,0-6.37-8.39l-.74-.5.4-.8c2-4.15,1.57-9.17-1.29-13.78-3.74-6-10.69-10.06-17.29-10.06a16.14,16.14,0,0,0-8.28,2.26l-.71.42-.56-.61a22.69,22.69,0,0,0-16.61-7.6c-8.6,0-15.83,5.28-20.36,14.88l-.38.79-.83-.25a14,14,0,0,0-9.29.51l-.53.23-.47-.34A23.3,23.3,0,0,0,93.8,499a22.67,22.67,0,0,0-19.6,10.66c-4,6.73-3.6,15.15,1.09,23.7l.36.66-.52.54a13,13,0,0,0-3.07,5.13l-.24.77-.8-.06c-.66,0-1.31-.06-1.94-.06-9.38,0-16.85,4.94-20,13.22s-1,17.76,5.29,23.31l.82.72-.77.77a17.69,17.69,0,0,0-5.08,12.71v1l-1,0c-9.89.08-19.66,7.08-23.76,17l-.36.89-.91-.31a17.37,17.37,0,0,0-5.61-.88c-6.84,0-13.13,3.27-16,8.34l-.43.77-.82-.32a17.87,17.87,0,0,0-6.61-1.29c-6.8,0-11.78,4.07-12.17,7.88a6.82,6.82,0,0,0,2,5.23c2.75,3,7.64,4.84,13.11,4.84a33.2,33.2,0,0,0,15.32-4.14l.67-.35.53.53c3.81,3.79,11.31,6.34,18.67,6.34s13.55-2.46,17.58-6.91l.71-.79.75.75c5,5,13.23,8,21.33,8,8.5,0,15.56-3.19,19.86-9l.5-.67.76.36a30.36,30.36,0,0,0,12.7,2.59c9.36,0,17.31-3.58,21.81-9.81l.58-.8.81.55c3.07,2,8.24,3.33,13.51,3.33a25.27,25.27,0,0,0,5.85-.63l.7-.17.39.6c5.42,8.37,20.49,17.26,37.76,17.26a48.05,48.05,0,0,0,27.54-8.51l.78-.54.59.74c3.16,4,8.9,6.34,15.35,6.34,5.52,0,10.46-1.83,12.3-4.53l.58-.85.84.58c6.53,4.51,15.58,7.09,24.83,7.09A48.77,48.77,0,0,0,296,634.45l.77-.47.56.72c3.78,4.86,10.66,6.6,15.84,6.6.72,0,1.42,0,2.11-.09Z"/><path class="cls-4" d="M270.4,643.19a50.31,50.31,0,0,0,26-7.2c3.55,4.29,9.77,6.83,16.76,6.83.68,0,1.36,0,2-.07,6.72,6.17,16.57,9.85,26.41,9.85a42.79,42.79,0,0,0,24.77-8.14c3.59,3.24,9.93,5.08,17.5,5.08,7.73,0,15.3-1.94,20.34-5.19,2.63,1.71,6.9,2.65,12.07,2.65,6.26,0,12.55-1.44,16.14-3.69a21.51,21.51,0,0,0,7.62,1.41h0c7.9,0,15-4.52,15.46-9.88a8,8,0,0,0-2.32-6.14c-3.09-3.39-8.68-5.41-14.93-5.41a34.59,34.59,0,0,0-11.09,1.91,18.24,18.24,0,0,0-14.69-7A21.43,21.43,0,0,0,399,623a19.15,19.15,0,0,0-15.18-7,21.23,21.23,0,0,0-7.12,1.22c-3.63-8.6-11.37-13.91-20.32-13.91a29.35,29.35,0,0,0-13.75,3.75c-3-8.57-11.6-11.64-18.14-11.64a18.52,18.52,0,0,0-11.94,4,16.67,16.67,0,0,0-10.29-8.11,16.77,16.77,0,0,0-4.16-13.25,23.57,23.57,0,0,0-17.17-8,17.27,17.27,0,0,0-3.93.44c-.74-6-5.71-11.09-12.35-12.74A15.37,15.37,0,0,0,261.42,545a22.31,22.31,0,0,0-16.9-8.09,16.94,16.94,0,0,0-15.3,9,14.65,14.65,0,0,0-11.12-4.71,17.7,17.7,0,0,0-5,.72c-1.94-8.08-9.43-16.24-19-16.24a16.15,16.15,0,0,0-2,.12,17,17,0,0,0-6.5-8.56c2.07-4.55,1.51-9.94-1.54-14.86-4-6.45-11.49-10.79-18.59-10.79a17.6,17.6,0,0,0-8.7,2.27,24.18,24.18,0,0,0-17.45-7.79c-5.29,0-15.09,2-21.57,15.36a15.52,15.52,0,0,0-9.64.58,24.83,24.83,0,0,0-14.42-4.59,24.18,24.18,0,0,0-20.9,11.42c-4.22,7.12-3.9,15.94.89,24.88a14.47,14.47,0,0,0-3,5.09c-.56,0-1.11-.05-1.65-.05-10,0-18,5.32-21.39,14.22S46.51,571.64,53,577.64a19.16,19.16,0,0,0-5.15,12.91c-10.16.31-20.11,7.43-24.46,17.52a19.4,19.4,0,0,0-5.66-.81c-7.21,0-13.87,3.42-17.11,8.74a19.36,19.36,0,0,0-6.76-1.23c-7,0-13.17,4.15-13.68,9.24a8.34,8.34,0,0,0,2.38,6.42c3,3.34,8.34,5.34,14.24,5.34a34.64,34.64,0,0,0,15.7-4.15c4.15,3.91,11.91,6.52,19.48,6.52s14-2.49,18.35-7c5.35,5,13.73,8.11,22,8.11,8.71,0,16.27-3.37,20.84-9.26a32.14,32.14,0,0,0,13,2.57c9.66,0,17.93-3.66,22.76-10.06,3.37,2.08,8.53,3.32,13.95,3.32a27,27,0,0,0,5.86-.59c5.92,8.82,21,17.65,38.84,17.65a49.51,49.51,0,0,0,28-8.51c3.49,4.1,9.52,6.54,16.24,6.54,5.82,0,10.94-1.86,13.26-4.79C251.85,640.61,261,643.19,270.4,643.19Zm35-15.49a55.16,55.16,0,0,1-33.14,10.87c-15.53,0-29.42-6.17-34.6-12L235.38,624l1.47,3.14a20.38,20.38,0,0,0,5.11,6.56c-2,2.08-5.58,3.31-9.81,3.31-5.23,0-10.33-1.86-13.47-4.89a57.79,57.79,0,0,0,6.18-5.55l4.73-4.9-5.4,4.15a57.25,57.25,0,0,1-35.12,11.86c-21.55,0-39.95-11.6-42-22l-.56-2.81-.44,2.83a11.28,11.28,0,0,0,.79,5.88,27.2,27.2,0,0,1-4.28.32c-4.65,0-9.06-1-11.67-2.56a25.3,25.3,0,0,0,2.33-6.47l.92-4.24-1.88,3.91c-5.61,11.72-18.41,15.9-28.53,15.9-7.57,0-14.15-2.27-16.75-5.79l-1.62-2.19.72,2.62a9.65,9.65,0,0,0,4.07,5.14c-4.5,4.18-10.9,6.47-18.09,6.47-7.51,0-14.66-2.55-19.23-6.84a23.8,23.8,0,0,0,3.06-7.71l.92-4.23L55,619.86c-6.08,12.68-19.39,14-24.83,14-8.43,0-16.48-2.92-19.57-7.1l-1.63-2.2.73,2.64a8.42,8.42,0,0,0,1.27,2.57,36.71,36.71,0,0,1-13.42,2.87c-7.3,0-10.92-3-12.14-4.32a5.57,5.57,0,0,1-1.78-3.91c.17-2.64,5-6.65,11.87-6.65a19.46,19.46,0,0,1,4.05.44,15.59,15.59,0,0,0-1.07,4.44L-2,627.52l1.43-4.64c2.47-8,11.7-12.12,19.54-12.12,4.57,0,8.45,1.38,10.92,3.89l1.92,1.94-1.09-2.5a9.83,9.83,0,0,0-3.57-4.22A26.53,26.53,0,0,1,51,594.37a26.58,26.58,0,0,1,14.26,4.28l4.49,2.82-3.87-3.62a25.83,25.83,0,0,0-14.09-7.09A15.74,15.74,0,0,1,56,579.9a25,25,0,0,0,11.19,3.69l5.27.51-5.08-1.5c-13.35-4-18-14.93-16.67-24,1.08-7.46,6.78-16.18,19.35-16a15.77,15.77,0,0,0,3.17,9.91l2.83,4-2-4.48a14.19,14.19,0,0,1,1-13.85A15.93,15.93,0,0,1,89.6,531l2.72.22L89.86,530a13.6,13.6,0,0,0-13.59,1.53c-3.49-7.58-3.42-14.9.19-20.66a21.49,21.49,0,0,1,28.15-6.74,15.18,15.18,0,0,0-5.23,10.66l-.46,4.86,1.45-4.66a14.39,14.39,0,0,1,14.12-10.42,16,16,0,0,1,11.32,4.68l1.92,1.94-1.09-2.5a12.46,12.46,0,0,0-5.77-6.08c4.35-8,10.82-12.4,18.26-12.4a20.89,20.89,0,0,1,14.35,6,26.8,26.8,0,0,0-5.42,6.65l-2.92,4.94,3.74-4.35a20.18,20.18,0,0,1,15.4-7.32c7.76,0,14.87,4.44,17.29,10.81,2.34,6.14-.06,12.82-6.76,18.79l-2.53,2.26,3.08-1.42a22.38,22.38,0,0,0,8.54-6.39,12.66,12.66,0,0,1,4.47,6.53,24.42,24.42,0,0,0-9.76,7l-3.8,4.28,4.5-3.55a20,20,0,0,1,12.38-4.57c7.83,0,14.93,5.18,16.89,12.31s-1.81,14.33-10.42,19.45l-2.91,1.73,3.29-.8c14-3.41,15.28-12.88,15.08-17.22a13.62,13.62,0,0,1,13.94,4.24,29.44,29.44,0,0,0-1.26,4.65l-1,5.64,2-5.37c3-8.07,9.6-12.9,17.54-12.9a16.07,16.07,0,0,1,13.9,7.35c3.05,5.1,2.61,11.88-1.25,19.08l-1.59,3,2.4-2.38a24.36,24.36,0,0,0,5.36-7.62,13.41,13.41,0,0,1,9.81,10.76,13.2,13.2,0,0,0-5,4.78l-1.53,2.47,2.28-1.81a15.34,15.34,0,0,1,9.55-2.92c7,0,13.55,3.39,16.69,8.64,2.38,4,4,11-1.67,21.6l-1.6,3,2.41-2.39a27.43,27.43,0,0,0,6.93-10.47,13.26,13.26,0,0,1,8.24,8.13,13.42,13.42,0,0,0-1.73,7.3l.11,2.91.89-2.77c2-6.14,8.45-10.6,15.44-10.6,4.05,0,13.91,1.68,18,17.21l.65,2.44.35-2.5a22.59,22.59,0,0,0,0-6.57,26.55,26.55,0,0,1,12-3.18A18.87,18.87,0,0,1,373,619a19.35,19.35,0,0,0-5.7,5.16l-2.53,3.42,3.26-2.73a23.22,23.22,0,0,1,14.73-5.29,19.76,19.76,0,0,1,14.07,5.63,19.85,19.85,0,0,0-3.43,5.43l-1.65,3.94,2.53-3.44a23.29,23.29,0,0,1,18.14-9.26c7,0,13.13,3.61,17.33,10.15l2.28,3.56-1.37-4a23.25,23.25,0,0,0-1.79-4,33.81,33.81,0,0,1,8-1c5.39,0,10.16,1.65,12.78,4.41a5.14,5.14,0,0,1,1.66,3.59c-.14,2.71-5.36,6.81-12.89,6.81a25.12,25.12,0,0,1-14.34-4.92l-4.5-3.16,3.85,3.93a26.66,26.66,0,0,0,4.74,3.88c-2.79,1.56-7.33,2.51-12.14,2.51a23.23,23.23,0,0,1-9-1.5,13.48,13.48,0,0,0,2.5-3.19l2-3.75-2.86,3.17c-3.9,4.31-14.15,7.44-24.37,7.44-6.34,0-11.71-1.19-15.25-3.38a53.3,53.3,0,0,0,4.05-3.63l3.57-3.52L372.5,638a53.6,53.6,0,0,1-29.57,9.19c-14.66,0-27.24-6.61-32.73-12.75l-2.3-2.58,1.46,3.13a22.21,22.21,0,0,0,2.39,3.91,18.94,18.94,0,0,1-12.08-5.07,52.15,52.15,0,0,0,6.43-5.41l5.13-5.07Z"/><path class="cls-5" d="M384,641l-.57.51c-7.42,6.64-16.3,8-22.43,8-11,0-20.47-4.32-24.66-8.33l-.47-.44-.59.23a36.67,36.67,0,0,1-12.87,2.32,29.94,29.94,0,0,1-15.81-4.14l-.67-.41-.57.54c-3.68,3.54-9.62,5.57-16.29,5.57a36.79,36.79,0,0,1-19-5.47l-.48-.3-.51.26a23,23,0,0,1-10.36,2.44,24.77,24.77,0,0,1-15.59-5.62l-.64-.53-.65.53c-6.79,5.61-16.95,6.83-25.35,3l-.46-.22-.44.24a32.59,32.59,0,0,1-15.32,4c-6.36,0-12.51-2.16-15.65-5.51a5.83,5.83,0,0,1-1.87-4.23c.29-4.47,5-9.28,12.25-9.28a18.35,18.35,0,0,1,8.46,2.19l.64.34.53-.5c5.26-5,13-6.46,20.34-3.49l.64.25.47-.49A22.53,22.53,0,0,1,241.74,616c4.7,0,11.3,1.65,16.07,9.47l.58,1,.89-.67a15.15,15.15,0,0,1,9.17-2.77,23.44,23.44,0,0,1,7.51,1.29l.88.31.38-.85c2.12-4.7,8-10.39,16.06-11.78l1.82-.32-1.24-1.37a11.32,11.32,0,0,1-2.12-12.66,14.08,14.08,0,0,1,12.38-8.38,12.54,12.54,0,0,1,6.84,2.08l.66.42.57-.52a17.87,17.87,0,0,1,12.14-4.31,20.18,20.18,0,0,1,12.95,4.48l.78.65.66-.77a16.48,16.48,0,0,1,7.51-5l1-.3-.3-1a15.67,15.67,0,0,1,1.43-12.73l.29-.47-.23-.5c-3.67-7.87-1.86-13.92.3-17.6a22,22,0,0,1,17-10.38l.78,0,.15-.77c2-10.53,7.39-16.58,14.69-16.58a17.82,17.82,0,0,1,16.56,20.41l-.17.91.89.25a20.24,20.24,0,0,1,2.28.78l.9.37.41-.88c2.43-5.2,6.47-8.06,11.36-8.06.36,0,.71,0,1.07,0l1,.09.08-1c.58-8.22,6-11.93,10.77-12.65l1.14-.17-.31-1.11c-1.79-6.46-.56-14,3.06-18.76a12.08,12.08,0,0,1,11.83-4.78A18,18,0,0,1,456,511.44c2.93,5.74,3.34,12.8,1,17.17l-.46.87.86.49a16.62,16.62,0,0,1,8,10.76l.18.85.86,0c8-.4,14.3,2.56,17.67,8.25a18.65,18.65,0,0,1-.08,18.4l-.56,1,1.08.43a10.54,10.54,0,0,1,5.67,5l.44.86.88-.39a20,20,0,0,1,7.94-1.84c5.58,0,10.09,3.2,12.36,8.76,2.55,6.24,1.43,13.43-2.71,17.49l-.52.5.31.66a8.11,8.11,0,0,1,.72,4.53l-.17,1.5,1.46-.41a16.63,16.63,0,0,1,4.47-.63,14.25,14.25,0,0,1,14,11.86l.2,1.37,1.25-.59a18.92,18.92,0,0,1,8.14-1.88c7.94,0,15.09,5.62,15.6,12.28a9.42,9.42,0,0,1-2.45,7.32c-2.49,2.68-6.6,4.16-11.59,4.16a38.1,38.1,0,0,1-16.21-4.2l-.56-.27-.5.38a24.92,24.92,0,0,1-15.35,5.14A26.63,26.63,0,0,1,491,635.33l-.73-.6-.65.67c-5.42,5.54-14.3,6.7-20.8,6.7a62.38,62.38,0,0,1-10.13-.85l-.39-.06-.34.22a28,28,0,0,1-33.8-2.09l-.7-.63-.68.65c-4.39,4.22-12.22,6.84-20.42,6.84a33.48,33.48,0,0,1-17.67-4.77Z"/><path class="cls-6" d="M322.45,644.87a38.05,38.05,0,0,0,13.11-2.32c4.64,4.29,14.22,8.53,25.48,8.53,6.32,0,15.44-1.43,23.16-8.18a35.21,35.21,0,0,0,18.17,4.8c8.37,0,16.4-2.65,21.13-6.94a29.47,29.47,0,0,0,35.15,2,63.88,63.88,0,0,0,10.17.84c6.67,0,15.76-1.2,21.56-6.84a28.24,28.24,0,0,0,17.48,6,26.5,26.5,0,0,0,16-5.27,39.37,39.37,0,0,0,16.59,4.22c5.42,0,9.93-1.65,12.71-4.65a10.91,10.91,0,0,0,2.85-8.47c-.58-7.56-8.26-13.7-17.12-13.7a20.3,20.3,0,0,0-8.19,1.76,15.84,15.84,0,0,0-15.4-12.52,17.83,17.83,0,0,0-4.18.51,9.7,9.7,0,0,0-.77-4.3c4.37-4.52,5.53-12.23,2.81-18.9-2.49-6.07-7.64-9.7-13.79-9.7a21.23,21.23,0,0,0-8.11,1.78,12.1,12.1,0,0,0-5.73-5.12,20.14,20.14,0,0,0-.2-19.41c-3.45-5.83-9.69-9-17.55-9l-1.09,0a18.16,18.16,0,0,0-8.18-11.1c2.3-4.8,1.82-12.17-1.22-18.14a19.53,19.53,0,0,0-14.91-11,13.56,13.56,0,0,0-13.26,5.37c-3.79,5-5.15,12.77-3.45,19.55-5.16,1-10.67,5-11.47,13.45l-.69,0c-5.38,0-9.81,3-12.53,8.51-.5-.19-1-.36-1.57-.53a19.35,19.35,0,0,0-18.13-21.75c-8,0-13.87,6.35-16.11,17.43a23.56,23.56,0,0,0-17.83,11.09c-2.33,4-4.29,10.43-.48,18.78a17.17,17.17,0,0,0-1.6,13.27,18,18,0,0,0-7.4,4.94,21.93,21.93,0,0,0-13.56-4.52,19.48,19.48,0,0,0-12.87,4.44,14,14,0,0,0-7.34-2.12A15.45,15.45,0,0,0,290.34,597a12.75,12.75,0,0,0,1.81,13.63A23.84,23.84,0,0,0,276,622.66a24.57,24.57,0,0,0-7.57-1.23,16.77,16.77,0,0,0-9.63,2.75c-4-6.29-10.06-9.74-17.08-9.74a24,24,0,0,0-16.42,6.71,20.28,20.28,0,0,0-21.4,3.68,19.69,19.69,0,0,0-8.84-2.21c-8.08,0-13.44,5.56-13.77,10.71a7.25,7.25,0,0,0,2.28,5.37c3.47,3.7,9.89,6,16.76,6a34.23,34.23,0,0,0,15.82-4A26.15,26.15,0,0,0,227,643a25.05,25.05,0,0,0,15.59-5.35,26.26,26.26,0,0,0,16.23,5.7,24.54,24.54,0,0,0,10.79-2.47,37.8,37.8,0,0,0,19.52,5.55c6.89,0,13.08-2.08,17.06-5.73A31.58,31.58,0,0,0,322.45,644.87ZM296.56,630l1.72,2.91a21.9,21.9,0,0,0,4.93,5.71c-3.33,2.53-8.08,3.92-13.46,3.92a39.07,39.07,0,0,1-16.48-3.9,22.74,22.74,0,0,0,5.41-5.67l2.38-3.56-3.14,2.9a26,26,0,0,1-17.86,7.05c-8.07,0-16.21-3.5-23.52-10.12L234,626.94l1.74,2.91a28.45,28.45,0,0,0,4.3,5.55,27.17,27.17,0,0,1-13.62,3.48,38.51,38.51,0,0,1-18.21-5l-3-1.59,2.38,2.4a28.31,28.31,0,0,0,5,4,29,29,0,0,1-11.42,2.36c-6.95,0-12.52-2.54-15-5.05a3.64,3.64,0,0,1-1.25-2.35c.1-3.3,4.64-7.91,11.82-7.91,4.14,0,8.55,1.5,13.1,4.44l5.18,3.36-4.57-4.16a31.67,31.67,0,0,0-3.36-2.69,16.26,16.26,0,0,1,15.76-2.62,11.22,11.22,0,0,0-1.94,8.12l.51,2.92.49-2.92c1-6.17,10.27-13.61,20.22-13.61,5.5,0,13.26,2.24,19,12.92l2.85,5.3-1.92-5.7a32,32,0,0,0-1.7-4.13,14.23,14.23,0,0,1,8-2.24,18.52,18.52,0,0,1,6.46,1.16,9.13,9.13,0,0,0-.06,3.78l.55,2.67.45-2.69c1.21-7.32,11.33-15.83,22.54-15.83,6.84,0,13.46,3.08,19.17,8.9l6.52,6.65-5.75-7.32c-7.8-9.91-16-12-21.45-12-.61,0-1.24,0-1.85.08a10.62,10.62,0,0,1-1.11-11.42,13.28,13.28,0,0,1,11.59-7.62,11,11,0,0,1,4,.74c-2.95,3.73-4,8.74-3.14,14.53l.68,4.43.33-4.47c.88-12,9.89-16.21,17.34-16.21a18.6,18.6,0,0,1,14.06,6,15.66,15.66,0,0,1,3.39,12.94L341,616.63l2.11-7.31c2.36-8.17,0-13.59-2.5-16.76a13,13,0,0,1,6.16-4,13.38,13.38,0,0,0,6.54,6l2.52,1-2-1.88c-4-3.84-6-10.09-5-16.3.83-5.47,3.78-9.83,8.09-12l4.48-2.21-4.83,1.26a16.29,16.29,0,0,0-7.05,3.79,15.16,15.16,0,0,1,1.79-14,24.21,24.21,0,0,1,19.05-10.09,14.53,14.53,0,0,1,5.11.86l4.27,1.61-3.81-2.51a15.29,15.29,0,0,0-6.95-2.39c2-7.94,6.78-12.65,12.94-12.65a13.58,13.58,0,0,1,9.95,4.68,14.88,14.88,0,0,1,3.58,11.44,21.64,21.64,0,0,0-2.41-.14c-8.15,0-16.84,4.71-17.9,15.22l-.71,7.06,1.71-6.88c1.67-6.7,8.79-11.38,17.34-11.38a21.72,21.72,0,0,1,20.08,13l2.92,6.31-2-6.67a22.88,22.88,0,0,0-10.15-13.51c2.38-5.73,8.94-6.36,11.7-6.36a17.15,17.15,0,0,1,8.94,2.29l4.15,2.75-3.51-3.54a18.4,18.4,0,0,0-8.16-4.76c1.86-8.44,8.08-11.46,13.36-11.46a16.17,16.17,0,0,1,6.83,1.55l3.7,1.73-3.16-2.59a15.62,15.62,0,0,0-8.79-3.45A19.58,19.58,0,0,1,432,507.93a10.62,10.62,0,0,1,8.71-4.74,11.25,11.25,0,0,1,1.72.13c4.4.66,8.23,3.57,10.78,8.2,2.83,5.13,3.62,11.54,2,15.81a12.31,12.31,0,0,0-9.08.27l-1.9.87,2.09.1a18.74,18.74,0,0,1,14,8.12c2.48,3.66,4.78,10,1.6,19.25l-1.12,3.24,2-2.78a21.06,21.06,0,0,0,4.38-12.5c6.88.26,12.1,3,14.74,7.66s2.36,10.47-.6,15.77c-.37,0-.75-.05-1.13-.05a10.89,10.89,0,0,0-8.53,3.83l-1.35,1.6,1.93-.8a16,16,0,0,1,6.11-1.23c3.74,0,6.87,1.36,8.8,3.85,2.41,3.11,2.87,7.89,1.35,13.81l-.78,3,1.7-2.62c2.62-4,3.69-8.06,3.08-11.63a18.09,18.09,0,0,1,6.73-1.48,10.27,10.27,0,0,1,9.68,6.32c2.27,4.85,1.81,11.17-1,15a10.89,10.89,0,0,0-7.29-2.86,9.49,9.49,0,0,0-5.46,1.7l-1.69,1.18,2-.26c4.6-.58,8.19.7,10.05,3.59,2.14,3.3,1.84,8.38-.83,14.29L503.64,617l1.91-1.84a20,20,0,0,0,4.58-6.31c6.21-1.8,12.07-.07,15.73,4.51a13.16,13.16,0,0,1,2.82,10.78l-.76,3.39,1.7-3a10.91,10.91,0,0,0,1.35-5.36,19.79,19.79,0,0,1,5.72-.88c8.84,0,14.8,6.31,15,10.66a7.11,7.11,0,0,1-2.06,5.23c-2.24,2.36-6,3.66-10.61,3.66-5.41,0-14.79-1.8-28.75-10.37l-6-3.7,5.44,4.53a74.37,74.37,0,0,0,10.27,7.2,27.21,27.21,0,0,1-12.6,3.07c-9.95,0-19.3-5.34-23.28-13.3l-1.76-3.53.81,3.86a18.92,18.92,0,0,0,4.69,8.84c-3.84,3.22-11,5.13-19.33,5.13-1.84,0-3.69-.1-5.51-.28a30.48,30.48,0,0,0,5.34-7.2l2.08-3.89-2.91,3.31a33.6,33.6,0,0,1-25.31,11.34,31.59,31.59,0,0,1-24.62-11.32L414.71,628l2,4a28.14,28.14,0,0,0,4.26,6.28c-4.16,3.39-10.91,5.4-18.21,5.4a35.41,35.41,0,0,1-15.8-3.53,36.76,36.76,0,0,0,5.5-8.15l2.5-5-3.36,4.5a37.26,37.26,0,0,1-30.49,15.11,41.68,41.68,0,0,1-21.55-5.84,24.57,24.57,0,0,0,9-7.82L351,629.4l-3.14,2.89c-5.72,5.28-15.2,8.55-24.74,8.55-9.37,0-17.9-3.05-24-8.59Z"/><path class="cls-7" d="M837.61,616.46l.52.42a43.65,43.65,0,0,0,27.55,9.18c11.53,0,22.92-3.9,31.24-10.7l.55-.45.62.37a35.43,35.43,0,0,0,18.24,4.92,33.35,33.35,0,0,0,19.33-5.88l.5-.36.55.28a48.85,48.85,0,0,0,21.56,4.89,44.11,44.11,0,0,0,21.87-5.43l.46-.25.48.22a41.28,41.28,0,0,0,17.3,3.77,35.66,35.66,0,0,0,15.15-3.2l.44-.21.44.22a30.17,30.17,0,0,0,26.28-.59l.36-.19.39.11c10,2.8,20.06.85,24.66-4.41a7.55,7.55,0,0,0,2.1-6c-.88-6.49-8.27-11-18-11a31.65,31.65,0,0,0-11.34,2.13l-1.19.47-.19-1.27c-1.13-7.71-8.72-11.87-15.3-11.87a13.8,13.8,0,0,0-5.84,1.22l-1.1.52-.32-1.17c-1.42-5.37-6.12-8.83-12-8.83a15,15,0,0,0-6.89,1.71l-1.21.62-.26-1.33A16,16,0,0,0,984,562.16l-1.19-.38.61-1.08a9.86,9.86,0,0,0-.07-10.26c-3-5.15-10.15-8.89-17-8.89a12.72,12.72,0,0,0-9.08,3.3l-.65.64-.7-.59a15.72,15.72,0,0,0-6-3.06l-1-.28.33-1c1.11-3.38.75-6.37-1.09-8.89-2.49-3.44-7.63-5.66-13.11-5.66-4.57,0-8.41,1.54-10.54,4.22l-.53.67-.75-.41a14.44,14.44,0,0,0-8.71-1.52l-1.11.13,0-1.12a9.31,9.31,0,0,0-6.41-8.48l-.87-.3.21-.89a21.23,21.23,0,0,0-4.25-17.8c-3.25-4.1-7.67-6.54-11.82-6.54h-1.06l-.16-1.06a9.71,9.71,0,0,0-2.67-7.4c-2.6-2.7-6.91-4.25-11.82-4.25-5.52,0-10.61,1.94-13.62,5.19a11,11,0,0,0-2.92,8.64l.11,1.51-1.43-.46a7.08,7.08,0,0,0-7.95,2.23l-.87,1-.73-1.1c-3-4.49-9.86-7.28-17.89-7.28-9.2,0-19.78,3.87-21.29,12.37l-.13.77-.79.07a10.2,10.2,0,0,0-7,3.15,7.36,7.36,0,0,0-1.53,5.64l.12,1.27-1.27-.17c-4.57-.6-8.46.77-11.09,3.9-2.87,3.41-4,8.67-3.09,14.08l.18,1.05-1.06.13c-7.07.89-12.17,3.24-15.18,7l-.34.44-.56-.06c-5.73-.63-10.21.67-13.16,3.78l-.56.57-.69-.4a20.86,20.86,0,0,0-10.39-3,15.17,15.17,0,0,0-11.18,4.74,17,17,0,0,0-4.31,12.88l0,.79-.76.24a18.65,18.65,0,0,0-8.51,5.63l-.73.85-.78-.81a23.16,23.16,0,0,0-16.94-6.72c-10.55,0-22.25,6.22-23.17,17.75l-.08,1.06-1.06-.13c-4.62-.59-8.54,1.72-10.7,6.13l-.35.69-.76-.14c-6.69-1.27-12.76.44-16.41,4.62l-.54.62-.72-.4a16,16,0,0,0-7.77-1.87c-6.66,0-14.93,3.47-18.38,11.2l-.35.77-.82-.19a32.5,32.5,0,0,0-7.46-.9c-3.15,0-13.42.65-13.42,9,0,5.87,8.39,11,18,11a27.54,27.54,0,0,0,13.68-3.64l.46-.26.48.23a27.11,27.11,0,0,0,11.73,2.62,29.18,29.18,0,0,0,18-6.22l.57-.45.61.41A31.42,31.42,0,0,0,677.33,616a50.44,50.44,0,0,0,23.11-6l.38-.2.41.13a24.08,24.08,0,0,0,16.13-.57l.49-.2.44.3c6.93,4.64,14.45,5.93,20.6,3.47l.61-.24.47.45a33.25,33.25,0,0,0,23.2,9c7.5,0,14.38-2.29,18.41-6.16l.62-.58.68.5a23,23,0,0,0,13.57,4.46A25.36,25.36,0,0,0,808.76,617l.48-.27.49.26c8.13,4.34,19,4.18,27.29-.23Z"/><path class="cls-8" d="M1050.24,590.64a33.13,33.13,0,0,0-11.31,2c-1.56-8.16-9.67-12.56-16.71-12.56a15.64,15.64,0,0,0-6,1.13c-1.78-5.72-6.93-9.39-13.28-9.39a16.59,16.59,0,0,0-7,1.59,17.63,17.63,0,0,0-11-12.53,11.24,11.24,0,0,0-.36-11.23c-3.28-5.59-11-9.64-18.28-9.64a14.34,14.34,0,0,0-9.81,3.42,17.15,17.15,0,0,0-5.7-2.94,10.88,10.88,0,0,0-1.46-9.76c-2.77-3.81-8.4-6.28-14.35-6.28-4.86,0-9,1.62-11.46,4.47a16,16,0,0,0-8.71-1.57,10.86,10.86,0,0,0-7-9.18,22.81,22.81,0,0,0-4.63-18.65c-3.51-4.42-8.12-7-12.7-7.11a11.07,11.07,0,0,0-3.11-8c-2.88-3-7.59-4.72-12.92-4.72-5.94,0-11.45,2.12-14.74,5.67a12.54,12.54,0,0,0-3.36,9.08,8.45,8.45,0,0,0-8.42,2.4c-3.47-4.66-10.43-7.42-18.78-7.42-9.68,0-20.82,4.14-22.71,13.24a11.51,11.51,0,0,0-7.71,3.67,8.59,8.59,0,0,0-1.93,6.13A13.17,13.17,0,0,0,785,517c-3.06,3.64-4.36,9.14-3.51,14.8-7.07,1-12.28,3.4-15.48,7.26-5.93-.58-10.64.78-13.88,4a22.18,22.18,0,0,0-10.81-3,16.63,16.63,0,0,0-12.29,5.22,18.36,18.36,0,0,0-4.74,13.62,20.07,20.07,0,0,0-8.47,5.56,24.8,24.8,0,0,0-17.66-6.81c-11.07,0-23.35,6.53-24.64,18.64A11.8,11.8,0,0,0,662,582.94c-6.94-1.22-13.25.59-17.2,4.88a17.6,17.6,0,0,0-8.15-1.86c-7,0-15.77,3.63-19.6,11.72a34.44,34.44,0,0,0-7.41-.84c-9.22,0-15,4-15,10.48,0,6.8,8.93,12.55,19.49,12.55a29.1,29.1,0,0,0,14.2-3.71,28.75,28.75,0,0,0,12.15,2.66,30.66,30.66,0,0,0,18.6-6.32,33,33,0,0,0,18.23,5A52,52,0,0,0,701,611.43a25.65,25.65,0,0,0,16.71-.58c7.17,4.73,15,6.06,21.49,3.6a34.84,34.84,0,0,0,24,9.15c7.7,0,14.82-2.35,19.16-6.3a24.41,24.41,0,0,0,14.12,4.51,27,27,0,0,0,12.81-3.33,29.71,29.71,0,0,0,13.68,3.27,31.85,31.85,0,0,0,14.5-3.47,45.17,45.17,0,0,0,28.24,9.3,51.67,51.67,0,0,0,31.93-10.82,36.83,36.83,0,0,0,18.72,5,35,35,0,0,0,20-6,50.49,50.49,0,0,0,22,4.91,45.8,45.8,0,0,0,22.39-5.49,42.78,42.78,0,0,0,17.71,3.8,37.27,37.27,0,0,0,15.58-3.24,29.81,29.81,0,0,0,12.8,2.84,31.84,31.84,0,0,0,14.46-3.46,35.55,35.55,0,0,0,9.48,1.34h0c6.93,0,13.12-2.34,16.54-6.27a9.15,9.15,0,0,0,2.47-7.2C1068.73,595.71,1060.72,590.64,1050.24,590.64ZM1029.56,610a51,51,0,0,0,6.19,3.19,31.45,31.45,0,0,1-9.57,1.5c-8.47,0-16.56-3.56-23.39-10.31l-3.22-3.18L1002,605a29.69,29.69,0,0,0,7.51,8.06,37.16,37.16,0,0,1-11.07,1.59,43.88,43.88,0,0,1-13.63-2.18,32.47,32.47,0,0,0,9.66-11.66l2.49-5-3.36,4.53c-7.45,10.07-20.4,15.84-35.5,15.84-13.88,0-27.07-5-34.43-13L920.74,600l2.11,3.78a28.16,28.16,0,0,0,9.56,9.81,34.19,34.19,0,0,1-16.21,3.84,36.88,36.88,0,0,1-15.55-3.32,34,34,0,0,0,8-11.84l1.61-4.08-2.5,3.61c-8.8,12.7-24.76,20.59-41.66,20.59-17.89,0-33.14-8.79-41.86-24.11l-3.32-5.85,2.4,6.28a46.14,46.14,0,0,0,11,16.86A31,31,0,0,1,823,617.62a34.13,34.13,0,0,1-24-10.06l-3.22-3.18,2.44,3.82A29.58,29.58,0,0,0,805.4,616a22.6,22.6,0,0,1-7.88,1.4c-9.73,0-19.09-5.88-26.36-16.56l-2.93-4.29,2,4.78A39.12,39.12,0,0,0,779.46,615c-4,2.77-9.89,4.34-16.33,4.34a33.63,33.63,0,0,1-20.65-6.55,24,24,0,0,0,7.74-8.1l1.72-2.83L749.45,604c-9,7.91-17.68,9.35-27.07,4.46a28.2,28.2,0,0,0,7.72-7l2-2.63-2.7,1.91a36.19,36.19,0,0,1-20.94,6.92,30.64,30.64,0,0,1-19.7-7l-2.48-2.08,1.72,2.75a23.79,23.79,0,0,0,8.2,8,49.83,49.83,0,0,1-19.09,4.19,30,30,0,0,1-15-3.66,36.21,36.21,0,0,0,4.6-5.42l2.22-3.21-3,2.53c-9.67,8.25-19.47,10-26,10a33.5,33.5,0,0,1-21.26-7.26l-2.48-2.07,1.73,2.73a23.49,23.49,0,0,0,7,7.14,29.11,29.11,0,0,1-9.11,1.49,23.52,23.52,0,0,1-11.72-2.92c-2.82-1.66-4.51-3.76-4.51-5.63,0-5.69,8.28-6.31,11.84-6.31a43.91,43.91,0,0,1,17.21,3.7l2.55,1.17-2-2a22.8,22.8,0,0,0-9-5.19c3-6,10.83-8.72,17-8.72a15.67,15.67,0,0,1,5.31.82,19,19,0,0,0-2.28,7.1l-.52,4.07,1.49-3.82c2.53-6.48,9.18-11.18,15.81-11.18a14.28,14.28,0,0,1,3.32.39,17.28,17.28,0,0,0,.07,6.87l.75,3.44.26-3.51c.51-6.82,4.65-13.69,12.78-13.69,3.37,0,7.16,1.2,11.24,3.58l3.41,2-2.79-2.78a25.39,25.39,0,0,0-8.75-6c1.18-9.46,12.12-15.29,21.75-15.29a21,21,0,0,1,14.52,5.37A25,25,0,0,0,710.22,582l.21,4,.8-3.94c2.51-12.36,11.09-19.45,23.56-19.45a35.71,35.71,0,0,1,11.44,2l2.51.84-2-1.71a23.89,23.89,0,0,0-18.17-5.81c.35-8.08,6-13.87,13.59-13.87a19,19,0,0,1,7.85,1.84,17.63,17.63,0,0,0-2.27,9.56l.17,4.39.84-4.31c.58-3,3.29-12.7,13.9-12.7l1.08,0c-2.42,5.7-1.28,12.11.14,16.55l1.26,3.91-.27-4.1c-.5-7.85,1-13.76,4.49-17.59,3-3.27,7.45-5.05,13.31-5.3a25.67,25.67,0,0,0,6.68,10.18L792,549l-1.92-3.16c-5.23-8.62-6.51-17.92-3.26-23.7,3.06-5.43,9.83-7.35,19-5.36l3.09.67-2.72-1.6a20.09,20.09,0,0,0-6-2.72,5.52,5.52,0,0,1,1.08-4.39,7.38,7.38,0,0,1,4.87-2.67c.07,2.43.47,3.88,2.26,7.15l1.43,2.61-.48-2.93a14.8,14.8,0,0,1,3.22-12.37c3.79-4.46,10.57-7.23,17.7-7.23,6.13,0,11.48,2,14.69,5.55A13.89,13.89,0,0,1,848.4,510l-.4,4.24,1.39-4a15.08,15.08,0,0,0,.33-10.14,5.61,5.61,0,0,1,4.65-2.38,7.24,7.24,0,0,1,2.6.51,25.52,25.52,0,0,0,2.38,5.86l3.87,7.05-3-7.48c-2.11-5.35-1.87-10.17.68-13.92,2.67-3.92,7.71-6.35,13.16-6.35,4.74,0,8.77,1.85,11,5.08,2.6,3.69,2.79,8.94.56,15.2L884,508.3l2.58-4.22a28.12,28.12,0,0,0,3.47-8c3.59,0,7.26,2,10.1,5.54a19.69,19.69,0,0,1,4.16,15.79,14.08,14.08,0,0,0-9.06,2.88l-4.06,2.93,4.56-2.06a11.88,11.88,0,0,1,4.93-1.09,10.34,10.34,0,0,1,9.29,5.58c1.87,3.79,1,8.4-2.22,12.66l-2.25,2.92,3-2.21a15.59,15.59,0,0,0,6-7.93,12.54,12.54,0,0,1,7.24,1c-1.11,3.14-.76,6.94,1,11.29l1.88,4.58-.91-4.87c-.75-3.94,0-7.38,2.11-9.94a13.11,13.11,0,0,1,10.09-4.33c4.49,0,8.44,2,10.32,5.19,1.56,2.67,2.53,7.46-1.78,15.15l-2.32,4.15,3.15-3.56a31,31,0,0,0,4.18-5.9,14.13,14.13,0,0,1,4.77,2.37c-1.8,3-2.56,6.87-2.27,11.56l.38,6.24.63-6.22c1-10,8-13.56,14.16-13.56,6.38,0,12.26,3.42,14.29,8.32s.08,10.53-5.44,16.07l-3.49,3.5,4.13-2.72a28.88,28.88,0,0,0,6.21-5.35,15.69,15.69,0,0,1,10.1,11.14,20.13,20.13,0,0,0-4.79,5.1l-2.46,3.75,3.24-3.1c3.66-3.49,7.85-5.33,12.12-5.33a14.09,14.09,0,0,1,12.34,7.22l-.38.29.62.39.12.09,0,0a15.05,15.05,0,0,1,1.43,7.4L1015,596l1.26-4.77a20.25,20.25,0,0,0,.7-6.39,15.42,15.42,0,0,1,4.81-.76,14.93,14.93,0,0,1,10.73,4.4c3.1,3.21,4.64,7.93,4.44,13.65l-.11,3.17,1.1-3a20.64,20.64,0,0,0,1.28-6,33.85,33.85,0,0,1,10.8-1.81c8.72,0,14.78,3.55,15.44,9.06a4.72,4.72,0,0,1-1.45,3.53c-2.35,2.65-7.86,5.48-16.29,5.48a50.26,50.26,0,0,1-17.67-3.54l-5.14-2Z"/><path class="cls-9" d="M601.27,631.65l.71.58c6.69,5.54,17.87,8.71,30.68,8.71,11.35,0,22.3-2.57,30-7.06l.72-.42.65.52c4.45,3.51,12.67,5.6,22,5.6,12.48,0,24.68-3.65,31.82-9.53l.62-.51.71.36A19.86,19.86,0,0,0,728,632c4.67,0,11.43-1.73,17.14-10l.65-1,1,.62a43.85,43.85,0,0,0,22.25,6.26c6,0,11.28-1.45,15.32-4.2l.74-.51.71.55c7.71,6,17.56,5.57,28.38-1.25l.58-.37.61.3a39.07,39.07,0,0,0,17,4.24h0c6.3,0,11.92-2,15-5.27a7.25,7.25,0,0,0,2.22-5.45c-.31-4.9-7-10.37-15.4-10.37a21.3,21.3,0,0,0-10.53,2.86l-.82.46-.66-.68a19.16,19.16,0,0,0-13.77-5.87,14.86,14.86,0,0,0-6.93,1.57l-.83.45-.64-.69a22.87,22.87,0,0,0-16.19-6.83,20.06,20.06,0,0,0-8.42,1.81l-.9.41-.59-.8c-4.46-6-12.38-9.41-21.75-9.41-5.85,0-11.48,1.44-15.07,3.84l-.65.43-.67-.41c-5.1-3.12-12.6-5-20-5A36.85,36.85,0,0,0,698,592l-1.22.67-.51-1.3a17.94,17.94,0,0,0-16-11.23l-1.37,0-.24-1a18.21,18.21,0,0,0-11.07-12.54l-.91-.34.11-1a14.26,14.26,0,0,0-3.56-11.46c-3.67-4.13-9.57-6.6-15.79-6.6a19.59,19.59,0,0,0-17.67,10.14l-.35.63h-.72a21.82,21.82,0,0,0-15.95,6.68l-.71.75-.86-.56a19.22,19.22,0,0,0-10.52-3.12c-9.17,0-17.08,6.16-18.4,14.33l-.2,1.28-1.27-.28a19.64,19.64,0,0,0-4.13-.45,17.19,17.19,0,0,0-15.84,9.72l-.5,1-1-.39c-6.64-2.54-13.22-1.58-17.57,2.56l-.95.91-.83-1a14.3,14.3,0,0,0-17.4-2.6l-.82.49-.67-.68c-3.31-3.33-8.33-5.16-14.12-5.16-9.82,0-19.73,5.11-23.05,11.89l-.44.9-1-.25a19.82,19.82,0,0,0-5-.64,17.46,17.46,0,0,0-13.3,5.75l-.73.83-.9-.63a22.58,22.58,0,0,0-12.65-3.84,18.85,18.85,0,0,0-11,3.31l-.86.61-.73-.76c-3.82-3.93-10.37-6.18-18-6.18-10.75,0-20.33,4.28-23.3,10.4l-.55,1.13-1.11-.57a19.57,19.57,0,0,0-8.74-2.13,15.38,15.38,0,0,0-10.44,3.88l-.58.52-.72-.31a39.45,39.45,0,0,0-15.67-3.31A35.63,35.63,0,0,0,342,605.87l-.57.3-.57-.3a25.9,25.9,0,0,0-12.15-3.12c-10,0-17.15,6.07-17.51,11.74a11.41,11.41,0,0,0,3.44,8.45c3.78,4,9.81,6.34,16.55,6.34s14.17-2.32,21.41-6.72l.27-.17h.32a30.17,30.17,0,0,0,16.52-5.71l.94-.7.74.9a23.56,23.56,0,0,0,18.7,8.57,30.51,30.51,0,0,0,17.5-5.6l.73-.54.72.54a23.73,23.73,0,0,0,14.22,4.95,22.92,22.92,0,0,0,12-3.44l.68-.42.66.45c6.48,4.47,15.67,7,25.22,7a46.14,46.14,0,0,0,21.35-4.87l.67-.35.62.44c5.06,3.58,11.89,5.56,19.25,5.56a30.79,30.79,0,0,0,13.38-2.75l.71-.35.6.48a31.4,31.4,0,0,0,19.4,6.43A28.65,28.65,0,0,0,554,628.32l.81-.56.72.67c5.65,5.2,16,8.57,26.37,8.57,7.36,0,14-1.72,18.62-4.84Z"/><path class="cls-10" d="M331.19,631.12c7.17,0,14.65-2.33,22.24-6.91a32.11,32.11,0,0,0,16.93-5.73,25.34,25.34,0,0,0,19.74,8.8,32.55,32.55,0,0,0,18.22-5.7,25.45,25.45,0,0,0,14.95,5,24.84,24.84,0,0,0,12.65-3.5c6.75,4.53,16.17,7.12,25.93,7.12a48.23,48.23,0,0,0,21.88-4.9c5.33,3.67,12.42,5.69,20,5.69a32.6,32.6,0,0,0,13.87-2.78,33.29,33.29,0,0,0,20.22,6.59,30.65,30.65,0,0,0,16.81-4.74c6,5.32,16.66,8.74,27.26,8.74,7.52,0,14.34-1.74,19.26-4.91,7.05,5.63,18.49,8.85,31.5,8.85,11.5,0,22.62-2.59,30.58-7.11,4.88,3.66,13.14,5.75,22.79,5.75,12.91,0,25.09-3.62,32.68-9.7a21.64,21.64,0,0,0,9.31,2.13c5,0,12.22-1.8,18.31-10.31a45.94,45.94,0,0,0,22.72,6.24,29.17,29.17,0,0,0,16-4.28c8.2,6.11,18.62,5.75,29.85-1.24a40.71,40.71,0,0,0,17.48,4.28c6.81,0,12.93-2.19,16.36-5.85a9.07,9.07,0,0,0,2.72-6.83c-.37-5.72-7.54-12.09-17.24-12.09a22.93,22.93,0,0,0-11,2.87,21.07,21.07,0,0,0-14.77-6.1,17,17,0,0,0-7.38,1.58A24.78,24.78,0,0,0,783.85,595a22.09,22.09,0,0,0-8.74,1.77c-4.85-6.2-13.17-9.75-22.92-9.75-6,0-11.88,1.46-15.76,3.93-5.37-3.18-13.06-5.06-20.67-5.06A39.09,39.09,0,0,0,697.67,590a19.88,19.88,0,0,0-17.41-11.76,20.17,20.17,0,0,0-11.65-13.19,16,16,0,0,0-4.07-12.42c-4-4.52-10.42-7.21-17.16-7.21a21.37,21.37,0,0,0-19.1,10.77,23.67,23.67,0,0,0-16.59,6.89A21,21,0,0,0,600.6,560c-9.83,0-18.35,6.51-20.1,15.25a21.12,21.12,0,0,0-3.9-.36,19,19,0,0,0-17.23,10.24c-6.91-2.48-13.78-1.46-18.5,2.71a15.43,15.43,0,0,0-11.37-4.64A15.7,15.7,0,0,0,522,585c-3.65-3.46-9-5.37-15.08-5.37-10.44,0-20.62,5.22-24.47,12.48a22.2,22.2,0,0,0-5-.58,19.39,19.39,0,0,0-14.33,6,24.58,24.58,0,0,0-13.25-3.86A20.73,20.73,0,0,0,438.17,597c-4.2-4.06-11.06-6.38-18.93-6.38-11.12,0-21.13,4.45-24.68,10.89a21.39,21.39,0,0,0-9-2.06,17.26,17.26,0,0,0-11.37,4.09,41.36,41.36,0,0,0-16-3.31,37.49,37.49,0,0,0-16.68,3.85,27.63,27.63,0,0,0-12.73-3.19c-11.05,0-18.93,7-19.35,13.46a13.25,13.25,0,0,0,3.94,9.83C317.43,628.6,324,631.12,331.19,631.12Zm18-21.63a37.71,37.71,0,0,0-3.41-2.76,36.4,36.4,0,0,1,13-2.46,30.06,30.06,0,0,1,12.44,2.59,21.06,21.06,0,0,0-1.68,2.71l-1.84,3.5,2.81-2.78a22,22,0,0,1,15.67-6c6.26,0,12.32,2.21,14.71,5.37l1.57,2.06-.47-2.54c-.38-2-1.89-4.1-4.27-5.85,3.06-4.86,11.65-8.21,21.22-8.21,6.78,0,12.52,1.74,15.9,4.78a19.37,19.37,0,0,0-2.71,3.89l-2.52,4.8,3.53-4.11c3.48-4.06,9.21-6.39,15.71-6.39a27.22,27.22,0,0,1,11.89,2.71,20.94,20.94,0,0,0-2.3,6.15l-1.2,5.89,2.37-5.52c2.87-6.71,10.29-11,18.91-11a21.78,21.78,0,0,1,14.9,5.48l2.39,2.25-1.42-3a16.4,16.4,0,0,0-8.53-7.82c3.59-5.26,12.35-9.15,20.8-9.15,4.86,0,9.05,1.31,11.85,3.71a14,14,0,0,0-2.84,4.85l-1.26,3.69,2.33-3.12c2.4-3.23,6.44-5,11.39-5,6.17,0,12.18,2.79,14.61,6.8l1.28,2.1-.14-2.45a10.54,10.54,0,0,0-.88-3.66c4.2-3.33,9.32-4,14.77-2a28.92,28.92,0,0,0-1.15,5.12l-.9,6.58,2.08-6.3c3.15-9.5,10.37-15,19.84-15a23.61,23.61,0,0,1,13.16,3.94l1.91,1.32-1-2.09a13.69,13.69,0,0,0-7.76-6.52c1.78-6.88,8.58-11.82,16.38-11.82a17.39,17.39,0,0,1,8.66,2.28,24.77,24.77,0,0,0-3.59,10.12l-.88,6.53,2.07-6.26c4-12,15.23-16.33,23.66-16.33,5.66,0,10.83,1.82,14.19,5l2.39,2.26-1.42-3c-2.12-4.43-6.94-7.54-13-8.45a19,19,0,0,1,15.3-7.1c5.45,0,10.51,2,13.55,5.4a12.27,12.27,0,0,1,3.09,9.25,14.28,14.28,0,0,0-8.69,1.8l-3.39,1.93L656,567c4.94-1,11.11,1.44,15.8,6.26,4.43,4.56,6.88,10.33,6.73,15.83l-.1,3.44,1.28-3.19a16.93,16.93,0,0,0,1.18-7c4.89.08,11.76,4.61,13.21,10a26,26,0,0,0-4.86,4.55l-4.17,5.12,5.05-4.26c5.17-4.37,13.44-6.77,23.28-6.77,13.55,0,26.66,4.72,29.23,10.53l1.17,2.64v-2.89c0-2.7-1.34-5.33-3.91-7.65a24.07,24.07,0,0,1,10.55-2c6.78,0,16.2,2,20.93,7.4a25.59,25.59,0,0,0-6.66,6.88L761,611.26l4.63-4.74a22.48,22.48,0,0,1,16.33-7c9.21,0,18.55,5.58,22.69,13.55l1.13,2.19,0-2.46a14,14,0,0,0-2.2-7.42,11.08,11.08,0,0,1,4.49-.82c3.72,0,8.62,1.38,11.5,4.43-.77.59-1.5,1.18-2.2,1.82L813.8,614l4.3-2.27a31.2,31.2,0,0,1,14.57-4c8.85,0,14.64,5,14.74,8.48a4.2,4.2,0,0,1-1.4,2.94c-2.67,2.76-8,4.4-14.35,4.4s-16.53-1.64-29.5-9.46l-5.6-3.38,4.87,4.36a62,62,0,0,0,9.14,6.8,28.8,28.8,0,0,1-12.4,3.17c-10.51,0-17-7.79-20.82-12.45l-2.93-3.48,1,3a29.1,29.1,0,0,0,5.88,9.89,28.27,28.27,0,0,1-13.66,3.13c-12.77,0-25.18-6.15-29.34-11.85L736,610.17l1.25,3.74a16.21,16.21,0,0,0,5.29,7c-4.69,5.46-10.33,8.34-16.34,8.34a21.19,21.19,0,0,1-14.88-6.28l-2.19-2.33,1.17,3a14.24,14.24,0,0,0,4.75,5.89c-6.82,4.22-20.12,7.34-31.51,7.34-7.22,0-12.92-1.23-16.58-3.55a25,25,0,0,0,6.45-6.85l2.84-4.63-3.81,3.88c-6.66,6.8-23.28,11.56-40.42,11.56s-30.32-4.49-36.28-12.33l-2.66-3.5,1.6,4.1a19.1,19.1,0,0,0,3.52,5.64c-4.17,2.23-10.22,3.5-16.76,3.5-9.68,0-18.41-2.66-23.54-7.13a21.26,21.26,0,0,0,4.84-6.83l1.37-3.09L561.74,620a34,34,0,0,1-24.2,9.92,34.74,34.74,0,0,1-27.76-14l-2.66-3.51,1.61,4.1a26.75,26.75,0,0,0,5.55,8.74,27.74,27.74,0,0,1-9.95,1.54c-6.46,0-12.79-1.42-16.83-3.75a25.39,25.39,0,0,0,6.42-6.41l2.89-4.25L493,615.87c-6.23,5.65-17.3,8.89-30.37,8.89-13.23,0-25.48-3.34-32.76-8.93l-3.57-2.73,2.7,3.59a27.59,27.59,0,0,0,3.22,3.52,22.68,22.68,0,0,1-9.57,2.2,19.32,19.32,0,0,1-11.16-3.51,14.25,14.25,0,0,0,4-6.84l.62-3-1.72,2.5c-3.8,5.47-13,11-23.13,11a24.35,24.35,0,0,1-17.45-7.12,13.87,13.87,0,0,0,3.59-6.42l.42-2-1.45,1.47c-4.62,4.68-14.34,11.29-21.49,11.34l-.28.07c-8.28,4.2-15.91,6.34-22.65,6.34-8.56,0-13.16-3.42-15.14-5.45a8.94,8.94,0,0,1-2.85-6c.12-4,7-10,17.13-10,5.76,0,11.59,1.89,17.36,5.62l6.27,4.07Z"/></g></svg>