<svg id="Clouds" xmlns="http://www.w3.org/2000/svg" xmlns:xlink="http://www.w3.org/1999/xlink" viewBox="0 0 1080 600"><defs><style>.cls-1{fill:none;}.cls-2{clip-path:url(#clip-path);}.cls-3{fill:url(#linear-gradient);}.cls-4{fill:url(#linear-gradient-2);}.cls-5{fill:url(#linear-gradient-3);}.cls-6{fill:url(#linear-gradient-4);}.cls-7{fill:url(#linear-gradient-5);}.cls-8{fill:url(#linear-gradient-6);}.cls-9{fill:url(#linear-gradient-7);}.cls-10{fill:url(#linear-gradient-8);}</style><clipPath id="clip-path"><rect class="cls-1" width="1080" height="612"/></clipPath><linearGradient id="linear-gradient" x1="1638" y1="584.99" x2="1638" y2="465.4" gradientTransform="matrix(-1, -0.01, -0.01, 1, 2116.07, 5.37)" gradientUnits="userSpaceOnUse"><stop offset="0" stop-color="#9eb0c4"/><stop offset="0.27" stop-color="#bec7d2"/><stop offset="0.49" stop-color="#d0d8e1"/><stop offset="0.78" stop-color="#e0e7f0"/><stop offset="1" stop-color="#e6edf5"/></linearGradient><linearGradient id="linear-gradient-2" x1="1638" y1="586.51" x2="1638" y2="463.88" gradientTransform="matrix(-1, -0.01, -0.01, 1, 2116.07, 5.37)" gradientUnits="userSpaceOnUse"><stop offset="0" stop-color="#9eb0c4"/><stop offset="0.27" stop-color="#bfc9d4"/><stop offset="0.34" stop-color="#d0d7df"/><stop offset="0.46" stop-color="#e5e9ed"/><stop offset="0.6" stop-color="#f4f5f7"/><stop offset="0.75" stop-color="#fcfdfd"/><stop offset="1" stop-color="#fff"/></linearGradient><linearGradient id="linear-gradient-3" x1="769.5" y1="558.59" x2="769.5" y2="415.59" gradientUnits="userSpaceOnUse"><stop offset="0" stop-color="#9eb0c4"/><stop offset="0.27" stop-color="#bec7d2"/><stop offset="0.28" stop-color="#c1cad5"/><stop offset="0.41" stop-color="#d6dde7"/><stop offset="0.56" stop-color="#e5eaf5"/><stop offset="0.73" stop-color="#edf3fd"/><stop offset="1" stop-color="#f0f5ff"/></linearGradient><linearGradient id="linear-gradient-4" x1="769.5" y1="560.25" x2="769.5" y2="413.93" gradientTransform="matrix(1, 0, 0, 1, 0, 0)" xlink:href="#linear-gradient-2"/><linearGradient id="linear-gradient-5" x1="867.25" y1="664.42" x2="867.25" y2="400.34" gradientUnits="userSpaceOnUse"><stop offset="0" stop-color="#9eb0c4"/><stop offset="0.5" stop-color="#bec7d2"/><stop offset="0.57" stop-color="#ccd4de"/><stop offset="0.68" stop-color="#dbe2eb"/><stop offset="0.81" stop-color="#e3eaf3"/><stop offset="1" stop-color="#e6edf5"/></linearGradient><linearGradient id="linear-gradient-6" x1="867.26" y1="665.95" x2="867.26" y2="398.81" gradientUnits="userSpaceOnUse"><stop offset="0" stop-color="#9eb0c4"/><stop offset="0.27" stop-color="#bfc9d4"/><stop offset="0.31" stop-color="#c8d0da"/><stop offset="0.43" stop-color="#dde2e8"/><stop offset="0.58" stop-color="#eceef2"/><stop offset="0.74" stop-color="#f4f6f8"/><stop offset="1" stop-color="#f7f8fa"/></linearGradient><linearGradient id="linear-gradient-7" x1="324.2" y1="589.34" x2="324.2" y2="418.32" gradientUnits="userSpaceOnUse"><stop offset="0" stop-color="#9eb0c4"/><stop offset="0.27" stop-color="#bec7d2"/><stop offset="0.37" stop-color="#ccd4de"/><stop offset="0.52" stop-color="#dbe2eb"/><stop offset="0.71" stop-color="#e3eaf3"/><stop offset="1" stop-color="#e6edf5"/></linearGradient><linearGradient id="linear-gradient-8" x1="324.19" y1="591.22" x2="324.19" y2="416.45" gradientUnits="userSpaceOnUse"><stop offset="0" stop-color="#9eb0c4"/><stop offset="0.21" stop-color="#bfc9d4"/><stop offset="0.25" stop-color="#c8d0da"/><stop offset="0.39" stop-color="#dde2e8"/><stop offset="0.54" stop-color="#eceef2"/><stop offset="0.72" stop-color="#f4f6f8"/><stop offset="1" stop-color="#f7f8fa"/></linearGradient></defs><title>Artboard 2</title><g class="cls-2"><path class="cls-3" d="M594.62,570.65l-.51.28c-6.74,3.73-17,6.08-26.08,6-8.15-.07-15.42-2-21-5.56l-.48-.31-.52.26c-7.05,3.57-16.91,3.8-23.62.46l-.55-.28-.5.36c-3.66,2.59-11.25,4.09-20.3,4-12-.1-26.65-3.24-32.24-10l-.43-.53-.66.21c-6.86,2.19-14.94,4.41-22.86,4.34a30.85,30.85,0,0,1-15.5-3.94l-.55-.32-.53.36a24.4,24.4,0,0,1-13.89,3.74c-5.42-.05-10.81-1.51-14.09-3.81l-.59-.42-.59.42c-7.6,5.43-18.88,8.49-30.95,8.38-9.26-.08-18.07-2-24.17-5.39l-.54-.29-.52.34a24.93,24.93,0,0,1-14.06,3.89c-4.87-.05-9.62-1.32-12.68-3.42l-.45-.3-.5.2a43.92,43.92,0,0,1-16.63,2.88A43.34,43.34,0,0,1,279.64,568l-.55-.28-.5.36a26.54,26.54,0,0,1-26.54,1.26l-.57-.35-.55.4A18.83,18.83,0,0,1,239.34,573c-5.33,0-11-2-16.84-5.87l-.54-.36-.55.34c-8.84,5.43-16.43,6.51-21.24,6.47-6.24,0-11.77-2-14.8-5.34a7.32,7.32,0,0,1-2.19-5.5c.34-4.69,5.4-9.72,13-9.65a17.81,17.81,0,0,1,5.23.85l.76.24.41-.68c3.15-5.19,9.4-8.25,16.72-8.19A23,23,0,0,1,231,548.56l.74.46.57-.65c4-4.63,11-7.35,18.61-7.28a27.84,27.84,0,0,1,14.1,3.72l.67.41.57-.54a16,16,0,0,1,11.15-4.46,12.57,12.57,0,0,1,5.48,1.22l.77.4.51-.7c4.44-6,12.07-9.61,20.41-9.54a25.77,25.77,0,0,1,6.79.95l.88.25.34-.85a14.75,14.75,0,0,1,13.84-9.21l.87,0,.18-.85c2.42-10.93,14.22-19.65,25.76-18.86l.89.07.17-.88c1.65-8.28,11-16.07,19-15.61l.77,0,.25-.74c3.27-9.79,16.33-13.87,25.27-12l.91.18.27-.88c3.68-11.94,15.49-17.2,25.57-17.11,9.87.08,21.54,5.25,24.73,19.5l.21.93.94-.15a26.86,26.86,0,0,1,4.36-.34c11.57.1,20.33,8.16,20.84,19.15l.05,1,1,0c6.55-.25,11.16,1.82,13.51,5.95l.62,1.1.95-.85a16.61,16.61,0,0,1,11.3-4.35,14.46,14.46,0,0,1,13,7.65l.66,1.32,1-1.09a17.71,17.71,0,0,1,13.38-5.46,19.46,19.46,0,0,1,5.44.8l.77.23.4-.69c3-5.14,9.64-8.42,17-8.35,5.35,0,10.16,1.92,12.86,5l.36.41.53-.07a15.48,15.48,0,0,1,11.25,2.87l.65.51.63-.54a26.39,26.39,0,0,1,17.55-6.84c11.46.1,20.89,8.28,21.45,18.62l0,.88.88.08c4.74.41,8.51,2.21,10.92,5.19a14.83,14.83,0,0,1,2.81,11.32l-.11.9.88.22a9.68,9.68,0,0,1,7,7.1l.26,1,1-.29A13,13,0,0,1,658,541.6l.6.54.66-.47a18.72,18.72,0,0,1,10.7-3.21,15.48,15.48,0,0,1,9.45,3.07l.76.59.63-.74A16.78,16.78,0,0,1,694,535.57c7.06.06,14.29,3.84,18,9.41l.46.7.78-.33a19.19,19.19,0,0,1,7.68-1.59c8.31.08,15,6,17.29,9.68l.47.76.82-.37a21.14,21.14,0,0,1,9.07-2c8.32.07,14.19,5.16,14.45,9.87a7.92,7.92,0,0,1-2.46,5.9c-3.11,3.26-8.56,5.17-14.56,5.12A37.77,37.77,0,0,1,727.22,567l-.75-.44-.56.67a19.51,19.51,0,0,1-15.67,7.09,25.53,25.53,0,0,1-12-3.18l-.59-.33-.53.42A22.47,22.47,0,0,1,682.63,576a27.4,27.4,0,0,1-14.77-4.49l-.42-.3-.49.17a54.9,54.9,0,0,1-18,2.55c-9.15-.08-18.19-1.91-24.8-5l-.54-.26-.49.35c-4.25,3.07-10,4.72-16.29,4.67A24.47,24.47,0,0,1,595.12,571Z"/><path class="cls-4" d="M761.66,568.65a9.46,9.46,0,0,0,2.89-7c-.3-5.4-6.79-11.23-16-11.31a22.74,22.74,0,0,0-9.31,2c-2.73-4.13-9.62-10-18.34-10a20.23,20.23,0,0,0-7.91,1.55,24.2,24.2,0,0,0-19-9.74,18.4,18.4,0,0,0-14.07,6,17.15,17.15,0,0,0-10-3.09,20.31,20.31,0,0,0-11.27,3.26,14.41,14.41,0,0,0-13.24-3,11.15,11.15,0,0,0-7.5-7.58,16.16,16.16,0,0,0-3.2-12c-2.59-3.23-6.58-5.2-11.53-5.72-.85-10.94-10.84-19.52-22.94-19.62A27.74,27.74,0,0,0,582,499.22a17,17,0,0,0-11.77-3c-3-3.36-8.06-5.31-13.82-5.36-7.81-.07-14.7,3.28-18.09,8.77a21.36,21.36,0,0,0-5.47-.76,19.44,19.44,0,0,0-14,5.44,16,16,0,0,0-14-7.85A18.11,18.11,0,0,0,493,500.84c-1.86-2.91-5.63-6.15-13.24-6.21h-.84c-.79-11.57-10.1-20-22.33-20.1a27.83,27.83,0,0,0-4.15.28c-3.52-14.77-15.74-20.14-26.08-20.23-10.53-.09-22.86,5.37-26.91,17.76a24.48,24.48,0,0,0-4.17-.39c-8.48-.07-19,4-22.28,13.17h-.2c-8.4-.08-17.94,7.84-19.91,16.42q-.48,0-1,0c-11.69-.11-23.19,8.69-25.85,19.69h-.12A16.45,16.45,0,0,0,311.3,531a27.74,27.74,0,0,0-6.75-.88c-8.67-.08-16.63,3.59-21.4,9.82a13.92,13.92,0,0,0-5.77-1.2,17.51,17.51,0,0,0-11.94,4.61,29.72,29.72,0,0,0-14.55-3.75c-8-.07-15.11,2.65-19.5,7.49a24.45,24.45,0,0,0-12.1-3.22c-7.71-.07-14.34,3.13-17.83,8.58a19.59,19.59,0,0,0-5.3-.81c-8.45-.07-14.11,5.69-14.5,11.07a8.82,8.82,0,0,0,2.59,6.64c3.31,3.6,9.26,5.78,15.9,5.84,7.1.06,14.62-2.2,21.78-6.53,6,3.89,11.85,5.89,17.4,5.94a20.46,20.46,0,0,0,12.24-3.75,28.2,28.2,0,0,0,27.66-1.32,45.17,45.17,0,0,0,19.33,4.24,45.91,45.91,0,0,0,17-2.9,25.19,25.19,0,0,0,13.3,3.53,26.54,26.54,0,0,0,14.67-4c6.3,3.37,15.25,5.35,24.62,5.43,12.23.11,23.7-3,31.56-8.46,3.54,2.35,9.11,3.84,14.66,3.88a26,26,0,0,0,14.49-3.82,32.55,32.55,0,0,0,16,4c8,.06,16.12-2.12,23-4.31,6.44,7.44,21.84,10.2,33.17,10.3,9.17.07,17-1.46,21-4.13a26.38,26.38,0,0,0,11.21,2.46,29.8,29.8,0,0,0,13.25-2.92c5.83,3.62,13.29,5.58,21.61,5.65,11.16.09,21-3,26.58-6.05a26.51,26.51,0,0,0,12.22,2.79,29.33,29.33,0,0,0,16.95-4.79c6.78,3.13,15.92,5,25.16,5.05a56.76,56.76,0,0,0,18.27-2.55,28.75,28.75,0,0,0,15.41,4.63,24.4,24.4,0,0,0,15.17-5,27.16,27.16,0,0,0,12.45,3.22,21,21,0,0,0,16.58-7.32A39.14,39.14,0,0,0,746,574.25C752.5,574.3,758.21,572.26,761.66,568.65Zm-350.09-14-6.27,6.17c-7.47,7.33-20.62,11.46-36.11,11.33-14.17-.12-27.4-3.95-32.89-9.51l-2.71-2.75,1.9,3.35a17,17,0,0,0,5,5.28c-2.71,1.69-6.8,2.63-11.37,2.59a26.32,26.32,0,0,1-10.06-1.9,23.64,23.64,0,0,0,4.54-3.15l4.48-4L323,565.26c-5,3.12-14.2,5-24.09,4.92-11.38-.1-21.11-2.72-26.7-7.18l-4.37-3.48,3.67,4.22a22.84,22.84,0,0,0,4.6,4c-2.7,1.87-6.94,2.91-11.78,2.86a25.81,25.81,0,0,1-10.19-2,15.17,15.17,0,0,0,3.43-5.38l.86-2.51-1.73,2a22.48,22.48,0,0,1-17.25,7.81,31.31,31.31,0,0,1-14.3-4,61.4,61.4,0,0,0,5.4-4.24l5.32-4.67-5.93,3.86c-13.14,8.57-23,10.31-29,10.25-8.27-.07-12.3-3.36-13.65-4.77a5.61,5.61,0,0,1-1.84-3.88c.13-3.47,4.94-8.27,12.48-8.2,4.34,0,8.94,1.64,13.69,4.77l5.16,3.41-4.54-4.2a30,30,0,0,0-7.44-5.16c2.88-4.1,8.66-6.69,15-6.64a18,18,0,0,1,9.65,2.66,17.6,17.6,0,0,0-2.09,4.86l-1.08,4.06,2-3.69c4.09-7.51,12.47-11.77,23-11.68,8.45.07,16.45,3.11,20.39,7.75l2.78,3.25-1.94-3.81a16.36,16.36,0,0,0-4.14-5.12,14.16,14.16,0,0,1,9.33-3.35,9.39,9.39,0,0,1,3.71.71,22.94,22.94,0,0,0-2.07,5.15l-1.09,4.08,2-3.71c5-9.1,14.74-14.47,26.15-14.37,5.78,0,11.3,1.65,15.13,4.4l3.47,2.49-2.79-3.23a20.35,20.35,0,0,0-7.64-5.44c1.6-4.25,7.15-7.57,10.91-7.54h.07a21.35,21.35,0,0,0,0,3.75l.37,4.2.64-4.17a27.42,27.42,0,0,1,27.55-23.47,28.13,28.13,0,0,1,10.06,2l3.14,1.23-2.64-2.1a19.87,19.87,0,0,0-8.29-3.92c1.66-5.9,9.66-13.66,15.83-13.61h0a18.35,18.35,0,0,0-.11,4.19l.31,3.34.7-3.28c2.7-12.65,13.86-17.07,23.41-17A30.67,30.67,0,0,1,408,477.93l1.93.82-1.34-1.61a13.44,13.44,0,0,0-5.67-3.85c3.54-9.22,12.64-15.09,23.34-15,8.82.08,19.38,4.65,22.83,17.21-6.1,1.63-11.88,5.15-17.18,10.46l-5.49,5.49,6.16-4.73c7.21-5.55,14.78-8.45,21.87-8.39,7.46.06,13.86,3.45,17.57,9.3,4.38,6.92,4.42,16.26.09,25.64l-2.61,5.64,3.49-5.15a32.69,32.69,0,0,0,5.9-15.28c5.07.29,8.79,1.84,11,4.61,2.44,3,3.22,7.38,2.31,13l-.42,2.62,1.36-2.28a16,16,0,0,0,1.41-12.12,15,15,0,0,1,10.6-4.11c5.15,0,9.7,2.62,11.68,6.58A17.92,17.92,0,0,0,514.3,519l1.25,10.26-.24-10.33a13.78,13.78,0,0,1,4.1-10.19c3.73-3.8,9.62-6,15.74-6a19.33,19.33,0,0,1,12.59,4.39l3.65,3.2-2.9-3.88a18.22,18.22,0,0,0-6.6-5.45c2.9-4.05,8.84-6.59,15.33-6.54a17.15,17.15,0,0,1,9.45,2.57,13.76,13.76,0,0,0-8.33,6.89l-1.19,2.44,2-1.85a18.1,18.1,0,0,1,12.4-4.44c7.16.06,13.28,3.71,15.61,9.29l1.93,4.62-1-4.91a16.25,16.25,0,0,0-3.37-7.32A23.84,23.84,0,0,1,600.14,496a19.7,19.7,0,0,1,17.46,10.25c3.73,7.1,2.59,15.76-3.22,24.37l-3.47,5.14,4.26-4.51c4.65-4.92,7.41-10.33,8-15.69,9.59,1.19,11.67,7.94,11.64,13.65a13,13,0,0,0-8.14,3.19l-2.1,1.74,2.58-.87a17.67,17.67,0,0,1,5.78-1c6.73.06,11.23,5,11.75,12.83l.23,3.48.77-3.41a17.14,17.14,0,0,0,.42-4.37,11,11,0,0,1,9.89,1.66,11.12,11.12,0,0,0-3,6.57l-.24,2.72,1.2-2.45c2.59-5.26,9.35-8.75,16.83-8.69,5.42.05,10.17,2,13,5.43l2.89,3.44-2-4a16.36,16.36,0,0,0-1.94-2.93A16.12,16.12,0,0,1,694.17,538c9.74.08,19.23,8.05,20.74,17.4l.41,2.59.58-2.56a12.88,12.88,0,0,0-1.08-8.51,16.92,16.92,0,0,1,6.57-1.31c7.25.06,12.67,5.16,14.81,8.21a30.21,30.21,0,0,0-4.63,3.42L727,561.41l5.22-3.32a26.43,26.43,0,0,1,14.44-4.54c8.4.07,14.07,5.1,14.14,8.4a6.43,6.43,0,0,1-2.14,4.34c-2.9,2.93-7.76,4.59-13.33,4.54-8.12-.07-17.7-3.68-27.7-10.45l-3.05-2.07,2.38,2.82a25.73,25.73,0,0,0,6.29,5.61,19.68,19.68,0,0,1-13.86,5.39c-8.36-.07-16-4.85-19.13-9.53l-1.41-2.07.49,2.46c.54,2.72,2.5,5.44,5.53,7.71a20.57,20.57,0,0,1-12.66,3.9c-4.4,0-8.77-1.3-11.21-3.2a20.21,20.21,0,0,0,5.57-3.82l4.87-5-5.54,4.18c-4.64,3.5-13.11,5.38-23.84,5.29-15.51-.14-31.33-4.44-37.61-10.24L611.29,559l2.35,3.54a21,21,0,0,0,6.82,6.14c-3.37,1.93-8.65,3.08-14,3a22.56,22.56,0,0,1-8.47-1.44,8.42,8.42,0,0,0,3-3.66l.86-2.5-1.73,2c-3,3.44-17.85,8.46-32.37,8.33-7-.06-13.08-1.29-18-3.66a18.25,18.25,0,0,0,4.43-4.43l2.41-3.53-3.17,2.87c-4.6,4.17-12.19,6.72-19.81,6.65s-14.27-2.56-19.1-7l-2.49-2.3,1.7,2.93a17.9,17.9,0,0,0,5,5.44c-3.41,1.75-10.33,2.83-18.05,2.76-10.24-.09-23-2.35-28.86-8.36l1.74-.58c6.56-2.19,12.24-4.09,16.38-4.05a11.73,11.73,0,0,1,1.64.13l4.22.71-3.94-1.67a9.83,9.83,0,0,0-3.85-.68c-4.05,0-9.5,1.4-15.79,3.06-8.55,2.26-18.24,4.82-28,4.74-9.29-.08-16.9-2.59-23.25-7.67l-4.65-3.72,3.95,4.46a33.78,33.78,0,0,0,5.52,5c-2.56,1.64-6.46,2.51-11.09,2.47-4.9,0-9.75-1.11-12.42-2.7a29.15,29.15,0,0,0,3.7-3.78Z"/><path class="cls-5" d="M699.33,548.29l.52.62c5.23,6.15,13.68,9.68,23.18,9.68,7.36,0,14.14-2.16,18.62-5.91l.6-.5.67.39a23.31,23.31,0,0,0,11.84,3,27.18,27.18,0,0,0,15.57-4.81l.57-.41.62.34a19.66,19.66,0,0,0,18.46-.17l.61-.33.57.41a29.28,29.28,0,0,0,17.33,5.69,26.68,26.68,0,0,0,18.35-7l.59-.54.71.38c3.58,2,8.79,3.1,14.64,3.1,9.41,0,22.58-3.11,28.74-11.9l.73-1,.93.86a27,27,0,0,0,18.62,7.3,29.3,29.3,0,0,0,15.46-4.43l.81-.51.62.72a20.81,20.81,0,0,0,16,7.18c8.57,0,17.12-4.71,21.27-11.74l.56-.94.94.54a23.54,23.54,0,0,0,11.78,3.21c9.36,0,16.37-5.68,16.81-10.77a8.7,8.7,0,0,0-2.56-6.63c-3.43-3.74-9.57-6-16.43-6a38.17,38.17,0,0,0-12.65,2.28l-.84.29-.47-.74c-3.69-5.9-11.77-10-19.66-10a20.16,20.16,0,0,0-6.6,1.07l-1.56.54.09-1.65c.29-4.89-1.19-9.29-2.79-11.48l-.7-1,1-.63c3.57-2.24,5.06-5.5,4.07-9a10.13,10.13,0,0,0-9.49-7.06,9.93,9.93,0,0,0-5.83,2l-.74.52-.65-.62a19.32,19.32,0,0,0-9.71-5.06l-1.17-.16.23-1.15a10.17,10.17,0,0,0-2.18-8.67,14.87,14.87,0,0,0-11.3-5.12,12.55,12.55,0,0,0-6.22,1.58l-1.08.62-.49-1.14c-4.52-10.58-13.1-16.9-22.95-16.9-10.43,0-19.62,6.87-23.42,17.5l-.47,1.33-1.18-.78a13.47,13.47,0,0,0-6.85-2.21l-1.32-.07.3-1.28c.85-3.76,2.65-16.29-9.83-19.92l-1-.3.28-1c1.72-6.59.85-12.38-2.53-16.77S790,416,783.53,416A21.38,21.38,0,0,0,771,420l-.64.47-.64-.45a22.83,22.83,0,0,0-12.92-4.4c-7.26,0-14,4.44-17.61,11.58l-.59,1.19-1.07-.8a14.84,14.84,0,0,0-14.73-1.78l-.58.27-.52-.36a22.8,22.8,0,0,0-12.92-4.41,19.35,19.35,0,0,0-15.11,7.66,23,23,0,0,0-4.44,19.35l.25,1.06-1.05.27a16,16,0,0,0-10.56,8.54c-3.52,6.95-2.88,15.54-.68,21l.43,1.07-1.08.39a14,14,0,0,0-3.15,1.62l-.87.59-.63-.83c-5.65-7.34-12-8.88-16.32-8.88-10.38,0-19.94,8.79-21.32,19.61l-.14,1.07-1.07-.11a13,13,0,0,0-12.18,5.79,12,12,0,0,0-1.3,11.29l.38.89-.83.49a11.82,11.82,0,0,0-3.79,3.55l-.58.85-.9-.52a19.37,19.37,0,0,0-9.74-2.64,18.92,18.92,0,0,0-16.85,10l-.45.84-.9-.31a22.43,22.43,0,0,0-7.45-1.3c-8.63,0-14.95,5.19-15.44,10a8.74,8.74,0,0,0,2.55,6.71c3.48,3.84,9.67,6.14,16.58,6.14A42,42,0,0,0,601.85,540l.79-.42.58.67c4.79,5.62,12,6.8,17.27,6.8a42.7,42.7,0,0,0,23.15-7.19l.69-.47.64.52a26.1,26.1,0,0,0,16.62,5.71,24.77,24.77,0,0,0,10.9-2.28l.67-.36.57.49c7.1,6.14,17,8.31,24.86,5.12Z"/><path class="cls-6" d="M957,516.49a39.58,39.58,0,0,0-12.8,2.23c-4.08-6.15-12.57-10.42-20.83-10.42a22.31,22.31,0,0,0-6.38.91,20.61,20.61,0,0,0-2.81-11.27c3.9-2.65,5.47-6.45,4.31-10.5a11.85,11.85,0,0,0-11.09-8.26,11.51,11.51,0,0,0-6.42,2,21,21,0,0,0-9.72-5.1,11.71,11.71,0,0,0-2.63-9.48,16.54,16.54,0,0,0-12.58-5.73,14.34,14.34,0,0,0-6.51,1.51C864.73,451.5,855.71,445,845.35,445c-10.93,0-20.57,7-24.74,18a15.36,15.36,0,0,0-6.45-2.07c2.15-10.46-1.78-18.28-10.61-21.09,2.12-8.68-.41-14.39-2.95-17.68-3.76-4.88-10.14-7.79-17.07-7.79a23.19,23.19,0,0,0-13.22,4,24.3,24.3,0,0,0-13.53-4.47c-7.7,0-14.84,4.55-18.79,11.92a16.55,16.55,0,0,0-15.63-1.71,24.26,24.26,0,0,0-13.6-4.52,21,21,0,0,0-16.42,8.28,24.72,24.72,0,0,0-4.86,20.25,17.55,17.55,0,0,0-11.11,9.26c-3.65,7.19-3.12,16-1,21.83a15.49,15.49,0,0,0-2.56,1.32c-6-7.52-12.69-9.12-17.31-9.12-11,0-21.18,9.16-22.9,20.53a14.7,14.7,0,0,0-13.2,6.57A13.72,13.72,0,0,0,617.84,511a13.43,13.43,0,0,0-3.62,3.38,20.93,20.93,0,0,0-10.14-2.62A20.56,20.56,0,0,0,586,522.17a24.14,24.14,0,0,0-7.56-1.24c-8.78,0-16.45,5.18-17.09,11.53a10.47,10.47,0,0,0,3,8c3.78,4.18,10.44,6.67,17.81,6.67a43.41,43.41,0,0,0,20.13-5.45c5.2,5.81,12.76,7,18.24,7a44.41,44.41,0,0,0,23.75-7.25,27.85,27.85,0,0,0,17.36,5.82,27,27,0,0,0,11.33-2.3,28.22,28.22,0,0,0,17.83,6.78,22.33,22.33,0,0,0,8.09-1.49c5.56,6.34,14.35,10,24.19,10,7.58,0,14.61-2.2,19.38-6a25,25,0,0,0,12.34,3.09A29.06,29.06,0,0,0,771,552.36a21.36,21.36,0,0,0,19.44-.16,31,31,0,0,0,18,5.8,28.37,28.37,0,0,0,19.19-7.19c3.82,2,9.16,3.11,15.1,3.11,9.62,0,23.06-3.18,29.73-12.1a28.57,28.57,0,0,0,19.28,7.33,31,31,0,0,0,16-4.44,22.43,22.43,0,0,0,16.91,7.4c9,0,17.89-4.84,22.42-12.1a25,25,0,0,0,12.13,3.17c9.43,0,17.88-5.63,18.46-12.29a10.26,10.26,0,0,0-3-7.89C970.94,518.93,964.34,516.49,957,516.49Zm-8.15,16a26.46,26.46,0,0,1-23.43,15.26,21,21,0,0,1-14.26-5.47,22.34,22.34,0,0,0,5.92-7.59l1.4-3-2.3,2.43a33.82,33.82,0,0,1-24.08,10.14c-7,0-17.18-2.18-26.19-12.55l-3.31-3.81,2.4,4.43a37.52,37.52,0,0,0,4.35,6.38c-5.29,7.7-18.5,11.21-28.68,11.21-4.3,0-8.05-.63-10.44-1.74a26.84,26.84,0,0,0,5.14-9.9l1.07-3.79-2.07,3.35c-6.14,10-15.41,15.43-26.11,15.43-9.9,0-19.84-4.91-27.29-13.48l-3.31-3.81,2.41,4.44a35.6,35.6,0,0,0,6.65,8.78,19.72,19.72,0,0,1-7.16,1.39,17.82,17.82,0,0,1-15.58-9.2l-1.35-2.38.32,2.72a13.4,13.4,0,0,0,4.68,8.43c-3.18,2-8.49,3.37-13.52,3.37a20.08,20.08,0,0,1-9-1.87,14.75,14.75,0,0,0,3.38-7.69l.25-2-1.24,1.65c-5.55,7.37-14.93,11.77-25.07,11.77a33.59,33.59,0,0,1-27.84-14.84l-2.06-3,1.08,3.46a26,26,0,0,0,2.53,5.63,21.33,21.33,0,0,1-5.84.81c-11,0-20.78-8.09-23.54-15.59l-.94-2.56-.13,2.73c-.16,3.21,1.36,6.79,4.28,10.16a23.53,23.53,0,0,1-7.75,1.14c-3.28,0-9.46-.54-14.84-4.08,4.21-3.55,6.85-7.61,7.63-11.78l.87-4.58L654,527c-4.23,9.4-19.31,17.34-32.92,17.34-6.22,0-11.43-1.67-15.11-4.82a68.93,68.93,0,0,0,7.2-5.25l5.16-4.29-5.79,3.39c-10.33,6-20.41,9.23-29.13,9.23-6.85,0-12.84-2-16-5.44a5.9,5.9,0,0,1-1.89-4.17c.22-3.38,6.31-8.47,15-8.47,5.46,0,10.94,1.9,16.3,5.65l5.53,3.87-4.82-4.71a31.73,31.73,0,0,0-7.7-5.62,15.41,15.41,0,0,1,13.56-7.93,20.57,20.57,0,0,1,9,2.24,17.09,17.09,0,0,0-.43,8.68l1,5.22.11-5.3c.2-9,8-13.69,15.67-13.69A15.71,15.71,0,0,1,639,516.54l3.27,2.84-2.45-3.57a16.33,16.33,0,0,0-13.61-7.24,16,16,0,0,0-5.08.82,9.58,9.58,0,0,1,1.73-8.15c2.53-3.32,7.22-5.38,12.26-5.38a19.21,19.21,0,0,1,8.12,1.82l4.19,2-3.61-2.91a22.2,22.2,0,0,0-7.43-4.09c2.59-9.48,10.15-15.82,19-15.82a20,20,0,0,1,14.32,6.45,16.14,16.14,0,0,0-3.55,14.09l1,5.22.11-5.31c.2-9,8-13.68,15.67-13.68a15.71,15.71,0,0,1,10.35,3.58l2.13,1.84-1.27-2.5c-2.7-5.35-7.43-8.41-13-8.41a14.28,14.28,0,0,0-2.16.16c-1.66-6.09-1.2-14.89,3.57-21.3,4.15-5.57,10.74-8.2,19-7.53l7.11.58-6.93-1.67a31.73,31.73,0,0,0-10.55-.9,21.64,21.64,0,0,1,5.13-16.55,18.11,18.11,0,0,1,13.62-6.08,21.24,21.24,0,0,1,8.55,1.88,18.07,18.07,0,0,0-4.74,7.23l-1.85,5,2.84-4.49A15.63,15.63,0,0,1,728,426.91a17.47,17.47,0,0,1,15,8.72l1.47,2.59-.43-2.94a13.31,13.31,0,0,0-2.56-6,18.23,18.23,0,0,1,16.37-10.07,21.35,21.35,0,0,1,9.1,2.13,22.8,22.8,0,0,0-5.68,12.65l-.83,6.12,1.91-5.87c3.61-11.14,13.56-15.09,21-15.09,5.79,0,10.9,2.19,14,6,2.92,3.58,3.92,8.38,2.89,13.91a32.28,32.28,0,0,0-5.4-.43h-3.74l3.58,1.08c15.76,4.76,15.77,16.34,14.91,21.49-5.37,1.11-9.63,4.95-11.74,10.6l-1.86,5,2.85-4.49A13,13,0,0,1,810.27,466c7.14,0,14.06,4.74,16.1,11l.87,2.67.21-2.8a14.76,14.76,0,0,0-3.59-11.3c3.73-9.63,11.63-15.6,20.68-15.6,8.76,0,16.5,5.56,21.28,15.27-2.46,2.8-3.79,6.7-4,11.57l-.17,5.23L863,477c2-8.07,8.18-10.95,13.29-10.95a12.13,12.13,0,0,1,10.38,5.3c1.49,2.41,2.62,6.58-.44,12.74L884,488.5l3.11-3.79a21.83,21.83,0,0,0,3.14-5.06,15.44,15.44,0,0,1,7.92,4,23.93,23.93,0,0,0-3.77,5.54L892,493.84l3.28-4.08c4.39-5.44,8.89-6.26,11.18-6.26,3.68,0,6.66,2,7.42,4.94,1,3.92-2.13,8.3-8.38,11.72l-3.26,1.78,3.64-.75a28.26,28.26,0,0,0,4.81-1.43,21.85,21.85,0,0,1,2.4,11.09A21.21,21.21,0,0,0,904,521.56l-2.24,5.33,3.21-4.81A21.13,21.13,0,0,1,923,512.41c11,0,21.74,7.39,22.47,15.51l.42,4.77.68-4.74a12.42,12.42,0,0,0-.75-6.19,39.34,39.34,0,0,1,9.52-1.26c9.11,0,13.65,3.74,15.17,5.35a6.89,6.89,0,0,1,2.22,4.77c-.19,3.42-6.46,8.59-15.5,8.59a25.8,25.8,0,0,1-8.84-1.61,20.47,20.47,0,0,0,1.56-4.81l.87-4.59Z"/><path class="cls-7" d="M1157,658.79l.46.44c3.59,3.35,10.44,5.19,19.29,5.19,10.88,0,23-2.83,30-7l.5-.29.51.28c10.34,5.69,21.29,6.89,28.66,6.89h0c11.61,0,22.59-3.06,26.7-7.44a4.44,4.44,0,0,0,1.44-3.24c-.31-4.83-8.3-9.07-17.1-9.07a27.87,27.87,0,0,0-7.34,1l-.69.19-.41-.58c-5-7.05-12.92-10.94-22.31-10.94a35.6,35.6,0,0,0-12.63,2.35l-.72.28-.46-.62a22.61,22.61,0,0,0-17.85-9.19,20.61,20.61,0,0,0-10.2,2.73l-.79.45-.54-.74c-2.72-3.78-7.41-5.95-12.88-5.95a21.78,21.78,0,0,0-2.28.13l-1.4.15.3-1.37a10.45,10.45,0,0,0-3.92-10.83l-.72-.52.42-.79c2.31-4.2,2-9.33-.78-14.06a22.8,22.8,0,0,0-19-10.88,21,21,0,0,0-12.46,4.18l-.68.49-.61-.58a21.87,21.87,0,0,0-14.86-5.81c-8.2,0-15.57,4.51-20.22,12.36l-.6,1-.91-.74a28,28,0,0,0-8.93-4.9l-1.18-.37.59-1.09c2.59-4.77,2.13-10.57-1.31-16.33-5-8.36-14.76-14.2-23.8-14.2a20.66,20.66,0,0,0-5.84.83l-1.24.37-.07-1.29c-.31-6-3.85-11.72-9.71-15.75l-1.22-.84,1.23-.84c12.77-8.68,17.75-22.47,13.32-36.88-4.68-15.2-18.25-25.39-31.92-23.74l-1.22.15.09-1.22a28.13,28.13,0,0,0-7.27-21.42,26.31,26.31,0,0,0-19.1-8.49c-9.5,0-17.25,5.51-21.27,15.11l-.37.89-.9-.32a23.07,23.07,0,0,0-3.69-1l-.82-.14,0-.83c-.4-13.43-12.5-22.46-23.54-22.46a17.78,17.78,0,0,0-8.08,1.84l-.8.4-.51-.74a17.13,17.13,0,0,0-7.23-6.06l-1-.45.53-1c3.12-5.6,3.44-10.81.94-15.06-2.71-4.6-8.49-7.58-14.72-7.58a16.07,16.07,0,0,0-7.14,1.58l-.87.42-.47-.84a17.61,17.61,0,0,0-15.16-9.33A13.94,13.94,0,0,0,869.1,410l-.84,1.06-.78-1.12a22.33,22.33,0,0,0-18.6-9.56c-9.72,0-19.92,5.91-20.14,15.8l0,.89-.88.1a27.92,27.92,0,0,0-5.47,1.15c-11.76,3.77-22.68,16-19.83,29.12l.27,1.22h-1.25a15.89,15.89,0,0,0-10.34,3.89l-.67.6-.68-.6a21.94,21.94,0,0,0-14.4-5.79c-6.76,0-13.46,3.59-17.93,9.6a24.78,24.78,0,0,0-4,22.12l.24.8-.74.39a21.55,21.55,0,0,0-9.16,9.59l-.37.76-.82-.23a18.12,18.12,0,0,0-5.05-.69c-6.86,0-15.33,3.65-18.79,11.82l-.39.93-.93-.38a14.68,14.68,0,0,0-5.58-1.13,15.24,15.24,0,0,0-12.89,7.76,15.83,15.83,0,0,0-.26,15.86l.57,1-1.11.41c-2.79,1-7.66,3.89-8.95,11.39l-.18,1.05-1-.22a29.09,29.09,0,0,0-21.15,3l-.56.33-.53-.38a16.7,16.7,0,0,0-9.85-2.87c-7.32,0-15.82,3.76-19.77,8.75l-.81,1-.79-1a28.28,28.28,0,0,0-22.16-11.37,23.25,23.25,0,0,0-23.43,22.5,21.32,21.32,0,0,0,6,15.78l.6.62-.51.7a16.1,16.1,0,0,0-2.86,7.53l-.11.86-.87,0a20.54,20.54,0,0,0-13.2,5.44l-.64.58-.68-.54c-4.49-3.53-8.91-5.33-13.16-5.33a14,14,0,0,0-10.31,4.54c-3.68,3.86-5.69,9.79-5.39,15.86l0,.78-.74.24a13.45,13.45,0,0,0-7.75,6.48l-.43.8-.84-.34A30.64,30.64,0,0,0,527,609.36c-5.52,0-10.12,1.64-13,4.62l-.55.57-.7-.4a39.07,39.07,0,0,0-19.41-5.44c-12.24,0-22.49,6.61-23.34,15.06a14.26,14.26,0,0,0,3.84,11c4.4,4.86,11.9,7.65,20.58,7.65A54.29,54.29,0,0,0,512.69,639l.3-.11.31.08a45.64,45.64,0,0,0,21.56.08l.6-.14.4.47c12,13.88,38.76,18.82,59.82,18.82,12.29,0,23.11-1.62,28.23-4.24l.55-.27.5.34c8.23,5.72,18.73,8.74,30.38,8.74a67.4,67.4,0,0,0,28.16-6.1l.54-.25.49.35c3.43,2.44,8.27,3.79,13.63,3.79,8.75,0,17.27-3.54,22.77-9.46l.45-.48.63.21a46,46,0,0,0,14.8,2.37,52.14,52.14,0,0,0,26.69-7.38l.43-.26.48.19a47.72,47.72,0,0,0,18.35,3.51,57.62,57.62,0,0,0,25.44-6l.67-.34.52.55c5.86,6.22,22.17,11.08,37.16,11.08,8.86,0,15.79-1.75,19.5-4.94l.62-.53.66.49c8.14,6.11,17.47,9.08,28.53,9.08,10.19,0,20-2.53,27.94-4.58l.48-.12.39.3c6.07,4.59,15.07,7.12,25.33,7.12,9.55,0,19-2.32,23.51-5.77l.49-.37.56.26c11.68,5.41,27.21,8.51,42.6,8.51,14.18,0,27.1-2.53,37.37-7.29l.5-.23.47.29c5.26,3.24,16.15,5.34,27.74,5.34,13.47,0,24.6-2.82,29.79-7.53l.56-.52.66.4a50.94,50.94,0,0,0,26.5,7.24,44.58,44.58,0,0,0,15.62-2.66Z"/><path class="cls-8" d="M974.19,657c11.85,5.42,27.49,8.52,43,8.52,14.29,0,27.34-2.53,37.77-7.31,5.57,3.3,16.63,5.42,28.31,5.42,13.81,0,24.9-2.79,30.53-7.67a52.59,52.59,0,0,0,27,7.26,46.07,46.07,0,0,0,15.85-2.65c3.93,3.48,11.05,5.4,20.1,5.4,11,0,23.23-2.85,30.56-7.12,10.54,5.73,21.65,6.94,29.15,6.94h0c12,0,23.44-3.25,27.81-7.91a5.85,5.85,0,0,0,1.85-4.39c-.36-5.69-8.89-10.49-18.62-10.49a29.6,29.6,0,0,0-7.4.93c-5.3-7.28-13.58-11.28-23.35-11.28a37.19,37.19,0,0,0-12.81,2.31,24.2,24.2,0,0,0-18.85-9.49,22,22,0,0,0-10.56,2.71c-3-4-8.06-6.22-13.85-6.22-.58,0-1.17,0-1.76.07a11.83,11.83,0,0,0-4.29-11.43c2.35-4.62,2-10.12-1-15.19a24.37,24.37,0,0,0-20.31-11.62,22.44,22.44,0,0,0-13,4.22,23.42,23.42,0,0,0-15.6-6c-8.58,0-16.28,4.59-21.23,12.62A29.59,29.59,0,0,0,1075,590c2.54-5.15,2-11.27-1.61-17.31-5.24-8.79-15.57-14.94-25.12-14.94a21.88,21.88,0,0,0-5.67.73c-.52-6-4-11.74-9.72-15.87,12.91-9.1,17.89-23.32,13.31-38.18-4.82-15.67-18.66-26.26-33-24.87a29.56,29.56,0,0,0-7.7-21.95,27.89,27.89,0,0,0-20.22-9c-10,0-18.17,5.68-22.49,15.62a22.37,22.37,0,0,0-3.07-.8c-.66-14.1-13.41-23.54-25-23.54a19.35,19.35,0,0,0-8.37,1.81,18.82,18.82,0,0,0-7.13-6c4-7.46,2.56-12.85.65-16.1-3-5-9.27-8.32-16-8.32a17.91,17.91,0,0,0-7.38,1.52,19.08,19.08,0,0,0-16.26-9.69,15.41,15.41,0,0,0-11.87,5.33,23.81,23.81,0,0,0-19.46-9.68c-10.31,0-21.12,6.3-21.65,16.86a29,29,0,0,0-5.32,1.16c-12.22,3.92-23.57,16.55-21,30.29a17.51,17.51,0,0,0-10.39,4,23.36,23.36,0,0,0-15.07-5.89c-7.24,0-14.4,3.82-19.15,10.22A26.33,26.33,0,0,0,752,478.49a23.06,23.06,0,0,0-9.26,9.69,19.93,19.93,0,0,0-5.06-.63c-7.23,0-16.14,3.8-20,12.29a16.18,16.18,0,0,0-5.69-1.06,16.77,16.77,0,0,0-14.22,8.52,17.34,17.34,0,0,0-.54,16.86,15.66,15.66,0,0,0-9.3,11.84,30.82,30.82,0,0,0-21.44,3.13,18.21,18.21,0,0,0-10.45-3c-7.51,0-16.2,3.76-20.56,8.83a29.73,29.73,0,0,0-23-11.47,24.75,24.75,0,0,0-25,24,22.84,22.84,0,0,0,6.15,16.59,17.5,17.5,0,0,0-2.83,7.47,22,22,0,0,0-13.44,5.53c-4.65-3.59-9.28-5.4-13.77-5.4a15.45,15.45,0,0,0-11.41,5,22.87,22.87,0,0,0-5.83,16.6,15,15,0,0,0-8,6.69A32.14,32.14,0,0,0,527,607.83c-5.77,0-10.64,1.71-13.78,4.81a40.56,40.56,0,0,0-19.84-5.45c-13,0-23.93,7.21-24.86,16.43a15.75,15.75,0,0,0,4.23,12.21c4.69,5.18,12.6,8.15,21.71,8.15a55.58,55.58,0,0,0,18.63-3.5,47.2,47.2,0,0,0,21.84.13c12.43,14.09,39.5,19.12,60.78,19.12,12.3,0,23.23-1.63,28.65-4.27,8.45,5.78,19.17,8.84,31,8.84a69.24,69.24,0,0,0,28.55-6.12,25.38,25.38,0,0,0,14.26,3.9c9.06,0,17.88-3.62,23.67-9.7a48,48,0,0,0,15,2.35,53.62,53.62,0,0,0,27.25-7.47,49.35,49.35,0,0,0,18.7,3.52,59.17,59.17,0,0,0,25.79-6c6.31,6.35,22.86,11.28,38,11.28,9,0,16.14-1.78,20.19-5,8.34,6.15,17.87,9.15,29.13,9.15,10.28,0,20.14-2.52,28.09-4.57,6.33,4.7,15.57,7.28,26,7.28C959.85,662.87,969.29,660.56,974.19,657Zm-33.3-4,4.18.91L941.22,652a11.72,11.72,0,0,0-5.05-.87,92.23,92.23,0,0,0-13.26,1.57c-7.37,1.19-15.72,2.53-24.71,2.53-17.18,0-30.83-5.16-41.73-15.77l-5.19-5.05,4.43,5.72a59,59,0,0,0,7.82,8.35c-3.28,2.31-8.59,3.52-15.42,3.52-13.71,0-30.57-4.8-36.31-9,5.94-3.51,10.3-7.8,12.32-12.14l1.82-3.91-2.68,3.38c-6,7.58-21.84,15.26-40.47,15.26-9.62,0-23.68-2.16-36-12.46l-4-3.39,3.32,4.1a45.22,45.22,0,0,0,13.76,11.42c-8.15,4.25-17.1,5.15-23.27,5.15-11.27,0-22.77-3.1-28-7.53l-5.18-4.43,4.47,5.15a29.18,29.18,0,0,0,10,7.23c-5.79,5.42-14.67,7.37-21.18,7.37a21.84,21.84,0,0,1-9.44-1.79c4.47-2.56,7.75-5.48,9.54-8.48l2.21-3.72-3,3.11c-6.51,6.7-22,11.39-37.78,11.39-11.4,0-32.71-2.55-47.25-19.63l-3.19-3.75,2.36,4.32A45.7,45.7,0,0,0,620,652.11c-5.48,2.19-13.78,3.39-23.5,3.39-19.45,0-45.56-5-57.7-16,6-1.92,10.94-4.9,13.63-8.24l1.85-2.29-2.51,1.53c-6.78,4.16-16.59,6.55-26.9,6.55-10.59,0-20.39-2.55-27.59-7.17l-3-1.94,2.35,2.7a30.28,30.28,0,0,0,9.07,7,51.7,51.7,0,0,1-10.26,1.11c-7.78,0-14.18-2.26-18-6.35a11.07,11.07,0,0,1-3.29-8.06c.33-5.09,8.94-12.21,22.19-12.21,8.88,0,18.2,3.25,27,9.4l5.07,3.55L524,620.82a52.7,52.7,0,0,0-7.17-5.91,17.27,17.27,0,0,1,9.94-2.72c9.84,0,20.38,5.44,22.87,10.12l1.61,3-.66-3.35c-.77-3.94-3.75-7.55-8.4-10.2a13.93,13.93,0,0,1,11.66-6.15,12.62,12.62,0,0,1,8.1,2.76l2.64,2.24-1.89-2.9c-2.17-3.35-6.24-5.34-10.89-5.34a14.93,14.93,0,0,0-1.88.11c.3-9.73,6.3-17,14.13-17,3.5,0,7.23,1.45,10.82,4.2-5.76,6.77-8,16.58-6.32,27.67l1.07,7-.06-7.09c-.09-13.22,4.49-20.63,8.35-24.52a20.4,20.4,0,0,1,14.52-6.22c8.57,0,16,5.43,19.36,14.16L614.6,608l-1.86-7.62c-2.55-10.41-9.26-17.34-18-18.65a14.11,14.11,0,0,1,13.78-11,12.4,12.4,0,0,1,8.07,2.76l2.65,2.24-1.89-2.9c-2.18-3.36-6.26-5.36-10.91-5.36a15.5,15.5,0,0,0-10.24,3.77C590,562.85,591.09,551.44,599,544a18.85,18.85,0,0,1,13.09-4.75c9.74,0,22.46,6.1,28.92,19.72l2,4.26L642,558.61a34.65,34.65,0,0,0-4.59-11c4.11-4.51,12-7.86,18.59-7.86a15.58,15.58,0,0,1,7.14,1.56c-8.86,6.74-13.09,17.9-9.85,26.25l2.34,6-1.37-6.32c-1.19-5.52.62-11.95,4.85-17.19,5.46-6.78,14.07-10.67,23.62-10.67,7.77,0,16,2.45,24.48,7.26l5.57,3.17-5-4a50.22,50.22,0,0,0-16.06-8.9,14.1,14.1,0,0,1,13.73-10.77,12.4,12.4,0,0,1,8.07,2.76l2.64,2.24-1.88-2.91C712.07,525,708,523,703.33,523a15.21,15.21,0,0,0-2.43.19,14.83,14.83,0,0,1,.55-14.21,12.92,12.92,0,0,1,11.3-6.46c4.69,0,9.86,2.32,14.93,6.7l3.64,3.13-2.9-3.83a27.81,27.81,0,0,0-7.58-7.07c3-6.94,10.88-10.1,17.07-10.1a16.51,16.51,0,0,1,3.36.33c-3.14,9.19-1.21,19.68,5.47,29.59l4.34,6.44-3.46-6.95c-5.65-11.34-6-22.55-.89-30.77a20.85,20.85,0,0,1,18.12-10c5.73,0,11.68,2.11,17.21,6.11l5.05,3.65-4.39-4.42c-6.19-6.24-13.19-9.53-20.24-9.53a21.58,21.58,0,0,0-7.27,1.25,24.59,24.59,0,0,1,5.07-19.85A20.55,20.55,0,0,1,776,449.37a19.06,19.06,0,0,1,12,4.43,16,16,0,0,0-2.86,9.78l.12,5,.89-4.91c1.53-8.4,10.3-12.93,17.78-12.93a16.8,16.8,0,0,1,8.54,2.19l2.35,1.38-1.69-2.13a13.69,13.69,0,0,0-8.58-4.83c-1.42-11.88,8.27-21.78,18.68-25.46a21.38,21.38,0,0,1,7.11-1.08c9.84,0,20.92,4.85,26.93,11.81a20.47,20.47,0,0,1,5.1,16.72L861,458.64l2.35-9.1a24,24,0,0,0-4.22-21.35c-6-7.7-16.74-12.7-27.52-12.77,1.14-7.2,8.48-12.56,17.36-12.56a19.36,19.36,0,0,1,16.82,9.49c-1.91,4-2.58,8.94-2,14.68l.45,4.45.56-4.44c1.82-14.49,9.7-19.64,15.89-19.64,4.74,0,9.28,2.71,12.51,7.44a14.16,14.16,0,0,0-4.57,7.06l-1,3.35,1.9-2.93a15.43,15.43,0,0,1,13.28-6.87c5.69,0,10.94,2.62,13.36,6.68,2.11,3.53,2,7.8-.37,12.36a19.21,19.21,0,0,0-5.06-.67,19.92,19.92,0,0,0-10.06,2.75l-2.92,1.68,3.29-.75a28.68,28.68,0,0,1,6.26-.73c6.42,0,11.8,2.46,15.16,6.92,3.77,5,4.61,12.06,2.36,19.84l-1,3.36,1.89-2.95c3.89-6.09,4.84-12.55,2.67-18.24a15.06,15.06,0,0,1,5-.8c9.73,0,21.13,7.43,22.31,18.17h-.17c-8,0-14.53,4.47-18.23,12.58l-2.11,4.63,3-4.11a20.17,20.17,0,0,1,16.7-8.59,23.23,23.23,0,0,1,17.49,8,20.16,20.16,0,0,1,4.54,16.8l-.72,4.49,1.69-4.22c4.73-11.72-2.36-21.94-11.06-26.62,3.82-7.88,10.27-12.21,18.21-12.21a25,25,0,0,1,18.1,8.37,23.58,23.58,0,0,1,6.12,18.06,35.08,35.08,0,0,0-14.55,7.93l-8.3,7.23,8.94-6.43a28.45,28.45,0,0,1,16.93-5.66c12.69,0,24.66,8.62,29.11,20.95,4.55,12.61.08,25.75-12.25,36.1a29.07,29.07,0,0,0-13.39-3.33,27,27,0,0,0-15.43,4.86l-4.91,3.4,5.41-2.52a29.39,29.39,0,0,1,12.51-2.82c10.49,0,20,5.73,23.72,14.24,3.34,7.67,1.33,16-5.65,23.48l-4.41,4.73,5.1-4c6.08-4.75,9.66-10.34,10.36-16.2a21.44,21.44,0,0,1,5.4-.69c9.93,0,18.33,6.86,22.24,13.65,3,5.17,3.54,10.24,1.56,14-6.86-1.25-13.12,1.06-18.29,6.76l-3.24,3.56,3.91-2.8a20.64,20.64,0,0,1,12.23-4.11,25.46,25.46,0,0,1,15.18,5.58,44.6,44.6,0,0,0-3.27,10l-1.8,8.74,2.78-8.48c4.43-13.53,13.93-21.62,25.41-21.62,9.52,0,18.12,5.64,21.41,14l1.7,4.32-.72-4.59a21.12,21.12,0,0,0-4.47-10.11,21.68,21.68,0,0,1,9.51-2.17c6.86,0,13.61,3.28,17.19,8.34a13.48,13.48,0,0,1,2,12,22.9,22.9,0,0,0-11.12-.9l-4.76.63,4.79.38c5.94.48,10.36,2.36,12.78,5.47a10.78,10.78,0,0,1,2,8.4,20.55,20.55,0,0,0-9.27,5.05l-3.69,3.65,4.32-2.86a20.73,20.73,0,0,1,11.13-3c7.16,0,16,3.3,19.43,12.56l1.2,3.25-.21-3.45a19.07,19.07,0,0,0-1.53-6.58,22,22,0,0,1,23.46,5.47,24.81,24.81,0,0,0-7,5.32L1190,645.3l3.49-2.46c4.21-3,12.93-6.14,22.17-6.14,6.27,0,14.89,1.47,20.8,8.4a28.53,28.53,0,0,0-8.44,5.34l-4.6,4.18,5.21-3.38a30.46,30.46,0,0,1,16.62-4.94c9.6,0,17,4.57,17,7.54a2.54,2.54,0,0,1-.89,1.71c-3.19,3.28-13.52,6.77-26.38,6.77a67.41,67.41,0,0,1-25.53-4.94,14.17,14.17,0,0,0,3.58-3.62l1.93-3-2.69,2.38c-5.76,5.07-21.72,9.19-35.57,9.19-7.35,0-13-1.14-16.52-3.31a25.44,25.44,0,0,0,7-5.15l4.48-4.8-5.17,4.05c-5.07,4-13.72,6.24-23.74,6.24-13.83,0-27.71-4.2-37.15-11.22l-4.41-3.29,3.73,4a39.28,39.28,0,0,0,5.53,4.91c-4.7,2.89-18.29,5.19-31.14,5.19-8.64,0-15.81-1-20.35-2.86a42.48,42.48,0,0,0,14.37-12.52l3.86-5.53-4.64,4.88c-10,10.54-32,17.09-57.44,17.09-25.64,0-47.9-6.63-58.1-17.3l-4.46-4.66,3.67,5.3c3.11,4.48,7.94,8.48,14.38,11.91-4.5,2.36-12,3.76-20.29,3.76-9,0-17.18-1.68-22.14-4.52C933.1,653.29,938,652.32,940.89,652.94Z"/><path class="cls-9" d="M164,580.44l.58.37c8.59,5.5,20.06,8.53,32.28,8.53,14.08,0,27.55-4,37-10.85l.68-.5.72.44c9.56,5.93,20.37,6.11,30.77.36l.66-.37.64.42c6.77,4.51,15.39,6.89,24.9,6.89,11.46,0,23.42-3.5,32-9.39l.85-.58.73.72c4.55,4.48,16,7.37,29.28,7.37,17.23,0,32.42-4.54,40.64-12.15l.55-.52.72.26a34.2,34.2,0,0,0,19.38,1.24l.68-.16.48.48c8.33,8.26,24.26,14,38.72,14,10.62,0,19.86-3,26.7-8.63l.61-.5.71.32c7,3.18,15.63,2.72,24.67-1.36l.69-.32.6.48c7.64,6.05,16.07,9.25,24.38,9.25a28.46,28.46,0,0,0,18.44-6.5l.89-.73.81.82c4.8,4.91,11.68,7.61,19.37,7.61,8,0,15.91-2.93,21.19-7.84l.67-.63.8.46a40.58,40.58,0,0,0,19.9,5.73h0c9.49,0,17-4.53,17.08-10.3a9.34,9.34,0,0,0-3.08-6.35c-3.66-3.71-9.41-5.93-15.37-5.93a25.21,25.21,0,0,0-9.92,2.07l-.77.33-.6-.6a25.08,25.08,0,0,0-17.38-6.82,25.65,25.65,0,0,0-12.53,3.26l-.89.49-.66-.76a21,21,0,0,0-16.22-7.14,24.34,24.34,0,0,0-13.46,4.07l-1.15.77-.65-1.21a10.44,10.44,0,0,0-9.45-5.93,12.67,12.67,0,0,0-4.78,1l-1.24.52-.42-1.28a16.58,16.58,0,0,0-15.79-11c-6.05,0-11.35,3.22-14.55,8.84l-.64,1.12-1.1-.68a25.43,25.43,0,0,0-20-2.82l-1.12.32-.4-1.09c-3.73-10.25-19-18.36-28.23-17.46l-1.18.12-.17-1.18a15.58,15.58,0,0,0-1.7-5.1l-.47-.87.74-.66c6.35-5.6,9.13-12.25,7.82-18.72-1.11-5.44-5.21-10.35-10-11.94l-1.28-.43.53-1.24c2.74-6.42,1.85-14.12-2.38-20.6s-11-10.52-17.73-10.59h-.84l-.31-.8c-6.51-17-21.31-18.81-27.37-18.81-9.58,0-18.73,4.08-22.78,10.14l-.53.8-.91-.32a30.36,30.36,0,0,0-18-.5,28.5,28.5,0,0,0-17.13,14,26.47,26.47,0,0,0-1.93,20.74l.56,1.74-1.83-.11a19.31,19.31,0,0,0-4.05.18l-1.1.15-.28-1.06c-2.46-9.16-9-14.62-17.51-14.62a20.27,20.27,0,0,0-9.67,2.52l-1.16.63-.57-1.19c-2.93-6.15-10.55-9.79-18.38-8.7l-1.36.18-.06-1.36c-.8-16.15-16.54-24.35-29.88-23.14l-1,.08-.32-.91c-4.85-13.73-17-18.63-26.8-18.63s-20.9,5.06-22.49,16.16l-.21,1.45-1.4-.44a27.16,27.16,0,0,0-19.72,1.12l-.77.38-.62-.58a28.66,28.66,0,0,0-19.65-7.73c-10.6,0-20.34,5.67-24.81,14.43-5,9.7-2.91,21.63,5.76,33.58l.59.81-.67.75c-5.74,6.46-6.25,16.23-1.28,24.87l.71,1.24-1.32.54c-9.49,3.89-15.16,14.92-13.19,25.65l.29,1.59-1.61-.12A25.72,25.72,0,0,0,92,541.88l-.83,1.1-1-.93a18.83,18.83,0,0,0-12.82-5.36,17.75,17.75,0,0,0-11.86,4.62l-.61.56-.76-.35a20.48,20.48,0,0,0-8.75-2c-9.16,0-16.42,6.95-18.65,11.89l-.39.85-.92-.12a23.62,23.62,0,0,0-3.24-.22c-9.73,0-16.85,5.85-17.41,11.32a9.84,9.84,0,0,0,2.88,7.56c3.91,4.33,10.9,6.91,18.68,6.91,7.42,0,15.42-2.29,23.13-6.64l1-.55.66.89c5.34,7.23,14.81,11.38,26,11.38a43.18,43.18,0,0,0,21-5.28l.75-.43.68.56c7.45,6.31,21,7.25,28.45,7.25,9.87,0,20.36-1.69,25.49-4.11Z"/><path class="cls-10" d="M364.9,446.41a32.17,32.17,0,0,0-18.69-.38,30.42,30.42,0,0,0-18.27,14.9,28.38,28.38,0,0,0-2.33,21.35,22.07,22.07,0,0,0-3,.16c-2.81-9.7-9.94-15.48-19.16-15.48a22.18,22.18,0,0,0-10,2.45c-3-5.72-9.6-9.38-16.94-9.38-.8,0-1.62.05-2.43.13-1.24-16.74-17.42-25.33-31.4-24.29-5.28-14.31-18.09-19.42-28.41-19.42-12.53,0-22.37,7-24.22,17.05a29.06,29.06,0,0,0-20,1.25,30.43,30.43,0,0,0-20.6-7.94c-11.3,0-21.69,6.07-26.48,15.45-5.23,10.25-3.23,22.7,5.62,35.12-5.85,6.92-6.43,17-1.52,26.07-9.67,4.34-15.48,15.57-13.8,26.66a27.56,27.56,0,0,0-22.35,10.11,20.48,20.48,0,0,0-13.58-5.4,19.66,19.66,0,0,0-12.81,4.83,22.26,22.26,0,0,0-9.17-2c-10.26,0-17.67,7.54-20.16,12.57a28.3,28.3,0,0,0-3-.17c-9.91,0-18.55,5.83-19.27,13a11.78,11.78,0,0,0,3.35,9c4.26,4.72,11.77,7.53,20.07,7.53,7.58,0,15.73-2.29,23.58-6.63,5.74,7.45,15.61,11.71,27.17,11.71a45.33,45.33,0,0,0,21.5-5.32c8,6.44,21.75,7.41,29.33,7.41,10.09,0,20.45-1.66,26-4.14,8.86,5.57,20.56,8.64,33,8.64,14.3,0,28-4,37.75-11,9.94,6,21.22,6.19,32,.37,7,4.58,15.88,7,25.62,7,11.64,0,23.79-3.53,32.62-9.44,5.16,4.67,16.65,7.56,30.22,7.56,17.5,0,33-4.63,41.63-12.4a36.13,36.13,0,0,0,19.75,1.25c8.72,8.44,25,14.32,39.79,14.32,10.91,0,20.45-3,27.6-8.81,7.34,3.18,16.25,2.73,25.52-1.37,7.89,6.16,16.61,9.42,25.24,9.42a30.36,30.36,0,0,0,19.2-6.57c5.14,5,12.33,7.77,20.31,7.77,8.29,0,16.52-3,22.13-8a42.29,42.29,0,0,0,20.43,5.75h0c10.7,0,18.85-5.22,19-12.14,0-2.56-1.25-5.29-3.62-7.69-4-4.06-10.25-6.49-16.7-6.49a27,27,0,0,0-10.27,2,27.06,27.06,0,0,0-18.4-7.07,27.34,27.34,0,0,0-13,3.26,22.91,22.91,0,0,0-17.3-7.42,26.32,26.32,0,0,0-13.94,4,12.14,12.14,0,0,0-10.77-6.32,14.38,14.38,0,0,0-4.87.87,18.55,18.55,0,0,0-17.36-11.71,18.3,18.3,0,0,0-15.85,9.23A27.09,27.09,0,0,0,479.77,544a26.5,26.5,0,0,0-6.71.86c-4.29-10.7-19.47-18.77-29.38-18.19a17.46,17.46,0,0,0-1.57-4.7c6.61-6,9.47-13.15,8-20.17-1.2-5.92-5.41-11.11-10.59-13.12,2.68-6.87,1.66-14.94-2.78-21.74s-11.67-11.2-18.85-11.43c-7-17.7-22.57-19.62-29-19.62C379,435.84,369.4,440.07,364.9,446.41ZM599.4,575.7a38.4,38.4,0,0,1-24.76,9.18c-7.08,0-13.22-2.13-17.77-6.18a30.89,30.89,0,0,0,3.67-4.73l2.51-4-3.46,3.21a35.22,35.22,0,0,1-24.25,9.69c-10.77,0-22.17-4.53-33.88-13.45l-4.62-3.53,3.77,4.43a61.71,61.71,0,0,0,4.79,5,35.78,35.78,0,0,1-11,1.86,27.51,27.51,0,0,1-21.77-10.5l-2-2.56.92,3.12a20.42,20.42,0,0,0,7.81,10.27c-6.1,4.22-14,6.45-23,6.45-14.32,0-27.68-5.36-35-10.89A30.82,30.82,0,0,0,436.53,561l2.52-4-3.47,3.22a38.19,38.19,0,0,1-26,10.17c-8.34,0-20.8-2.71-32.84-15.66l-4-4.25,3,5a40.73,40.73,0,0,0,16.55,16c-8.29,5.84-23.41,9.57-39,9.57-11.26,0-20.5-2-25-5.45a28,28,0,0,0,6.23-7.1l2.7-4.55-3.68,3.8c-8.31,8.56-25.12,14.54-40.9,14.54-16.4,0-30-6.17-38.29-17.36l-4.12-5.57,3.06,6.22a38,38,0,0,0,9.41,12.2,32.29,32.29,0,0,1-12.41,2.56c-9.23,0-18.67-4.24-26.58-11.93L219,563.74l3.82,5.44a40.46,40.46,0,0,0,8.07,8.47c-8,5.52-20.3,8.8-33.23,8.8-21.68,0-39.63-8.35-48-22.34l-4-6.75,2.93,7.3a36.62,36.62,0,0,0,11.31,15c-4.36,1.55-13.1,3-22.7,3-6.74,0-18.77-.76-25-5.71a22.24,22.24,0,0,0,6.6-7.46l3-5.83-4.08,5.15c-5.14,6.51-16.58,10.89-28.44,10.89-10.5,0-19.68-3.36-25.35-9.24a75.53,75.53,0,0,0,7.38-5.43l6.69-5.57-7.41,4.56c-12.25,7.51-23.44,11.33-33.27,11.33-7.27,0-13.55-2.24-17.21-6.15a8,8,0,0,1-2.56-5.62c.25-3.8,7.11-9.55,16.88-9.55,6.16,0,12.35,2.15,18.39,6.38L59,564.83l-5.44-5.33A33.16,33.16,0,0,0,39.42,551c2.23-3.74,8-9,15.71-9a18,18,0,0,1,6.27,1.17A14.05,14.05,0,0,0,59,552.41l.46,4.23.78-4.19c1.3-7.08,8.68-12.84,16.44-12.84a18.66,18.66,0,0,1,11.75,4.46,25.3,25.3,0,0,0-2.66,15.24l.79,6.45.45-6.48C88,544,101.1,534.85,113.11,534.85c9,0,16.5,4.83,20.62,13.27l3.46,7.09-2.3-7.55c-2.74-9-8.8-15-17.09-16.92-1.41-10.11,3.56-20,11.72-23.41a41,41,0,0,0,15.9,12.3l5.71,2.63-5.08-3.7c-13.35-9.74-19.69-22.38-16.52-33,2.54-8.49,10.61-13.89,21.6-14.43l7.51-.37-7.47-.87c-7.93-.93-14.91.78-19.92,4.84-7.07-10.92-8.46-21.59-3.89-30.11,4.19-7.83,13.1-12.89,22.68-12.89a25.26,25.26,0,0,1,15.88,5.45c-6.09,4.47-9.77,11.56-10.65,20.56l-.75,7.59,2-7.37c3.45-12.92,12.89-20.62,25.25-20.62,11.32,0,22.41,6.52,27.61,16.22l3.13,5.86-2-6.34a29.57,29.57,0,0,0-17-18.4c1.86-8.06,10.37-13.65,20.9-13.65,8.66,0,19.36,4.09,23.8,15.54a22.72,22.72,0,0,0-11.62,6.55l-3.32,3.59,4.11-2.64a29.92,29.92,0,0,1,16.06-4.52c9,0,16.94,3.59,21.89,9.86,5.37,6.8,6.81,16.28,4.16,27.42l-1.51,6.35,2.68-5.95a38.39,38.39,0,0,0,3.47-12.81,16.42,16.42,0,0,1,15.52,7.46,23.68,23.68,0,0,0-7.66,10.84l-1.66,4.77,2.77-4.22c4.36-6.65,12.26-11.11,19.66-11.11,7,0,12.5,4,15.42,11.3a18.68,18.68,0,0,0-12.18,13.85l-1.44,5.95,2.61-5.54c3.07-6.51,10.24-10.56,18.73-10.56a22.29,22.29,0,0,1,15.88,6.14l2.35,2.38-1.33-3.07c-2.07-4.75-6.54-8.27-12.31-9.69-3.31-13.08,4-25.94,17.4-30.69a25.68,25.68,0,0,1,8.57-1.46,25.26,25.26,0,0,1,19.17,8.62c3.74,4.32,7.82,12.1,6,24.6l-1.67,11.45,2.89-11.2c4.15-16.08-.83-29.43-13.33-35.92a32.11,32.11,0,0,1,19.89-7,25.9,25.9,0,0,1,23.84,14.58,23.33,23.33,0,0,0-11.53,6.7L398,466.29l4.46-2.75a18.34,18.34,0,0,1,9.76-2.71c10.15,0,20.35,7.4,23.23,16.83,1.58,5.19,2.14,15.3-11.9,24.74l-6.4,4.31,7-3.22c5.93-2.73,10.41-6.35,13.3-10.77a15.52,15.52,0,0,1,7.73,10.91c.52,3.46-.1,8.7-5.85,14.28-3.94-4.32-9.94-6.77-16.57-6.77a30.24,30.24,0,0,0-8,1.11l-4,1.1,4.13.13c11.1.34,19.15,4,22.68,10.28,3.38,6,2.44,14-2.71,23.08l-2.5,4.4,3.49-3.66c5.1-5.35,7.9-11.19,8.12-16.93a8.76,8.76,0,0,1,1.17-.07c7.73,0,20.56,8.5,23.87,15.67a24.89,24.89,0,0,0-12.09,11.93l-2.3,4.71,3.34-4a29,29,0,0,1,22.45-10.48A29.89,29.89,0,0,1,492,550.7a29.19,29.19,0,0,0-1.76,5.5l-1.72,7.91,2.91-7.55c3.74-9.73,11.64-13.19,17.79-13.19A15.26,15.26,0,0,1,521.29,549c2.41,3.06,4.83,8.65,2.62,17.86l-1.33,5.55,2.5-5.13a23.48,23.48,0,0,0,2.59-13.14,8.47,8.47,0,0,1,3.78-.87,7.94,7.94,0,0,1,7.49,4.92,24.06,24.06,0,0,0-4.83,6l-2.58,4.58,3.58-3.85a28.46,28.46,0,0,1,20.5-8.89c5.71,0,16.24,2,22.63,15l2.27,4.64-1.11-5.05a26.19,26.19,0,0,0-3.37-8.37,19.37,19.37,0,0,1,9.71-2.41c6.11,0,12.06,2.4,15.2,4.94a34.64,34.64,0,0,0-4.27,3l-5.25,4.34,6-3.32a31.66,31.66,0,0,1,15.44-4.31c7.29,0,12.75,3,15.43,5.82,1.42,1.5,2.21,3.06,2.14,4.3-.17,3.46-5.53,8.26-15.14,8.26a40.89,40.89,0,0,1-16.7-4,21.35,21.35,0,0,0,1.8-2.39l2.39-3.74Z"/></g></svg>