<svg id="Clouds" xmlns="http://www.w3.org/2000/svg" xmlns:xlink="http://www.w3.org/1999/xlink" viewBox="0 0 1080 600"><defs><style>.cls-1{fill:none;}.cls-2{clip-path:url(#clip-path);}.cls-3{fill:url(#linear-gradient);}.cls-4{fill:url(#linear-gradient-2);}.cls-5{fill:url(#linear-gradient-3);}.cls-6{fill:url(#linear-gradient-4);}</style><clipPath id="clip-path"><rect class="cls-1" width="1080" height="612"/></clipPath><linearGradient id="linear-gradient" x1="279.12" y1="610.29" x2="279.12" y2="445.81" gradientUnits="userSpaceOnUse"><stop offset="0" stop-color="#738ca8"/><stop offset="0.36" stop-color="#bec7d2"/><stop offset="0.45" stop-color="#ccd4de"/><stop offset="0.59" stop-color="#dbe2eb"/><stop offset="0.75" stop-color="#e3eaf3"/><stop offset="1" stop-color="#e6edf5"/></linearGradient><linearGradient id="linear-gradient-2" x1="279.12" y1="611.81" x2="279.12" y2="444.28" gradientUnits="userSpaceOnUse"><stop offset="0" stop-color="#738ca8"/><stop offset="0.36" stop-color="#bec7d2"/><stop offset="0.43" stop-color="#d0d6de"/><stop offset="0.53" stop-color="#e5e8ed"/><stop offset="0.65" stop-color="#f4f5f7"/><stop offset="0.79" stop-color="#fcfdfd"/><stop offset="1" stop-color="#fff"/></linearGradient><linearGradient id="linear-gradient-3" x1="741.7" y1="607.19" x2="741.7" y2="487.6" gradientTransform="translate(-3.76 5.37) rotate(-0.5)" gradientUnits="userSpaceOnUse"><stop offset="0" stop-color="#9eb0c4"/><stop offset="0.27" stop-color="#bec7d2"/><stop offset="0.37" stop-color="#ccd4de"/><stop offset="0.52" stop-color="#dbe2eb"/><stop offset="0.71" stop-color="#e3eaf3"/><stop offset="1" stop-color="#e6edf5"/></linearGradient><linearGradient id="linear-gradient-4" x1="741.7" y1="608.72" x2="741.7" y2="486.08" gradientTransform="translate(-3.76 5.37) rotate(-0.5)" gradientUnits="userSpaceOnUse"><stop offset="0" stop-color="#9eb0c4"/><stop offset="0.27" stop-color="#bfc9d4"/><stop offset="0.34" stop-color="#d0d7df"/><stop offset="0.46" stop-color="#e5e9ed"/><stop offset="0.6" stop-color="#f4f5f7"/><stop offset="0.75" stop-color="#fcfdfd"/><stop offset="1" stop-color="#fff"/></linearGradient></defs><title>Artboard 2</title><g class="cls-2"><path class="cls-3" d="M30.05,603.44l.63.54c4.5,3.89,12.62,6.31,21.2,6.31,7.67,0,14.7-1.9,19.8-5.34l.36-.24.41.09a60.81,60.81,0,0,0,11.64,1.56,18.26,18.26,0,0,0,8.13-1.7l.49-.24.47.28a41.24,41.24,0,0,0,21.24,5.55c11,0,22.88-3.91,31.1-10.21l.59-.45.6.42a37.66,37.66,0,0,0,21.78,6.77,45,45,0,0,0,21.69-5.8l.57-.32.52.38a40.91,40.91,0,0,0,24.28,7.56,53.88,53.88,0,0,0,20-4l.49-.19.44.28c4.91,3.15,9.77,4.75,14.46,4.75a18.52,18.52,0,0,0,10-2.85l.47-.3.5.23a34.11,34.11,0,0,0,14.26,3.1,38.28,38.28,0,0,0,26.39-10.75l.43-.43.59.16a28,28,0,0,0,7.8,1.12c6.43,0,11.38-2.19,13.67-4.06l.71-.58.65.64c3.7,3.65,13.06,6,23.85,6,14,0,26.4-3.71,33.09-9.9l.46-.43.58.22a27.91,27.91,0,0,0,15.79,1l.54-.12.4.39c6.79,6.73,19.76,11.42,31.54,11.42,8.65,0,16.17-2.43,21.75-7l.49-.4.58.26c5.7,2.58,12.73,2.21,20.1-1.12l.56-.25.49.39c6.23,4.93,13.09,7.53,19.85,7.53a23.22,23.22,0,0,0,15-5.29l.72-.6.65.67a21.79,21.79,0,0,0,15.79,6.2,25.84,25.84,0,0,0,17.26-6.39l.54-.5.65.37a33.12,33.12,0,0,0,16.21,4.66h0c7.73,0,13.84-3.68,13.91-8.38a7.58,7.58,0,0,0-2.5-5.17,17.82,17.82,0,0,0-12.53-4.84,20.51,20.51,0,0,0-8.08,1.69l-.62.26-.49-.48a20.43,20.43,0,0,0-14.16-5.56A20.85,20.85,0,0,0,528.63,583l-.72.4-.54-.62A17.12,17.12,0,0,0,514.16,577a19.87,19.87,0,0,0-11,3.32l-.93.63-.53-1A8.51,8.51,0,0,0,494,575.1a10.3,10.3,0,0,0-3.88.78l-1,.42-.35-1a13.53,13.53,0,0,0-24.71-1.79l-.52.91-.9-.55a20.72,20.72,0,0,0-16.32-2.3l-.9.26-.33-.89c-2.88-7.91-14.26-14.28-21.77-14.28q-.63,0-1.23.06l-1,.1-.14-1a12.54,12.54,0,0,0-1.38-4.15l-.38-.71.6-.54c5.18-4.56,7.44-10,6.37-15.25-.9-4.42-4.24-8.43-8.13-9.72l-1-.35.43-1a17.89,17.89,0,0,0-1.94-16.77c-3.44-5.27-9-8.58-14.44-8.63h-.68l-.26-.65c-5.3-13.83-17.35-15.32-22.29-15.32-7.8,0-15.26,3.32-18.55,8.25l-.44.66-.74-.26a24.73,24.73,0,0,0-14.67-.41,23.19,23.19,0,0,0-14,11.39,21.56,21.56,0,0,0-1.57,16.9l.45,1.41-1.48-.09a16.18,16.18,0,0,0-3.3.15l-.93.14-.21-.91c-1.76-7.7-13.26-16.28-27-16.28a31.88,31.88,0,0,0-5.7.51l-1.38.25.19-1.39a15.8,15.8,0,0,0-7.45-15.45l-.76-.43.31-.82a15.85,15.85,0,0,0-1.41-13.62l-.32-.53.32-.53c3.58-5.81,4.1-11.6,1.47-16.31a16.05,16.05,0,0,0-14-7.76,15.42,15.42,0,0,0-10.7,4.18l-.56.51-.65-.38c-5.05-2.94-12.15-3.1-17.89-.37l-.59.28-.5-.41c-4.42-3.65-9.17-5.58-13.74-5.58a16.57,16.57,0,0,0-13,6.44,19.87,19.87,0,0,0-3.61,17l.18.8-.72.35c-5.78,2.79-9.17,7.88-9.07,13.6.12,6.78,4.85,12.88,12.66,16.33l1,.44-.51,1a16.57,16.57,0,0,0-1.84,8.53l.06,1.17-1.17-.11c-10-.85-20.48,7.5-23.27,18.3l-.24.94-.95-.19a10.32,10.32,0,0,0-4.76.09l-1,.24-.28-1c-2-7.11-9.81-10.29-16.65-10.29-5.77,0-13.23,2.49-15.28,9.49l-.25.88-.9-.16c-5.63-1-10.79,1.35-13.07,5.86s-1.34,9.9,2.45,15.06l.56.75-.7.62c-2.1,1.83-2.89,4.87-2.16,8.35l.29,1.41-1.43-.2a9.83,9.83,0,0,0-8.64,3l-.81.87-.73-.94a14.15,14.15,0,0,0-11.19-5.78c-5.82,0-11.23,3.73-12.86,8.87L94,568.59l-1-.49a13.34,13.34,0,0,0-5.74-1.33c-5.66,0-11.21,4-13.5,9.8l-.36.91-.92-.33a13.51,13.51,0,0,0-4.49-.78c-6.36,0-12.21,4.6-13.31,10.46l-.25,1.28-1.18-.55A29.58,29.58,0,0,0,41,585.15c-7.85,0-15.1,2.55-18.1,6.29l-1.28,1.06a22.5,22.5,0,0,0-10.5-2.42,22.84,22.84,0,0,0-13.6,4.51l-.44.34-.52-.18a15.74,15.74,0,0,0-5.3-.93,12.53,12.53,0,0,0-8.75,3.23A4.49,4.49,0,0,0-19,600.23c.1,3.15,4.3,5.62,9.56,5.62a23.25,23.25,0,0,0,11.19-3.16l.53-.3.52.33a28.65,28.65,0,0,0,15.26,4.86,18.6,18.6,0,0,0,11.33-3.64Z"/><path class="cls-4" d="M562.19,582.92a22,22,0,0,0-8.36,1.67,22,22,0,0,0-15-5.76,22.38,22.38,0,0,0-10.59,2.65,18.67,18.67,0,0,0-14.09-6,21.43,21.43,0,0,0-11.35,3.28,9.91,9.91,0,0,0-8.78-5.15,11.82,11.82,0,0,0-4,.71,15.1,15.1,0,0,0-14.14-9.53A14.91,14.91,0,0,0,463,572.26a22.16,22.16,0,0,0-11.18-3,21.62,21.62,0,0,0-5.46.7c-3.51-8.71-15.92-15.3-23.94-14.81a14.28,14.28,0,0,0-1.28-3.83c5.39-4.89,7.71-10.71,6.55-16.43a14.72,14.72,0,0,0-8.62-10.68,19.53,19.53,0,0,0-2.27-17.72c-3.65-5.58-9.51-9.12-15.36-9.3-5.7-14.42-18.38-16-23.59-16-8.12,0-15.93,3.45-19.6,8.61a26.31,26.31,0,0,0-15.22-.31,24.75,24.75,0,0,0-14.88,12.14,23.07,23.07,0,0,0-1.9,17.39,18.46,18.46,0,0,0-2.42.13c-2.24-8.3-14-17-28.34-17a34.65,34.65,0,0,0-5.3.42,17.17,17.17,0,0,0-7.92-16.08,17.44,17.44,0,0,0-1.52-14.29c3.73-6.22,4.21-12.45,1.34-17.59a17.6,17.6,0,0,0-15.3-8.54,17,17,0,0,0-11.47,4.34,19.66,19.66,0,0,0-9.55-2.38,22.15,22.15,0,0,0-9.15,2c-4.62-3.75-9.62-5.73-14.46-5.73a18.07,18.07,0,0,0-14.17,7,21.33,21.33,0,0,0-4,17.89c-6.11,3.1-9.68,8.61-9.57,14.83.13,7.24,5,13.74,13.09,17.48a18.08,18.08,0,0,0-1.8,8.26c-10.41-.6-21.1,8-24.18,19a12,12,0,0,0-4.51.09c-2.43-7.55-10.72-10.93-18-10.93-8.1,0-14.56,4-16.61,10.15a16.49,16.49,0,0,0-2.41-.18,12.87,12.87,0,0,0-11.84,6.93c-2.45,4.84-1.6,10.75,2.32,16.29-2.13,2.08-3,5.24-2.43,8.8a11.2,11.2,0,0,0-8.86,3.08,15.56,15.56,0,0,0-12-5.92c-6.26,0-12.11,3.92-14.12,9.4a15,15,0,0,0-5.88-1.24c-6.12,0-12.11,4.22-14.73,10.32a14.9,14.9,0,0,0-4.54-.71c-6.85,0-13.16,4.82-14.68,11.07A31.68,31.68,0,0,0,41,583.62c-8.75,0-16.56,2.94-19.67,7.36a22.38,22.38,0,0,0-10.21-2.43,24.42,24.42,0,0,0-14.32,4.67c-5.62-1.9-12.07-.65-15.38,2.77a6,6,0,0,0-1.9,4.29c.12,4,4.89,7.09,11.08,7.09a24.69,24.69,0,0,0,11.67-3.2,30.09,30.09,0,0,0,15.83,4.94A20.14,20.14,0,0,0,30,605.39c4.82,4,13.15,6.42,21.89,6.42,7.88,0,15.14-1.94,20.48-5.47a61.58,61.58,0,0,0,11.73,1.54,19.93,19.93,0,0,0,8.55-1.73,42.78,42.78,0,0,0,21.78,5.62c11.15,0,23.27-3.94,31.73-10.29a39.14,39.14,0,0,0,22.34,6.83,46.29,46.29,0,0,0,22.15-5.85,42.45,42.45,0,0,0,24.91,7.66,55.25,55.25,0,0,0,20.31-4c5.08,3.22,10.15,4.85,15.06,4.85A20.09,20.09,0,0,0,261.51,608a35.55,35.55,0,0,0,14.64,3.12,40,40,0,0,0,27.27-11,29.81,29.81,0,0,0,7.94,1.09c6.53,0,11.67-2.16,14.28-4.13,4.21,3.8,13.56,6.14,24.6,6.14,14.25,0,26.89-3.77,33.9-10.1a29.32,29.32,0,0,0,16.09,1c7.1,6.88,20.37,11.66,32.4,11.66,8.89,0,16.66-2.48,22.48-7.18,6,2.6,13.25,2.23,20.8-1.11,6.43,5,13.53,7.67,20.55,7.67a24.66,24.66,0,0,0,15.64-5.35,23.38,23.38,0,0,0,16.55,6.33,27.46,27.46,0,0,0,18-6.54,34.44,34.44,0,0,0,16.64,4.69c8.72,0,15.35-4.26,15.43-9.89a9,9,0,0,0-2.94-6.27A19.34,19.34,0,0,0,562.19,582.92Zm-12.91,12.19a31.28,31.28,0,0,1-20.16,7.47c-5.78,0-10.77-1.73-14.48-5a26.16,26.16,0,0,0,3-3.85l2.07-3.28-2.85,2.63a28.67,28.67,0,0,1-19.75,7.89c-8.78,0-18.06-3.68-27.6-11l-3.76-2.87,3.07,3.6a54.41,54.41,0,0,0,3.9,4.11,29.14,29.14,0,0,1-9,1.51A22.42,22.42,0,0,1,446,587.79l-1.64-2.09.75,2.55a16.74,16.74,0,0,0,6.36,8.36c-5,3.44-11.41,5.25-18.7,5.25-11.66,0-22.55-4.36-28.54-8.87a25.12,25.12,0,0,0,12.38-9.87l2.06-3.28-2.84,2.63a31.09,31.09,0,0,1-21.19,8.28c-6.79,0-16.94-2.21-26.75-12.75l-3.22-3.46,2.41,4.07a33.37,33.37,0,0,0,13.49,13c-6.75,4.75-19.07,7.79-31.76,7.79-9.18,0-16.7-1.65-20.36-4.44a22.66,22.66,0,0,0,5.07-5.79l1.46-2.45-2.21,1.8A37.68,37.68,0,0,1,310,596.48a33.43,33.43,0,0,1-20.74-7.22l-2.44-1.88,1.71,2.57a25.26,25.26,0,0,0,10.62,8.6c-5.05,5.32-14.55,8.85-23.92,8.85a27,27,0,0,1-10.5-1.91,14.25,14.25,0,0,0,3-4l1.11-2.41-1.93,1.83A23.16,23.16,0,0,1,251.37,607a26.11,26.11,0,0,1-11.3-2.73c6.66-3.33,11.94-7.74,14.58-12.19l2.2-3.71-3,3.1c-6.08,6.27-20,13-36.34,13A50.53,50.53,0,0,1,178,586.3l-3.19-3.75,2.36,4.32A47.29,47.29,0,0,0,187.49,600a50.28,50.28,0,0,1-18.83,3.8A43,43,0,0,1,149,599.1a24.1,24.1,0,0,0,4.49-5.37L155.7,590l-3,3.1c-6.06,6.25-20,13-36.27,13a52.94,52.94,0,0,1-18.85-3.36,29.42,29.42,0,0,0,5-6.48l1.6-2.73-2.38,2.09c-7.3,6.44-12.8,7.3-17.23,7.3a63.18,63.18,0,0,1-7.89-.67A82.55,82.55,0,0,0,66,601.4a52.58,52.58,0,0,0-11.51,1.27l-3.93.87,4,.14a80.4,80.4,0,0,1,12.81,1.65,38.44,38.44,0,0,1-15,2.74c-7.88,0-15.19-1.87-19.7-5a22.21,22.21,0,0,0,3-3.95l1.73-2.92-2.51,2.28c-5.17,4.68-10.65,7-16.75,7-5.62,0-11.79-1.82-20-5.9L-5,597.94l2.6,2.41c.44.4.77.73,1.06,1A14.94,14.94,0,0,0,.11,602.7a22.72,22.72,0,0,1-8.72,1.94c-5.39,0-8.44-2.65-8.57-4.58a3.32,3.32,0,0,1,1.06-2.33c2.07-2.21,6.21-3.19,10.58-2.41a7.24,7.24,0,0,0-1.57,2.43l-.68,1.84,1.49-1.28c2.41-2.07,9.3-6,18.11-6a28.57,28.57,0,0,1,16,4.93l3.61,2.4-3-3.17a27,27,0,0,0-4.46-3.86c2.88-3.38,9.43-5.46,17.32-5.46,8.4,0,15.79,2.36,19.26,6.15l3.18,3.48-2.36-4.08a15.53,15.53,0,0,0-5.36-5.33,13,13,0,0,1,12.14-8.7,13.59,13.59,0,0,1,3.2.39,12.74,12.74,0,0,0,.47,6.55l1,2.81,0-3a16.53,16.53,0,0,1,5-11.35,15.35,15.35,0,0,1,10.89-4.7c4.24,0,8.5,1.77,12.65,5.26l3.61,3L102.12,574a26,26,0,0,0-6.28-6A12.69,12.69,0,0,1,107,560.86c3.53,0,7.11,1.57,10.4,4.56a14.07,14.07,0,0,0-1.84,5.21l-.48,3.06,1.43-2.75a12.86,12.86,0,0,1,11.41-7,15.25,15.25,0,0,1,10.47,4.51l2,1.87-1.18-2.46a13.93,13.93,0,0,0-7.63-7.13,7.45,7.45,0,0,1,1.18-6.44,8.11,8.11,0,0,1,6-2.89,3.2,3.2,0,0,1,1.13.17l3,1.14-2.55-2a7.39,7.39,0,0,0-7.26-1.2c-2.85-5.06-3.32-9.75-1.31-13.24,1.83-3.19,5.62-5,10.41-5a25.59,25.59,0,0,1,9.14,1.87l3.54,1.36-3-2.25a23.72,23.72,0,0,0-5.46-3c1.62-4,6.52-6.6,12.64-6.6,5.08,0,11.8,2.07,14.36,7.84-2.13,1.36-4.66,4-5.43,9l-.47,3.07,1.42-2.76a12.86,12.86,0,0,1,11.41-7,15.3,15.3,0,0,1,10.48,4.51l2,1.87-1.17-2.45a13.9,13.9,0,0,0-6.52-6.65c4.34-10.3,13.12-17.19,22-17.19a18.24,18.24,0,0,1,8.57,2.2l3.72,2-3.15-2.8a17,17,0,0,0-6.45-3.63,13.39,13.39,0,0,1,1.39-7.56,47.24,47.24,0,0,0,16.63,2l7.09-.29-7.06-.73c-19.47-2-27-10.86-27.51-18.5-.57-8.14,6.22-15.39,16.9-18l4.13-1-4.25,0a32.08,32.08,0,0,0-9.24,1.33,18.42,18.42,0,0,1,3.91-14.35,13.6,13.6,0,0,1,10.46-4.81,20.4,20.4,0,0,1,10.86,3.55,23.24,23.24,0,0,0-8.72,12.58l-1.19,4,2.12-3.63c4.41-7.57,11.68-11.91,19.92-11.91,7.91,0,14.95,4.15,17.55,10.33l1.31,3.14-.34-3.39A16.27,16.27,0,0,0,258.85,453a17.32,17.32,0,0,1,8.79-2.54,11.79,11.79,0,0,1,10.15,5.07c2.3,3.5,2.43,8.22.39,13.36-2.68-2.7-5.23-3.63-9.68-3.63l-3.25,0,2.57.94a17.91,17.91,0,0,1,11.65,18.94,16.2,16.2,0,0,0-8.5-.48l-4.89,1,5,0c9,.06,15.49,9,16,17.37a19.81,19.81,0,0,0-7.9,4.86L277,510.15l2.82-1.43a28.6,28.6,0,0,1,13.1-3c13.87,0,26.55,8.69,27.42,14.21a18.39,18.39,0,0,0-10.82,9.13L308,531.77l2.28-2.1c4-3.67,10.69-6,17.12-6,5.24,0,9.5,1.55,12,4.34l2.11,2.37-1.27-2.91a14.32,14.32,0,0,0-10-7.89c-2.7-10.65,3.22-21.13,14.17-25a20.94,20.94,0,0,1,7-1.19,20.62,20.62,0,0,1,15.62,7c3,3.53,6.36,9.86,4.88,20l-1.36,9.32,2.36-9.12c3.37-13.1-.68-24-10.86-29.26a26.19,26.19,0,0,1,16.2-5.73,21.1,21.1,0,0,1,19.42,11.87,18.92,18.92,0,0,0-9.4,5.45l-3,3,3.62-2.23a14.92,14.92,0,0,1,8-2.21c8.27,0,16.58,6,18.92,13.71,1.29,4.22,1.75,12.46-9.69,20.15l-5.21,3.51,5.71-2.63a25,25,0,0,0,10.83-8.77,12.68,12.68,0,0,1,6.3,8.9c.42,2.81-.08,7.08-4.76,11.62a18.16,18.16,0,0,0-13.51-5.52,24.74,24.74,0,0,0-6.51.91l-3.25.89,3.37.11c9,.28,15.59,3.26,18.47,8.38,2.75,4.9,2,11.4-2.21,18.8l-2,3.59,2.85-3c4.15-4.36,6.43-9.12,6.61-13.79a7.07,7.07,0,0,1,.94-.06c6.31,0,16.76,6.93,19.45,12.76a20.31,20.31,0,0,0-9.84,9.73l-1.88,3.84,2.73-3.3a23.65,23.65,0,0,1,18.28-8.53,24.21,24.21,0,0,1,9.4,1.89,25.19,25.19,0,0,0-1.43,4.48l-1.43,6.52,2.4-6.23c3-7.92,9.49-10.74,14.49-10.74a12.44,12.44,0,0,1,9.88,4.61c2,2.5,3.93,7,2.13,14.54l-1.08,4.54,2-4.19a19.28,19.28,0,0,0,2.1-10.7,6.83,6.83,0,0,1,3.08-.71,6.47,6.47,0,0,1,6.1,4,19.53,19.53,0,0,0-3.93,4.88l-2.1,3.73,2.91-3.13a23.19,23.19,0,0,1,16.7-7.24c4.65,0,13.23,1.58,18.43,12.21l1.86,3.8L533,591a21.2,21.2,0,0,0-2.75-6.81,15.71,15.71,0,0,1,7.91-2,21.15,21.15,0,0,1,12.39,4,26.81,26.81,0,0,0-3.48,2.47l-4.24,3.51,4.81-2.68A25.75,25.75,0,0,1,560.2,586c5.94,0,10.39,2.45,12.57,4.75a5.22,5.22,0,0,1,1.74,3.49c-.14,2.82-4.5,6.74-12.33,6.74a33.45,33.45,0,0,1-13.61-3.29,16.22,16.22,0,0,0,1.48-2l1.94-3Z"/><path class="cls-5" d="M621.58,600.65l.51.28c6.74,3.73,17,6.08,26.08,6,8.15-.07,15.43-2,21.05-5.56l.49-.31.51.26c7.06,3.57,16.92,3.8,23.63.46l.54-.28.5.36c3.66,2.59,11.25,4.09,20.3,4,12-.1,26.65-3.24,32.24-10l.43-.53.66.21c6.86,2.19,14.94,4.41,22.87,4.34a30.84,30.84,0,0,0,15.49-3.94l.55-.32.53.36a24.4,24.4,0,0,0,13.89,3.74c5.42-.05,10.82-1.51,14.09-3.81l.59-.42.59.42c7.6,5.43,18.89,8.49,31,8.38,9.26-.08,18.07-2,24.17-5.39l.55-.29.51.34a24.93,24.93,0,0,0,14.06,3.89c4.87-.05,9.62-1.32,12.68-3.42l.45-.3.51.2a43.91,43.91,0,0,0,16.62,2.88A43.34,43.34,0,0,0,936.56,598l.55-.28.5.36a26.54,26.54,0,0,0,26.54,1.26l.58-.35.55.4A18.8,18.8,0,0,0,976.86,603c5.33,0,11-2,16.84-5.87l.54-.36.55.34c8.84,5.43,16.44,6.51,21.24,6.47,6.24,0,11.77-2,14.81-5.34a7.34,7.34,0,0,0,2.18-5.5c-.34-4.69-5.4-9.72-13-9.65a17.81,17.81,0,0,0-5.23.85l-.76.24-.41-.68c-3.15-5.19-9.4-8.25-16.72-8.19a23,23,0,0,0-11.69,3.21l-.74.46-.56-.65c-4-4.63-11-7.35-18.62-7.28a27.84,27.84,0,0,0-14.1,3.72l-.67.41-.57-.54a16,16,0,0,0-11.15-4.46,12.6,12.6,0,0,0-5.48,1.22l-.76.4-.52-.7c-4.43-6-12.07-9.61-20.41-9.54a25.64,25.64,0,0,0-6.78.95l-.88.25-.34-.85a14.77,14.77,0,0,0-13.85-9.21l-.87,0-.18-.85C886.34,541,874.54,532.29,863,533.08l-.89.07-.17-.88c-1.65-8.28-11-16.07-19-15.61l-.77,0-.25-.74c-3.26-9.79-16.33-13.87-25.27-12l-.9.18-.28-.88c-3.67-11.94-15.49-17.2-25.57-17.11-9.87.08-21.54,5.25-24.73,19.5l-.2.93-1-.15a26.86,26.86,0,0,0-4.36-.34c-11.57.1-20.33,8.16-20.84,19.15l0,1-1,0c-6.55-.25-11.16,1.82-13.51,6l-.62,1.1-.94-.85A16.65,16.65,0,0,0,711.37,528a14.46,14.46,0,0,0-13,7.65l-.66,1.32-1-1.09a17.71,17.71,0,0,0-13.38-5.46,19.46,19.46,0,0,0-5.44.8l-.76.23-.41-.69c-3-5.14-9.64-8.42-17-8.35-5.35,0-10.16,1.92-12.86,5l-.35.41-.54-.07a15.48,15.48,0,0,0-11.25,2.87l-.65.51-.63-.54a26.39,26.39,0,0,0-17.55-6.84c-11.46.1-20.89,8.28-21.45,18.62l-.05.88-.88.08c-4.73.41-8.51,2.21-10.92,5.19a14.83,14.83,0,0,0-2.81,11.32l.11.9-.88.22a9.65,9.65,0,0,0-7,7.1l-.27,1-1-.29a13,13,0,0,0-12.59,2.78l-.6.54-.66-.47a18.72,18.72,0,0,0-10.7-3.21,15.48,15.48,0,0,0-9.45,3.07l-.76.59-.63-.74a16.78,16.78,0,0,0-13.22-5.81c-7.05.06-14.28,3.84-18,9.41l-.47.7-.78-.33a19.19,19.19,0,0,0-7.68-1.59c-8.31.08-15,6-17.29,9.68l-.47.76-.82-.37a21.11,21.11,0,0,0-9.07-2c-8.32.07-14.19,5.16-14.45,9.87a8,8,0,0,0,2.46,5.9c3.11,3.26,8.56,5.17,14.56,5.12A37.77,37.77,0,0,0,489,597l.75-.44.56.67A19.51,19.51,0,0,0,506,604.27a25.53,25.53,0,0,0,12-3.18l.59-.33.53.42A22.49,22.49,0,0,0,533.57,606a27.4,27.4,0,0,0,14.77-4.49l.42-.3.49.17a54.92,54.92,0,0,0,18,2.55c9.14-.08,18.18-1.91,24.79-5l.54-.26.49.35c4.25,3.07,10,4.72,16.29,4.67A24.47,24.47,0,0,0,621.08,601Z"/><path class="cls-6" d="M470.21,604.25a39.14,39.14,0,0,0,19.18-5.77A21,21,0,0,0,506,605.8a27.13,27.13,0,0,0,12.45-3.22,24.4,24.4,0,0,0,15.17,5A28.75,28.75,0,0,0,549,602.91a56.85,56.85,0,0,0,18.27,2.55c9.24-.08,18.39-1.92,25.16-5.05a29.34,29.34,0,0,0,17,4.79,26.47,26.47,0,0,0,12.21-2.79c5.59,3,15.42,6.14,26.58,6.05,8.32-.07,15.78-2,21.61-5.65A29.8,29.8,0,0,0,683,605.73a26.46,26.46,0,0,0,11.22-2.46c4,2.67,11.78,4.2,21,4.13,11.33-.1,26.73-2.86,33.17-10.3,6.91,2.19,15,4.37,23,4.31a32.52,32.52,0,0,0,16-4,26,26,0,0,0,14.49,3.82c5.56,0,11.13-1.53,14.66-3.88,7.86,5.49,19.34,8.57,31.56,8.46,9.37-.08,18.32-2.06,24.62-5.43a26.54,26.54,0,0,0,14.67,4,25.22,25.22,0,0,0,13.31-3.53,45.82,45.82,0,0,0,17,2.9A45.22,45.22,0,0,0,937,599.49a28.18,28.18,0,0,0,27.65,1.32,20.46,20.46,0,0,0,12.24,3.75c5.55,0,11.4-2,17.4-5.94,7.16,4.33,14.69,6.59,21.78,6.53,6.64-.06,12.59-2.24,15.91-5.84a8.81,8.81,0,0,0,2.58-6.64c-.39-5.38-6-11.14-14.5-11.07a19.59,19.59,0,0,0-5.3.81c-3.49-5.45-10.11-8.65-17.82-8.58a24.46,24.46,0,0,0-12.11,3.22c-4.39-4.84-11.46-7.56-19.5-7.49a29.72,29.72,0,0,0-14.55,3.75,17.51,17.51,0,0,0-11.94-4.61,13.92,13.92,0,0,0-5.77,1.2c-4.76-6.23-12.73-9.9-21.4-9.82a27.81,27.81,0,0,0-6.75.88,16.45,16.45,0,0,0-14.63-9.76h-.12c-2.66-11-14.16-19.8-25.85-19.69l-1,0c-2-8.58-11.51-16.5-19.91-16.42h-.2C840,506,829.43,501.88,821,502a24.26,24.26,0,0,0-4.16.39c-4.06-12.39-16.39-17.85-26.91-17.76-10.35.09-22.57,5.46-26.09,20.23a27.74,27.74,0,0,0-4.15-.28c-12.23.11-21.54,8.53-22.33,20.1h-.84c-7.61.06-11.38,3.3-13.24,6.21a18.11,18.11,0,0,0-11.87-4.34,16,16,0,0,0-14,7.85,19.42,19.42,0,0,0-14-5.44,21.38,21.38,0,0,0-5.48.76c-3.39-5.49-10.28-8.84-18.09-8.77-5.76.05-10.77,2-13.82,5.36a17,17,0,0,0-11.76,3,27.78,27.78,0,0,0-18.25-6.94c-12.1.1-22.09,8.68-22.94,19.62-5,.52-8.93,2.49-11.53,5.72a16.16,16.16,0,0,0-3.2,12,11.15,11.15,0,0,0-7.5,7.58,14.42,14.42,0,0,0-13.24,3,20.31,20.31,0,0,0-11.27-3.26,17.12,17.12,0,0,0-10,3.09,18.42,18.42,0,0,0-14.08-6,24.22,24.22,0,0,0-19,9.74,20.19,20.19,0,0,0-7.91-1.55c-8.72.07-15.61,5.89-18.34,10a22.74,22.74,0,0,0-9.31-2c-9.18.08-15.67,5.91-16,11.31a9.41,9.41,0,0,0,2.88,7C458,602.26,463.7,604.3,470.21,604.25Zm339.94-12.74a29.15,29.15,0,0,0,3.7,3.78c-2.67,1.59-7.52,2.66-12.41,2.7-4.64,0-8.54-.83-11.1-2.47a33.78,33.78,0,0,0,5.52-5l3.95-4.46-4.65,3.72c-6.35,5.08-13.95,7.59-23.25,7.67-9.72.08-19.4-2.48-27.95-4.74-6.3-1.66-11.75-3.1-15.8-3.06a9.86,9.86,0,0,0-3.85.68L720.37,592l4.22-.71a11.73,11.73,0,0,1,1.64-.13c4.14,0,9.82,1.86,16.39,4.05l1.73.58c-5.84,6-18.62,8.27-28.85,8.36-7.73.07-14.65-1-18.06-2.76a17.9,17.9,0,0,0,5-5.44l1.7-2.93-2.49,2.3c-4.83,4.46-11.62,7-19.1,7s-15.21-2.48-19.81-6.65l-3.17-2.87,2.41,3.53a18.25,18.25,0,0,0,4.43,4.43c-4.87,2.37-10.9,3.6-17.95,3.66-14.52.13-29.42-4.89-32.37-8.33l-1.73-2,.86,2.5a8.49,8.49,0,0,0,3,3.66,22.56,22.56,0,0,1-8.47,1.44c-5.39,0-10.67-1.11-14-3a20.92,20.92,0,0,0,6.82-6.14l2.36-3.54-3.13,2.88c-6.28,5.8-22.1,10.1-37.61,10.24-10.73.09-19.19-1.79-23.84-5.29l-5.54-4.18,4.87,5a20.12,20.12,0,0,0,5.58,3.82c-2.45,1.9-6.82,3.16-11.22,3.2a20.57,20.57,0,0,1-12.66-3.9c3-2.27,5-5,5.53-7.71l.49-2.46L526,592.6c-3.18,4.68-10.77,9.46-19.13,9.53A19.64,19.64,0,0,1,493,596.74a25.72,25.72,0,0,0,6.28-5.61l2.38-2.82-3.05,2.07c-10,6.77-19.58,10.38-27.7,10.45-5.57,0-10.42-1.61-13.32-4.54a6.4,6.4,0,0,1-2.15-4.34c.07-3.3,5.74-8.33,14.14-8.4A26.43,26.43,0,0,1,484,588.09l5.22,3.32-4.61-4.13a30.21,30.21,0,0,0-4.63-3.42c2.14-3.05,7.56-8.15,14.81-8.21a17,17,0,0,1,6.58,1.31,12.81,12.81,0,0,0-1.09,8.51l.58,2.56.41-2.59c1.51-9.35,11-17.32,20.74-17.4a16.12,16.12,0,0,1,11.49,4.55,16.36,16.36,0,0,0-1.94,2.93l-2.05,4,2.89-3.44c2.88-3.4,7.63-5.38,13.05-5.43,7.48-.06,14.24,3.43,16.83,8.69l1.2,2.45-.24-2.72a11.12,11.12,0,0,0-3-6.57,11,11,0,0,1,9.89-1.66,17.14,17.14,0,0,0,.42,4.37l.77,3.41.23-3.48c.52-7.86,5-12.77,11.75-12.83a17.67,17.67,0,0,1,5.78,1l2.58.87-2.1-1.74a13,13,0,0,0-8.14-3.19c0-5.71,2.05-12.46,11.64-13.65.58,5.36,3.34,10.77,8,15.69l4.26,4.51-3.47-5.14c-5.81-8.61-7-17.27-3.22-24.37A19.7,19.7,0,0,1,616.06,526a23.82,23.82,0,0,1,15.39,5.73,16.25,16.25,0,0,0-3.37,7.32l-1,4.91,1.93-4.62c2.33-5.58,8.46-9.23,15.61-9.29a18.1,18.1,0,0,1,12.4,4.44l2,1.85-1.2-2.44a13.74,13.74,0,0,0-8.33-6.89,17.17,17.17,0,0,1,9.45-2.57c6.49-.05,12.43,2.49,15.33,6.54a18.1,18.1,0,0,0-6.59,5.45l-2.91,3.88,3.65-3.2a19.35,19.35,0,0,1,12.59-4.39c6.12,0,12,2.18,15.74,6a13.78,13.78,0,0,1,4.1,10.19l-.24,10.33L701.9,549a17.92,17.92,0,0,0-2.54-12.18c2-4,6.54-6.53,11.68-6.58a15,15,0,0,1,10.6,4.11,16.09,16.09,0,0,0,1.41,12.12l1.36,2.28-.42-2.62c-.91-5.65-.13-10,2.31-13,2.26-2.77,6-4.32,11.05-4.61a32.69,32.69,0,0,0,5.9,15.28l3.49,5.15-2.61-5.64c-4.33-9.38-4.29-18.72.09-25.64,3.71-5.85,10.11-9.24,17.57-9.3,7.09-.06,14.66,2.84,21.88,8.39l6.15,4.73L784.33,516c-5.29-5.31-11.07-8.83-17.18-10.46,3.45-12.56,14-17.13,22.83-17.21,10.7-.09,19.8,5.78,23.34,15a13.4,13.4,0,0,0-5.66,3.85l-1.35,1.61,1.93-.82a30.67,30.67,0,0,1,11.48-2.28c9.55-.08,20.72,4.34,23.41,17l.71,3.28.3-3.34a18.35,18.35,0,0,0-.11-4.19h0c6.17,0,14.17,7.71,15.83,13.61a19.87,19.87,0,0,0-8.29,3.92l-2.64,2.1,3.14-1.23a28.13,28.13,0,0,1,10.06-2,27.42,27.42,0,0,1,27.55,23.47l.64,4.17.37-4.2a21.35,21.35,0,0,0,0-3.75h.07c3.76,0,9.32,3.29,10.92,7.54A20.31,20.31,0,0,0,894,567.5l-2.79,3.23,3.47-2.49c3.83-2.75,9.35-4.35,15.13-4.4,11.41-.1,21.19,5.27,26.15,14.37l2,3.71-1.09-4.08a22.94,22.94,0,0,0-2.07-5.15,9.47,9.47,0,0,1,3.71-.71c2.95,0,6.89,1,9.33,3.35a16.36,16.36,0,0,0-4.14,5.12l-1.94,3.81L944.6,581c3.94-4.64,11.95-7.68,20.39-7.75,10.51-.09,18.88,4.17,23,11.68l2,3.69-1.08-4.06a17.6,17.6,0,0,0-2.09-4.86,18.07,18.07,0,0,1,9.65-2.66c6.29,0,12.08,2.54,14.95,6.64a30,30,0,0,0-7.44,5.16l-4.54,4.2,5.17-3.41c4.74-3.13,9.34-4.74,13.68-4.77,7.54-.07,12.35,4.73,12.48,8.2a5.61,5.61,0,0,1-1.84,3.88c-1.35,1.41-5.37,4.7-13.65,4.77-6,.06-15.86-1.68-29-10.25l-5.93-3.86,5.32,4.67a61.4,61.4,0,0,0,5.4,4.24,31.31,31.31,0,0,1-14.3,4,22.48,22.48,0,0,1-17.25-7.81l-1.73-2,.87,2.51a15.14,15.14,0,0,0,3.42,5.38,25.77,25.77,0,0,1-10.19,2c-4.84.05-9.08-1-11.78-2.86a22.91,22.91,0,0,0,4.61-4l3.67-4.22L944,593c-5.59,4.46-15.32,7.08-26.7,7.18-9.89.08-19.12-1.8-24.09-4.92l-5.08-3.19,4.47,4a24.28,24.28,0,0,0,4.54,3.15,26.32,26.32,0,0,1-10.06,1.9c-4.57,0-8.66-.9-11.37-2.59a16.84,16.84,0,0,0,5-5.28l1.91-3.35-2.72,2.75c-5.49,5.56-18.71,9.39-32.89,9.51-15.49.13-28.64-4-36.1-11.33l-6.28-6.17Z"/></g></svg>