<svg id="Light_effects" data-name="Light effects" xmlns="http://www.w3.org/2000/svg" xmlns:xlink="http://www.w3.org/1999/xlink" viewBox="0 0 792 612"><defs><style>.cls-1{opacity:0.24;fill:url(#radial-gradient);}.cls-2,.cls-3,.cls-4{opacity:0.28;}.cls-2{fill:url(#radial-gradient-2);}.cls-3{fill:url(#radial-gradient-3);}.cls-4{fill:url(#radial-gradient-4);}.cls-10,.cls-11,.cls-12,.cls-13,.cls-14,.cls-15,.cls-5,.cls-6,.cls-7,.cls-8,.cls-9{opacity:0.37;}.cls-5{fill:url(#radial-gradient-5);}.cls-6{fill:url(#radial-gradient-6);}.cls-7{fill:url(#radial-gradient-7);}.cls-8{fill:url(#radial-gradient-8);}.cls-9{fill:url(#radial-gradient-9);}.cls-10{fill:url(#radial-gradient-10);}.cls-11{fill:url(#radial-gradient-11);}.cls-12{fill:url(#radial-gradient-12);}.cls-13{fill:url(#radial-gradient-13);}.cls-14{fill:url(#radial-gradient-14);}.cls-15{fill:url(#radial-gradient-15);}.cls-16,.cls-17,.cls-18,.cls-19,.cls-20,.cls-21{opacity:0.33;}.cls-16{fill:url(#radial-gradient-16);}.cls-17{fill:url(#radial-gradient-17);}.cls-18{fill:url(#radial-gradient-18);}.cls-19{fill:url(#radial-gradient-19);}.cls-20{fill:url(#radial-gradient-20);}.cls-21{fill:url(#radial-gradient-21);}</style><radialGradient id="radial-gradient" cx="1035.74" cy="941.51" r="23.03" gradientTransform="matrix(-0.99, -0.16, 0.16, -0.99, 1075.51, 1131.92)" gradientUnits="userSpaceOnUse"><stop offset="0" stop-color="#e8edff"/><stop offset="0.87" stop-color="#f7ffff"/><stop offset="1" stop-color="#eaf0ff"/></radialGradient><radialGradient id="radial-gradient-2" cx="1020.79" cy="894.75" r="47.99" xlink:href="#radial-gradient"/><radialGradient id="radial-gradient-3" cx="986.67" cy="858.94" r="24.58" xlink:href="#radial-gradient"/><radialGradient id="radial-gradient-4" cx="967.04" cy="838.76" r="15.47" xlink:href="#radial-gradient"/><radialGradient id="radial-gradient-5" cx="215.23" cy="507.62" r="12.91" gradientTransform="matrix(1, 0, 0, 1, 0, 0)" xlink:href="#radial-gradient"/><radialGradient id="radial-gradient-6" cx="768.23" cy="520.53" r="12.91" gradientTransform="matrix(1, 0, 0, 1, 0, 0)" xlink:href="#radial-gradient"/><radialGradient id="radial-gradient-7" cx="640.46" cy="566.29" r="12.91" gradientTransform="matrix(1, 0, 0, 1, 0, 0)" xlink:href="#radial-gradient"/><radialGradient id="radial-gradient-8" cx="383.06" cy="572.25" r="20.34" gradientTransform="matrix(1, 0, 0, 1, 0, 0)" xlink:href="#radial-gradient"/><radialGradient id="radial-gradient-9" cx="647.39" cy="260.8" r="25.56" gradientTransform="matrix(1, 0, 0, 1, 0, 0)" xlink:href="#radial-gradient"/><radialGradient id="radial-gradient-10" cx="476.11" cy="106.17" r="25.56" gradientTransform="matrix(1, 0, 0, 1, 0, 0)" xlink:href="#radial-gradient"/><radialGradient id="radial-gradient-11" cx="736.33" cy="388.58" r="25.56" gradientTransform="matrix(1, 0, 0, 1, 0, 0)" xlink:href="#radial-gradient"/><radialGradient id="radial-gradient-12" cx="674.29" cy="247.43" r="13.38" gradientTransform="matrix(1, 0, 0, 1, 0, 0)" xlink:href="#radial-gradient"/><radialGradient id="radial-gradient-13" cx="483.89" cy="75.03" r="20.34" gradientTransform="matrix(1, 0, 0, 1, 0, 0)" xlink:href="#radial-gradient"/><radialGradient id="radial-gradient-14" cx="207.77" cy="217.44" r="20.34" gradientTransform="matrix(1, 0, 0, 1, 0, 0)" xlink:href="#radial-gradient"/><radialGradient id="radial-gradient-15" cx="144.09" cy="49.74" r="20.34" gradientTransform="matrix(0.81, -0.59, 0.59, 0.81, 5.96, 600.19)" xlink:href="#radial-gradient"/><radialGradient id="radial-gradient-16" cx="106.52" cy="122.11" r="30.29" gradientTransform="translate(140.24 449.54) rotate(-9.28)" xlink:href="#radial-gradient"/><radialGradient id="radial-gradient-17" cx="140.01" cy="114.35" r="20.34" gradientTransform="translate(140.24 449.54) rotate(-9.28)" xlink:href="#radial-gradient"/><radialGradient id="radial-gradient-18" cx="72" cy="130.07" r="42.38" gradientTransform="translate(140.24 449.54) rotate(-9.28)" xlink:href="#radial-gradient"/><radialGradient id="radial-gradient-19" cx="120.62" cy="70.26" r="29.47" gradientTransform="translate(107.59 272.49) rotate(15.62)" xlink:href="#radial-gradient"/><radialGradient id="radial-gradient-20" cx="153.2" cy="62.71" r="19.79" gradientTransform="translate(107.59 272.49) rotate(15.62)" xlink:href="#radial-gradient"/><radialGradient id="radial-gradient-21" cx="87.03" cy="78.01" r="41.24" gradientTransform="translate(107.59 272.49) rotate(15.62)" xlink:href="#radial-gradient"/></defs><title>Artboard 2</title><path class="cls-1" d="M185.73,29.37a23,23,0,1,1,18.94,26.5A23,23,0,0,1,185.73,29.37Z"/><path class="cls-2" d="M168.19,73.85a48,48,0,1,1,39.45,55.21A48,48,0,0,1,168.19,73.85Z"/><path class="cls-3" d="M219.05,118.61a24.58,24.58,0,1,1,20.21,28.29A24.58,24.58,0,0,1,219.05,118.61Z"/><path class="cls-4" d="M244.09,143.24A15.47,15.47,0,1,1,256.8,161,15.46,15.46,0,0,1,244.09,143.24Z"/><path class="cls-5" d="M228.13,507.62a12.91,12.91,0,1,1-12.9-12.91A12.91,12.91,0,0,1,228.13,507.62Z"/><path class="cls-6" d="M781.13,520.53a12.91,12.91,0,1,1-12.9-12.91A12.91,12.91,0,0,1,781.13,520.53Z"/><path class="cls-7" d="M653.37,566.29a12.91,12.91,0,1,1-12.91-12.91A12.91,12.91,0,0,1,653.37,566.29Z"/><path class="cls-8" d="M403.4,572.25a20.34,20.34,0,1,1-20.34-20.34A20.34,20.34,0,0,1,403.4,572.25Z"/><path class="cls-9" d="M673,260.8a25.56,25.56,0,1,1-25.56-25.56A25.56,25.56,0,0,1,673,260.8Z"/><path class="cls-10" d="M501.67,106.17a25.56,25.56,0,1,1-25.56-25.56A25.56,25.56,0,0,1,501.67,106.17Z"/><path class="cls-11" d="M761.89,388.58A25.56,25.56,0,1,1,736.33,363,25.56,25.56,0,0,1,761.89,388.58Z"/><path class="cls-12" d="M687.67,247.43a13.38,13.38,0,1,1-13.38-13.38A13.38,13.38,0,0,1,687.67,247.43Z"/><path class="cls-13" d="M504.23,75a20.34,20.34,0,1,1-20.34-20.34A20.35,20.35,0,0,1,504.23,75Z"/><path class="cls-14" d="M228.11,217.44a20.34,20.34,0,1,1-20.34-20.35A20.34,20.34,0,0,1,228.11,217.44Z"/><path class="cls-15" d="M167.94,542.94a20.34,20.34,0,1,1-28.43-4.35A20.35,20.35,0,0,1,167.94,542.94Z"/><path class="cls-16" d="M295,548a30.29,30.29,0,1,1-34.78-25A30.29,30.29,0,0,1,295,548Z"/><path class="cls-17" d="M316.94,536.53a20.34,20.34,0,1,1-23.36-16.79A20.34,20.34,0,0,1,316.94,536.53Z"/><path class="cls-18" d="M274.1,559.45a42.38,42.38,0,1,1-48.66-35A42.38,42.38,0,0,1,274.1,559.45Z"/><path class="cls-19" d="M233.22,380.57a29.47,29.47,0,1,1-20.45-36.31A29.47,29.47,0,0,1,233.22,380.57Z"/><path class="cls-20" d="M257.31,379.47a19.79,19.79,0,1,1-13.73-24.39A19.79,19.79,0,0,1,257.31,379.47Z"/><path class="cls-21" d="M210.11,382.15a41.24,41.24,0,1,1-28.61-50.81A41.23,41.23,0,0,1,210.11,382.15Z"/></svg>