<svg id="Sky" xmlns="http://www.w3.org/2000/svg" xmlns:xlink="http://www.w3.org/1999/xlink" viewBox="0 0 792 612"><defs><style>.cls-1{fill:none;}.cls-2{clip-path:url(#clip-path);}.cls-3{fill:url(#radial-gradient);}.cls-4{fill:url(#radial-gradient-2);}.cls-5{fill:url(#radial-gradient-3);}.cls-6{fill:url(#radial-gradient-4);}.cls-7{fill:url(#radial-gradient-5);}.cls-8{fill:url(#radial-gradient-6);}.cls-9{fill:url(#radial-gradient-7);}.cls-10{fill:url(#radial-gradient-8);}.cls-11{fill:url(#radial-gradient-9);}.cls-12{fill:url(#radial-gradient-10);}.cls-13{fill:url(#radial-gradient-11);}.cls-14{fill:url(#radial-gradient-12);}.cls-15{fill:url(#radial-gradient-13);}.cls-16{fill:url(#radial-gradient-14);}.cls-17{fill:url(#radial-gradient-15);}.cls-18{fill:url(#radial-gradient-16);}.cls-19{fill:url(#radial-gradient-17);}.cls-20{fill:url(#radial-gradient-18);}.cls-21{fill:url(#radial-gradient-19);}.cls-22{fill:url(#radial-gradient-20);}.cls-23{fill:url(#radial-gradient-21);}.cls-24{fill:url(#radial-gradient-22);}.cls-25{fill:url(#radial-gradient-23);}.cls-26{fill:url(#radial-gradient-24);}.cls-27{fill:url(#radial-gradient-25);}.cls-28{fill:url(#radial-gradient-26);}.cls-29{fill:url(#radial-gradient-27);}.cls-30{fill:url(#radial-gradient-28);}.cls-31{fill:url(#radial-gradient-29);}.cls-32{fill:url(#radial-gradient-30);}.cls-33{fill:url(#radial-gradient-31);}.cls-34{fill:url(#radial-gradient-32);}.cls-35{fill:url(#radial-gradient-33);}.cls-36{fill:url(#radial-gradient-34);}.cls-37{fill:url(#radial-gradient-35);}.cls-38{fill:url(#radial-gradient-36);}.cls-39{fill:url(#radial-gradient-37);}.cls-40{fill:url(#radial-gradient-38);}.cls-41{fill:url(#radial-gradient-39);}.cls-42{fill:url(#radial-gradient-40);}</style><clipPath id="clip-path"><rect class="cls-1" width="792" height="612"/></clipPath><radialGradient id="radial-gradient" cx="242.3" cy="233.32" r="675.26" gradientTransform="translate(684 614.63) rotate(180)" gradientUnits="userSpaceOnUse"><stop offset="0.12" stop-color="#fff"/><stop offset="0.2" stop-color="#f7f9fb"/><stop offset="0.31" stop-color="#e1e9f0"/><stop offset="0.46" stop-color="#becedf"/><stop offset="0.62" stop-color="#8daac6"/><stop offset="0.68" stop-color="#7a9cbd"/><stop offset="0.69" stop-color="#7798b8"/><stop offset="0.84" stop-color="#4e667b"/><stop offset="0.94" stop-color="#354755"/><stop offset="1" stop-color="#2b3b47"/></radialGradient><radialGradient id="radial-gradient-2" cx="241.51" cy="233.62" r="782.6" gradientTransform="translate(684 614.63) rotate(180)" gradientUnits="userSpaceOnUse"><stop offset="0.12" stop-color="#fff"/><stop offset="0.2" stop-color="#f8fafc"/><stop offset="0.31" stop-color="#e5ecf2"/><stop offset="0.45" stop-color="#c6d4e3"/><stop offset="0.6" stop-color="#9bb4cd"/><stop offset="0.7" stop-color="#7a9cbd"/><stop offset="0.71" stop-color="#7798b8"/><stop offset="0.85" stop-color="#4e667b"/><stop offset="0.95" stop-color="#354755"/><stop offset="1" stop-color="#2b3b47"/></radialGradient><radialGradient id="radial-gradient-3" cx="242.52" cy="233.32" r="675.25" xlink:href="#radial-gradient-2"/><radialGradient id="radial-gradient-4" cx="242.52" cy="233.32" r="675.26" xlink:href="#radial-gradient-2"/><radialGradient id="radial-gradient-5" cx="242.52" cy="233.32" r="675.26" xlink:href="#radial-gradient-2"/><radialGradient id="radial-gradient-6" cx="241.71" cy="233.15" r="771.62" xlink:href="#radial-gradient-2"/><radialGradient id="radial-gradient-7" cx="242.52" cy="233.32" r="675.27" xlink:href="#radial-gradient-2"/><radialGradient id="radial-gradient-8" cx="242.52" cy="233.32" r="675.26" xlink:href="#radial-gradient-2"/><radialGradient id="radial-gradient-9" cx="242.52" cy="233.32" r="675.26" xlink:href="#radial-gradient-2"/><radialGradient id="radial-gradient-10" cx="242.52" cy="233.32" r="675.26" xlink:href="#radial-gradient-2"/><radialGradient id="radial-gradient-11" cx="242.52" cy="233.32" r="675.27" xlink:href="#radial-gradient-2"/><radialGradient id="radial-gradient-12" cx="242.52" cy="233.32" r="675.27" xlink:href="#radial-gradient-2"/><radialGradient id="radial-gradient-13" cx="242.52" cy="233.32" r="675.25" xlink:href="#radial-gradient-2"/><radialGradient id="radial-gradient-14" cx="248.19" cy="234.78" r="0" xlink:href="#radial-gradient-2"/><radialGradient id="radial-gradient-15" cx="242.52" cy="233.32" r="675.26" xlink:href="#radial-gradient-2"/><radialGradient id="radial-gradient-16" cx="242.52" cy="233.32" r="675.26" xlink:href="#radial-gradient-2"/><radialGradient id="radial-gradient-17" cx="242.52" cy="233.32" r="675.27" xlink:href="#radial-gradient-2"/><radialGradient id="radial-gradient-18" cx="248.19" cy="234.78" r="0" xlink:href="#radial-gradient-2"/><radialGradient id="radial-gradient-19" cx="242.52" cy="233.32" r="675.28" xlink:href="#radial-gradient-2"/><radialGradient id="radial-gradient-20" cx="242.52" cy="233.32" r="675.3" xlink:href="#radial-gradient-2"/><radialGradient id="radial-gradient-21" cx="242.52" cy="233.32" r="675.23" xlink:href="#radial-gradient-2"/><radialGradient id="radial-gradient-22" cx="242.52" cy="233.32" r="675.26" xlink:href="#radial-gradient-2"/><radialGradient id="radial-gradient-23" cx="242.52" cy="233.32" r="675.26" xlink:href="#radial-gradient-2"/><radialGradient id="radial-gradient-24" cx="242.52" cy="233.32" r="675.26" xlink:href="#radial-gradient-2"/><radialGradient id="radial-gradient-25" cx="242.52" cy="233.32" r="675.26" xlink:href="#radial-gradient-2"/><radialGradient id="radial-gradient-26" cx="242.52" cy="233.32" r="675.27" xlink:href="#radial-gradient-2"/><radialGradient id="radial-gradient-27" cx="242.52" cy="233.32" r="675.26" xlink:href="#radial-gradient-2"/><radialGradient id="radial-gradient-28" cx="241.15" cy="232.93" r="839.37" xlink:href="#radial-gradient-2"/><radialGradient id="radial-gradient-29" cx="242.52" cy="233.32" r="675.26" xlink:href="#radial-gradient-2"/><radialGradient id="radial-gradient-30" cx="242.52" cy="233.32" r="675.25" xlink:href="#radial-gradient-2"/><radialGradient id="radial-gradient-31" cx="242.52" cy="233.32" r="675.26" xlink:href="#radial-gradient-2"/><radialGradient id="radial-gradient-32" cx="242.32" cy="233.32" r="675.26" xlink:href="#radial-gradient-2"/><radialGradient id="radial-gradient-33" cx="243.1" cy="233.24" r="614.6" xlink:href="#radial-gradient-2"/><radialGradient id="radial-gradient-34" cx="243.07" cy="232.61" r="641.47" xlink:href="#radial-gradient-2"/><radialGradient id="radial-gradient-35" cx="242.52" cy="233.32" r="675.26" xlink:href="#radial-gradient-2"/><radialGradient id="radial-gradient-36" cx="242.52" cy="233.32" r="675.26" xlink:href="#radial-gradient-2"/><radialGradient id="radial-gradient-37" cx="242.52" cy="233.32" r="675.26" xlink:href="#radial-gradient-2"/><radialGradient id="radial-gradient-38" cx="242.52" cy="233.32" r="675.26" xlink:href="#radial-gradient-2"/><radialGradient id="radial-gradient-39" cx="242.52" cy="233.32" r="675.26" xlink:href="#radial-gradient-2"/><radialGradient id="radial-gradient-40" cx="242.52" cy="233.32" r="675.26" xlink:href="#radial-gradient-2"/></defs><title>Artboard 2</title><g class="cls-2"><rect class="cls-3" x="-73.62" y="-26.62" width="871.16" height="673.17"/><polygon class="cls-4" points="435.81 379.86 435.81 379.86 435.81 379.85 435.81 379.86"/><polygon class="cls-5" points="435.82 379.85 797.32 187.63 797.32 136.01 435.82 379.85 435.82 379.85"/><polygon class="cls-6" points="435.81 379.85 797.32 87.11 797.32 18.34 435.81 379.85 435.81 379.85"/><polygon class="cls-7" points="435.82 379.85 435.82 379.85 435.81 379.85 435.81 379.85 797.32 269.33 797.32 226.4 435.82 379.85 435.82 379.85"/><polygon class="cls-8" points="435.82 379.85 435.82 379.85 435.82 379.85 435.82 379.85"/><polygon class="cls-9" points="435.81 379.85 435.82 379.85 797.32 341.86 797.32 303.01 435.81 379.85 435.81 379.85"/><polygon class="cls-10" points="435.81 379.84 435.81 379.85 435.81 379.85 560.08 -26.61 514.82 -26.61 435.81 379.84 435.81 379.84"/><polygon class="cls-11" points="764.96 -26.61 699.78 -26.61 435.81 379.84 764.96 -26.61"/><polygon class="cls-12" points="651.93 -26.61 600.03 -26.61 435.81 379.85 651.93 -26.61"/><polygon class="cls-13" points="435.81 379.85 797.32 417.85 797.32 379.85 435.82 379.85 435.81 379.85"/><polygon class="cls-14" points="435.81 379.86 651.78 646.56 702.52 646.56 435.81 379.85 435.81 379.86"/><polygon class="cls-15" points="435.81 379.85 463.84 646.56 492.5 646.56 435.81 379.86 435.81 379.85"/><polygon class="cls-16" points="435.81 379.86 435.81 379.86 435.81 379.85 435.81 379.86"/><polygon class="cls-17" points="435.81 379.86 517.35 646.56 549.02 646.56 435.81 379.86 435.81 379.86"/><polygon class="cls-18" points="478.53 -26.61 435.81 -26.61 435.81 379.84 478.53 -26.61"/><polygon class="cls-19" points="435.81 379.85 435.81 379.86 577.62 646.56 615.71 646.56 435.81 379.86 435.81 379.85"/><polygon class="cls-20" points="435.81 379.86 435.81 379.85 435.81 379.85 435.81 379.86"/><polygon class="cls-21" points="797.32 490.37 797.32 450.12 435.81 379.85 797.32 490.37"/><polygon class="cls-22" points="765.16 646.56 797.32 646.56 797.32 614.62 435.82 379.86 765.16 646.56"/><polygon class="cls-23" points="797.32 572.07 797.32 525.91 435.81 379.85 797.32 572.07"/><polygon class="cls-24" points="435.81 379.86 435.81 379.86 435.81 379.85 435.81 379.85 -65.79 646.56 40.41 646.56 435.81 379.86"/><polygon class="cls-25" points="106.46 646.56 169.11 646.56 435.81 379.86 106.46 646.56"/><polygon class="cls-26" points="-73.84 535.67 -73.84 596.18 435.81 379.85 -73.84 535.67"/><polygon class="cls-27" points="-73.84 433.42 -73.84 488.18 435.81 379.85 -73.84 433.42"/><polygon class="cls-28" points="354.27 646.56 383.97 646.56 435.81 379.85 354.27 646.56"/><polygon class="cls-29" points="435.81 379.86 219.84 646.56 262.61 646.56 435.81 379.86 435.81 379.86"/><polygon class="cls-30" points="435.81 379.85 435.81 379.85 435.81 379.86 435.81 379.85"/><polygon class="cls-31" points="435.81 379.86 294 646.56 328.06 646.56 435.81 379.85 435.81 379.86"/><polygon class="cls-32" points="435.81 379.85 407.78 646.56 435.81 646.56 435.81 379.85 435.81 379.85"/><polygon class="cls-33" points="435.74 379.85 435.74 379.85 435.74 379.85 435.75 379.85 -66.2 -26.61 -73.84 -26.61 -73.84 36.13 435.74 379.85 435.74 379.85"/><polygon class="cls-34" points="-73.64 108.9 -73.64 163.54 435.94 379.84 -73.64 108.9"/><polygon class="cls-35" points="435.74 379.84 435.74 379.85 435.74 379.85 435.74 379.84"/><polygon class="cls-36" points="435.74 379.85 435.74 379.85 435.74 379.85 435.74 379.85"/><polygon class="cls-37" points="-73.84 326.29 -73.84 379.85 435.74 379.85 -73.84 326.29"/><polygon class="cls-38" points="-73.84 224.05 -73.84 271.53 435.75 379.85 -73.84 224.05"/><polygon class="cls-39" points="393.03 -26.61 356.74 -26.61 435.75 379.84 393.03 -26.61"/><polygon class="cls-40" points="311.48 -26.61 271.53 -26.61 435.75 379.85 311.48 -26.61"/><polygon class="cls-41" points="435.75 379.85 435.75 379.85 219.63 -26.61 171.78 -26.61 435.74 379.84 435.75 379.85"/><polygon class="cls-42" points="435.74 379.84 106.6 -26.61 29.28 -26.61 435.75 379.85 435.74 379.84"/></g></svg>