<svg id="Layer_1" data-name="Layer 1" xmlns="http://www.w3.org/2000/svg" xmlns:xlink="http://www.w3.org/1999/xlink" viewBox="0 0 3230.09 1500"><defs><style>.cls-1,.cls-8{fill:#fcee25;}.cls-1{opacity:0.2;}.cls-2{fill:#fcee23;opacity:0.3;}.cls-3{fill:#ffffad;}.cls-4{fill:#ffc60a;}.cls-5{fill:#febb12;}.cls-6{fill:#fbac18;}.cls-7{fill:#fed401;}.cls-9{fill:url(#linear-gradient);}.cls-10{fill:url(#linear-gradient-2);}.cls-11{fill:url(#linear-gradient-3);}.cls-12{fill:url(#linear-gradient-4);}.cls-13{fill:url(#linear-gradient-5);}.cls-14{fill:url(#linear-gradient-6);}.cls-15{fill:url(#linear-gradient-7);}.cls-16{fill:url(#linear-gradient-8);}.cls-17{fill:url(#linear-gradient-9);}.cls-18{fill:url(#linear-gradient-10);}.cls-19{fill:url(#linear-gradient-11);}.cls-20{fill:url(#linear-gradient-12);}.cls-21{fill:url(#linear-gradient-13);}.cls-22{fill:url(#linear-gradient-14);}.cls-23{fill:url(#linear-gradient-15);}.cls-24{fill:url(#linear-gradient-16);}</style><linearGradient id="linear-gradient" x1="2321.87" y1="666.17" x2="2321.87" y2="1735.76" gradientUnits="userSpaceOnUse"><stop offset="0" stop-color="#ff0076"/><stop offset="1" stop-color="#242a67"/></linearGradient><linearGradient id="linear-gradient-2" x1="2237.78" y1="689.97" x2="2237.78" y2="1016.16" xlink:href="#linear-gradient"/><linearGradient id="linear-gradient-3" x1="2125.35" y1="91.34" x2="1756.36" y2="1793.76" xlink:href="#linear-gradient"/><linearGradient id="linear-gradient-4" x1="1959.18" y1="715.83" x2="1833.79" y2="1294.36" gradientUnits="userSpaceOnUse"><stop offset="0" stop-color="#ed1c76"/><stop offset="0.46" stop-color="#7e2a6e"/><stop offset="1" stop-color="#242a67"/></linearGradient><linearGradient id="linear-gradient-5" x1="1803.6" y1="911.72" x2="1681.87" y2="1473.32" gradientUnits="userSpaceOnUse"><stop offset="0" stop-color="#ed1c76"/><stop offset="0.36" stop-color="#7e2a6e"/><stop offset="1" stop-color="#242a67"/></linearGradient><linearGradient id="linear-gradient-6" x1="2261.16" y1="455.03" x2="1985.08" y2="1728.79" xlink:href="#linear-gradient"/><linearGradient id="linear-gradient-7" x1="2394.87" y1="687.04" x2="2358.01" y2="857.1" gradientUnits="userSpaceOnUse"><stop offset="0" stop-color="#ed1c76"/><stop offset="0.36" stop-color="#7e2a6e"/><stop offset="0.83" stop-color="#4d2a6a"/><stop offset="1" stop-color="#242a67"/></linearGradient><linearGradient id="linear-gradient-8" x1="2556.31" y1="1256.39" x2="2656.31" y2="2548.39" xlink:href="#linear-gradient"/><linearGradient id="linear-gradient-9" x1="2757.86" y1="1240.79" x2="2857.86" y2="2532.79" xlink:href="#linear-gradient"/><linearGradient id="linear-gradient-10" x1="2582.53" y1="741.28" x2="2569.03" y2="1333.75" xlink:href="#linear-gradient"/><linearGradient id="linear-gradient-11" x1="657.81" y1="852.71" x2="657.81" y2="1820.31" xlink:href="#linear-gradient"/><linearGradient id="linear-gradient-12" x1="444.07" y1="773.36" x2="514.07" y2="1471.35" xlink:href="#linear-gradient"/><linearGradient id="linear-gradient-13" x1="194.57" y1="1337.15" x2="211.81" y2="1509.03" xlink:href="#linear-gradient"/><linearGradient id="linear-gradient-14" x1="713.42" y1="1229.86" x2="799.99" y2="1665.26" xlink:href="#linear-gradient"/><linearGradient id="linear-gradient-15" x1="757.62" y1="1019.19" x2="825.62" y2="1397.19" xlink:href="#linear-gradient"/><linearGradient id="linear-gradient-16" x1="998.77" y1="1262.88" x2="866.77" y2="1892.88" xlink:href="#linear-gradient"/></defs><title>Artboard 1</title><polygon class="cls-1" points="1085.87 738.79 984.89 612.18 1020.93 454.3 1166.83 384.03 1312.73 454.3 1348.77 612.18 1247.8 738.79 1085.87 738.79"/><polygon class="cls-2" points="1104.69 697.54 1027.2 600.38 1054.86 479.2 1166.83 425.28 1278.81 479.2 1306.47 600.38 1228.98 697.54 1104.69 697.54"/><polygon class="cls-3" points="1120.04 663.92 1061.68 590.75 1082.51 499.51 1166.83 458.9 1251.15 499.51 1271.98 590.75 1213.63 663.92 1120.04 663.92"/><polygon class="cls-4" points="1166.83 458.9 1110.41 552.63 1082.51 499.51 1166.83 458.9"/><polygon class="cls-5" points="1082.51 499.51 1110.41 552.63 1061.68 590.75 1082.51 499.51"/><polygon class="cls-6" points="1061.68 590.75 1120.04 663.92 1110.41 552.63 1061.68 590.75"/><polygon class="cls-7" points="1166.83 458.9 1191.01 569.41 1110.41 552.63 1166.83 458.9"/><polygon class="cls-4" points="1110.41 552.63 1191.01 569.41 1120.04 663.92 1110.41 552.63"/><polygon class="cls-7" points="1191.01 569.41 1213.63 663.92 1120.04 663.92 1191.01 569.41"/><polygon class="cls-8" points="1191.01 569.41 1271.98 590.75 1213.63 663.92 1191.01 569.41"/><polygon class="cls-9" points="1634.8 1500 1700.81 1295.87 1757.81 1313.88 1781.82 1256.87 1808.47 1256.87 1904.95 1052.76 2125.71 944.26 2344.82 698.69 2435.91 717.01 2466.46 694.78 2528.89 818.83 2640.06 1095.15 2698.91 1067.92 2810.92 1253.87 2858.92 1261.87 3008.94 1500 1634.8 1500"/><polygon class="cls-10" points="2344.82 698.69 2349.84 842.92 2125.71 944.26 2344.82 698.69"/><polygon class="cls-11" points="1958.94 1139 2064.94 1095.15 2125.71 944.26 1904.95 1052.76 1808.47 1256.87 1781.82 1256.87 1757.81 1313.88 1700.81 1295.87 1634.8 1500 1802.35 1500 1924.94 1361 1958.94 1139"/><polygon class="cls-12" points="1904.95 1052.76 1884.83 1213.11 1808.47 1256.87 1904.95 1052.76"/><polygon class="cls-13" points="1700.81 1295.87 1734.94 1419 1634.8 1500 1700.81 1295.87"/><polygon class="cls-14" points="2169.64 1063.23 2230.52 1222.13 2110.53 1397.94 1954.54 1441.56 1899.04 1500 1998.04 1342.56 2109.03 1295.87 2160.03 1222.13 2169.64 1063.23"/><polygon class="cls-15" points="2344.82 698.69 2407.62 742.44 2435.91 717.01 2344.82 698.69"/><polygon class="cls-16" points="2466.46 694.78 2441.94 886.64 2435.91 944.26 2505.8 962.23 2508.03 1038.85 2508.03 1172.07 2640.06 1095.15 2528.89 818.83 2466.46 694.78"/><polygon class="cls-17" points="2698.91 1067.92 2705.91 1241.87 2810.92 1253.87 2698.91 1067.92"/><polygon class="cls-18" points="2640.06 1095.15 2508.03 1132.21 2511.02 1240.57 2640.06 1095.15"/><polygon class="cls-19" points="148.78 1500 265.79 1427.89 361.8 1439.94 415.81 1343.88 523.82 1285.46 631.18 1152.09 679.18 1200.47 730.84 1228.97 845.26 1335.48 879.75 1295.87 1066.87 1472.89 1124.53 1469.89 1166.83 1500 148.78 1500"/><polygon class="cls-20" points="415.81 1343.88 361.8 1439.94 541.18 1343.88 541.18 1295.87 639.18 1240.57 631.18 1152.09 523.82 1285.46 415.81 1343.88"/><polygon class="cls-21" points="265.79 1427.89 249.18 1479 187.18 1500 148.78 1500 265.79 1427.89"/><polygon class="cls-22" points="701.18 1365 802.96 1296.1 730.84 1228.97 679.18 1200.47 631.18 1152.09 639.18 1240.57 701.18 1365"/><polygon class="cls-23" points="845.26 1335.48 798.96 1326.05 771.42 1266.74 845.26 1335.48"/><polygon class="cls-24" points="879.75 1295.87 879.75 1397.94 1066.87 1472.89 879.75 1295.87"/></svg>