<svg id="rocks2" xmlns="http://www.w3.org/2000/svg" xmlns:xlink="http://www.w3.org/1999/xlink" viewBox="0 0 1024 512"><defs><style>.cls-1{mask:url(#mask);filter:url(#luminosity-noclip-2);}.cls-2{mix-blend-mode:multiply;fill:url(#Áåçûìÿííûé_ãðàäèåíò_3);}.cls-3{fill:#fcac6b;}.cls-4{fill:#e2975e;}.cls-5{fill:#e28e74;}.cls-6{fill:#b2c3ff;}.cls-7{fill:#ffd39f;}.cls-8{mask:url(#mask-2);}.cls-9{fill:url(#Áåçûìÿííûé_ãðàäèåíò_79);}.cls-10{filter:url(#luminosity-noclip);}</style><filter id="luminosity-noclip" x="1.13" y="-8448" width="1021.74" height="32766" filterUnits="userSpaceOnUse" color-interpolation-filters="sRGB"><feFlood flood-color="#fff" result="bg"/><feBlend in="SourceGraphic" in2="bg"/></filter><mask id="mask" x="1.13" y="-8448" width="1021.74" height="32766" maskUnits="userSpaceOnUse"><g class="cls-10"/></mask><linearGradient id="Áåçûìÿííûé_ãðàäèåíò_3" x1="510.6" y1="498.4" x2="513.5" y2="162.3" gradientUnits="userSpaceOnUse"><stop offset="0.79" stop-color="#ccc"/><stop offset="1"/></linearGradient><filter id="luminosity-noclip-2" x="1.13" y="157.34" width="1021.74" height="354.36" filterUnits="userSpaceOnUse" color-interpolation-filters="sRGB"><feFlood flood-color="#fff" result="bg"/><feBlend in="SourceGraphic" in2="bg"/></filter><mask id="mask-2" x="1.13" y="157.34" width="1021.74" height="354.36" maskUnits="userSpaceOnUse"><g class="cls-1"><polygon class="cls-2" points="1.15 157.34 1.15 300.53 1.13 511.7 1022.87 511.7 1022.85 157.34 1.15 157.34"/></g></mask><linearGradient id="Áåçûìÿííûé_ãðàäèåíò_79" x1="510.6" y1="498.4" x2="513.5" y2="162.3" gradientUnits="userSpaceOnUse"><stop offset="0.79" stop-color="#ffc3be"/><stop offset="1" stop-color="#f9ce96"/></linearGradient></defs><title>Artboard 2</title><path class="cls-3" d="M924.86,168.26l-30.34,2.08-74.58,63.13-201,32.08-13.77-36.66L583.64,196l-33.91,12-47.9,22.93-71.58,42L388.68,217.6l-6.77-18.69-18.76-21.16-35.57,27.86-95.5,42.5-20.46,32.25L202.81,211l-23.27-30.38-22.22,39.5-15.86-2.47s-29.86,19.75-31.27,20.81S5,303.94,1,306.36V512H1024V246.78Z"/><polygon class="cls-4" points="1024 223.59 1024 185.72 1017.04 180.43 1000.51 163.5 994.66 175.67 977.71 188.36 939.62 255.93 920.58 264.01 906.3 255.93 884.61 272.47 861.87 246.55 780.42 214.81 739.16 187.31 721.71 168.26 705.31 179.9 647.13 210.58 574.15 270.88 525.49 241.26 507.5 219.04 478.42 212.7 459.9 191.01 446.15 212.7 427.11 226.45 404.9 263.48 386.92 234.91 332.97 193.12 299.65 155.04 283.25 162.97 245.17 207.41 229.3 206.35 199.69 255.93 186.99 261.89 127.76 222.22 91.26 183.07 60.59 140.22 34.58 171.44 0 191.78 0 511.95 1024 512 1024 223.59 1024 223.59"/><polygon class="cls-5" points="45.66 233 54.36 225.48 58.94 195.5 54.36 192.56 61.06 189.97 56.12 183.04 58.94 169.4 57.53 158.23 62.59 154.94 60.35 151.65 60.59 140.26 34.03 171.52 0.06 191.78 -0.02 276 0 324.53 28.62 314.35 38.73 287.55 63.65 277.55 67.58 260.51 45.66 233"/><polygon class="cls-5" points="299.65 155.04 298.61 172.81 292.38 179.16 283.33 179.98 285.56 187.39 289.32 212.66 283.33 217.25 268.99 218.78 287.32 230.77 308.01 231.35 305.31 236.41 289.67 260.39 292.49 281.08 314.47 311.76 279.33 324.11 269.81 361.14 228.2 366.43 191.53 385.47 223.62 329.75 224.67 298.36 187.3 262.04 199.9 255.78 229.26 206.31 245.13 207.28 283.38 162.67 299.65 155.04"/><polygon class="cls-5" points="459.9 191.01 459.52 208.43 456.7 216.72 466.04 221.83 469.64 235.41 487 265.03 487 289.19 471.85 306.65 459.86 322.34 440.38 304 421.21 279.85 404.49 263.62 426.89 226.59 446.11 212.72 459.9 191.01"/><polygon class="cls-5" points="573.59 271.03 626.66 306.3 640.76 308.41 700.71 332.75 684.84 310.35 719.04 265.03 717.99 249.87 728.74 238.94 727.33 224.12 716.58 207.2 713.58 195.56 720.28 180.92 721.72 168.26 705.64 179.51 646.93 210.55 573.59 271.03"/><polygon class="cls-5" points="920.58 264.01 937.08 272.85 965.45 271.44 995 255.93 995 221.83 1002.83 209.84 1005.22 180.22 1000.77 169.17 1000.43 163.5 994.62 175.67 977.69 188.36 939.61 255.93 920.58 264.01"/><polygon class="cls-6" points="299.65 155.04 286.97 160.99 283.38 162.67 282.94 175.48 291.3 169.17 293.05 173.96 298.11 165.23 298.78 169.81 299.65 155.04"/><polygon class="cls-6" points="60.59 140.26 48.77 154.17 52.82 153.77 53.08 157.51 45.33 166.37 55.68 161.79 56.92 163.33 57.53 158.23 62.59 154.94 60.35 151.65 60.59 140.26"/><polygon class="cls-6" points="459.9 191.01 446.12 212.72 433.23 222.03 443.88 221.3 444.18 241.23 455.34 227.3 457.64 224.36 462.6 236.03 464.22 223.89 466.73 224.18 466.04 221.83 456.7 216.72 459.52 208.43 459.9 191.01"/><polygon class="cls-6" points="721.72 168.26 705.64 179.51 683.25 191.35 691.14 191.55 692.77 195.95 690.66 209.4 683.91 217.6 709.48 208.17 714.72 211.29 716.58 207.2 713.58 195.56 720.28 180.92 721.72 168.26"/><polygon class="cls-6" points="906.28 255.93 896.3 263.38 902.4 261.8 898.64 271.09 904.64 268.15 906.28 255.93"/><polygon class="cls-6" points="1000.41 163.44 994.61 175.64 977.52 188.35 973 196.11 973 200.67 981.25 200.14 982.14 211.31 998.57 198.73 1003.12 206.89 1005.24 180.22 1000.72 168.87 1000.41 163.44"/><polygon class="cls-7" points="459.9 191.01 478.21 212.54 507.36 218.89 511.35 230.88 485.63 224.06 482.32 220.77 482.91 228.88 466.73 224.18 466.04 221.83 456.7 216.72 459.52 208.43 459.9 191.01"/><polygon class="cls-7" points="299.65 155.04 298.78 169.81 300.22 168.14 309.13 184.1 315.21 180.57 325.88 185.02 299.65 155.04"/><polygon class="cls-7" points="57.53 158.23 61.85 167.7 68.51 161.35 74.11 171.18 83.32 171.97 60.59 140.26 60.35 151.65 62.59 154.94 57.53 158.23"/><polygon class="cls-7" points="716.58 207.2 713.58 195.56 720.08 181.35 721.72 168.26 739.16 187.31 776.7 212.22 750.34 210.55 738.79 231.44 727.33 224.12 716.58 207.2"/><polygon class="cls-7" points="1000.47 163.44 1017.24 180.66 1024 185.63 1024 199.26 1018.21 193.88 1012.67 200.67 1007.61 199.26 1003.15 206.89 1005.26 180.22 1000.73 168.87 1000.47 163.44"/><g class="cls-8"><polygon class="cls-9" points="1.15 157.34 1.15 300.53 1.13 511.7 1022.87 511.7 1022.85 157.34 1.15 157.34"/></g></svg>