<svg id="Heaven" xmlns="http://www.w3.org/2000/svg" xmlns:xlink="http://www.w3.org/1999/xlink" viewBox="0 0 1024 512"><defs><style>.cls-1{mask:url(#mask);filter:url(#luminosity-noclip-2);}.cls-2{mix-blend-mode:multiply;fill:url(#Áåçûìÿííûé_ãðàäèåíò_4);}.cls-3{fill:url(#Áåçûìÿííûé_ãðàäèåíò_58);}.cls-4{mask:url(#mask-2);}.cls-5{opacity:0.86;fill:url(#Áåçûìÿííûé_ãðàäèåíò_34);}.cls-6{fill:#ffce91;}.cls-7{fill:#ffb791;}.cls-8{fill:#ffe4ad;}.cls-9{filter:url(#luminosity-noclip);}</style><filter id="luminosity-noclip" x="113.95" y="-8448" width="88.56" height="32766" filterUnits="userSpaceOnUse" color-interpolation-filters="sRGB"><feFlood flood-color="#fff" result="bg"/><feBlend in="SourceGraphic" in2="bg"/></filter><mask id="mask" x="113.95" y="-8448" width="88.56" height="32766" maskUnits="userSpaceOnUse"><g class="cls-9"/></mask><radialGradient id="Áåçûìÿííûé_ãðàäèåíò_4" cx="158.23" cy="171.61" r="44.28" gradientTransform="translate(289.75 -21.24) rotate(76.97)" gradientUnits="userSpaceOnUse"><stop offset="0.45" stop-color="#fff"/><stop offset="1"/></radialGradient><linearGradient id="Áåçûìÿííûé_ãðàäèåíò_58" x1="510.39" y1="503.39" x2="513.39" y2="1.39" gradientUnits="userSpaceOnUse"><stop offset="0.55" stop-color="#ffd87f"/><stop offset="0.79" stop-color="#e5b12a"/><stop offset="0.97" stop-color="#ee8c73"/></linearGradient><filter id="luminosity-noclip-2" x="113.95" y="127.33" width="88.56" height="88.56" filterUnits="userSpaceOnUse" color-interpolation-filters="sRGB"><feFlood flood-color="#fff" result="bg"/><feBlend in="SourceGraphic" in2="bg"/></filter><mask id="mask-2" x="113.95" y="127.33" width="88.56" height="88.56" maskUnits="userSpaceOnUse"><g class="cls-1"><circle class="cls-2" cx="158.23" cy="171.61" r="44.28" transform="translate(-44.64 287.08) rotate(-76.97)"/></g></mask><radialGradient id="Áåçûìÿííûé_ãðàäèåíò_34" cx="158.23" cy="171.61" r="44.28" gradientTransform="translate(289.75 -21.24) rotate(76.97)" gradientUnits="userSpaceOnUse"><stop offset="0.45" stop-color="#ffff6a"/><stop offset="1" stop-color="#a7cfe8"/></radialGradient></defs><title>Artboard 2</title><polygon class="cls-3" points="0 0 0 324.66 0.15 324.66 0.15 450.65 0 450.65 0 512 1023.74 512 1023.99 277.83 1024 277.05 1024 0 0 0"/><g class="cls-4"><circle class="cls-5" cx="158.23" cy="171.61" r="44.28" transform="translate(-44.64 287.08) rotate(-76.97)"/></g><path class="cls-6" d="M588.53,180.1c-6.18.75-58.32-9.12-19.16-7.8s87.46-7,87.46-7c-21.56.12-44.37-8.16-62.71-5.23a107.06,107.06,0,0,1-35.11.19c-10-8-43.36-13.86-82.93-13.86-9,0-17.73.31-25.9.87a24,24,0,0,1-2.74-2.7s-17.23-1.91-31-.48-19.21,2.43-32.52,0S365,144,346,149.67s24.82,5.23,42.14,5.42c5.36.06,10.63.08,15.36.09-5,1.72-8.74,3.63-11,5.67-9.77-.69-16.11,1.81-24,4.87-8.82,3.42,5.93,13.77,17.83,13.77S418.25,181,426.14,181h0c3.74,0,7.7,1,11.85,1.41-5.89.6-13.29,1.12-22.93,1.5-40.14,1.6-53,2.55-46.23,2.56s17.53.29,39.71.67c18.88.33,47.09-1,55.06-1.35,2.62.35,5.07.61,7.19.74,12.68.74,36.95.86,99.12,0S594.7,179.34,588.53,180.1Z"/><path class="cls-7" d="M345.53,55.1c-6.18.75-58.32-9.12-19.16-7.8s87.46-7,87.46-7c-21.56.12-44.37-8.16-62.71-5.23a107.06,107.06,0,0,1-35.11.19c-10-8-43.36-13.86-82.93-13.86-9,0-17.73.31-25.9.87a24,24,0,0,1-2.74-2.7s-17.23-1.91-31-.48-19.21,2.43-32.52,0S122,19,103,24.67s24.82,5.23,42.14,5.42c5.36.06,10.63.08,15.36.09-5,1.72-8.74,3.63-11,5.67-9.77-.69-16.11,1.81-24,4.87-8.82,3.42,5.93,13.77,17.83,13.77S175.25,56,183.14,56h0c3.74,0,7.7,1,11.85,1.41-5.89.6-13.29,1.12-22.93,1.5-40.14,1.6-53,2.55-46.23,2.56s17.53.29,39.71.67c18.88.33,47.09-1,55.06-1.35,2.62.35,5.07.61,7.19.74,12.68.74,37,.86,99.12,0S351.7,54.34,345.53,55.1Z"/><path class="cls-7" d="M681.72,69c8,1,75.5-11.8,24.81-10.09s-113.24-9-113.24-9c27.92.15,57.45-10.57,81.19-6.77a138.85,138.85,0,0,0,45.46.25c13-10.35,56.13-18,107.35-18,11.69,0,23,.4,33.54,1.13a30.73,30.73,0,0,0,3.55-3.5s22.31-2.47,40.13-.61,24.87,3.14,42.1,0,24.51-.19,49.15,7.2-32.14,6.77-54.56,7c-6.94.08-13.77.11-19.89.11,6.46,2.23,11.32,4.71,14.23,7.35,12.65-.9,20.86,2.34,31.06,6.3,11.42,4.43-7.67,17.75-23.08,17.75S902.17,70,892,70h0c-4.84,0-10,1.32-15.34,1.91,7.63.79,17.2,1.5,29.68,2,52,2.08,68.59,3.32,59.85,3.33s-22.69.39-51.4.89c-24.45.42-61-1.24-71.28-1.74-3.4.45-6.56.78-9.31.94-16.41,1-47.84,1.12-128.32,0S673.73,68,681.72,69Z"/><path class="cls-6" d="M839.49,77.57c-4,.49-38-5.95-12.49-5.09s57-4.56,57-4.56C870,68,855.1,62.6,843.14,64.51a69.72,69.72,0,0,1-22.89.13c-6.55-5.21-28.28-9-54.07-9-5.89,0-11.57.2-16.9.57a15.21,15.21,0,0,1-1.78-1.76s-11.24-1.25-20.22-.31-12.52,1.58-21.2,0-12.35-.1-24.75,3.63,16.18,3.4,27.47,3.53c3.5,0,6.94.05,10,.06a21.25,21.25,0,0,0-7.16,3.7c-6.37-.46-10.51,1.18-15.65,3.17-5.75,2.23,3.87,9,11.63,9s20.82,1,26,1h0c2.44,0,5,.62,7.73.91-3.85.4-8.67.74-15,1-26.18,1-34.55,1.65-30.15,1.66s11.43.19,25.89.44c12.32.22,30.71-.63,35.9-.88,1.72.23,3.31.4,4.69.48,8.27.48,24.1.56,64.63,0S843.52,77.07,839.49,77.57Z"/><path class="cls-6" d="M316.59,68.57c-3,.49-28.14-5.95-9.24-5.09s42.21-4.56,42.21-4.56c-10.41.08-21.42-5.32-30.27-3.41a38.4,38.4,0,0,1-16.94.13c-4.85-5.21-20.93-9-40-9-4.36,0-8.56.2-12.5.57a14.31,14.31,0,0,1-1.33-1.76s-8.31-1.25-15-.31-9.26,1.58-15.69,0-9.14-.1-18.32,3.63,12,3.4,20.34,3.53c2.58,0,5.13.05,7.41.06A14.91,14.91,0,0,0,222,56c-4.72-.46-7.78,1.18-11.58,3.17-4.26,2.23,2.86,9,8.6,9s15.42,1,19.23,1h0a44.13,44.13,0,0,1,5.72.91c-2.85.4-6.42.74-11.07,1-19.37,1-25.57,1.65-22.31,1.66s8.46.19,19.16.44c9.12.22,22.73-.63,26.57-.88,1.27.23,2.45.4,3.47.48,6.12.48,17.84.56,47.84,0S319.57,68.07,316.59,68.57Z"/><path class="cls-8" d="M549.59,190.57c-3,.49-28.14-5.95-9.24-5.09s42.21-4.56,42.21-4.56c-10.41.08-21.42-5.32-30.27-3.41a38.4,38.4,0,0,1-16.94.13c-4.85-5.21-20.93-9-40-9-4.36,0-8.56.2-12.5.57a14.31,14.31,0,0,1-1.33-1.76s-8.31-1.25-15-.31-9.26,1.58-15.69,0-9.14-.1-18.32,3.63,12,3.4,20.34,3.53c2.58,0,5.13.05,7.41.06A14.91,14.91,0,0,0,455,178c-4.72-.46-7.78,1.18-11.58,3.17-4.26,2.23,2.86,9,8.6,9s15.42,1,19.23,1h0a44.13,44.13,0,0,1,5.72.91c-2.85.4-6.42.74-11.07,1-19.37,1-25.57,1.65-22.31,1.66s8.46.19,19.16.44c9.12.22,22.73-.63,26.57-.88,1.27.23,2.45.4,3.47.48,6.12.48,17.84.56,47.84,0S552.57,190.07,549.59,190.57Z"/></svg>