<svg xmlns="http://www.w3.org/2000/svg" viewBox="0 0 1024 512"><defs><style>.cls-1{isolation:isolate;}.cls-2{fill:#151d04;}.cls-3{fill:#3e0c01;}.cls-4{fill:#451e04;}.cls-5{fill:#d7a4b0;}.cls-6{fill:#bb8427;}.cls-7{opacity:0.76;}.cls-8{fill:#956738;}.cls-9{fill:#ffb39d;mix-blend-mode:soft-light;}</style></defs><title>Artboard 2</title><g class="cls-1"><g id="foreground"><polygon class="cls-2" points="0 446 0 512.04 1024 512.14 1024 446 0 446"/><rect class="cls-3" x="15.6" y="458.59" width="42.32" height="36.21"/><rect class="cls-3" x="63.56" y="458.59" width="24.22" height="20.05"/><rect class="cls-3" x="74.38" y="490.81" width="30.57" height="18.81"/><rect class="cls-3" x="93.9" y="458.59" width="40.44" height="29.04"/><rect class="cls-3" x="62.39" y="481.87" width="25.39" height="5.75"/><rect class="cls-3" x="0.31" y="497.63" width="67.25" height="13.17"/><rect class="cls-3" x="2.66" y="458.71" width="8.7" height="35.98"/><rect class="cls-3" x="138.81" y="458.71" width="18.58" height="14.81"/><rect class="cls-3" x="137.87" y="475.52" width="24.22" height="35.27"/><rect class="cls-3" x="109.65" y="493.16" width="20.22" height="9.17"/><rect class="cls-3" x="758.33" y="463.9" width="20.22" height="9.17"/><rect class="cls-3" x="159.63" y="458.59" width="50.06" height="13.4"/><rect class="cls-3" x="168.9" y="475.52" width="10.82" height="6.35"/><rect class="cls-3" x="168.9" y="486.58" width="71.48" height="25.16"/><rect class="cls-3" x="369" y="458.59" width="24.22" height="20.05"/><rect class="cls-3" x="379.82" y="490.81" width="30.57" height="18.81"/><rect class="cls-3" x="399.34" y="458.59" width="40.44" height="29.04"/><rect class="cls-3" x="367.83" y="481.87" width="25.39" height="5.75"/><rect class="cls-3" x="444.25" y="458.71" width="18.58" height="14.81"/><rect class="cls-3" x="443.31" y="475.52" width="24.22" height="35.27"/><rect class="cls-3" x="415.09" y="493.16" width="20.22" height="9.17"/><rect class="cls-3" x="709.27" y="461.53" width="20.22" height="9.17"/><rect class="cls-3" x="465.07" y="458.59" width="50.06" height="13.4"/><rect class="cls-3" x="474.35" y="475.52" width="10.82" height="6.35"/><rect class="cls-3" x="474.35" y="486.58" width="71.48" height="25.28"/><rect class="cls-3" x="184.66" y="474.82" width="50.79" height="9.93"/><rect class="cls-3" x="216.64" y="458.86" width="57.77" height="14.58"/><rect class="cls-3" x="247.32" y="481.87" width="52.42" height="29.98"/><rect class="cls-3" x="277.13" y="459.98" width="32.8" height="19.81"/><rect class="cls-3" x="240.89" y="475.76" width="30.16" height="1.94"/><rect class="cls-3" x="306.58" y="481.87" width="3.97" height="29.07"/><rect class="cls-3" x="312.4" y="463.42" width="15.87" height="16.37"/><rect class="cls-3" x="330.82" y="459.27" width="24.6" height="18.43"/><rect class="cls-3" x="319.19" y="481.87" width="36.68" height="16.28"/><rect class="cls-3" x="313.63" y="500.01" width="53.43" height="11.55"/><rect class="cls-3" x="755.92" y="481.06" width="52.42" height="29.98"/><rect class="cls-3" x="785.72" y="459.16" width="32.8" height="19.81"/><rect class="cls-3" x="815.17" y="481.06" width="3.97" height="29.07"/><rect class="cls-3" x="820.99" y="462.6" width="15.87" height="16.37"/><rect class="cls-3" x="839.42" y="458.46" width="24.6" height="18.43"/><rect class="cls-3" x="827.78" y="481.06" width="36.68" height="16.28"/><rect class="cls-3" x="822.23" y="499.19" width="53.43" height="11.55"/><rect class="cls-3" x="678.94" y="486.58" width="71.48" height="25.1" transform="translate(1429.37 998.25) rotate(180)"/><rect class="cls-3" x="683.88" y="474.82" width="50.79" height="9.93" transform="translate(1418.55 959.57) rotate(180)"/><rect class="cls-3" x="644.92" y="458.86" width="57.77" height="14.58" transform="translate(1347.61 932.3) rotate(180)"/><rect class="cls-3" x="619.59" y="481.87" width="52.42" height="29.98" transform="translate(1291.59 993.73) rotate(180)"/><rect class="cls-4" x="630.24" y="486.58" width="33.12" height="21.63" transform="translate(1293.6 994.78) rotate(180)"/><rect class="cls-3" x="609.4" y="459.98" width="32.8" height="19.81" transform="translate(1251.6 939.76) rotate(180)"/><rect class="cls-3" x="521.18" y="463.53" width="32.8" height="19.81" transform="translate(1075.17 946.88) rotate(180)"/><rect class="cls-3" x="648.29" y="475.76" width="30.16" height="1.94" transform="translate(1326.73 953.46) rotate(180)"/><rect class="cls-3" x="608.78" y="481.87" width="3.97" height="29.07" transform="translate(1221.54 992.81) rotate(180)"/><rect class="cls-3" x="591.06" y="463.42" width="15.87" height="16.37" transform="translate(1197.99 943.2) rotate(180)"/><rect class="cls-3" x="737.31" y="461.7" width="15.87" height="16.37" transform="translate(1490.5 939.76) rotate(180)"/><rect class="cls-3" x="563.9" y="459.27" width="24.6" height="18.43" transform="translate(1152.41 936.97) rotate(180)"/><rect class="cls-3" x="563.46" y="481.87" width="36.68" height="16.28" transform="translate(1163.6 980.03) rotate(180)"/><rect class="cls-3" x="552.26" y="500.01" width="53.43" height="11.55" transform="translate(1157.96 1011.57) rotate(180)"/><rect class="cls-3" x="947.62" y="481.87" width="52.42" height="29.98" transform="translate(1947.67 993.73) rotate(180)"/><rect class="cls-3" x="937.44" y="459.98" width="32.8" height="19.81" transform="translate(1907.68 939.76) rotate(180)"/><rect class="cls-3" x="936.82" y="481.87" width="3.97" height="29.07" transform="translate(1877.61 992.81) rotate(180)"/><rect class="cls-3" x="919.1" y="463.42" width="15.87" height="16.37" transform="translate(1854.07 943.2) rotate(180)"/><rect class="cls-3" x="891.94" y="459.27" width="24.6" height="18.43" transform="translate(1808.48 936.97) rotate(180)"/><rect class="cls-3" x="891.5" y="481.87" width="36.68" height="16.28" transform="translate(1819.68 980.03) rotate(180)"/><rect class="cls-3" x="880.3" y="500.01" width="53.43" height="11.55" transform="translate(1814.04 1011.57) rotate(180)"/><rect class="cls-3" x="357.89" y="462.27" width="7.58" height="35.45"/><rect class="cls-3" x="866.84" y="461.12" width="21.51" height="22.93"/><rect class="cls-3" x="869.14" y="487.58" width="19.22" height="9.29"/><rect class="cls-3" x="974.77" y="458.46" width="49.09" height="20.51"/><rect class="cls-3" x="1023.86" y="458.46" width="0.11" height="20.51"/><rect class="cls-3" x="1002.81" y="482.81" width="21.05" height="4.82"/><rect class="cls-3" x="1003.69" y="492.22" width="20.17" height="19.64"/><rect class="cls-3" x="489.28" y="476.73" width="26.98" height="5.14"/><rect class="cls-3" x="552.26" y="487.58" width="5.49" height="9.28"/><rect class="cls-3" x="371.65" y="492.22" width="3.7" height="11.93"/><rect class="cls-3" x="415.09" y="506.44" width="25.51" height="3.17"/><rect class="cls-4" x="372.11" y="464.37" width="18" height="10.29" transform="translate(762.23 939.02) rotate(180)"/><rect class="cls-4" x="334.12" y="463.47" width="18" height="10.29" transform="translate(686.25 937.24) rotate(180)"/><rect class="cls-4" x="284.53" y="463.47" width="18" height="10.29" transform="translate(587.05 937.24) rotate(180)"/><rect class="cls-4" x="100.65" y="464.37" width="27.11" height="17.5" transform="translate(228.41 946.24) rotate(180)"/><rect class="cls-4" x="23.21" y="462.18" width="27.11" height="26.63" transform="translate(73.52 950.99) rotate(180)"/><rect class="cls-4" x="68.86" y="462.36" width="15.3" height="15.03" transform="translate(153.01 939.76) rotate(180)"/><rect class="cls-4" x="7.01" y="499.86" width="53.02" height="8.7" transform="translate(67.05 1008.42) rotate(180)"/><rect class="cls-4" x="81.39" y="496.36" width="19.26" height="11.35" transform="translate(182.04 1004.06) rotate(180)"/><rect class="cls-4" x="175.66" y="491.26" width="59.79" height="16.44" transform="translate(411.11 998.96) rotate(180)"/><rect class="cls-4" x="252.68" y="486.85" width="39.09" height="21.19" transform="translate(544.44 994.88) rotate(180)"/><rect class="cls-4" x="446.42" y="478.2" width="18" height="27.59" transform="translate(910.83 983.98) rotate(180)"/><rect class="cls-4" x="404.31" y="461.45" width="30.5" height="21.1" transform="translate(839.12 943.99) rotate(180)"/><rect class="cls-3" x="106.59" y="505.78" width="26.98" height="3.84"/><rect class="cls-3" x="62.39" y="491.63" width="9.82" height="3.06"/><rect class="cls-4" x="527.29" y="466.85" width="18" height="10.29" transform="translate(1072.58 943.99) rotate(180)"/><rect class="cls-4" x="566.56" y="464.58" width="18" height="10.29" transform="translate(1151.11 939.46) rotate(180)"/><rect class="cls-4" x="613.85" y="463.34" width="24.38" height="13.93" transform="translate(1252.09 940.62) rotate(180)"/><rect class="cls-4" x="692.09" y="490.71" width="45.19" height="18.6" transform="translate(1429.37 1000.02) rotate(180)"/><rect class="cls-4" x="486.3" y="490.09" width="45.19" height="18.6" transform="translate(1017.8 998.78) rotate(180)"/><rect class="cls-4" x="763.15" y="486.29" width="35.05" height="18.6" transform="translate(1561.34 991.19) rotate(180)"/><rect class="cls-4" x="958.46" y="488.86" width="35.05" height="18.6" transform="translate(1951.98 996.31) rotate(180)"/><rect class="cls-4" x="790.92" y="462.77" width="23.73" height="12.59" transform="translate(1605.56 938.13) rotate(180)"/><rect class="cls-4" x="940.79" y="463.48" width="23.73" height="12.59" transform="translate(1905.31 939.55) rotate(180)"/><rect class="cls-4" x="981.65" y="463.48" width="42.21" height="12.59" transform="translate(2005.51 939.55) rotate(180)"/><rect class="cls-4" x="835.01" y="483.72" width="23.73" height="10.38" transform="translate(1693.74 977.82) rotate(180)"/><rect class="cls-4" x="896.55" y="484.82" width="23.73" height="10.38" transform="translate(1816.83 980.03) rotate(180)"/><rect class="cls-4" x="648.29" y="460.93" width="47.32" height="10.38" transform="translate(1343.89 932.24) rotate(180)"/><rect class="cls-4" x="741.22" y="463.27" width="8.6" height="12.49" transform="translate(1491.05 939.02) rotate(180)"/><rect class="cls-4" x="824.63" y="464.54" width="8.6" height="12.49" transform="translate(1657.86 941.57) rotate(180)"/><rect class="cls-4" x="873.3" y="466.82" width="8.6" height="12.49" transform="translate(1755.2 946.14) rotate(180)"/><rect class="cls-4" x="922.73" y="465.35" width="8.6" height="12.49" transform="translate(1854.07 943.2) rotate(180)"/><rect class="cls-4" x="572.8" y="484.87" width="18" height="10.29" transform="translate(1163.6 980.03) rotate(180)"/><polygon class="cls-5" points="1010.65 437 1008.1 436.25 992.05 435.22 979.61 437 950.26 437 933.68 436 907.02 436 901.88 437 887.9 437 883.25 436.28 878.69 435.22 864.08 437 843.29 437 828.93 436 794.54 436 788.46 437 620.9 437 608.78 433.97 548.95 434.66 526.31 435.51 497.04 434 456.83 434 445.39 437 429.13 437 415.91 434.18 408.26 437 354.18 437 353.66 434.95 341.47 437 331.97 437 317.51 433.47 304.43 437 267.21 437 260.28 435.85 247.32 436.16 239.02 432.04 211.99 435.94 159.59 434.84 129.79 436.29 117.72 431.97 111.89 435.03 105.01 437 82.96 437 0 437 0 453 0.1 453 1024 453 1024 437 1010.65 437"/><polygon class="cls-6" points="1024 453 1024 436.61 1024 436.61 1024 453 1023.95 453 1024 453"/><rect class="cls-4" x="386.1" y="496.41" width="18" height="10.29" transform="translate(790.21 1003.1) rotate(180)"/><rect class="cls-4" x="565.14" y="503.98" width="29.78" height="5.54" transform="translate(1160.06 1013.49) rotate(180)"/><g class="cls-7"><polygon class="cls-8" points="651.09 436.34 652.09 437.57 658.2 438.58 662.52 438.02 664.53 437.11 668.21 437.01 668.42 436.37 651.09 436.34"/><polygon class="cls-8" points="678.27 436.57 679.27 437.81 685.38 438.82 689.7 438.25 691.71 437.34 695.38 437.24 695.59 436.6 678.27 436.57"/></g><polygon class="cls-9" points="599 388 630.83 390.38 648.29 395 693.33 390.38 706.33 393.33 698.33 383.33 702.48 377.33 683.25 371.93 656.83 379 630.83 383.47 599 388"/><polygon class="cls-9" points="645 370 668 370 676 366 663.36 361.04 634.48 366.44 645 370"/><polygon class="cls-9" points="149.48 176.43 159.92 278.6 159.77 294.24 188.41 315.07 195.43 314.59 195.59 322.13 201.91 327.28 203.63 337.57 201.91 349.46 251.43 380.46 310.54 388 387.23 383.93 422.33 385.47 439.61 381.6 399 371 399 366 430.89 358.22 472 355.84 455.42 345.39 408.33 342.58 365.48 331.21 262.33 317.55 236.63 284.67 198.36 243.67 149.48 176.43"/><polygon class="cls-9" points="150.21 171.97 203.63 246.1 250 291.37 299.65 311.23 362.33 317.55 421.67 316.03 433.23 309.37 393.33 307 338.67 304.05 282.94 283.01 263.31 265.8 216.38 239.79 150.21 171.97"/><path class="cls-9" d="M150.2,172,527.29,442.48S664.05,461,745.52,446Z"/><path class="cls-9" d="M144.06,176.43,282.94,446.77s125.57,12,196.81-6.55Z"/></g></g></svg>