<svg xmlns="http://www.w3.org/2000/svg" viewBox="0 0 1024 512"><defs><style>.cls-1{isolation:isolate;}.cls-2{fill:#9b4c31;}.cls-3{fill:#342520;}.cls-4{fill:#452b1e;}.cls-5{fill:#925131;}.cls-6{fill:#b2683f;}.cls-7{opacity:0.24;}.cls-8{opacity:0.17;}.cls-9{fill:#d0823f;}.cls-10{fill:#ffb39d;mix-blend-mode:soft-light;}.cls-11{fill:#151d04;}.cls-12{fill:#3e0c01;}.cls-13{fill:#451e04;}.cls-14{fill:#d7a4b0;}.cls-15{fill:#bb8427;}.cls-16{opacity:0.76;}.cls-17{fill:#956738;}</style></defs><title>Artboard 2</title><g class="cls-1"><g id="Rocks"><path class="cls-2" d="M0,295.93H223.12s23.21-19.66,23.21-23.66,27.09-25,27.09-25L279,235.6l19.34-3.67,20.64,9,18.05.34,13.33,19.33,2.15,12.67,36.54,22.66L405,283.6l15.47,6,4.3,6.33h67.93l-2.8,22L475.26,328.6,452,334.1l-14.83,18.33L405.4,381.6l7.73,7.67,18.49,5,.43,6.33-6,8.67-33.1,20.33-17.2,25.67L388.2,485.6l-.43,26.33H0Z"/><polygon class="cls-2" points="930 271.93 894.25 276.68 891 278.93 866.25 277.18 790.25 282.93 782.5 288.43 758.75 293.18 749.5 291.18 677.25 293.18 655.25 295.93 658.25 312.68 674.25 326.18 671.96 344.5 671.87 344.43 642.27 341.18 604.33 346.93 571 346.93 559.67 352.43 538.67 357.27 545.33 367.93 562 381.6 564.67 396.93 554 404.93 551 427.27 579.33 459.6 624.67 474.6 636 502.6 636 511.93 756 511.93 755.94 511.51 756.25 511.93 1024 511.93 1024 271.93 930 271.93"/><polygon class="cls-3" points="0 398.9 131.55 398.93 154.12 406.93 241.82 406.93 317.27 409.18 335.32 395.43 335.32 384.93 311.79 380.43 352.73 380.93 391.75 365.93 406.26 350.93 452.04 334.1 437.21 352.43 410.77 356.43 387.23 383.93 354.35 396.93 341.13 398.43 355.96 410.18 332.1 434.93 253.1 452.18 203.77 449.18 168.95 496.43 119.94 511.93 0 511.93 0 398.9"/><polygon class="cls-4" points="208.38 511.93 224 491.43 224 472.93 247.75 456.93 256 447.43 256 441.93 270 453.68 270 485.93 260.25 507.31 275 511.93 208.38 511.93"/><polygon class="cls-5" points="245.44 338.38 365.49 337.95 365.58 337.88 395.18 334.63 433.12 340.38 466.45 340.38 477.78 345.88 498.78 350.72 492.12 361.38 475.45 375.05 472.78 390.38 483.45 398.38 486.45 420.72 458.12 453.05 412.78 468.05 401.45 496.05 401.45 505.38 281.45 505.38 281.51 504.96 281.2 505.38 245.44 338.38"/><path class="cls-6" d="M467.28,364l31.5-13.64-21-4.76L466.45,340H433.12l-35.63-5.31,3.19-2.6,91.91-36.21-68.6.28-4.84-5.38-10.64-4,.33,2.63,7.41,5.91.32,2.66h-3.86l-21.12-.16-39.07-24.56-2.15-12.67L337,241.27,319,240.93l-21-9-2,9.75,28.37,16,.65,12.5,27.72,16.5-5.15,4.12-4.84,11-148.32-3.88,28.7-2L179,294.43l-32,1.5-24.12-1.16-63.46-3.84L0,295.93v86.25l31.12-1.87,42.41,3.46,15.24-2.24,43.92-.5,37.87,9.65,64.17-.5,22.24-7-2.17,7.25,47.31,1.5,17.47-3.68-6.46,5.8-38.34,4.17,21.5,1.33,23.5,4.33,26.84-13.33,17.66-2.67,23,3.67,21.5-2.67,21.84,1.34,20.33-2,1.5-7.67-6.17-5.5-30.5-.67-14.5-7,30-2.66L430,362.19l12.5,1.81ZM357.62,353l-.5,1.91-1.17.66-11.45-3.11Zm-45.83,27.46-33.21-11.21L304.37,364H341l-10.89,6.08,2.5,6.49L325.39,383Z"/><polygon class="cls-6" points="483.45 398.38 472.78 390.38 462.78 400.05 433.45 407.38 420.12 414.72 437.12 416.47 456.78 412.72 470.12 416.47 483.45 415.05 483.45 398.38"/><polygon class="cls-4" points="451.07 388.51 444.01 400.15 430.2 401.38 409.45 401.38 384.7 405.88 360.45 402.38 344.2 403.88 318.95 413.63 295.7 408.63 274.78 400.99 290.7 423.88 319.95 432.63 348.95 431.38 351.45 446.88 319.45 486.13 337.7 505.38 401.45 505.38 401.45 496.38 412.78 468.05 458.12 453.05 486.45 420.72 470.95 425.38 451.78 422.88 427.95 430.38 410.2 427.63 420.12 414.72 433.45 407.38 462.78 400.05 472.78 390.38 475.45 375.05 461.2 378.88 449.38 377.81 451.78 381.63 451.07 388.51"/><polygon class="cls-2" points="190.55 427.68 136.55 463.81 64.41 467.25 14.19 496.68 14.19 441.93 60.94 426.18 61.26 414.93 127.68 414.93 190.55 427.68"/><polygon class="cls-6" points="1024 271.93 930 271.93 894.25 276.68 891 278.93 866.25 277.18 790.25 282.93 782.5 288.43 758.75 293.18 749.5 291.18 677.25 293.18 655.25 295.93 684.5 313.6 735.33 328.77 732.5 339.27 709.83 342.77 697.33 350.93 709.67 357.43 735.83 365.1 809 369.6 823 363.93 821 369.6 859.67 371.27 904.85 381.6 955.55 375.05 1000.47 381.6 1024 381.6 1024 271.93"/><polygon class="cls-6" points="671.71 344.33 642.15 341.1 604.33 346.93 571 346.93 559.67 352.43 538.67 357.1 570.17 370.93 595 370.93 607.5 368.93 606.17 371.27 636.17 373.93 621.67 380.93 591.17 381.6 585 387.1 586.5 394.77 606.83 396.77 628.67 395.43 650.17 398.1 673.17 394.43 690.83 397.1 717.67 410.43 741.17 406.1 762.67 404.77 724.33 400.6 704.83 383.1 707.33 376.6 680.33 361.43 676.33 346.1 671.71 344.33"/><polygon class="cls-6" points="554 404.93 564.67 396.93 574.67 406.6 604 413.93 617.33 421.27 600.33 423.02 580.67 419.27 567.33 423.02 554 421.6 554 404.93"/><polygon class="cls-4" points="586.38 395.06 593.44 406.7 607.25 407.93 628 407.93 652.75 412.43 677 408.93 693.25 410.43 718.5 420.18 741.75 415.18 762.67 407.54 746.75 430.43 717.5 439.18 688.5 437.93 686 453.43 718 492.68 699.75 511.93 636 511.93 636 502.93 624.67 474.6 579.33 459.6 551 427.27 566.5 431.93 585.67 429.43 609.5 436.93 627.25 434.18 617.33 421.27 604 413.93 574.67 406.6 564.67 396.93 562 381.6 576.25 385.43 588.08 384.36 585.67 388.18 586.38 395.06"/><polygon class="cls-3" points="674.29 326.27 692.52 333.97 732.51 339.29 709.84 342.78 697.34 350.94 699.5 363.69 716.25 373.18 737.5 380.18 806.75 388.18 815.75 384.43 822.25 391.93 899.75 403.43 929.5 391.93 981 398.43 1024 396.93 1024 512.06 740 511.93 783.5 482.43 793.25 456.93 761.25 443.68 762.67 425.93 781.5 406.93 763 393.18 763 404.93 724.33 400.6 704.83 383.1 707.33 376.6 680.33 361.43 676.33 346.1 671.71 344.33 674.29 326.27"/><polygon class="cls-5" points="1023.99 76.16 980.98 93.58 975.37 110.62 955.44 112.31 932.96 125 920.9 144.33 902.56 166.37 894.78 194.33 880.76 210.94 863.23 261.66 831.6 283 811.93 283 798 302 798 322 836.19 328.67 901.93 321.6 950.88 317.91 964.46 340.13 964.34 352.33 977.14 363 1005.1 364.33 1024.01 364 1023.99 76.16"/><polygon class="cls-4" points="955.55 112.32 978.16 149.01 983.19 213.02 998.75 237.35 1015.63 288.03 1010.83 314.53 1023.98 341.14 1023.99 76.16 981.34 93.58 975.67 110.63 955.55 112.32"/><polygon class="cls-4" points="964.46 340.36 950.96 289.45 952.43 260.06 943 241.23 943 219 939.3 192.93 942.35 177 939.52 168.26 928.39 207 913.4 225.6 904.5 263 862.2 296.67 859.28 312 837.47 317.91 836.41 328.67 902.1 332.75 916.99 324.53 929.49 328.23 947.84 325 955.55 325 964.46 340.36"/><polygon class="cls-6" points="953.36 119.25 948.57 151.25 970.25 192.75 967.98 224.25 951.96 193.75 942.79 188 942.49 177 937.8 161.75 940.79 136 953.36 119.25"/><polygon class="cls-6" points="955.55 122.75 957.69 138.25 969.12 152 971.71 181.25 978.26 154.25 966.91 137.5 960.47 120.37 954.02 113.17 953.36 119.25 955.55 122.75"/><polygon class="cls-6" points="959.16 150.75 964.37 156.12 965.34 170.03 952 153.32 952 137 959.16 150.75"/><polygon class="cls-6" points="943 230 943 241 959 274.5 959 296 977.02 274.75 974.3 256 968.01 236 948.69 238.5 943 230"/><polygon class="cls-6" points="958.2 222.88 947 210.95 947 223 953.53 235.75 958.2 222.88"/><polygon class="cls-6" points="1003 289 1003 314 1019.17 341.1 974.26 360 967 337 967 306 986.61 286.25 987.86 255.92 1003 289"/><polygon class="cls-6" points="912.27 186.5 882.95 212 878.76 224.25 875.77 258 854.43 275 876.57 272.72 891.73 256.68 895.91 230 912.27 216.12 907.68 201.75 912.27 186.5"/><polygon class="cls-6" points="925.24 162.25 923.64 185.02 917.46 204.75 918.45 214.5 910.08 202 917.66 181.25 913.27 170.03 925.24 162.25"/><polygon class="cls-6" points="935.21 139 933.81 153.32 925.24 151.5 932.82 130.25 941.99 125.25 935.21 139"/><polygon class="cls-6" points="857.12 288.38 825.24 286.44 808.69 297.6 801 300.5 801 309 810.66 312 814.54 296 833.49 296 853.43 296.75 863.4 288.5 857.12 288.38"/><polygon class="cls-6" points="841.06 310.27 836.41 314.51 833.88 326.12 824 322.34 824 308 841.06 310.27"/><polygon class="cls-3" points="940.75 171.75 937.8 194.67 941.99 223.35 933.61 260.33 939.07 270.25 946.78 301 954.02 266 946.78 224.25 950.5 207 943.82 195.67 940.75 171.75"/><polygon class="cls-3" points="931.88 214.5 917.66 233.67 915.4 256.68 904.23 278.33 922.58 270.25 930.55 248.67 928.69 235.75 931.88 214.5"/><polygon class="cls-3" points="925.24 280.5 923.64 299.22 907.68 307.96 883.35 299.22 869.79 314.5 863.4 324.53 857.42 319.5 865.2 308 867.79 299.22 882.55 286.44 900.43 289.25 910.08 295.74 925.24 280.5"/><polygon class="cls-3" points="931.88 289 937.8 310.75 929.23 324.53 925.24 312 931.52 294.36 931.88 289"/><polygon class="cls-3" points="984.27 132.25 989.85 155.04 984.27 181.25 987.06 216 1015.39 228 1014 251.5 1021.97 258 1019.38 217.25 1004.02 197 1001.23 163.5 1016.19 139.28 984.27 132.25"/><polygon class="cls-3" points="984.27 107.5 998.44 116.75 1013.6 115 1020.78 132.25 1021.97 101.75 1003.12 91.75 984.27 107.5"/><polygon class="cls-3" points="970.25 119.25 976.89 141.83 982.48 160.5 984.27 147.21 970.25 119.25"/><g class="cls-7"><polygon points="786.19 307 783.56 306.36 781.32 306.54 776 305.81 776 305.08 776 304.6 774.03 303.91 774.7 302.17 773.07 301.72 773.73 300.51 772.59 300.08 773.04 298.67 771 298.12 771.83 296.58 774.54 296.38 774.61 295.81 777.09 295.55 777.47 295.03 781.23 294.6 783.41 294.88 786.19 294.5 795.74 295.37 798.37 297.7 796.64 298.53 796.72 300.25 798.37 301.36 797.85 302.36 796.27 303 795.22 303 793.94 302.97 794.39 305.08 794.01 305.94 791.38 306.16 790.78 305.94 790.55 306.37 788.15 306.66 788.07 307 786.19 307"/><polygon points="786.83 307 787.18 306.19 785.5 306.38 782 305.65 782 304.92 783.52 304.46 781.28 303.75 783.88 302.57 782.3 301.7 784.17 300.75 780.65 299.92 780.92 298.51 779.07 297.41 780.21 296.42 781.82 296.22 781.87 295.65 783.34 295.39 781.23 294.6 783.41 294.88 785.05 294.66 786.19 294.5 795.74 295.37 798.37 297.7 796.64 298.53 796.72 300.25 798.37 301.36 797.85 302.36 796.27 303 795.22 303 793.94 302.97 794.39 305.08 794.01 305.94 791.38 306.16 790.78 305.94 790.55 306.37 788.22 306.56 788.07 307 786.83 307"/><polygon points="791 301.56 791 300.31 792.6 299.34 792 297.16 792 296.14 793.16 296.34 794.29 299.67 792.57 300.48 793.04 302.02 791 301.56"/><polygon points="788.5 302.02 791.4 302.61 790.85 304.87 788.5 304.46 788.2 303.99 788.5 302.02"/><polygon points="792 305.57 792 305.08 792.75 304.37 792.46 302.75 793.99 303.1 794.41 305.14 793.77 305.78 792 305.57"/><polygon points="788.72 297.62 787.54 297.41 786.59 296.63 787.24 296.14 786.59 295.19 790.45 296 789.8 297.27 788.72 297.62"/><polygon points="783.51 299.41 783.85 298.33 782.89 298.09 783.14 297.62 784.34 297.97 786.29 298.08 785.87 298.86 787 299.08 787 300.31 783.51 299.41"/><polygon points="788.38 304.86 786 304.44 786 301.2 786.79 304.31 788.38 304.86"/><polygon points="795.61 302.03 796 299.73 797 300.82 797 302.41 795.61 302.03"/><polygon points="783.13 297.62 785.44 297.45 786.59 296.63 787.24 296.14 786.59 295.19 784.14 295.32 783.43 296.69 783.13 297.62"/><polygon points="783.47 299.4 780.92 298.3 779.07 297 783.18 297 782.88 297.9 783.84 298.24 783.47 299.4"/><polygon points="788.15 302.02 788 300.31 788 298.89 787.37 298.4 788.01 297.97 788.9 297.87 789.75 297.27 790.43 296 791.89 296.14 792.55 299.34 791 300.31 791 301.56 793.03 302.02 791.25 302.61 788.15 302.02"/><polygon points="795.69 302.03 792.96 302.02 792.56 300.48 794.39 299.58 793.47 297.39 796.13 299.73 795.69 302.03"/><polygon points="797.17 302.41 795.69 302.96 796.43 303.1 794.39 303.16 791.4 302.61 792.96 302.02 795.69 302.03 797.17 302.41"/><polygon points="788.52 305.57 789.6 305.47 792 305.57 792 305.08 792.75 304.37 792.46 302.75 791.45 302.61 790.88 304.87 789.06 304.99 787.75 305.15 788.52 305.57"/><polygon points="789.5 305.78 788.52 306.03 786.99 305.57 787.24 305.03 788.2 305.09 788.72 305.62 789.5 305.78"/><polygon points="786.59 305.37 783.84 304.79 784.19 304.35 783.13 304.02 784.34 302.82 784.44 304.39 784.91 304.77 786.59 305.37"/><polygon points="777.99 302.11 777 301.55 777.51 299.64 778.42 298.75 778.67 298.16 778.17 297.41 778.67 297 779.72 297 779.07 297.5 779.32 299.5 778.62 300 781.45 300.61 779.07 301.47 777.99 302.11"/><polygon points="775.11 298.77 773.36 298.23 774.56 296.79 774.24 297.39 775.31 298.24 775.11 298.77"/><polygon points="778.06 296.13 777.3 295.02 781 294.6 781 295.81 778.06 296.13"/><polygon points="775.66 305.81 779.82 305.27 782.43 305.65 785.72 306.3 785.74 306.62 783.56 306.21 781.15 306.46 775.66 305.81"/><polygon points="779 305.04 779 304.07 777.98 303.53 779.43 301.7 780.74 303.49 783.75 304.46 782.44 304.92 782.24 305.37 780.78 304.87 780.43 304.37 779.51 305.08 779 305.04"/><polygon points="775.66 303.88 774.76 302.11 773.03 301.72 774.71 301.31 777 301.55 777.99 302.11 777.22 303.77 775.66 303.88"/><polygon points="784.19 300.75 782.88 300.85 778.62 299.97 779.52 299.31 779.07 297.39 780.92 298.5 780.7 299.56 784.19 300.75"/><polygon points="775.31 298 774.24 297.27 778.17 297.12 778.63 298 775.31 298"/><polygon points="775.06 300.79 772.58 300.08 773.36 299.97 773.82 299.31 774.81 298.77 776.43 298.65 777.27 298.4 777.47 299.12 777.82 299.45 777.21 300.79 776.06 301.2 775.06 300.79"/><polygon points="773.36 301.41 774.01 300.85 774.76 301.13 773.36 301.41"/><polygon points="777.47 296.45 778.67 297 779.72 297 780.7 296.47 781.82 296.27 781.86 295.8 781.23 295.83 778.17 296.19 777.47 296.45"/></g><g class="cls-8"><polygon points="917.15 350 913.84 349.16 910.86 349.54 904 348.48 904 347.32 904 346.55 901.66 345.45 902.58 342.69 900.58 341.98 901.42 340.05 900 339.38 900.56 337.12 898 336.26 899.04 333.81 902.46 333.49 902.55 332.59 905.68 332.17 906.15 331.34 910.9 330.66 913.65 331.11 917.15 330.5 929.2 331.88 932.51 335.58 930.33 336.9 930.43 339.63 932.51 341.4 931.85 342.99 929.86 344 928.53 344 926.92 343.95 927.49 347.31 927.01 348.68 923.7 349.03 922.94 348.69 922.65 349.37 919.62 349.64 919.52 350 917.15 350"/><polygon points="917.96 350 918.4 348.9 916.35 349.28 912 348.22 912 347.06 913.85 346.33 911 345.19 914.26 343.33 912.26 341.94 914.61 340.44 910.17 339.12 910.51 336.87 908.18 335.12 909.62 333.56 911.64 333.23 911.7 332.33 913.56 331.92 910.9 330.66 913.65 331.11 915.72 330.75 917.15 330.5 929.2 331.88 932.51 335.58 930.33 336.9 930.43 339.63 932.51 341.4 931.85 342.99 929.86 344 928.53 344 926.92 343.95 927.49 347.31 927.01 348.68 923.7 349.03 922.94 348.69 922.65 349.37 919.71 349.48 919.52 350 917.96 350"/><polygon points="923 341.72 923 339.73 925.39 338.19 925 334.73 925 333.11 926.2 333.43 927.49 338.72 925.26 340.01 925.71 342.45 923 341.72"/><polygon points="920.06 342.45 923.73 343.39 923.03 346.98 920.06 346.33 919.68 345.58 920.06 342.45"/><polygon points="924 348.09 924 347.32 925.19 346.18 924.93 343.61 926.92 344.17 927.49 347.41 926.46 348.43 924 348.09"/><polygon points="920.35 335.46 918.86 335.12 917.66 333.88 918.48 333.11 917.66 331.6 922.53 332.89 921.71 334.9 920.35 335.46"/><polygon points="913.69 338.3 914.16 336.59 912.97 336.21 913.29 335.46 914.81 336.02 917.28 336.19 916.66 337.44 918 337.78 918 339.73 913.69 338.3"/><polygon points="919.95 346.96 917 346.29 917 341.14 917.97 346.1 919.95 346.96"/><polygon points="929.13 342.46 929.69 338.81 931 340.54 931 343.07 929.13 342.46"/><polygon points="913.3 335.46 916.21 335.18 917.66 333.88 918.48 333.11 917.66 331.6 914.56 331.8 913.68 333.98 913.3 335.46"/><polygon points="913.73 338.29 910.51 336.8 908.18 335 913.36 335 912.98 336.16 914.18 336.57 913.73 338.29"/><polygon points="919.9 342.45 920 339.73 920 337.48 918.92 336.69 919.59 336.02 920.65 335.85 921.68 334.9 922.51 332.89 924.36 333.11 925.07 338.19 923 339.73 923 341.72 925.67 342.45 923.63 343.39 919.9 342.45"/><polygon points="929.13 342.46 925.69 342.45 925.18 340.01 927.49 338.57 926.34 335.1 929.69 338.81 929.13 342.46"/><polygon points="931 343.07 929.13 343.95 930.07 344.17 927.49 344.26 923.73 343.39 925.69 342.45 929.13 342.46 931 343.07"/><polygon points="920.09 348.09 921.21 347.94 924 348.09 924 347.32 925.19 346.18 924.93 343.61 923.73 343.39 923.03 346.98 920.76 347.17 919.11 347.43 920.09 348.09"/><polygon points="921.33 348.43 920.09 348.82 918.17 348.09 918.48 347.23 919.68 347.34 920.35 348.18 921.33 348.43"/><polygon points="917.66 347.77 914.18 346.85 914.63 346.16 913.3 345.62 914.82 343.72 914.94 346.22 915.54 346.82 917.66 347.77"/><polygon points="906.82 342.59 905.57 341.7 906.21 338.68 907.35 337.26 907.67 336.32 907.04 334.89 907.67 334 909 334 908.18 335.03 908.49 338.33 907.61 339.18 911.18 340.19 908.18 341.57 906.82 342.59"/><polygon points="903.18 337.29 900.97 336.43 902.49 334.13 902.08 335.1 903.44 336.45 903.18 337.29"/><polygon points="907.09 333.09 906.23 331.33 911 330.66 911 332.59 907.09 333.09"/><polygon points="903.88 348.48 909.13 347.62 912.41 348.22 916.56 349.25 916.59 349.75 913.84 349.1 910.8 349.51 903.88 348.48"/><polygon points="908 347.25 908 345.71 906.76 344.85 908.61 341.94 910.27 344.79 914.08 346.33 912.42 347.06 912.17 347.77 910.33 346.98 909.89 346.18 908.69 347.32 908 347.25"/><polygon points="903.88 345.41 902.74 342.59 900.56 341.98 902.68 341.31 905.57 341.7 906.82 342.59 905.84 345.24 903.88 345.41"/><polygon points="914.63 340.44 912.98 340.59 907.61 339.19 908.75 338.14 908.18 335.1 910.51 336.85 910.23 338.55 914.63 340.44"/><polygon points="903.44 336 902.08 334.87 907.04 334.62 907.63 336 903.44 336"/><polygon points="903.12 340.5 899.99 339.38 900.97 339.19 901.56 338.14 902.8 337.29 904.85 337.09 905.9 336.69 906.15 337.84 906.6 338.36 905.82 340.5 904.38 341.14 903.12 340.5"/><polygon points="900.97 341.49 901.79 340.59 902.74 341.04 900.97 341.49"/><polygon points="906.15 333.36 907.67 334 909 334 910.23 333.39 911.64 333.2 911.69 332.51 910.9 332.58 907.04 333.06 906.15 333.36"/></g><g class="cls-8"><polygon points="891.26 343 888.62 342.39 886.36 342.59 881 341.88 881 341.14 881 340.66 879.03 339.96 879.71 338.21 878.08 337.77 878.74 336.55 877.6 336.12 878.04 334.69 876 334.14 876.83 332.6 879.55 332.39 879.63 331.82 882.12 331.56 882.5 331.03 886.27 330.6 888.47 330.89 891.26 330.5 900.85 331.38 903.5 333.72 901.76 334.55 901.84 336.28 903.5 337.4 902.97 338.38 901.38 339 900.32 339 899.04 338.99 899.49 341.13 899.12 342 896.47 342.22 895.87 342.01 895.64 342.44 893.22 342.7 893.15 343 891.26 343"/><polygon points="891.9 343 892.25 342.23 890.54 342.43 887 341.71 887 340.98 888.55 340.52 886.32 339.8 888.93 338.62 887.35 337.74 889.23 336.79 885.7 335.95 885.97 334.53 884.11 333.42 885.25 332.43 886.87 332.23 886.91 331.66 888.39 331.4 886.27 330.6 888.47 330.89 890.12 330.66 891.26 330.5 900.85 331.38 903.5 333.72 901.76 334.55 901.84 336.28 903.5 337.4 902.97 338.38 901.38 339 900.32 339 899.04 338.99 899.49 341.13 899.12 342 896.47 342.22 895.87 342.01 895.64 342.44 893.3 342.59 893.15 343 891.9 343"/><polygon points="896 337.6 896 336.34 898.11 335.36 898 333.18 898 332.15 898.71 332.35 899.62 335.7 897.78 336.52 898.15 338.06 896 337.6"/><polygon points="893.58 338.06 896.5 338.66 895.94 340.93 893.58 340.52 893.27 340.05 893.58 338.06"/><polygon points="897 341.63 897 341.14 897.81 340.43 897.53 338.8 899.08 339.15 899.51 341.2 898.82 341.85 897 341.63"/><polygon points="893.8 333.64 892.62 333.42 891.66 332.64 892.32 332.15 891.66 331.2 895.54 332.01 894.89 333.29 893.8 333.64"/><polygon points="888.53 335.44 888.89 334.36 887.93 334.11 888.19 333.64 889.4 333.99 891.36 334.1 890.9 334.89 892 335.11 892 336.34 888.53 335.44"/><polygon points="893.42 340.92 891 340.49 891 337.24 891.81 340.37 893.42 340.92"/><polygon points="900.66 338.07 901.03 335.76 902 336.86 902 338.46 900.66 338.07"/><polygon points="888.19 333.64 890.5 333.46 891.66 332.64 892.32 332.15 891.66 331.2 889.2 331.32 888.49 332.7 888.19 333.64"/><polygon points="888.53 335.43 885.97 334.32 884.11 333 888.24 333 887.94 333.91 888.89 334.25 888.53 335.43"/><polygon points="893.69 338.06 894 336.34 894 334.92 892.91 334.42 893.32 333.99 894.1 333.88 894.9 333.29 895.55 332.01 897 332.15 897.61 335.36 896 336.34 896 337.6 898.09 338.06 896.55 338.66 893.69 338.06"/><polygon points="900.8 338.07 898.06 338.06 897.65 336.52 899.49 335.61 898.58 333.41 901.24 335.76 900.8 338.07"/><polygon points="902.29 338.46 900.8 339.01 901.55 339.15 899.49 339.21 896.5 338.66 898.06 338.06 900.8 338.07 902.29 338.46"/><polygon points="893.6 341.63 894.63 341.54 897 341.63 897 341.14 897.81 340.43 897.53 338.8 896.53 338.66 895.96 340.93 894.14 341.05 892.83 341.21 893.6 341.63"/><polygon points="894.58 341.85 893.6 342.09 892.07 341.63 892.32 341.09 893.27 341.16 893.8 341.69 894.58 341.85"/><polygon points="891.66 341.43 888.89 340.85 889.25 340.41 888.19 340.07 889.4 338.87 889.5 340.45 889.98 340.83 891.66 341.43"/><polygon points="883.02 338.15 882.03 337.59 882.54 335.68 883.45 334.78 883.7 334.18 883.2 333.42 883.71 333 884.76 333 884.11 333.51 884.36 335.53 883.66 336.03 886.5 336.65 884.11 337.51 883.02 338.15"/><polygon points="880.13 334.79 878.37 334.25 879.58 332.8 879.25 333.41 880.33 334.26 880.13 334.79"/><polygon points="883.07 332.14 882.29 331.03 886 330.6 886 331.82 883.07 332.14"/><polygon points="880.68 341.88 884.86 341.33 887.48 341.71 890.78 342.37 890.81 342.69 888.62 342.27 886.2 342.53 880.68 341.88"/><polygon points="884 341.1 884 340.13 883 339.58 884.46 337.74 885.78 339.54 888.81 340.52 887.49 340.98 887.29 341.43 885.82 340.93 885.47 340.43 884.53 341.14 884 341.1"/><polygon points="880.68 339.94 879.78 338.15 878.04 337.77 879.73 337.35 882.03 337.59 883.02 338.15 882.25 339.83 880.68 339.94"/><polygon points="889.25 336.79 887.94 336.88 883.66 336 884.56 335.34 884.11 333.41 885.97 334.52 885.75 335.6 889.25 336.79"/><polygon points="880.33 334 879.25 333.28 883.2 333.12 883.67 334 880.33 334"/><polygon points="880.08 336.83 877.59 336.12 878.37 336 878.83 335.34 879.83 334.79 881.46 334.67 882.3 334.42 882.5 335.15 882.85 335.48 882.23 336.83 881.09 337.24 880.08 336.83"/><polygon points="878.37 337.45 879.02 336.88 879.78 337.17 878.37 337.45"/><polygon points="882.5 332.45 883.71 333 884.76 333 885.75 332.47 886.87 332.28 886.9 331.81 886.27 331.83 883.2 332.2 882.5 332.45"/></g><polygon class="cls-5" points="916.15 279 912.84 281.49 909.86 280.36 903 283.5 903 286.91 903 289.19 900.66 292.41 901.58 300.56 899.58 302.65 900.42 308.34 899 310.33 899.56 316.97 897 319.53 898.04 326.73 901.46 327.68 901.55 330.34 904.68 331.57 905.15 334.04 909.9 336.03 912.65 334.7 916.15 336.5 928.2 332.42 931.51 321.52 929.33 317.63 929.43 309.57 931.51 304.36 930.85 299.32 928.86 296 927.53 296 925.92 296.48 926.49 286.76 926.01 282.81 922.7 281.82 921.94 282.85 921.65 280.85 918.62 280.04 918.52 279 916.15 279"/><polygon class="cls-4" points="916.96 279 917.4 282.24 915.35 281.12 911 284.25 911 287.67 912.85 289.82 910 293.17 913.26 298.67 911.26 302.78 913.61 307.2 909.17 311.09 909.51 317.73 907.18 322.88 908.62 327.49 910.64 328.44 910.7 331.1 912.56 332.33 909.9 336.03 912.65 334.7 914.72 335.76 916.15 336.5 928.2 332.42 931.51 321.52 929.33 317.63 929.43 309.57 931.51 304.36 930.85 299.32 928.86 296 927.53 296 925.92 296.48 926.49 286.76 926.01 282.81 922.7 281.82 921.94 282.85 921.65 280.85 918.71 280.54 918.52 279 916.96 279"/><polygon class="cls-3" points="922 303.41 922 309.29 924.39 313.84 924 324.01 924 328.82 925.2 327.87 926.49 312.26 924.26 308.46 924.71 301.26 922 303.41"/><polygon class="cls-3" points="919.06 301.26 922.73 298.48 922.03 287.92 919.06 289.82 918.68 292.03 919.06 301.26"/><polygon class="cls-3" points="923 284.63 923 286.91 924.19 290.26 923.93 297.85 925.92 296.2 926.49 286.63 925.46 283.62 923 284.63"/><polygon class="cls-3" points="919.35 321.87 917.86 322.88 916.66 326.54 917.48 328.82 916.66 333.25 921.53 329.45 920.71 323.51 919.35 321.87"/><polygon class="cls-3" points="912.69 313.49 913.16 318.53 911.97 319.66 912.29 321.87 913.81 320.23 916.28 319.72 915.66 316.05 917 315.04 917 309.29 912.69 313.49"/><polygon class="cls-3" points="918.95 287.95 916 289.94 916 305.12 916.97 290.51 918.95 287.95"/><polygon class="cls-3" points="928.13 301.23 928.69 311.99 930 306.88 930 299.43 928.13 301.23"/><polygon class="cls-5" points="912.3 321.87 915.21 322.69 916.66 326.54 917.48 328.82 916.66 333.25 913.56 332.68 912.68 326.23 912.3 321.87"/><polygon class="cls-5" points="912.73 313.52 909.51 317.8 907.18 323 912.36 323 911.98 319.69 913.18 318.55 912.73 313.52"/><polygon class="cls-5" points="918.9 301.26 919 309.29 919 315.92 917.92 318.23 918.59 320.22 919.65 320.73 920.68 323.51 921.51 329.45 923.36 328.82 924.07 313.84 922 309.29 922 303.41 924.67 301.26 922.63 298.48 918.9 301.26"/><polygon class="cls-5" points="928.13 301.23 924.69 301.26 924.18 308.46 926.49 312.7 925.34 322.94 928.69 311.99 928.13 301.23"/><polygon class="cls-5" points="930 299.43 928.13 296.83 929.07 296.2 926.49 295.93 922.73 298.48 924.69 301.26 928.13 301.23 930 299.43"/><polygon class="cls-5" points="919.09 284.63 920.21 285.08 923 284.63 923 286.91 924.19 290.26 923.93 297.85 922.73 298.48 922.03 287.92 919.76 287.35 918.11 286.59 919.09 284.63"/><polygon class="cls-3" points="920.33 283.62 919.09 282.49 917.17 284.63 917.48 287.16 918.68 286.86 919.35 284.38 920.33 283.62"/><polygon class="cls-3" points="916.66 285.58 913.18 288.3 913.63 290.32 912.3 291.9 913.82 297.53 913.94 290.13 914.54 288.36 916.66 285.58"/><polygon class="cls-4" points="905.82 300.85 904.57 303.49 905.21 312.39 906.35 316.56 906.67 319.34 906.04 323.46 906.67 326 908 326 907.18 323.05 907.49 313.37 906.61 310.89 910.18 307.93 907.18 303.86 905.82 300.85"/><polygon class="cls-4" points="902.18 316.49 899.97 319.02 901.49 325.79 901.08 322.94 902.44 318.96 902.18 316.49"/><polygon class="cls-4" points="906.09 328.85 905.23 334.05 910 336.03 910 330.34 906.09 328.85"/><polygon class="cls-6" points="902.88 283.5 908.13 286.02 911.41 284.25 915.56 281.2 915.59 279.72 912.84 281.65 909.8 280.44 902.88 283.5"/><polygon class="cls-6" points="907 287.1 907 291.65 905.76 294.18 907.61 302.78 909.27 294.37 913.08 289.82 911.42 287.67 911.17 285.58 909.33 287.92 908.89 290.26 907.69 286.91 907 287.1"/><polygon class="cls-6" points="902.88 292.54 901.74 300.85 899.56 302.65 901.68 304.61 904.57 303.49 905.82 300.85 904.84 293.04 902.88 292.54"/><polygon class="cls-6" points="913.63 307.2 911.98 306.76 906.61 310.87 907.75 313.96 907.18 322.94 909.51 317.76 909.23 312.76 913.63 307.2"/><polygon class="cls-6" points="902.44 319 901.08 322.96 906.04 323.38 906.63 319 902.44 319"/><polygon class="cls-6" points="902.12 307.01 898.99 310.33 899.97 310.87 900.56 313.96 901.8 316.49 903.85 317.06 904.9 318.23 905.15 314.85 905.6 313.32 904.82 307.01 903.38 305.12 902.12 307.01"/><polygon class="cls-6" points="899.97 304.1 900.79 306.76 901.74 305.43 899.97 304.1"/><polygon class="cls-6" points="905.15 327.98 906.67 326 908 326 909.23 327.89 910.64 328.49 910.69 330.56 909.9 330.35 906.04 328.91 905.15 327.98"/><polygon class="cls-5" points="890.26 300 887.62 301.63 885.36 300.94 880 302.95 880 305.11 880 306.55 878.03 308.59 878.71 313.75 877.08 315.07 877.74 318.68 876.6 319.94 877.04 324.14 875 325.76 875.83 330.32 878.55 330.92 878.63 332.6 881.12 333.38 881.5 334.94 885.27 336.2 887.47 335.36 890.26 336.5 899.85 333.92 902.5 327.02 900.76 324.56 900.84 319.46 902.5 316.15 901.97 313.04 900.38 311 899.32 311 898.04 311.24 898.49 305.05 898.12 302.53 895.47 301.9 894.87 302.55 894.64 301.28 892.22 300.71 892.15 300 890.26 300"/><polygon class="cls-4" points="890.9 300 891.25 302.11 889.54 301.42 886 303.43 886 305.59 887.55 306.95 885.32 309.07 887.93 312.56 886.35 315.15 888.23 317.96 884.7 320.42 884.97 324.62 883.11 327.88 884.25 330.8 885.87 331.4 885.91 333.08 887.39 333.86 885.27 336.2 887.47 335.36 889.12 336.03 890.26 336.5 899.85 333.92 902.5 327.02 900.76 324.56 900.84 319.46 902.5 316.15 901.97 313.04 900.38 311 899.32 311 898.04 311.24 898.49 305.05 898.12 302.53 895.47 301.9 894.87 302.55 894.64 301.28 892.3 301.03 892.15 300 890.9 300"/><polygon class="cls-3" points="895 315.56 895 319.28 897.11 322.16 897 328.6 897 331.64 897.71 331.04 898.62 321.16 896.78 318.76 897.15 314.19 895 315.56"/><polygon class="cls-3" points="892.58 314.19 895.5 312.43 894.94 305.75 892.58 306.95 892.27 308.35 892.58 314.19"/><polygon class="cls-3" points="896 303.67 896 305.11 896.81 307.23 896.53 312.03 898.08 310.99 898.51 304.93 897.82 303.03 896 303.67"/><polygon class="cls-3" points="892.8 327.24 891.62 327.88 890.66 330.2 891.32 331.64 890.66 334.44 894.54 332.04 893.89 328.28 892.8 327.24"/><polygon class="cls-3" points="887.53 321.94 887.89 325.13 886.93 325.84 887.19 327.24 888.4 326.2 890.36 325.88 889.9 323.56 891 322.92 891 319.28 887.53 321.94"/><polygon class="cls-3" points="892.42 305.77 890 307.03 890 316.63 890.81 307.39 892.42 305.77"/><polygon class="cls-3" points="899.66 314.18 900.03 320.99 901 317.76 901 313.04 899.66 314.18"/><polygon class="cls-5" points="887.19 327.24 889.5 327.76 890.66 330.2 891.32 331.64 890.66 334.44 888.2 334.08 887.49 330 887.19 327.24"/><polygon class="cls-5" points="887.53 321.96 884.97 324.68 883.11 328 887.24 328 886.94 325.88 887.89 325.15 887.53 321.96"/><polygon class="cls-5" points="892.69 314.19 893 319.28 893 323.48 891.91 324.94 892.32 326.2 893.1 326.52 893.9 328.28 894.55 332.04 896 331.64 896.61 322.16 895 319.28 895 315.56 897.09 314.19 895.55 312.43 892.69 314.19"/><polygon class="cls-5" points="899.8 314.18 897.06 314.19 896.65 318.76 898.49 321.44 897.58 327.92 900.24 320.99 899.8 314.18"/><polygon class="cls-5" points="901.29 313.04 899.8 311.39 900.55 310.99 898.49 310.82 895.5 312.43 897.06 314.19 899.8 314.18 901.29 313.04"/><polygon class="cls-5" points="892.6 303.67 893.63 303.95 896 303.67 896 305.11 896.81 307.23 896.53 312.03 895.53 312.43 894.96 305.75 893.14 305.39 891.83 304.91 892.6 303.67"/><polygon class="cls-3" points="893.58 303.03 892.6 302.31 891.07 303.67 891.32 305.27 892.27 305.08 892.8 303.51 893.58 303.03"/><polygon class="cls-3" points="890.66 304.27 887.89 305.99 888.25 307.27 887.19 308.27 888.4 311.83 888.5 307.15 888.98 306.03 890.66 304.27"/><polygon class="cls-4" points="882.02 313.94 881.03 315.61 881.54 321.24 882.45 323.88 882.7 325.64 882.2 328.32 882.71 330 883.76 330 883.11 328.06 883.36 321.9 882.66 320.31 885.5 318.42 883.11 315.84 882.02 313.94"/><polygon class="cls-4" points="879.13 323.84 877.37 325.44 878.58 329.72 878.25 327.92 879.33 325.4 879.13 323.84"/><polygon class="cls-4" points="882.07 331.66 881.29 334.95 885 336.2 885 332.6 882.07 331.66"/><polygon class="cls-6" points="879.68 302.95 883.86 304.55 886.48 303.43 889.78 301.5 889.81 300.56 887.62 301.78 885.2 301.02 879.68 302.95"/><polygon class="cls-6" points="883 305.23 883 308.11 882 309.71 883.46 315.15 884.78 309.83 887.81 306.95 886.49 305.59 886.29 304.27 884.82 305.75 884.47 307.23 883.53 305.11 883 305.23"/><polygon class="cls-6" points="879.68 308.67 878.78 313.94 877.04 315.07 878.73 316.31 881.03 315.61 882.02 313.94 881.25 308.99 879.68 308.67"/><polygon class="cls-6" points="888.25 317.96 886.94 317.68 882.66 320.28 883.56 322.24 883.11 327.92 884.97 324.64 884.75 321.48 888.25 317.96"/><polygon class="cls-6" points="879.33 326 878.25 328.22 882.2 328.63 882.67 326 879.33 326"/><polygon class="cls-6" points="879.08 317.84 876.59 319.94 877.37 320.28 877.83 322.24 878.83 323.84 880.46 324.2 881.3 324.94 881.5 322.8 881.85 321.83 881.23 317.84 880.09 316.63 879.08 317.84"/><polygon class="cls-6" points="877.37 316 878.02 317.68 878.78 316.83 877.37 316"/><polygon class="cls-6" points="881.5 331.18 882.71 330 883.76 330 884.75 331.12 885.87 331.47 885.9 332.76 885.27 332.62 882.2 331.74 881.5 331.18"/><polygon class="cls-5" points="151.63 270.14 155.26 234.68 146.15 224.05 151.58 193.65 138.8 182.51 144.76 138.94 130 121.72 130 109.56 130 91.32 85.95 74.98 66.76 81.43 45.54 69 30.39 69 29.78 73.7 10.38 77.14 8.56 87.77 3.72 82.19 0 83.08 0 361.61 45.55 374.5 67.98 364.88 85.56 371.97 115.87 361.33 118.9 348.16 138.9 341.57 139.51 327.39 161.33 322.32 168 283.82 151.63 270.14"/><polygon class="cls-4" points="80.77 331.44 93.72 326.38 102.93 301.72 87.97 274.2 90.13 238.74 61.68 217.97 76.61 194.33 63.62 172.38 84.03 142.99 64.92 125.09 75 113.61 75 95.38 48.93 79.03 37.6 85.48 40.39 69 30.39 69 29.18 76.36 10.38 77.14 8.56 87.77 3.72 82.19 0 83.08 0 361.61 45.55 374.5 54.71 370.57 67.97 364.88 85.56 371.97 68.54 352.21 80.41 345.63 80.77 331.44"/><polygon class="cls-3" points="7 197.7 0 192.83 0 242.35 7 229.11 7 197.7"/><polygon class="cls-3" points="26.95 186.22 3.51 171.36 7.96 114.96 26.95 125.09 29.38 136.91 26.95 186.22"/><polygon class="cls-3" points="1 97.4 0 97.04 0 112.08 1 109.56 1 97.4"/><polygon class="cls-3" points="25.13 296.32 34.63 301.72 42.31 321.31 37.06 333.47 42.31 357.11 11.19 336.84 16.44 305.1 25.13 296.32"/><polygon class="cls-3" points="67.13 251.57 64.42 278.5 72.16 284.54 70.17 296.34 60.48 287.55 44.73 284.84 48.13 265.25 39 259.84 39 229.11 67.13 251.57"/><polygon class="cls-3" points="28.88 115.13 49 125.77 49 206.82 42.17 128.81 28.88 115.13"/><polygon class="cls-5" points="70.2 296.34 51.6 300.71 42.31 321.31 37.06 333.47 42.31 357.11 62.11 354.07 67.77 319.62 70.2 296.34"/><polygon class="cls-5" points="67.44 251.74 87.99 274.88 102.93 303 69.79 303 72.22 285.01 64.54 278.74 67.44 251.74"/><polygon class="cls-5" points="25 264.57 25 229.11 26.78 186.22 3.3 171.36 0 175.21 0 192.82 7 197.7 7 229.11 0 242.59 0 333.61 11.2 336.84 16.45 305.1 22.92 290.24 29.39 287.54 33.05 276.9 25 264.57"/><polygon class="cls-5" points="3.53 171.36 0 169.37 0 175.55 3.53 171.36"/><polygon class="cls-5" points="26.75 97.4 19.23 99.77 1 97.4 1 109.56 0 112.08 0 169.88 3.41 171.36 7.91 114.96 22.48 111.92 33 107.87 26.75 97.4"/><polygon class="cls-3" points="18.87 92 26.75 85.92 39.08 97.4 37.06 110.91 29.38 109.27 25.13 96.05 18.87 92"/><polygon class="cls-3" points="42.31 102.47 64.54 116.99 61.71 127.8 70.2 136.24 60.5 166.3 59.69 126.78 55.85 117.33 42.31 102.47"/><polygon class="cls-4" points="111.63 184.03 119.61 198.13 115.51 245.7 108.21 267.97 106.18 282.82 110.21 304.13 106.17 317 97.68 317 102.93 301.93 100.91 250.58 106.57 237.52 83.73 221.75 102.93 200.06 111.63 184.03"/><polygon class="cls-4" points="134.86 267.61 149 281.12 139.31 317.26 141.93 302.06 133.24 280.78 134.86 267.61"/><polygon class="cls-4" points="109.93 333.64 115.45 361.41 85 371.97 85 341.57 109.93 333.64"/><polygon class="cls-6" points="130.41 91.32 96.87 104.83 75.85 95.38 49.35 79.04 49.18 71.16 66.76 81.44 86.16 74.98 130.41 91.32"/><polygon class="cls-9" points="106 110.57 106 134.89 112.95 148.4 100.67 194.33 89.78 149.41 65.34 125.09 75.85 113.61 77.47 102.47 89.19 114.96 92.02 127.46 100.63 109.56 106 110.57"/><polygon class="cls-9" points="130.41 139.62 137.69 184.03 151.63 193.65 138.09 204.12 119.61 198.13 111.63 184.03 117.89 142.32 130.41 139.62"/><polygon class="cls-9" points="61.71 217.97 72.22 215.6 106.57 237.56 99.3 254.1 102.93 302.06 87.99 274.41 89.8 247.69 61.71 217.97"/><polygon class="cls-9" points="133.24 281 141.93 302.17 110.21 304.42 106.46 281 133.24 281"/><polygon class="cls-9" points="135.26 216.95 155.27 234.68 149 237.56 145.27 254.1 137.28 267.61 124.19 270.65 117.48 276.9 115.86 258.83 113.04 250.64 117.99 216.95 127.18 206.82 135.26 216.95"/><polygon class="cls-6" points="149 201.42 143.75 215.6 137.69 208.51 149 201.42"/><polygon class="cls-9" points="115.86 328.27 106.17 317 97.68 317 89.8 327.78 80.77 331.38 80.49 342.58 85.55 341.56 110.21 333.56 115.86 328.27"/><polygon class="cls-5" points="249.01 112.34 278.09 136 283.53 136 301.5 149.05 311.19 166.64 324.67 191.66 313.79 225.87 322.54 225.17 331.05 229.56 332.47 235.94 350.2 242.29 359.19 252.21 360.61 260.83 381.88 277.38 385.67 288.29 381.88 299.5 368.41 307.65 363.44 302.5 340.51 291.69 323.96 302.24 301.5 292.52 299.13 285.59 292.04 290.37 292.28 297.16 286.37 308.45 260.6 308.13 247.59 295.88 243.34 297.16 244.99 305.26 231.99 311.99 219.69 311.6 216.62 306.47 201.25 296.61 185.88 297.82 165.79 286.32 157.04 272.61 155.38 250.57 176.43 227.6 207.87 221.43 207.63 195.7 213.54 193.74 216.15 152.8 249.01 112.34"/><polygon class="cls-4" points="249.01 112.51 216.15 152.88 213.54 193.74 207.63 195.7 207.87 221.43 176.43 227.6 155.38 250.57 157.04 272.61 165.79 286.32 185.88 297.82 201.25 296.61 216.62 306.47 219.69 311.6 231.99 311.99 244.99 305.26 243.34 297.16 246.43 296.23 260.6 308.13 265.8 287.24 258.23 274.79 277.38 230.53 270.52 225.56 250.19 238.29 231.28 220.12 233.41 213.75 253.27 227.6 266.51 190.32 232.46 160.36 249.01 112.51"/><polygon class="cls-4" points="280.22 140.3 287.78 194.88 286.37 232.76 278.8 227.24 275.25 213.08 281.52 191.19 280.22 140.3"/><polygon class="cls-4" points="312.14 260.08 302.92 268.94 299.13 285.59 301.5 292.52 312.14 297.12 316.16 265.79 312.14 260.08"/><polygon class="cls-4" points="368.41 307.65 370.06 298.75 365.57 291.17 343.82 281.5 340.51 291.69 363.44 302.5 368.41 307.65"/><polygon class="cls-4" points="172.7 247.19 183.16 261.34 184.23 269.88 185.88 297.82 165.79 286.32 157.04 272.61 155.38 250.57 172.7 247.19"/><polygon class="cls-4" points="207.63 195.7 215.26 208.78 229.27 218.71 222 240.99 210.83 223.69 207.87 221.43 207.63 195.7"/><polygon class="cls-4" points="216.15 152.88 232.46 160.36 251.43 190.18 238.39 217.22 216.38 201.34 213.54 193.74 216.15 152.88"/><polygon class="cls-4" points="258.23 274.79 246.43 296.23 260.6 308.13 265.8 287.24 258.23 274.79"/><polygon class="cls-4" points="235.15 256.29 224 274.78 224 296.12 232.37 311.99 219.88 311.6 216.71 306.47 201.3 296.61 207.85 279.49 235.15 256.29"/><polygon class="cls-9" points="278.09 136.33 281.52 191.19 266.51 190.32 232.46 160.36 249.01 112.51 278.09 136.33"/><polygon class="cls-9" points="278.8 227.24 277.38 230.53 270.52 225.56 250.19 238.29 231.28 220.12 233.41 213.75 252.32 226.02 270.52 218.34 275.25 213.08 278.8 227.24"/><polygon class="cls-9" points="265.8 287.24 283.53 286.19 286.37 308.45 292.28 297.16 292.04 290.37 286.37 276.02 277.38 267.83 260.86 268.7 258.23 274.79 265.8 287.24"/><polygon class="cls-9" points="295.68 247.19 307.6 242.28 324.64 191.7 301.49 149.05 283.53 136 279.27 136 287.78 194.72 286.37 232.68 295.68 247.19"/><polygon class="cls-9" points="316.16 265.92 343.64 266.16 360.61 260.86 359.19 252.23 350.2 242.3 332.47 235.95 331.05 229.56 322.54 226.03 319.17 240 313.32 240 312.14 260.81 316.16 265.92"/><polygon class="cls-9" points="343.82 281.5 365.57 291.17 370.06 298.75 385.67 288.29 381.88 277.38 360.61 260.86 356.41 274.79 343.82 281.5"/><polygon class="cls-5" points="247.53 253.38 224.48 250.67 213.54 239.79 186.89 246.59 197.17 261.71 214.37 269.57 224.84 283.96 238.49 285.49 247.53 269.57 261.88 268.65 272.18 256.29 247.53 253.38"/><polygon class="cls-5" points="265.88 237.31 250 247.19 250 252 265.8 252 277.38 237.09 267.88 233.73 265.88 237.31"/><polygon class="cls-5" points="243.99 198.52 234.76 211.01 229.27 207.04 229.53 179.75 243.99 198.52"/><polygon class="cls-5" points="278.96 91.33 270.04 104.32 273.26 116.98 260.57 144.43 248.86 143.49 241.05 142.86 229.23 151.45 201.56 145.38 193.75 153.01 174.51 147.96 167.21 153.26 144.63 149.1 135.01 158.91 110.63 152.64 108.5 138.37 99.42 137.25 96.23 124.06 87.93 121.44 82.66 101.42 88.12 90.5 83.09 75.6 101.05 27.29 139.55 16.67 152.17 26.69 179.84 28.52 198.42 21.4 216.52 25.59 228.33 34.77 227.89 40.22 224.66 46.62 257.64 46.91 270.8 49.93 272.94 63.81 269.11 66.64 275.84 68.36 276.9 80.98 279.75 81.6 278.96 91.33"/><polygon class="cls-4" points="279.23 88.02 268.94 85.39 272.55 93.22 260.76 109.33 249.06 108.39 242.22 101.11 229.75 112.36 211.94 97.69 197.18 104.86 182.77 94.05 167.97 111.23 145.31 108.02 126.87 116.2 111.51 109.02 108.93 100.44 99.84 99.48 96.22 91.52 82.66 101.42 88.12 90.5 85.15 81.69 83.09 75.6 101.05 27.29 139.55 16.67 152.17 26.69 179.84 28.52 198.42 21.4 216.52 25.59 228.33 34.77 227.89 40.22 224.66 46.62 257.64 46.91 270.8 49.93 272.94 63.81 269.11 66.64 275.84 68.36 275.23 80.45 279.75 81.6 279.23 88.02"/><polygon class="cls-3" points="198.58 60.2 178.41 58.58 163.46 49.13 128.29 49.54 111.81 48.22 115.56 42.21 169.61 40.52 181.91 50.38 206.81 50.09 198.58 60.2"/><polygon class="cls-3" points="204.94 73.37 215.69 59.09 251.68 64.85 244.19 76.52 236.48 77.47 204.94 73.37"/><polygon class="cls-3" points="263.31 61.38 255.5 60.76 244.38 55.14 218.27 54.21 224.56 46.55 257.59 46.88 267.57 51.77 263.31 61.38"/><polygon class="cls-3" points="134.35 66.53 130.39 72.35 117.41 76.27 109.88 72.27 94.43 74.42 109.04 55.49 129.16 60.5 134.35 66.53"/><polygon class="cls-3" points="160.93 95.61 143.77 92.58 139.49 97.28 132.01 95.42 138.16 89.67 140.71 79.7 153.13 82.7 157.08 76.93 176.81 78.52 160.93 95.61"/><polygon class="cls-3" points="250.48 78.36 242.61 90.82 190.57 86.64 241.01 86.24 250.48 78.36"/><polygon class="cls-3" points="208.03 36.35 171.28 31.22 189.22 27.35 214.8 29.4 208.03 36.35"/><polygon class="cls-5" points="132.01 95.46 130.16 83.3 117.41 76.27 109.88 72.27 94.43 74.42 95.36 87.3 117.19 92.71 132.01 95.46"/><polygon class="cls-5" points="160.79 96 145.09 108.01 126.49 116.17 128.19 94.89 139.4 97.36 143.71 92.75 160.79 96"/><polygon class="cls-5" points="204.97 73.08 177.53 69.55 154.77 67.72 146.42 72.43 139.77 69.63 138.37 65.38 129.16 60.48 109.04 55.48 111.82 48.13 163.46 49.08 178.41 58.58 198.58 60.2 206.81 50.09 215.71 58.91 204.97 73.08"/><polygon class="cls-5" points="208.04 36.14 206.8 50.28 181.91 50.37 168.14 39.73 132.63 41.64 171.31 30.91 208.04 36.14"/><polygon class="cls-5" points="214.84 28.98 223.11 37.35 225.59 33.7 225.66 44.35 215.69 59.09 206.8 50.28 208.04 36.14 214.84 28.98"/><polygon class="cls-5" points="261.99 77.82 260.85 72.92 263.31 61.38 255.5 60.76 244.38 55.14 218.27 54.21 215.7 59.03 251.68 64.82 252.88 74.33 254.94 81.3 261.99 77.82"/><polygon class="cls-3" points="265.86 73.04 269.36 78.41 261.35 85.73 252.78 83.74 254.23 78.89 262.94 76.85 265.86 73.04"/><polygon class="cls-3" points="257.93 87.55 247.46 101.07 240.67 98.7 234.81 103.72 216.01 95.94 241.42 97.45 247.69 95.48 257.93 87.55"/><polygon class="cls-4" points="201.99 127.86 192.53 132.25 162.19 127.17 148.27 121.33 138.84 119.26 125.17 120.77 117.35 117.53 117.79 112.08 126.96 116.21 159.93 117.55 167.96 121.85 179.23 108 192.16 121.45 201.99 127.86"/><polygon class="cls-4" points="147.12 138.46 137.72 146.85 115.02 138.76 124.64 141.23 138.75 136.75 147.12 138.46"/><polygon class="cls-4" points="106.02 119.05 87.89 121.16 82.69 101.06 102.2 102.62 106.02 119.05"/><polygon class="cls-6" points="260.55 144.7 253.6 122.46 260.75 109.45 272.61 93.28 277.68 93.58 270.17 104.33 273.32 117.12 260.55 144.7"/><polygon class="cls-6" points="249.41 128.49 233.79 127.23 224.78 130.77 195.93 120.4 225.34 115.67 242.21 101.2 249.04 108.53 256.12 110.13 247.49 117.01 239.32 118.18 250.35 124.86 249.41 128.49"/><polygon class="cls-9" points="229.54 142.21 200.65 144.59 193.75 153.04 187.72 143.81 192.53 132.25 201.99 127.86 228.45 134.02 229.54 142.21"/><polygon class="cls-6" points="182.77 94.05 183.75 100.92 167.88 121.85 157.63 116.32 126.65 116.19 145.17 108.02 162.24 110.56 182.77 94.05"/><polygon class="cls-6" points="138.88 136.76 124.7 141.23 124.96 120.76 140.26 119.56 138.88 136.76"/><polygon class="cls-9" points="179.63 141.33 167.21 153.27 165.69 149.09 155.26 145.84 147 140.02 145.72 131.46 142.06 126.83 153.74 126.72 159.14 125.33 180.52 130.24 186.55 136.67 179.63 141.33"/><polygon class="cls-6" points="188.9 150.96 180.06 146.85 184.93 143.33 188.9 150.96"/><polygon class="cls-6" points="109.38 123.16 117.35 117.53 117.79 112.08 111.04 106.45 109.08 100.46 101.85 99.69 102.21 103 106.17 119.25 109.38 123.16"/><g class="cls-8"><polygon points="131.34 379 137.03 378.18 142.68 378.57 155 377.52 155 376.36 155 375.59 158.46 374.5 156.61 371.74 159.91 371.03 158.39 369.1 160.8 368.43 159.81 366.18 164.19 365.31 162.4 362.87 156.55 362.55 156.38 361.65 151.02 361.23 150.21 360.4 142.07 359.72 137.36 360.17 131.34 359.56 110.69 360.94 105 364.64 108.74 365.95 108.58 368.68 105 370.45 106.14 372.01 109.56 373 111.83 373 114.6 372.98 113.62 376.34 114.43 377.71 120.13 378.07 121.43 377.73 121.91 378.41 127.12 378.66 127.28 379 131.34 379"/><polygon points="129.96 379 129.21 377.92 133.13 378.31 141 377.26 141 376.1 137.42 375.38 142.11 374.24 136.41 372.38 139.79 370.99 135.73 369.49 143.33 368.17 142.74 365.92 146.74 364.18 144.27 362.61 140.79 362.29 140.7 361.39 137.51 360.98 142.07 359.72 137.36 360.17 133.8 359.81 131.34 359.56 110.69 360.94 105 364.64 108.74 365.95 108.58 368.68 105 370.45 106.14 372.01 109.56 373 111.83 373 114.6 372.98 113.62 376.34 114.43 377.71 120.13 378.07 121.43 377.73 121.91 378.41 126.95 378.5 127.28 379 129.96 379"/><polygon points="122 370.77 122 368.78 118.11 367.24 119 363.79 119 362.16 116.39 362.49 113.89 367.77 117.58 369.06 117.08 371.5 122 370.77"/><polygon points="126.36 371.5 120.07 372.44 121.26 376.02 126.36 375.38 127.01 374.63 126.36 371.5"/><polygon points="120 377.13 120 376.36 117.76 375.23 118.1 372.66 114.64 373.21 113.64 376.46 115.6 377.47 120 377.13"/><polygon points="125.87 364.52 128.42 364.18 130.48 362.93 129.07 362.16 130.48 360.67 122.13 361.95 123.54 363.96 125.87 364.52"/><polygon points="137.84 367.36 136.76 365.65 138.66 365.27 138.04 364.52 135.4 365.07 131.15 365.25 132.75 366.49 131 366.83 131 368.78 137.84 367.36"/><polygon points="126.74 376.01 132 375.33 132 370.19 130.24 375.14 126.74 376.01"/><polygon points="111 371.51 110.15 367.87 108 369.59 108 372.12 111 371.51"/><polygon points="137.96 364.52 132.97 364.24 130.48 362.93 129.07 362.16 130.48 360.67 135.79 360.86 137.31 363.04 137.96 364.52"/><polygon points="137.22 367.35 142.73 365.83 146.74 364 137.85 364 138.5 365.19 136.44 365.61 137.22 367.35"/><polygon points="126.9 371.5 127 368.78 127 366.53 128.58 365.75 127.3 365.08 125.42 364.9 123.61 363.96 122.17 361.95 119 362.16 118.12 367.24 122 368.78 122 370.77 117.08 371.5 120.55 372.44 126.9 371.5"/><polygon points="110.8 371.51 116.71 371.5 117.58 369.06 113.62 367.62 115.6 364.15 109.85 367.87 110.8 371.51"/><polygon points="107.61 372.12 110.8 373 109.2 373.21 113.62 373.3 120.07 372.44 116.71 371.5 110.8 371.51 107.61 372.12"/><polygon points="126.3 377.13 124.59 376.98 120 377.13 120 376.36 117.76 375.23 118.1 372.66 120.12 372.44 121.29 376.02 125.18 376.21 127.99 376.47 126.3 377.13"/><polygon points="124.19 377.47 126.3 377.86 129.61 377.13 129.07 376.27 127.01 376.38 125.87 377.22 124.19 377.47"/><polygon points="130.48 376.81 136.44 375.89 135.68 375.2 137.96 374.67 135.35 372.76 135.14 375.27 134.11 375.87 130.48 376.81"/><polygon points="149.07 371.64 151.21 370.75 150.11 367.73 148.15 366.32 147.61 365.38 148.69 363.92 147.6 363 145.33 363 146.74 364.06 146.19 367.37 147.71 368.22 141.59 369.23 146.74 370.62 149.07 371.64"/><polygon points="155.3 366.34 159.09 365.48 156.49 363.19 157.2 364.15 154.87 365.5 155.3 366.34"/><polygon points="149.15 362.15 150.9 360.39 143 359.72 143 361.65 149.15 362.15"/><polygon points="154.11 377.52 145.11 376.66 139.47 377.26 132.37 378.3 132.32 378.8 137.03 378.14 142.24 378.55 154.11 377.52"/><polygon points="148 376.3 148 374.75 149.64 373.9 146.24 370.99 143.26 373.83 136.68 375.38 139.49 376.1 139.91 376.81 143.05 376.02 143.81 375.23 146.34 376.36 148 376.3"/><polygon points="154.11 374.45 156.06 371.64 159.8 371.03 156.17 370.37 151.21 370.75 149.07 371.64 150.75 374.28 154.11 374.45"/><polygon points="135.68 369.49 138.5 369.64 147.71 368.25 145.76 367.2 146.74 364.15 142.73 365.91 143.21 367.6 135.68 369.49"/><polygon points="154.87 365 157.2 363.9 148.69 363.64 147.68 365 154.87 365"/><polygon points="155.41 369.55 160.77 368.43 159.09 368.25 158.09 367.2 155.95 366.34 152.44 366.15 150.64 365.75 150.21 366.9 149.45 367.42 150.77 369.55 153.24 370.19 155.41 369.55"/><polygon points="159.09 370.54 157.68 369.64 156.06 370.09 159.09 370.54"/><polygon points="150.21 362.39 147.6 363 145.33 363 143.21 362.42 140.79 362.24 140.72 361.56 142.07 361.64 148.69 362.1 150.21 362.39"/></g><g class="cls-8"><polygon points="175.75 381 180.28 379.95 184.49 380.3 194 379.07 194 377.81 194 376.98 197.05 375.79 195.72 372.79 198.43 372.02 197.26 369.93 199.2 369.19 198.42 366.75 201.91 365.81 200.49 363.16 195.82 362.81 195.69 361.83 191.42 361.38 190.77 360.47 184.3 359.74 180.54 360.23 175.75 359.56 159.3 361.06 154.76 365.08 157.74 366.51 157.61 369.47 154.76 371.39 155.67 373.01 158.39 374 160.2 374 162.41 374.06 161.63 377.75 162.28 379.27 166.81 379.66 167.85 379.29 168.23 380.04 172.38 380.48 172.51 381 175.75 381"/><polygon points="174.65 381 174.05 379.67 177.45 380.02 184 378.79 184 377.54 180.87 376.74 184.46 375.51 179.85 373.49 182.51 371.98 179.26 370.35 185.3 368.92 184.83 366.47 188.02 364.58 186.04 362.88 183.28 362.53 183.2 361.55 180.66 361.1 184.3 359.74 180.54 360.23 177.71 359.83 175.75 359.56 159.3 361.06 154.76 365.08 157.74 366.51 157.61 369.47 154.76 371.39 155.67 373.01 158.39 374 160.2 374 162.41 374.06 161.63 377.75 162.28 379.27 166.81 379.66 167.85 379.29 168.23 380.04 172.25 380.29 172.51 381 174.65 381"/><polygon points="168 371.74 168 369.58 164.6 367.9 165 364.16 165 362.39 163.38 362.74 161.62 368.49 164.67 369.88 164.18 372.53 168 371.74"/><polygon points="171.78 372.53 166.77 373.56 167.72 377.44 171.78 376.74 172.29 375.93 171.78 372.53"/><polygon points="167 378.65 167 377.81 165.07 376.58 165.27 373.79 162.48 374.39 161.66 377.92 163.36 379.02 167 378.65"/><polygon points="171.39 364.95 173.42 364.58 175.06 363.23 173.93 362.39 175.06 360.76 168.41 362.16 169.53 364.34 171.39 364.95"/><polygon points="180.68 368.03 179.94 366.18 181.51 365.76 181.05 364.95 178.96 365.55 175.58 365.74 176.63 367.09 175 367.46 175 369.58 180.68 368.03"/><polygon points="172.44 377.43 177 376.7 177 371.11 175.41 376.49 172.44 377.43"/><polygon points="159.97 372.54 159.5 368.58 158 370.46 158 373.21 159.97 372.54"/><polygon points="181.01 364.95 177.04 364.64 175.06 363.23 173.93 362.39 175.06 360.76 179.29 360.97 180.5 363.34 181.01 364.95"/><polygon points="180.43 368.02 184.82 366.18 188.01 364 180.93 364 181.45 365.48 179.81 366.04 180.43 368.02"/><polygon points="172.06 372.53 172 369.58 172 367.13 173.4 366.29 172.46 365.55 170.99 365.37 169.57 364.34 168.43 362.16 165.91 362.39 165.06 367.9 168 369.58 168 371.74 164.23 372.53 167 373.56 172.06 372.53"/><polygon points="159.38 372.54 164.09 372.53 164.78 369.88 161.63 368.32 163.2 364.55 158.63 368.58 159.38 372.54"/><polygon points="156.84 373.21 159.38 374.16 158.11 374.39 161.63 374.49 166.77 373.56 164.09 372.53 159.38 372.54 156.84 373.21"/><polygon points="171.73 378.65 170.51 378.49 167 378.65 167 377.81 165.07 376.58 165.27 373.79 166.84 373.56 167.75 377.44 170.84 377.65 173.08 377.93 171.73 378.65"/><polygon points="170.05 379.02 171.73 379.44 174.37 378.65 173.93 377.72 172.29 377.83 171.39 378.75 170.05 379.02"/><polygon points="175.06 378.3 179.81 377.3 179.2 376.56 181.01 375.98 178.94 373.91 178.77 376.63 177.95 377.28 175.06 378.3"/><polygon points="189.87 372.68 191.57 371.71 190.7 368.44 189.14 366.9 188.7 365.88 189.56 364.65 188.7 364 186.89 364 188.01 364.8 187.58 368.22 188.79 369.06 183.91 370.12 188.01 371.59 189.87 372.68"/><polygon points="194.83 366.93 197.85 366 195.78 363.5 196.34 364.55 194.49 366.02 194.83 366.93"/><polygon points="190.42 362.38 192.05 360.46 186 359.74 186 361.83 190.42 362.38"/><polygon points="193.88 379.07 186.71 378.14 182.22 378.79 176.56 379.92 176.52 380.46 180.28 379.75 184.43 380.2 193.88 379.07"/><polygon points="189 377.75 189 376.07 190.32 375.14 187.61 371.98 185.24 375.07 180 376.74 182.23 377.54 182.57 378.3 185.08 377.44 185.68 376.58 187.69 377.81 189 377.75"/><polygon points="193.88 375.74 195.44 372.68 198.41 372.02 195.52 371.3 191.57 371.71 189.87 372.68 191.21 375.56 193.88 375.74"/><polygon points="179.2 370.35 181.45 370.51 188.79 369 187.23 367.86 188.01 364.55 184.82 366.46 185.2 368.3 179.2 370.35"/><polygon points="194.49 366 196.34 364.54 189.56 364.39 188.76 366 194.49 366"/><polygon points="194.92 370.42 199.19 369.19 197.85 369 197.06 367.86 195.35 366.93 192.55 366.72 191.12 366.29 190.77 367.53 190.17 368.1 191.23 370.42 193.19 371.11 194.92 370.42"/><polygon points="197.85 371.49 196.73 370.51 195.44 371 197.85 371.49"/><polygon points="190.77 362.99 188.7 364 186.89 364 185.2 363.02 183.28 362.65 183.21 361.82 184.3 361.86 189.56 362.52 190.77 362.99"/></g><polygon class="cls-5" points="133.06 271 138.75 275.39 144.04 273.51 156 278.96 156 284.81 156 288.72 159.81 294.24 158.14 308.23 161.53 311.8 160.06 321.56 162.49 324.97 161.51 336.36 165.9 340.75 164.12 353.1 158.26 354.73 158.1 359.28 152.73 361.39 151.92 365.62 143.79 369.04 139.07 366.76 133.06 369.85 112.41 362.86 106.72 344.16 110.46 337.49 110.3 323.67 106.72 314.73 107.86 305.9 111.27 300 113.55 300 116.31 301.02 115.34 284.46 116.15 277.73 121.84 276.07 123.14 277.84 123.63 274.42 128.83 272.91 128.99 271 133.06 271"/><polygon class="cls-4" points="131.68 271 130.93 276.69 134.99 274.82 143 280.26 143 286.11 139.28 289.8 143.89 295.55 138.16 304.98 141.52 312.02 137.45 319.61 145.05 326.27 144.45 337.66 148.46 346.49 145.98 354.4 142.51 356.03 142.41 360.58 139.23 362.7 143.79 369.04 139.07 366.76 135.51 368.59 133.06 369.85 112.41 362.86 106.72 344.16 110.46 337.49 110.3 323.67 106.72 314.73 107.86 305.9 111.27 300 113.55 300 116.31 301.02 115.34 284.46 116.15 277.73 121.84 276.07 123.14 277.84 123.63 274.42 128.67 273.76 128.99 271 131.68 271"/><polygon class="cls-3" points="124 313.11 124 323.19 119.61 330.99 120 348.44 120 356.68 117.75 355.05 115.43 328.28 119.2 321.78 118.89 309.42 124 313.11"/><polygon class="cls-3" points="128.07 309.42 121.78 304.65 122.98 286.55 128.07 289.8 128.72 293.59 128.07 309.42"/><polygon class="cls-3" points="122 280.91 122 284.81 119.62 290.56 119.89 303.57 116.39 300.75 115.38 284.33 117.47 279.18 122 280.91"/><polygon class="cls-3" points="127.58 344.76 130.13 346.49 132.19 352.78 130.78 356.68 132.19 364.27 123.84 357.76 125.25 347.57 127.58 344.76"/><polygon class="cls-3" points="139.2 330.39 138.29 339.04 140.28 340.98 139.71 344.76 137.09 341.94 132.85 341.07 134.1 334.79 132 333.05 132 323.19 139.2 330.39"/><polygon class="cls-3" points="128.6 286.6 134 290.02 134 316.03 132.17 290.99 128.6 286.6"/><polygon class="cls-3" points="112.86 309.37 112.08 327.82 110 319.07 110 306.28 112.86 309.37"/><polygon class="cls-5" points="139.67 344.76 134.68 346.17 132.19 352.78 130.78 356.68 132.19 364.27 137.5 363.29 139.02 352.24 139.67 344.76"/><polygon class="cls-5" points="138.93 330.45 144.44 337.93 148.45 347 139.56 347 140.21 341.18 138.15 339.14 138.93 330.45"/><polygon class="cls-5" points="128.75 309.42 129 323.19 129 334.57 130.43 338.52 129.09 341.94 127.17 342.81 125.35 347.57 123.89 357.76 120.72 356.68 119.98 330.99 124 323.19 124 313.11 118.94 309.42 122.41 304.65 128.75 309.42"/><polygon class="cls-5" points="112.52 309.37 118.42 309.42 119.29 321.78 115.34 329.04 117.31 346.6 111.57 327.82 112.52 309.37"/><polygon class="cls-5" points="109.32 306.28 112.52 301.83 110.92 300.75 115.34 300.29 121.78 304.65 118.42 309.42 112.52 309.37 109.32 306.28"/><polygon class="cls-5" points="128.02 280.91 126.44 281.67 122 280.91 122 284.81 119.62 290.56 119.89 303.57 121.87 304.65 123.02 286.55 126.9 285.57 129.71 284.27 128.02 280.91"/><polygon class="cls-3" points="125.9 279.18 128.02 277.23 131.32 280.91 130.78 285.25 128.72 284.72 127.58 280.48 125.9 279.18"/><polygon class="cls-3" points="132.19 282.54 138.15 287.2 137.39 290.67 139.67 293.38 137.07 303.02 136.85 290.34 135.82 287.31 132.19 282.54"/><polygon class="cls-4" points="150.78 308.71 152.92 313.24 151.82 328.51 149.87 335.66 149.32 340.42 150.4 347.57 149.32 352 147.04 352 148.45 346.86 147.91 330.23 149.43 325.96 143.3 320.86 148.45 313.88 150.78 308.71"/><polygon class="cls-4" points="157.01 335.54 160.81 339.88 158.21 351.48 158.91 346.6 156.58 339.77 157.01 335.54"/><polygon class="cls-4" points="150.51 356.73 152.08 365.65 144 369.04 144 359.28 150.51 356.73"/><polygon class="cls-6" points="155.82 278.96 146.82 283.3 141.19 280.26 134.08 275.02 134.03 272.49 138.75 275.79 143.95 273.72 155.82 278.96"/><polygon class="cls-6" points="150 285.14 150 292.94 151.5 297.28 148.03 312.02 145.01 297.6 138.41 289.8 141.21 286.11 141.63 282.54 144.77 286.55 145.53 290.56 148.2 284.81 150 285.14"/><polygon class="cls-6" points="155.82 294.46 157.77 308.71 161.51 311.8 157.88 315.16 152.92 313.24 150.78 308.71 152.46 295.33 155.82 294.46"/><polygon class="cls-6" points="137.39 319.61 140.21 318.85 149.43 325.9 147.47 331.21 148.45 346.6 144.44 337.72 144.93 329.15 137.39 319.61"/><polygon class="cls-6" points="156.58 340 158.91 346.71 150.4 347.48 149.4 340 156.58 340"/><polygon class="cls-6" points="157.12 319.28 162.49 324.97 160.81 325.9 159.81 331.21 157.66 335.54 154.15 336.52 152.35 338.52 151.92 332.73 151.16 330.1 152.49 319.28 154.96 316.03 157.12 319.28"/><polygon class="cls-6" points="160.81 314.3 159.4 318.85 157.77 316.57 160.81 314.3"/><polygon class="cls-6" points="151.92 355.32 149.32 352 147.04 352 144.93 355.16 142.51 356.16 142.43 359.68 143.79 359.31 150.4 356.88 151.92 355.32"/><polygon class="cls-5" points="177.46 307 182 309.92 186.34 308.81 196 312.32 196 316.03 196 318.5 198.91 322 197.51 330.85 200.18 333.11 198.99 339.29 200.92 341.45 200.14 348.65 203.63 351.43 202.2 359.25 197.54 360.28 197.41 363.16 193.14 364.5 192.49 367.18 186.01 369.34 182.25 367.89 177.46 369.85 161.01 365.43 156.48 353.59 159.46 349.37 159.33 340.62 156.48 334.96 157.38 329.56 160.1 326 161.92 326 164.12 326.47 163.34 315.9 163.99 311.59 168.52 310.51 169.56 311.63 169.95 309.45 174.09 308.36 174.22 307 177.46 307"/><polygon class="cls-4" points="176.36 307 175.76 310.74 179.31 309.63 186 313.15 186 316.85 182.72 319.18 186.25 322.82 181.61 328.79 184.24 333.25 180.98 338.05 187.02 342.27 186.54 349.47 189.73 355.07 187.76 360.07 184.99 361.1 184.91 363.98 182.38 365.32 186.01 369.34 182.25 367.89 179.42 369.05 177.46 369.85 161.01 365.43 156.48 353.59 159.46 349.37 159.33 340.62 156.48 334.96 157.38 329.56 160.1 326 161.92 326 164.12 326.47 163.34 315.9 163.99 311.59 168.52 310.51 169.56 311.63 169.95 309.45 173.97 308.89 174.22 307 176.36 307"/><polygon class="cls-3" points="170 333.93 170 340.31 166.6 345.25 167 356.3 167 361.51 165.24 360.49 163.4 343.54 166.42 339.42 166.05 331.6 170 333.93"/><polygon class="cls-3" points="173.49 331.6 168.48 328.58 169.43 317.13 173.49 319.18 174.01 321.58 173.49 331.6"/><polygon class="cls-3" points="168 313.56 168 316.03 166.43 319.66 166.81 327.9 164.1 326.11 163.33 315.72 164.7 312.46 168 313.56"/><polygon class="cls-3" points="173.1 353.97 175.13 355.07 176.77 359.05 175.65 361.51 176.77 366.32 170.12 362.2 171.24 355.75 173.1 353.97"/><polygon class="cls-3" points="182.54 344.88 181.73 350.35 183.27 351.57 182.78 353.97 180.68 352.19 177.3 351.64 178.49 347.66 177 346.56 177 340.31 182.54 344.88"/><polygon class="cls-3" points="174.3 317.16 179 319.32 179 335.79 177.34 319.94 174.3 317.16"/><polygon class="cls-3" points="161.82 331.57 161.43 343.25 160 337.71 160 329.61 161.82 331.57"/><polygon class="cls-5" points="182.73 353.97 178.76 354.86 176.77 359.05 175.65 361.51 176.77 366.32 181 365.7 182.21 358.7 182.73 353.97"/><polygon class="cls-5" points="182.14 344.91 186.53 349.45 189.72 355 182.64 355 183.16 351.51 181.52 350.31 182.14 344.91"/><polygon class="cls-5" points="173.92 331.6 174 340.31 174 347.52 175.26 350.02 174.24 352.18 172.74 352.73 171.3 355.75 170.15 362.2 167.63 361.51 166.92 345.25 170 340.31 170 333.93 166.09 331.6 168.86 328.58 173.92 331.6"/><polygon class="cls-5" points="161.1 331.57 165.8 331.6 166.5 339.42 163.34 344.02 164.92 355.13 160.34 343.25 161.1 331.57"/><polygon class="cls-5" points="158.55 329.61 161.1 326.8 159.82 326.11 163.34 325.82 168.48 328.58 165.8 331.6 161.1 331.57 158.55 329.61"/><polygon class="cls-5" points="173.45 313.56 171.87 314.04 168 313.56 168 316.03 166.43 319.66 166.81 327.9 168.46 328.58 169.42 317.13 172.54 316.51 174.78 315.69 173.45 313.56"/><polygon class="cls-3" points="171.76 312.46 173.45 311.23 176.08 313.56 175.65 316.3 174.01 315.97 173.1 313.28 171.76 312.46"/><polygon class="cls-3" points="176.77 314.59 181.52 317.54 180.92 319.73 182.73 321.45 180.66 327.55 180.48 319.53 179.66 317.61 176.77 314.59"/><polygon class="cls-4" points="191.58 331.16 193.29 334.02 192.41 343.69 190.85 348.21 190.42 351.23 191.28 355.97 190.41 359 188.6 359 189.72 355.52 189.29 344.88 190.5 342.13 185.62 338.87 189.72 334.44 191.58 331.16"/><polygon class="cls-4" points="196.55 348.14 199.57 350.88 197.5 358.22 198.06 355.13 196.2 350.81 196.55 348.14"/><polygon class="cls-4" points="191.77 361.55 193.23 367.19 187 369.34 187 363.16 191.77 361.55"/><polygon class="cls-6" points="195.6 312.32 188.43 315.07 183.94 313.15 178.28 309.83 178.24 308.23 182 310.32 186.14 309 195.6 312.32"/><polygon class="cls-6" points="191 316.23 191 321.17 192.18 323.92 189.4 333.25 186.99 324.12 181.73 319.18 183.96 316.85 184.29 314.59 186.79 317.13 187.4 319.66 189.54 316.03 191 316.23"/><polygon class="cls-6" points="195.6 322.13 197.15 331.16 200.13 333.11 197.24 335.24 193.29 334.02 191.58 331.16 192.92 322.68 195.6 322.13"/><polygon class="cls-6" points="180.92 338.05 183.16 337.57 190.5 342.03 188.95 345.39 189.72 355.13 186.53 349.52 186.92 344.09 180.92 338.05"/><polygon class="cls-6" points="196.2 352 198.06 355.73 191.28 356.47 190.48 352 196.2 352"/><polygon class="cls-6" points="196.63 337.85 200.91 341.45 199.57 342.03 198.77 345.39 197.06 348.14 194.27 348.75 192.83 350.02 192.49 346.35 191.88 344.69 192.94 337.85 194.91 335.79 196.63 337.85"/><polygon class="cls-6" points="199.57 334.69 198.45 337.57 197.15 336.13 199.57 334.69"/><polygon class="cls-6" points="192.49 360.88 190.41 359 188.6 359 186.92 360.77 184.99 361.3 184.93 363.47 186.01 363.21 191.28 361.77 192.49 360.88"/><polygon class="cls-10" points="763.15 303.67 714.68 300.31 690.36 303.03 726.76 318.23 755.92 322.62 742.67 343.35 724 346.38 718 351.44 737.28 361.36 797 363.6 822.23 358.33 828.93 366.44 864.02 366 904.85 375.77 931.34 368.96 918.68 358.39 921.33 352.4 903.69 352.63 889.25 344.71 857.42 343.35 848.95 332.01 824 331.66 791 326 789.38 309.97 763.15 303.67"/></g><g id="foreground"><polygon class="cls-11" points="0 446 0 512.04 1024 512.14 1024 446 0 446"/><rect class="cls-12" x="15.6" y="458.59" width="42.32" height="36.21"/><rect class="cls-12" x="63.56" y="458.59" width="24.22" height="20.05"/><rect class="cls-12" x="74.38" y="490.81" width="30.57" height="18.81"/><rect class="cls-12" x="93.9" y="458.59" width="40.44" height="29.04"/><rect class="cls-12" x="62.39" y="481.87" width="25.39" height="5.75"/><rect class="cls-12" x="0.31" y="497.63" width="67.25" height="13.17"/><rect class="cls-12" x="2.66" y="458.71" width="8.7" height="35.98"/><rect class="cls-12" x="138.81" y="458.71" width="18.58" height="14.81"/><rect class="cls-12" x="137.87" y="475.52" width="24.22" height="35.27"/><rect class="cls-12" x="109.65" y="493.16" width="20.22" height="9.17"/><rect class="cls-12" x="758.33" y="463.9" width="20.22" height="9.17"/><rect class="cls-12" x="159.63" y="458.59" width="50.06" height="13.4"/><rect class="cls-12" x="168.9" y="475.52" width="10.82" height="6.35"/><rect class="cls-12" x="168.9" y="486.58" width="71.48" height="25.16"/><rect class="cls-12" x="369" y="458.59" width="24.22" height="20.05"/><rect class="cls-12" x="379.82" y="490.81" width="30.57" height="18.81"/><rect class="cls-12" x="399.34" y="458.59" width="40.44" height="29.04"/><rect class="cls-12" x="367.83" y="481.87" width="25.39" height="5.75"/><rect class="cls-12" x="444.25" y="458.71" width="18.58" height="14.81"/><rect class="cls-12" x="443.31" y="475.52" width="24.22" height="35.27"/><rect class="cls-12" x="415.09" y="493.16" width="20.22" height="9.17"/><rect class="cls-12" x="709.27" y="461.53" width="20.22" height="9.17"/><rect class="cls-12" x="465.07" y="458.59" width="50.06" height="13.4"/><rect class="cls-12" x="474.35" y="475.52" width="10.82" height="6.35"/><rect class="cls-12" x="474.35" y="486.58" width="71.48" height="25.28"/><rect class="cls-12" x="184.66" y="474.82" width="50.79" height="9.93"/><rect class="cls-12" x="216.64" y="458.86" width="57.77" height="14.58"/><rect class="cls-12" x="247.32" y="481.87" width="52.42" height="29.98"/><rect class="cls-12" x="277.13" y="459.98" width="32.8" height="19.81"/><rect class="cls-12" x="240.89" y="475.76" width="30.16" height="1.94"/><rect class="cls-12" x="306.58" y="481.87" width="3.97" height="29.07"/><rect class="cls-12" x="312.4" y="463.42" width="15.87" height="16.37"/><rect class="cls-12" x="330.82" y="459.27" width="24.6" height="18.43"/><rect class="cls-12" x="319.19" y="481.87" width="36.68" height="16.28"/><rect class="cls-12" x="313.63" y="500.01" width="53.43" height="11.55"/><rect class="cls-12" x="755.92" y="481.06" width="52.42" height="29.98"/><rect class="cls-12" x="785.72" y="459.16" width="32.8" height="19.81"/><rect class="cls-12" x="815.17" y="481.06" width="3.97" height="29.07"/><rect class="cls-12" x="820.99" y="462.6" width="15.87" height="16.37"/><rect class="cls-12" x="839.42" y="458.46" width="24.6" height="18.43"/><rect class="cls-12" x="827.78" y="481.06" width="36.68" height="16.28"/><rect class="cls-12" x="822.23" y="499.19" width="53.43" height="11.55"/><rect class="cls-12" x="678.94" y="486.58" width="71.48" height="25.1" transform="translate(1429.37 998.25) rotate(180)"/><rect class="cls-12" x="683.88" y="474.82" width="50.79" height="9.93" transform="translate(1418.55 959.57) rotate(180)"/><rect class="cls-12" x="644.92" y="458.86" width="57.77" height="14.58" transform="translate(1347.61 932.3) rotate(180)"/><rect class="cls-12" x="619.59" y="481.87" width="52.42" height="29.98" transform="translate(1291.59 993.73) rotate(180)"/><rect class="cls-13" x="630.24" y="486.58" width="33.12" height="21.63" transform="translate(1293.6 994.78) rotate(180)"/><rect class="cls-12" x="609.4" y="459.98" width="32.8" height="19.81" transform="translate(1251.6 939.76) rotate(180)"/><rect class="cls-12" x="521.18" y="463.53" width="32.8" height="19.81" transform="translate(1075.17 946.88) rotate(180)"/><rect class="cls-12" x="648.29" y="475.76" width="30.16" height="1.94" transform="translate(1326.73 953.46) rotate(180)"/><rect class="cls-12" x="608.78" y="481.87" width="3.97" height="29.07" transform="translate(1221.54 992.81) rotate(180)"/><rect class="cls-12" x="591.06" y="463.42" width="15.87" height="16.37" transform="translate(1197.99 943.2) rotate(180)"/><rect class="cls-12" x="737.31" y="461.7" width="15.87" height="16.37" transform="translate(1490.5 939.76) rotate(180)"/><rect class="cls-12" x="563.9" y="459.27" width="24.6" height="18.43" transform="translate(1152.41 936.97) rotate(180)"/><rect class="cls-12" x="563.46" y="481.87" width="36.68" height="16.28" transform="translate(1163.6 980.03) rotate(180)"/><rect class="cls-12" x="552.26" y="500.01" width="53.43" height="11.55" transform="translate(1157.96 1011.57) rotate(180)"/><rect class="cls-12" x="947.62" y="481.87" width="52.42" height="29.98" transform="translate(1947.67 993.73) rotate(180)"/><rect class="cls-12" x="937.44" y="459.98" width="32.8" height="19.81" transform="translate(1907.68 939.76) rotate(180)"/><rect class="cls-12" x="936.82" y="481.87" width="3.97" height="29.07" transform="translate(1877.61 992.81) rotate(180)"/><rect class="cls-12" x="919.1" y="463.42" width="15.87" height="16.37" transform="translate(1854.07 943.2) rotate(180)"/><rect class="cls-12" x="891.94" y="459.27" width="24.6" height="18.43" transform="translate(1808.48 936.97) rotate(180)"/><rect class="cls-12" x="891.5" y="481.87" width="36.68" height="16.28" transform="translate(1819.68 980.03) rotate(180)"/><rect class="cls-12" x="880.3" y="500.01" width="53.43" height="11.55" transform="translate(1814.04 1011.57) rotate(180)"/><rect class="cls-12" x="357.89" y="462.27" width="7.58" height="35.45"/><rect class="cls-12" x="866.84" y="461.12" width="21.51" height="22.93"/><rect class="cls-12" x="869.14" y="487.58" width="19.22" height="9.29"/><rect class="cls-12" x="974.77" y="458.46" width="49.09" height="20.51"/><rect class="cls-12" x="1023.86" y="458.46" width="0.11" height="20.51"/><rect class="cls-12" x="1002.81" y="482.81" width="21.05" height="4.82"/><rect class="cls-12" x="1003.69" y="492.22" width="20.17" height="19.64"/><rect class="cls-12" x="489.28" y="476.73" width="26.98" height="5.14"/><rect class="cls-12" x="552.26" y="487.58" width="5.49" height="9.28"/><rect class="cls-12" x="371.65" y="492.22" width="3.7" height="11.93"/><rect class="cls-12" x="415.09" y="506.44" width="25.51" height="3.17"/><rect class="cls-13" x="372.11" y="464.37" width="18" height="10.29" transform="translate(762.23 939.02) rotate(180)"/><rect class="cls-13" x="334.12" y="463.47" width="18" height="10.29" transform="translate(686.25 937.24) rotate(180)"/><rect class="cls-13" x="284.53" y="463.47" width="18" height="10.29" transform="translate(587.05 937.24) rotate(180)"/><rect class="cls-13" x="100.65" y="464.37" width="27.11" height="17.5" transform="translate(228.41 946.24) rotate(180)"/><rect class="cls-13" x="23.21" y="462.18" width="27.11" height="26.63" transform="translate(73.52 950.99) rotate(180)"/><rect class="cls-13" x="68.86" y="462.36" width="15.3" height="15.03" transform="translate(153.01 939.76) rotate(180)"/><rect class="cls-13" x="7.01" y="499.86" width="53.02" height="8.7" transform="translate(67.05 1008.42) rotate(180)"/><rect class="cls-13" x="81.39" y="496.36" width="19.26" height="11.35" transform="translate(182.04 1004.06) rotate(180)"/><rect class="cls-13" x="175.66" y="491.26" width="59.79" height="16.44" transform="translate(411.11 998.96) rotate(180)"/><rect class="cls-13" x="252.68" y="486.85" width="39.09" height="21.19" transform="translate(544.44 994.88) rotate(180)"/><rect class="cls-13" x="446.42" y="478.2" width="18" height="27.59" transform="translate(910.83 983.98) rotate(180)"/><rect class="cls-13" x="404.31" y="461.45" width="30.5" height="21.1" transform="translate(839.12 943.99) rotate(180)"/><rect class="cls-12" x="106.59" y="505.78" width="26.98" height="3.84"/><rect class="cls-12" x="62.39" y="491.63" width="9.82" height="3.06"/><rect class="cls-13" x="527.29" y="466.85" width="18" height="10.29" transform="translate(1072.58 943.99) rotate(180)"/><rect class="cls-13" x="566.56" y="464.58" width="18" height="10.29" transform="translate(1151.11 939.46) rotate(180)"/><rect class="cls-13" x="613.85" y="463.34" width="24.38" height="13.93" transform="translate(1252.09 940.62) rotate(180)"/><rect class="cls-13" x="692.09" y="490.71" width="45.19" height="18.6" transform="translate(1429.37 1000.02) rotate(180)"/><rect class="cls-13" x="486.3" y="490.09" width="45.19" height="18.6" transform="translate(1017.8 998.78) rotate(180)"/><rect class="cls-13" x="763.15" y="486.29" width="35.05" height="18.6" transform="translate(1561.34 991.19) rotate(180)"/><rect class="cls-13" x="958.46" y="488.86" width="35.05" height="18.6" transform="translate(1951.98 996.31) rotate(180)"/><rect class="cls-13" x="790.92" y="462.77" width="23.73" height="12.59" transform="translate(1605.56 938.13) rotate(180)"/><rect class="cls-13" x="940.79" y="463.48" width="23.73" height="12.59" transform="translate(1905.31 939.55) rotate(180)"/><rect class="cls-13" x="981.65" y="463.48" width="42.21" height="12.59" transform="translate(2005.51 939.55) rotate(180)"/><rect class="cls-13" x="835.01" y="483.72" width="23.73" height="10.38" transform="translate(1693.74 977.82) rotate(180)"/><rect class="cls-13" x="896.55" y="484.82" width="23.73" height="10.38" transform="translate(1816.83 980.03) rotate(180)"/><rect class="cls-13" x="648.29" y="460.93" width="47.32" height="10.38" transform="translate(1343.89 932.24) rotate(180)"/><rect class="cls-13" x="741.22" y="463.27" width="8.6" height="12.49" transform="translate(1491.05 939.02) rotate(180)"/><rect class="cls-13" x="824.63" y="464.54" width="8.6" height="12.49" transform="translate(1657.86 941.57) rotate(180)"/><rect class="cls-13" x="873.3" y="466.82" width="8.6" height="12.49" transform="translate(1755.2 946.14) rotate(180)"/><rect class="cls-13" x="922.73" y="465.35" width="8.6" height="12.49" transform="translate(1854.07 943.2) rotate(180)"/><rect class="cls-13" x="572.8" y="484.87" width="18" height="10.29" transform="translate(1163.6 980.03) rotate(180)"/><polygon class="cls-14" points="1010.65 437 1008.1 436.25 992.05 435.22 979.61 437 950.26 437 933.68 436 907.02 436 901.88 437 887.9 437 883.25 436.28 878.69 435.22 864.08 437 843.29 437 828.93 436 794.54 436 788.46 437 620.9 437 608.78 433.97 548.95 434.66 526.31 435.51 497.04 434 456.83 434 445.39 437 429.13 437 415.91 434.18 408.26 437 354.18 437 353.66 434.95 341.47 437 331.97 437 317.51 433.47 304.43 437 267.21 437 260.28 435.85 247.32 436.16 239.02 432.04 211.99 435.94 159.59 434.84 129.79 436.29 117.72 431.97 111.89 435.03 105.01 437 82.96 437 0 437 0 453 0.1 453 1024 453 1024 437 1010.65 437"/><polygon class="cls-15" points="1024 453 1024 436.61 1024 436.61 1024 453 1023.95 453 1024 453"/><rect class="cls-13" x="386.1" y="496.41" width="18" height="10.29" transform="translate(790.21 1003.1) rotate(180)"/><rect class="cls-13" x="565.14" y="503.98" width="29.78" height="5.54" transform="translate(1160.06 1013.49) rotate(180)"/><g class="cls-16"><polygon class="cls-17" points="651.09 436.34 652.09 437.57 658.2 438.58 662.52 438.02 664.53 437.11 668.21 437.01 668.42 436.37 651.09 436.34"/><polygon class="cls-17" points="678.27 436.57 679.27 437.81 685.38 438.82 689.7 438.25 691.71 437.34 695.38 437.24 695.59 436.6 678.27 436.57"/></g><polygon class="cls-10" points="599 388 630.83 390.38 648.29 395 693.33 390.38 706.33 393.33 698.33 383.33 702.48 377.33 683.25 371.93 656.83 379 630.83 383.47 599 388"/><polygon class="cls-10" points="645 370 668 370 676 366 663.36 361.04 634.48 366.44 645 370"/><polygon class="cls-10" points="149.48 176.43 159.92 278.6 159.77 294.24 188.41 315.07 195.43 314.59 195.59 322.13 201.91 327.28 203.63 337.57 201.91 349.46 251.43 380.46 310.54 388 387.23 383.93 422.33 385.47 439.61 381.6 399 371 399 366 430.89 358.22 472 355.84 455.42 345.39 408.33 342.58 365.48 331.21 262.33 317.55 236.63 284.67 198.36 243.67 149.48 176.43"/><polygon class="cls-10" points="150.21 171.97 203.63 246.1 250 291.37 299.65 311.23 362.33 317.55 421.67 316.03 433.23 309.37 393.33 307 338.67 304.05 282.94 283.01 263.31 265.8 216.38 239.79 150.21 171.97"/><path class="cls-10" d="M150.2,172,527.29,442.48S664.05,461,745.52,446Z"/><path class="cls-10" d="M144.06,176.43,282.94,446.77s125.57,12,196.81-6.55Z"/></g></g></svg>