<svg xmlns="http://www.w3.org/2000/svg" viewBox="0 0 841.89 595.28"><defs><style>.cls-1{isolation:isolate;}.cls-2{opacity:0.4;mix-blend-mode:screen;}.cls-3{fill:#fff;}</style></defs><title>Artboard 10</title><g class="cls-1"><g id="Layer_2" data-name="Layer 2"><g class="cls-2"><path class="cls-3" d="M449.41,103.26a5,5,0,1,1-5-5A5,5,0,0,1,449.41,103.26Z"/><path class="cls-3" d="M333.81,302.51a5,5,0,1,1-5-5A5,5,0,0,1,333.81,302.51Z"/><path class="cls-3" d="M373.78,217.22a5,5,0,1,1-5-4.95A5,5,0,0,1,373.78,217.22Z"/><path class="cls-3" d="M549.05,334.56a5,5,0,1,1-5-5A5,5,0,0,1,549.05,334.56Z"/><path class="cls-3" d="M461,350.88a5,5,0,1,1-4.95-5A5,5,0,0,1,461,350.88Z"/><path class="cls-3" d="M633.31,372.88a5,5,0,1,1-5-5A5,5,0,0,1,633.31,372.88Z"/><path class="cls-3" d="M826.36,281.8a5,5,0,1,1-5-5A5,5,0,0,1,826.36,281.8Z"/><path class="cls-3" d="M732.57,169.69a5,5,0,1,1-5-5A5,5,0,0,1,732.57,169.69Z"/><path class="cls-3" d="M821.4,149a5,5,0,1,1-4.95-5A5,5,0,0,1,821.4,149Z"/><path class="cls-3" d="M544.09,166.45a5,5,0,1,1-5-5A5,5,0,0,1,544.09,166.45Z"/><path class="cls-3" d="M732.57,109a5,5,0,1,1-5-5A5,5,0,0,1,732.57,109Z"/><path class="cls-3" d="M109.13,264.21a5,5,0,1,1-5-5A5,5,0,0,1,109.13,264.21Z"/><path class="cls-3" d="M212.4,346.21a5,5,0,1,1-5-5A5,5,0,0,1,212.4,346.21Z"/><path class="cls-3" d="M95.35,56.11a5,5,0,1,1-5-5A5,5,0,0,1,95.35,56.11Z"/><path class="cls-3" d="M129.62,102.46a5,5,0,1,1-5-4.95A5,5,0,0,1,129.62,102.46Z"/><path class="cls-3" d="M333.81,41.89a5,5,0,1,1-5-5A5,5,0,0,1,333.81,41.89Z"/><path class="cls-3" d="M200.23,158.63a5,5,0,1,1-5-5A5,5,0,0,1,200.23,158.63Z"/><path class="cls-3" d="M48.78,92.89a5,5,0,1,1-5-5A5,5,0,0,1,48.78,92.89Z"/><path class="cls-3" d="M70.75,280.05a5,5,0,1,1-5-5A5,5,0,0,1,70.75,280.05Z"/><path class="cls-3" d="M397.75,161.39a11,11,0,1,1-11-11A11,11,0,0,1,397.75,161.39Z"/><path class="cls-3" d="M511.19,375.78a11,11,0,1,1-11-11A11,11,0,0,1,511.19,375.78Z"/><path class="cls-3" d="M344.08,405.85a5,5,0,1,1-5-5A5,5,0,0,1,344.08,405.85Z"/><path class="cls-3" d="M256,422.17a5,5,0,1,1-5-5A5,5,0,0,1,256,422.17Z"/><path class="cls-3" d="M306.22,447.07a11,11,0,1,1-11-11A11,11,0,0,1,306.22,447.07Z"/><path class="cls-3" d="M592.48,294.7a11,11,0,1,1-11-11A11,11,0,0,1,592.48,294.7Z"/><path class="cls-3" d="M782.79,236.28a11,11,0,1,1-11-11A11,11,0,0,1,782.79,236.28Z"/><path class="cls-3" d="M720.87,39.05a11,11,0,1,1-11-11A11,11,0,0,1,720.87,39.05Z"/><path class="cls-3" d="M212.21,272.75a11,11,0,1,1-11-11A11,11,0,0,1,212.21,272.75Z"/><path class="cls-3" d="M717,482.75a5,5,0,1,1-5-5A5,5,0,0,1,717,482.75Z"/><path class="cls-3" d="M757,397.46a5,5,0,1,1-5-5A5,5,0,0,1,757,397.46Z"/><path class="cls-3" d="M583.46,338.87a5,5,0,1,1-5-5A5,5,0,0,1,583.46,338.87Z"/><path class="cls-3" d="M595.44,453a11,11,0,1,1-11-11A11,11,0,0,1,595.44,453Z"/><path class="cls-3" d="M182.52,52.87a11,11,0,1,1-11-11A11,11,0,0,1,182.52,52.87Z"/><path class="cls-3" d="M60.71,178.56a11,11,0,1,1-11-11A11,11,0,0,1,60.71,178.56Z"/><path class="cls-3" d="M390.9,397a5,5,0,1,1-5-5A5,5,0,0,1,390.9,397Z"/><path class="cls-3" d="M561.21,346.21a5,5,0,1,1-5-5A5,5,0,0,1,561.21,346.21Z"/><path class="cls-3" d="M126.25,444a5,5,0,1,1-5-5A5,5,0,0,1,126.25,444Z"/><path class="cls-3" d="M217.36,338.39a5,5,0,1,1-5-5A5,5,0,0,1,217.36,338.39Z"/><path class="cls-3" d="M87.87,459.8a5,5,0,1,1-5-5A5,5,0,0,1,87.87,459.8Z"/><path class="cls-3" d="M414.87,341.14a11,11,0,1,1-11-11A11,11,0,0,1,414.87,341.14Z"/><path class="cls-3" d="M229.33,452.5a11,11,0,1,1-11-11A11,11,0,0,1,229.33,452.5Z"/><path class="cls-3" d="M77.83,358.32a11,11,0,1,1-11-11A11,11,0,0,1,77.83,358.32Z"/></g></g></g></svg>