<svg xmlns="http://www.w3.org/2000/svg" xmlns:xlink="http://www.w3.org/1999/xlink" viewBox="0 0 841.89 595.28"><defs><style>.cls-1{isolation:isolate;}.cls-2{fill:url(#linear-gradient);}.cls-3,.cls-6,.cls-7{fill:#7f7738;}.cls-10,.cls-3,.cls-5{opacity:0.2;}.cls-10,.cls-11,.cls-12,.cls-3,.cls-5,.cls-7,.cls-8{mix-blend-mode:multiply;}.cls-4{fill:#e1f4fd;}.cls-12,.cls-7,.cls-8{opacity:0.3;}.cls-9{fill:url(#linear-gradient-2);}.cls-10,.cls-11,.cls-12{fill:#00aab5;}.cls-11{opacity:0.4;}</style><linearGradient id="linear-gradient" x1="421.14" y1="545.64" x2="421.14" y2="596.15" gradientUnits="userSpaceOnUse"><stop offset="0" stop-color="#c49a6c"/><stop offset="0.24" stop-color="#bf9568"/><stop offset="0.53" stop-color="#b1865c"/><stop offset="0.84" stop-color="#9a6e49"/><stop offset="1" stop-color="#8b5e3c"/></linearGradient><linearGradient id="linear-gradient-2" x1="421.14" y1="535.72" x2="421.14" y2="461.67" gradientUnits="userSpaceOnUse"><stop offset="0" stop-color="#00aeef"/><stop offset="0.13" stop-color="#31bcf0"/><stop offset="0.3" stop-color="#6bccf0"/><stop offset="0.47" stop-color="#9bdaf1"/><stop offset="0.63" stop-color="#c0e4f1"/><stop offset="0.77" stop-color="#dbecf2"/><stop offset="0.9" stop-color="#ebf0f2"/><stop offset="1" stop-color="#f1f2f2"/></linearGradient></defs><title>Artboard 10</title><g class="cls-1"><g id="Layer_2" data-name="Layer 2"><rect class="cls-2" x="-1.22" y="543.75" width="844.71" height="51.53"/><path class="cls-3" d="M820.53,558.44v0l-.07,0h.07l-4-.55c-14.89-3.16-29.58,1.78-44.13,4.21-16.42,2.75-35.79,4.85-53.25,4-30.91-1.57-65.76-13.83-97.5-5.61-31.23,8.09-68.26,19.48-102.9,10.32-15.29-4-30.29-10.19-48.38-9.62-16.67.51-28.83,6.82-46.91,6-35.69-1.69-69.78-10-104.6-13-34.66-3-65.18-.27-97.58,6.1-18.36,3.61-37.07,7.54-56.94,4.78-16.49-2.3-27.36-10-44.14-11.43-17.08-1.49-30.2-1.22-46.14,3.13a178.77,178.77,0,0,1-49.18,6.66,121.22,121.22,0,0,1-26.09-3.05v4.63l3,.57c13.48,2.52,22.84,7.73,38.1,7.62,16.2-.1,27.63-3.65,39.86-8.82,15.81-6.69,27.11-2.83,44.42-1.47,9.46.74,15.15.41,24.08,2.54,6.64,1.58,12.75,3.35,19.06,5,16.38,4.38,31,4.86,49.19,3.27,16.58-1.45,26.75-6.88,42.12-10.74,14.28-3.59,33.21-1.53,48.18-.69a351.53,351.53,0,0,1,46.11,5.46c13.23,2.39,26.67,5.58,40.16,7.72,14.68,2.34,34,4.17,50.17,2.47,15.27-1.63,23.58-9.2,40.08-7.46,15.07,1.58,29,6.23,44.2,8.25,15.45,2.06,33.44.26,49.11-.16,33-.89,59.27-14.69,92.36-14.1,12.12.22,23.73,3.32,35.12,4.77,13.12,1.68,26.87,3.34,40.13,4.05,15.54.82,24.2.79,36.9-4.08,12-4.61,23-3.76,36.2-2.65a2.09,2.09,0,0,0,0-.25h0a2.11,2.11,0,0,0,0,.25c12.55-.67,13.84-3.91,26.13-1.59v-4.63C829.32,557.19,834.28,561.47,820.53,558.44Z"/><path class="cls-3" d="M820.53,573.46v0l-.07,0,.07,0-4-.54c-14.89-3.16-29.58,1.78-44.13,4.21-16.42,2.75-35.79,4.85-53.25,4-30.91-1.57-65.76-13.83-97.5-5.61-31.23,8.09-68.26,19.48-102.9,10.32-15.29-4-30.29-10.19-48.38-9.63-16.67.52-28.83,6.83-46.91,6-35.69-1.69-69.78-10-104.6-13-34.66-3-65.18-.27-97.58,6.1-18.36,3.61-37.07,7.54-56.94,4.78-16.49-2.3-27.36-10-44.14-11.42-17.08-1.5-30.2-1.23-46.14,3.12a178.39,178.39,0,0,1-49.18,6.65,120.6,120.6,0,0,1-26.09-3v4.63l3,.57c13.48,2.52,22.84,7.73,38.1,7.62,16.2-.1,27.63-3.65,39.86-8.82,15.81-6.69,27.11-2.83,44.42-1.47,9.46.74,15.15.41,24.08,2.54,6.64,1.58,12.75,3.35,19.06,5,16.38,4.38,31,4.86,49.19,3.27,16.58-1.45,26.75-6.88,42.12-10.74,14.28-3.59,33.21-1.53,48.18-.7a353.24,353.24,0,0,1,46.11,5.47c13.23,2.39,26.67,5.57,40.16,7.72,14.68,2.34,34,4.17,50.17,2.46,15.27-1.62,23.58-9.19,40.08-7.45,15.07,1.58,29,6.23,44.2,8.25,15.45,2.06,33.44.26,49.11-.16,33-.89,59.27-14.69,92.36-14.1,12.12.22,23.73,3.31,35.12,4.77,13.12,1.68,26.87,3.34,40.13,4,15.54.83,24.2.8,36.9-4.07,12-4.61,23-3.76,36.2-2.65a2.09,2.09,0,0,0,0-.25h0a2.11,2.11,0,0,0,0,.25c12.55-.67,13.84-3.91,26.13-1.59v-4.63C829.32,572.22,834.28,576.5,820.53,573.46Z"/><path class="cls-4" d="M843.5,538.54V499.88H-1.22V535.3h0v22.48A12.53,12.53,0,0,1,1.91,557,14.51,14.51,0,0,1,11,558.54c6.08,3.21,9.73,9.75,18.28,9.07,7.57-.6,4.19-4.93,5.49-8.11,1.53-3.7,5.35-4.54,11.11-5.43,5.93-.92,11.32-2.21,14.71-4.46,1.35.07,2.81.13,4.35.16l.61,0c18.3.45,19.31,10.37,25.91,18.62l.63.75c7.32,8.08,20.68,6.35,21.66-3.34.89-8.61,2.28-15.76,19.81-14,2.6.26,4.65.53,6.54.61a19.5,19.5,0,0,0,5.25-.38h0a27.8,27.8,0,0,0,3.79-1.16c1.7-.66,3.19-1.44,4.69-2.1a12.73,12.73,0,0,1,9.62-.87c10.32,3,14.05,15.16,20.45,20.76l.35.3c11.56,9.5,29.89,8,32.15-4.38,1.74-9.6,4.86-15.94,23-14.81,4.07.25,8.15.56,12.11,1.06,7.68,1,14.9,2.69,20.61,6.26,3.27,2.06,7,5.38,11.58,6.88a15.56,15.56,0,0,0,4.15.76c8.12.34,10.44-5.22,13.16-8.9,7.57-10.28,15.76-6.84,29.49-3.4l.27.06c15.37,3.82,9.49,10.52,17.71,17.55a17,17,0,0,0,6.93,3.36c9.5,2.44,22.39-.43,25-6.76,3.17-7.64,5.38-11,14.33-12.15a74.19,74.19,0,0,1,8.63-.51c13-.17,23.93-6.06,32.71,2.64,3,3,5.71,6.22,9,8.93,4.54,3.74,10.29,6.53,19.85,6.56,16.9.05,9.47-14.1,21.65-16.92,2.68-.62,6-.29,9.3.09a48.35,48.35,0,0,0,8.7.55,43.49,43.49,0,0,0,9.71-2.12,63.46,63.46,0,0,1,9.61-2.5c8.72-1.31,13.45,1.4,17.25,5h0c1.3,1.24,2.48,2.57,3.68,3.91a31.76,31.76,0,0,0,6.2,5.71c11.93,7.73,25.35,2.64,32.1-4.73,2.83-3.08,5.37-4.85,11.25-5.67.37.16.54.3.61.46h0c.08.21,0,.43.22.7l6-2.47c7.49-2.2,17.51-4,24.13.06,4.69,2.85,6.87,7.32,10,11.07a20.78,20.78,0,0,0,2.2,2.31c4.46,4,12.31,6.21,19.19,2.79s5.34-9,8.11-13.5c4.63-7.59,13-2.09,21.89-1.57.2-.26.41-.5.62-.75,9.58-11.07,20.36.42,29,10.39,4.51,5.2,8.46,10,11.36,11,14.3,4.83,25.79-6,29.6-12.86,1.58-2.86,2.27-5.69,6.68-6.62a16.19,16.19,0,0,1,2.21-.28c3.68-.21,7.13,1.48,10.66,2.38a13.61,13.61,0,0,0,5.24.44c4.69-.64,6-4.72,10.77-5.16a9.28,9.28,0,0,1,3.4.26c3.55.94,5.44,3.93,7.09,6,.19.24.39.49.61.74,4.4,5.35,12.31,13.57,23.69,12.16,9-1.11,9-6.92,11.4-11.26a8.31,8.31,0,0,1,4.29-4V538.54Z"/><g class="cls-5"><path class="cls-6" d="M358,522.72a262.09,262.09,0,0,1-39.13-.73c-6.42-.55-13.29-.87-19.54-2-3.1-.58-6.32-.67-9.41-1.3A66.12,66.12,0,0,0,278.37,517c-28.07-.83-56.13-1.28-84.22-.72q-8.22.18-16.4.59c-.74-.1-1.48-.22-2.21-.37A67,67,0,0,0,164,514.83c-27.52-.81-55-1.26-82.55-.75A40.46,40.46,0,0,0,70,514.4q-4.92.2-9.84.46a3.43,3.43,0,0,0-.85-4.5c-5.39-4.5-16.92-3.05-24.21-2.24a21.77,21.77,0,0,0-4.87,1.32,12.69,12.69,0,0,1-5.5.62c-4.37-.09-8.65-.35-13-.65a48.83,48.83,0,0,0-4.92.44c-2.21.1-4.43.19-6.63.31l-1.38.09v15.92c12.68,0,25.36-.12,38-.44,7.13-.17,14.25-1,21.38-1.29s14.31-.47,21.48-.55c8.16-.1,16.32,0,24.47.21-9.58,1-19.11,1.84-28.52,3.8-13.05,2.71-26.28,5.85-40.05,6.27-.06,0-.06.07,0,.07,12-.38,23.56-2.19,35.41-3.51a371.5,371.5,0,0,1,40-2.38l10.95-.05c3.72.87,7.49,1.66,11.32,2.24a143.64,143.64,0,0,0,14.4.93,41.15,41.15,0,0,1,9.36,1.2c2.16.63,6,.8,7.77,1.84,3.32,2,10.15,2,14.36,2.15,5.24.23,10.31,0,15.45,0,6.92,6.17,18.78,5.24,29.45,5.26a355.85,355.85,0,0,0,36.4-1.75c5.64-.57,14.05-1,19-3.23,5.55-2.57,11.59-3.32,18.11-4,6.9-.68,13.44-1.93,20.45-2.3,5.67-.31,12,0,17.39-1.26.24,0,.33-.35,0-.39-5-.7-10.37,0-15.44.3a154.56,154.56,0,0,1-19.13.09c-3.1-.22-6.44.06-9.57.11a41,41,0,0,1-7.84-.8c1.57-.14,3.13-.35,4.68-.54,3.11-.39,6.23-.4,9.34-.68a206,206,0,0,1,21.38-.54c13.69.2,26.29.47,39.57-2.19C359.78,524.47,359.71,522.6,358,522.72Zm-163.31,8.35c-4.56-.17-9.14-.67-13.74-.84-4.27-.16-11.53-1.24-15.42.31-1.94.77-4.83.33-7,.51a38.69,38.69,0,0,1-10.68-.82,77,77,0,0,1-8.2-2.11q5.76-.09,11.51-.22c7.14-.18,14.26-1,21.39-1.3s14.31-.47,21.47-.55c5.64-.06,11.29,0,16.92.05C204.74,526.47,198.92,527.59,194.71,531.07Z"/><path class="cls-6" d="M818.49,523.4c-3.79-1.83-7.7-2.25-12.16-3-4.66-.73-9.09-1.59-13.87-2.09-5-.54-10.08-.67-15.1-1.13-4.06-.37-7.46-1.93-11.62-2.09-2.62-.1-5.12-.06-7.74.07-10.42.5-21,.94-31.33,2.1-11,1.25-21.95,2.52-33,3.46l-1.11.08a146.42,146.42,0,0,0-21.92,1.42c-12,.6-24.07,1-36.13,1.3a234.32,234.32,0,0,1-29.4-.82c-10-.94-19.73-2.61-29.69-3.63-.86-.08-1.08.95-.25,1.09,8.66,1.39,17.49,1.84,26.32,2.59,10.93,1,21.6,2,32.43,3.39,5.45.72,11,1.34,16.55,1.84-1.65.15-3.41.19-4.59.27-2.5.16-5,.26-7.51.34-10.21.32-20.41-.45-30.6.28-5.07.36-10.22,1-15.31,1s-10-.18-15-.16c-.76,0-.75.75,0,.83,5,.54,10,.82,15,1.06,5.45.27,10.91,1.26,16.28,1.95,9.62,1.23,19.79,1.87,29.57,2.31,5,.22,10,.19,15,.27,2.42,0,4.77,1,7.11,1.34s4.67.69,7,.95c10.29,1.12,20.62-.61,30.84-1.41s21-2.28,31.32-1.81c10.11.45,20.15,1.38,30.26,1.81s20.35.47,30.52.06a138.6,138.6,0,0,0,14.16-1.48c2.49-.36,5-.79,7.43-1.22,3.16-.56,5.84-2,9.09-2.48.71-.11.48-.92-.26-.81-4.72.72-10.17.08-15,.18-5.08.11-10.16-.07-15.25,0-3.72,0-7.45,0-11.17-.1,7.35-.74,14.61-1.76,22-2.59a376.72,376.72,0,0,1,40-2.38h2.25V520.9c-8.3,1.06-16.58,1.71-24.79,2.75A.44.44,0,0,0,818.49,523.4Zm-41.17,7.68c-5.81-.2-11.61-.54-17.38-1s-11.58-.94-17.3-1.58c5.14-.24,10.27-.5,15.41-.67s10.57-.29,15.13-2.21,12.05-1.13,17.26-.85c5,.26,9.88.4,14.83.58l2.09.07-1.42.28C796.53,527.69,787,529.86,777.32,531.08Z"/><path class="cls-6" d="M115.46,512.35c7.68.19,15.38.5,23.08.46,8.28,0,16.48-.68,24.77-.91.73,0,.78-.84,0-.83-7.69.21-15.14-.34-22.81-.49-8.33-.15-16.66-.15-25-.18-16.09-.08-31.85.45-47.86,1.51-.06,0-.07.07,0,.07C83.5,511.28,99.63,512,115.46,512.35Z"/><path class="cls-6" d="M190.72,511.73c10.36-.3,20.71-.36,31.07-.26,10.9.09,21.85-.36,32.72.25,10.35.58,20.66,1.22,31,1.58,4.88.17,9.79.08,14.67,0,4.31-.1,9.41.06,13.31-1.31.62-.21.47-.86-.13-1-4-1-8.82-.54-13.07-.58-4.89-.06-9.77-.29-14.65-.55-10.41-.55-20.6-1-31.05-.94-10.26.09-20.53-.48-30.79-.14-11,.37-22,1-33.05,1.59C189.58,510.41,189.48,511.76,190.72,511.73Z"/><path class="cls-6" d="M451.78,518.54c8.44.42,16.87.83,25.32,1.12s16.86.42,25.29.34,17.69-.2,25.62-2.2c.62-.16.55-.75-.11-.82-8.27-.88-17-.39-25.38-.47s-16.87-.46-25.28-.92-16.88-1.1-25.31-1.72c-4.59-.34-11.21-.08-15.28-1.66a22.12,22.12,0,0,0-4.9-.86c-2.57-.34-4.85-1-7.47-1.34-1.95-.23-3.54-1-5.53-1.22l-5.72-.67c-4.61-.54-9.18-1-13.85-1.25-4.12-.25-7.54,2.08-11.58,2.11l-13.61.1c-3.65,0-7.35.63-11,.84-4.13.25-8.5-.12-12.66-.05-3.82.07-7.62.32-11.4.66s-6.59,1.85-9.95,2.93c-.52.16-.18.68.34.64,3.61-.34,7.14.16,10.75-.2,4.54-.45,9.18-.51,13.76-.53,8.32,0,15.75,1.38,23.89,2.13,3.66.34,9.11.19,12.25,1.62,4.14,1.89,8.28,2.43,13.14,2.6,3.87.14,7.78,0,11.64-.09,4.2,0,7.55-.62,11.63-.62,2,0,3.84-.46,5.83-.47a17.48,17.48,0,0,0,4.93-.57c1.69-.42,5,.08,6.81.17Z"/><path class="cls-6" d="M554,529.24c-4.37-.18-8.38-.93-12.73-.9-5,0-10.07,0-15.11.08-9.58.16-19-.67-28.59-.8-9.37-.13-18.76.66-28.12.94-4.39.13-8.79.11-13.18.22-5.14.13-10.17,1.2-15.3,1.27-1.46,0-1.95,1.66-.43,1.89,4.31.66,8.35,1.77,12.68,2.42a115.43,115.43,0,0,0,14.2.85c10,.27,20,.21,30-.35,9.61-.55,18.91-2.44,28.61-2.75,5-.16,10.07-.2,15.11-.27,4.56-.06,8.55-1,13-1.78C554.73,530,554.64,529.27,554,529.24Z"/><path class="cls-6" d="M589.35,513.79c9.7-.08,19.37-.75,29.06-1.06,9.31-.3,18.62-.46,27.94-.7,9.84-.26,19.56-.93,29.34-1.27,19.81-.68,39.76,2.75,59.53,1.6.73-.05.79-.79,0-.83-9.58-.6-19.4-.3-29-.61s-19.12-.88-28.69-1.68c-4.26-.35-8.37-1.16-12.59-1.52-4.9-.41-9.81-.51-14.74-.62-9.93-.22-19.86-.12-29.8-.14-18.76,0-37.78-.12-56.34-2.07-4.37-.46-8.44-1.95-12.79-2.56-5.1-.7-10.64-.81-15.83-1.05-10.75-.5-21.56-.63-31.5,2.42a3.32,3.32,0,0,0-.12,6.45c8.88,3.13,18.09,3.51,27.87,4.32,4.47.37,8.93.57,13.42.77a94.34,94.34,0,0,0,15.23-.93C569.71,513.23,579.89,513.88,589.35,513.79Z"/><path class="cls-6" d="M689,505.85c4.71,1.53,9.29,1.74,14.53,1.95,5.67.24,11.22.79,16.88,1s11.61.46,17.42.64l7.78.22c2.47.06,8.7-.52,10.55.57,1.59,1,3,1,5,1.15,3.82.31,6.27,1.26,9.72,2.3,5.3,1.59,12.12,1,17.83,1.11a158.32,158.32,0,0,0,17.84-.82c5.09-.52,10.57-1.2,14.58-3.47,2.37-1.34,1.24-3.77-.75-4.9-3.58-2-9.31-2.57-13.83-3-5.85-.61-12-.78-17.92-.89-4.52-.08-11.78-.77-16,.44-2.09.59-5.19,2.2-7.42,2.33s-6.31-.22-8.09.74c-3.54,1.92-12.91.64-17.26.54-5.82-.12-11.63-.29-17.44-.48s-11.25.14-17,.13c-5.5,0-10.89-.34-16.35-.11C688.64,505.33,688.58,505.72,689,505.85Z"/><path class="cls-6" d="M15.81,536.67c-4.56,0-9.11.09-13.68.11-.21,0-.28.24-.07.27,4.55.61,8.69,1.64,13.09,2.55,3.2.66,8,1.07,10.79-.31.55-.28.59-.79,0-1.08C23.37,536.81,19.08,536.67,15.81,536.67Z"/><path class="cls-6" d="M833.08,512.14c-6.45,2-11.88,5.18-18.26,7.24-1.13.37-.4,1.52.74,1.41,7-.7,13.22-2.82,20.07-3.95a76.75,76.75,0,0,1,7.87-.89v-5.7A48.41,48.41,0,0,0,833.08,512.14Z"/></g><path class="cls-7" d="M836.06,531.14c-2.85-2.72-8.55-2.65-13-3.2-5.26-.64-10.55-1.2-15.84-1.72q-3.81-.36-7.64-.69c-4.32-.38-7.06-1.65-10.43-3.3a53.58,53.58,0,0,0-17.66-4.94c-6-.73-12.08-1.63-18.2-1.91a70.5,70.5,0,0,0-19.17,1.42c-2.3.49-5.07.19-7.44.18-3.08,0-6.16,0-9.24.1a107.88,107.88,0,0,0-17.3,1.41c-11.32,2.06-22.89,2.19-34.54,2.79-5.48.28-10.91-.38-16.37-.26-6.23.13-13.46.84-19.52-.18-2.57-.43-4.55-1.43-7.23-1.64-3.17-.25-6.32-.45-9.5-.6-6.32-.29-12.68,0-19,.06h-.41a49.55,49.55,0,0,1,4.93-1.45c3.58-.76,6.8-2.14,10.34-2.82,3.88-.76,8.05-.6,12.05-.57s7.47-.81,11.35-.75c3.71.06,5.88.71,9.54.19.52-.08.54-.57.17-.76a14.5,14.5,0,0,0-5.85-1.81,37,37,0,0,1-7.89-1.27,11.78,11.78,0,0,0-3.39-.91c-3.78-.18-7.56-.26-11.36-.27-4.17,0-7.51-.91-11.38-1.78-3.3-.75-6.95-.84-10.32-1.62-3.69-.84-7.4-.38-11.16-.14-6.92.43-13.86.88-20.75,1.48-14.35,1.26-28.71,3.24-42.81,5.43-7.72,1.2-15.25,2.11-23.19,2.71-7,.54-14.09.79-21.15.83-28.32.18-56-4.46-84.26-5.38-7.25-.23-14.49-1.56-21.73-2s-14.57-.65-21.83-1a118.2,118.2,0,0,0-22.58,1.72c-3.7.58-7.38,1.21-11.05,1.85s-6.77,2.16-10.17,3.44c-2.74,1-3.33,3-2.47,4.71-2.95-.48-5.87-1-8.77-1.62-8.32-1.65-16.09-4.22-24.39-5.32-3.08-1.22-6.32-.77-9.82-.59-4.94.24-9.83.74-14.76,1a167.79,167.79,0,0,1-27.55-.8c-9.37-1-18.93-1.07-28.26-2.33a261,261,0,0,0-28.3-2c-9.65-.24-19.27-.28-28.9.26a98.89,98.89,0,0,0-13.51,1.25c-4.82.94-9.71,2.24-14.64,2.82-9.8,1.16-20.71-.08-30.61-.44s-19.56-.63-29.41-.35c-2.57.08-2.72,2.82-.11,2.91,9.8.32,19.59.57,29.39.81,10,.25,20.79-.27,30.61,1,4.34.58,8.49,1.68,12.83,2.31a100.13,100.13,0,0,0,15.41.66c9.64-.07,19.3,0,28.93.3,18.8.51,37.61.2,56.42-.49,8.79-.32,17.62-1.93,26.34-2.74,4.7-.44,9.41-.73,14.13-1,2.46-.12,5.1,0,7.58-.2,8.53,3.13,17.09,6.26,26.56,7.87,5.42.93,10.93,1.47,16.41,2.18l-1.36.11c-10.87.85-21.53,1.43-32.48,1.46s-22.49.57-33.34-.54c-11.77-1.19-23.38-2.85-35.27-3.42-21.57-1-44.45,2.37-64.86,6.94-4.52,1-9,1.9-13.66,2.62-6.66,1-12.13.22-18.46-1.24-9.9-2.29-19-5.5-29.61-5.74-3-.07-2.95,3-.13,3.32,10.36,1.15,20.63,2.6,30.94,4s20,3.74,30.39,4.55c4.76.37,9.54-.19,14.25-.59,5.45-.48,10.93-.84,16.36-1.36,11.55-1.11,23.14-1.4,34.71-2.27,11.11-.84,22.12-2,33.24-2.72,11.62-.76,23.63-.18,35.32-.24,10.84,0,21.61-.19,32.45,0,5.77.09,11.47,0,17.23-.19a66.84,66.84,0,0,0,11.51-1c4.47.2,8.91.19,13.46.08,3-.08,5.85-.38,8.78-.72a19.94,19.94,0,0,0,4.5-.89,20.41,20.41,0,0,1,3.72-1.37c13.2-.77,26.41-1.21,39.59-2.13,1.43-.1,1.58-1.7.07-1.66-12.58.3-25.08,1.28-37.67,1.3-2.77,0-4.07-.6-6.5-1.33s-5.88-.71-8.58-1-5.38-.37-8.12-.43c2.17-.28,4.32-.61,6.42-1a194.81,194.81,0,0,1,19.48-2.86c7.82-.69,15.62-2.14,23.56-2A384,384,0,0,1,434.26,517c13.27,1.76,26.46,3,40,3.51,6.47.22,12.94.33,19.41.5s13-.18,19.34.29l-.71.11c-9,1.43-17.59,3.74-26.79,4.75-4.54.5-9.07.77-13.48,1.64-5,1-10.63.19-15.66-.21-5.36-.43-10.4-1.67-15.62-2.44-4.79-.71-9.63-1.27-14.46-1.8-3.07-.34-3.4,3.43-.13,3.6,9.47.46,18.92.93,28.35,1.6,10.27.73,19.21,3.88,29.17,5.29a111.4,111.4,0,0,0,26.19.81c4.32-.41,10.26-.63,13.88-2.51s8.49-3.93,8.65-7.45a2.79,2.79,0,0,0-1.14-2.42c9,0,18.18-.49,27-.71,2.46-.06,4.92-.19,7.38-.33a60.2,60.2,0,0,1-7.17,2c-3.22.58-3.5,4.2-.14,4.8,5.76,1,10.47,3.26,16.49,3.71,5.73.44,11.52.35,17.27.25,11.3-.19,25.28.57,35.63-2.9,5.26-1.76,11-1.86,16.74-2.36,6.08-.52,11.92-1.55,18-2.19,11.45-1.22,24.43-2.17,35.85-.69,11.23,1.46,22.58,1.81,33.92,2.92,1,.1,3.73,1.55,4.84,1.95a39.92,39.92,0,0,0,9.75,2.23c6.76.74,13.38,1.06,20.21,1.25,5.63.16,11.91.24,17.29-1,2.82-.68,5.56-1.63,8.33-2.4,3.25-.9,7.3,0,10.62.34q9.25.94,18.41,2.2c4.52.61,10,2.38,14.24.68A.42.42,0,0,0,836.06,531.14Z"/><g class="cls-8"><path class="cls-6" d="M64.93,549.77c-1.54,0-3-.09-4.35-.16-3.39,2.25-8.78,3.54-14.71,4.46-5.76.89-9.58,1.73-11.11,5.43-1.3,3.18,2.08,7.51-5.49,8.11-8.55.68-12.2-5.86-18.28-9.07a21.43,21.43,0,0,1,7.13,1.86c2.34,1.05,6.76,4.17,10.12,3.23s2.2-5,2.61-6.74c.68-3,3.06-4.73,7.46-6,6.09-1.69,18.29-4.7,24.71-2.58C64.37,548.8,64.92,549.28,64.93,549.77Z"/><path class="cls-6" d="M153.86,548.8c-1.5.66-3,1.44-4.69,2.1a27.8,27.8,0,0,1-3.79,1.16h0c-1.76.11-3.51.21-5.25.38-1.89-.08-3.94-.35-6.54-.61-17.53-1.77-18.92,5.38-19.81,14-1,9.69-14.34,11.42-21.66,3.34,4.84,1,10.18,1.5,12.12-1.6,2.18-3.46,1.8-8.1,3.15-11.79,1.54-4.18,5-6.81,12.32-7,6-.18,11.16,2.32,17,.62,3.26-1,5.84-2.64,9.71-2.6A17.2,17.2,0,0,1,153.86,548.8Z"/><path class="cls-6" d="M251.59,550.86c-4-.5-8-.81-12.11-1.06-18.19-1.13-21.31,5.21-23,14.81-2.26,12.37-20.59,13.88-32.15,4.38l-.35-.3a1.64,1.64,0,0,1,.68-1.91c2.34-1.63,6.31.62,8.3,1.45,7,2.92,11.1.8,13.12-3.89,2.21-5.1,1.36-9.8,8.24-13.69,5.43-3.07,14.09-7.06,21.82-5.86C242.68,545.81,248.31,547.23,251.59,550.86Z"/><path class="cls-6" d="M177.93,551.32c.13,1.14,2.15,11.47,7.49,8.26,3-1.82-2.78-7.57-4.82-9.09Z"/><path class="cls-6" d="M89,551.32c-6.52.25-2.15,7.43,2,7.28s2.07-5.22-.69-6.05Z"/><path class="cls-6" d="M7.36,552.14c-.36-.06.07-.4-.69-.18-1.65,2.19,5.84,6.4,9.08,5.07,2.85-1.18-4.05-4.14-5.71-5.09Z"/><path class="cls-6" d="M265.89,547.39c-4.28-.31,1.39,5.84,5.53,3.34,2.24-1.35-1.31-4.58-4.19-4Z"/><path class="cls-6" d="M278.27,549.67c-3.63,1.54-1.56,6.71,3.17,6.65s2.22-4.51.17-5.83Z"/><path class="cls-6" d="M330.58,552.46c-13.73-3.44-21.92-6.88-29.49,3.4-2.72,3.68-5,9.24-13.16,8.9a15.56,15.56,0,0,1-4.15-.76c-2.77-4,9.66-6.8,12.47-9.45,4.93-4.65,4.38-9.1,15.46-8.81l3.35-.62c5.26.47,10.45,1.59,14.13,4.09C331.44,550.72,331.91,551.88,330.58,552.46Z"/><path class="cls-6" d="M345.49,556.06c-1.91,2,.79,7.91,5.55,7.44,5.18-.51,1-6.74-2.21-7.64Z"/><path class="cls-6" d="M394.83,554.52c-8.95,1.17-11.16,4.51-14.33,12.15-2.62,6.33-15.51,9.2-25,6.76.44-1.75,6.33-2.56,8.31-2.91,3.18-.57,8.63-.74,10.94-2.42,2-1.48,1-3.75,1-5.52-.05-5.76,4.73-8.39,13.56-9.41h3.34A8.87,8.87,0,0,1,394.83,554.52Z"/><path class="cls-6" d="M415.39,547.39c-2.59.05-7.58,1.64-8.34,3.28-1.14,2.43,4.42,2,7.05,1.62,3.52-.54,12.31-5.41,4-5.51Z"/><path class="cls-6" d="M426.76,547c-3.34-.23-2.58,1.86-.22,2.4,2.76.64,5.89-1.31,2.9-2Z"/><path class="cls-6" d="M496,555.31c-3.33-.38-6.62-.71-9.3-.09-12.18,2.82-4.75,17-21.65,16.92-9.56,0-15.31-2.82-19.85-6.56,1.2-1.27,3.63-2,6.25-2,3.84,0,7.15,1.79,10.95,1.7,4.36-.11,7.13-2.57,9.05-4.72,2.08-2.34,2.86-5.91,6.11-7.76,3.55-2,9.24-1,13.43-.45l4.68-.42C496.37,553.42,496.56,554.47,496,555.31Z"/><path class="cls-6" d="M441.14,553.17c-1.31,2.24,3.1,8.09,7.59,5.49,3.51-2-3.13-5.32-5.25-6.52Z"/><path class="cls-6" d="M448.84,549.67a7.48,7.48,0,0,0-.95,0c-3.36,4.32,8.78,1.65,2.28-.65Z"/><path class="cls-6" d="M595.1,556c-.07-.16-.24-.3-.61-.46-5.88.82-8.42,2.59-11.25,5.67-6.75,7.37-20.17,12.46-32.1,4.73a31.76,31.76,0,0,1-6.2-5.71c6.42-3,13.38,3.26,19.81,3.35,10,.14,11.35-5.13,16.38-8.93,2.28-1.73,7.66-4.41,11.66-3.4C595.75,552,595.77,554,595.1,556Z"/><path class="cls-6" d="M541.26,556.28c-3.8-3.64-8.53-6.35-17.25-5a63.46,63.46,0,0,0-9.61,2.5c-1.4-2.92,7.1-5.49,10.4-5.87a22.57,22.57,0,0,1,14.67,3.45l2.35.41C542.41,553.18,542.61,555.3,541.26,556.28Z"/><path class="cls-6" d="M550.84,551.32c-3.79-.26-2.61,3.56,1.8,3.71,4.56.16,5.61-3.53,1.55-4.13Z"/><path class="cls-6" d="M512.38,546.36c-2.54-1.32-9.75,1.37-7.14,2.9s8-1.18,8.81-2.69Z"/><path class="cls-6" d="M687.47,554.62c-.21.25-.42.49-.62.75-8.91-.52-17.26-6-21.89,1.57-2.77,4.52-1.15,10-8.11,13.5s-14.73,1.22-19.19-2.79a20.78,20.78,0,0,1-2.2-2.31c3.46-.49,10.2,1.48,13.37.84l.68-1.24a8.69,8.69,0,0,0,6.26-3.87c3.49-5.15,3.5-10.32,14.05-11.72C677.92,548.28,684.33,550.41,687.47,554.62Z"/><path class="cls-6" d="M632.78,553.17c-.31,2,3.3,9.24,8.05,5.87,3.67-2.59-3.77-7-7.38-7.72Z"/><path class="cls-6" d="M625.76,546.77c-2.68-.18-2,1.9.28,2,2.44.16,3.33-2,1.39-2.24Z"/><path class="cls-6" d="M764.14,556.49c-4.41.93-5.1,3.76-6.68,6.62-3.81,6.86-15.3,17.69-29.6,12.86-2.9-1-6.85-5.76-11.36-11,3.62-1.23,8.58.18,12,1.09,9.57,2.5,15.8,3.39,20.13-3.34,1.45-2.26,2.62-5.45,6.42-6.68C757.9,555.17,761.16,555.7,764.14,556.49Z"/><path class="cls-6" d="M715.73,553.79c-3.41,1.57,2.16,6.26,5.66,4.8,3.25-1.36-2.75-6.42-5.66-5.42Z"/><path class="cls-6" d="M727.1,561.84c-2.66,1,0,3.94,2.81,2.85,2.6-1-.53-4-3.14-3.26Z"/><path class="cls-6" d="M839.21,561.73c-2.39,4.34-2.42,10.15-11.4,11.26-11.38,1.41-19.29-6.81-23.69-12.16a11.62,11.62,0,0,1,5.3-.1c6.07,1.19,11.72,7.63,18.63,4,2.26-1.17,3.18-4.8,5.69-5.47C836,558.68,837.86,560.31,839.21,561.73Z"/><path class="cls-6" d="M804.36,553.17c-4.41.91-.52,4.92,3.62,4.11,5.25-1-.62-6.64-3.62-5.34Z"/><path class="cls-6" d="M796.42,554.13a9.28,9.28,0,0,0-3.4-.26c-4.78.44-6.08,4.52-10.77,5.16a13.61,13.61,0,0,1-5.24-.44,3.39,3.39,0,0,1,.76-1c2-1.8,5.31-1.92,7.17-4s3.48-4.14,7.71-2.36l3.35.2C797,552.52,797,553.37,796.42,554.13Z"/><path class="cls-6" d="M769.91,550.49c-2.2.9.67,3.62,3.22,2.79,2.75-.89-.17-3.39-2.55-3Z"/><path class="cls-6" d="M829.11,555.24c-2.45-.57-6.19,3.19-1.15,3.11,2.57,0,8.13-3.64,3.82-3.94Z"/></g><path class="cls-9" d="M841.17,402.51h0a18.78,18.78,0,0,0-3.35-.48h0a43.13,43.13,0,0,0-13.06,1.71c-13.11,3.68-15.67,20.1-12.35,31.2-2.94.68-4,2.13-4.31,4.42a13,13,0,0,0,0,2.28c-5.73-1-13.82-1.84-18.57,2.2a10,10,0,0,0-2.37,3c-3.46,6.63.62,15.41,4.56,20.93-3.61-.27-7.86.52-9.26,4.46-3.82-1-6,1.82-7.1,5.09-6.36-10.93-18.4-15.11-30.76-13.06a28.7,28.7,0,0,0-7.89,2.43h0a13.74,13.74,0,0,0-7.08,7c-1.86,4.67.18,9.53,2.26,13.8l.52,1.06c-2.32-.72-4.1.13-5.72,1.51l0,0c-.42.35-.83.75-1.24,1.15a9,9,0,0,0-.51-2.53c-3.85-10.93-27.63-14.19-26.24.18-3.75-4.43-6.86.42-6.76,4.43-6.75-5.7-14.24-10.16-23.41-9.91-6.86.19-14.79,2.89-18.32,9a13.68,13.68,0,0,0-1.27,2.95l-3.34-4c-.09.3,0,.64-.06,1a2.78,2.78,0,0,1-.9-.65c-1-1.11-1.11-2.84-2.39-3.84a6,6,0,0,0-4-.85h0c-.54,0-1.06,0-1.57,0,0-.31-.09-.6-.13-.89h0c-.14-.88-.29-1.67-.48-2.39h0c-.68-2.62-1.88-4.27-4.78-6-4.44-2.68-5.74-7-9.17-10.81-7.15-7.92-18.62-7.2-27.74-3.37C587.77,466.17,580.16,471,581,479c-3.93-3.62-10-4.7-15.73-3.71h0c-7.11,1.24-13.72,5.66-15.19,12.38.61-3.29.85-9.75-.83-14.37-1.14-3.13-3.16-5.43-6.54-5.32.15-8.37-13.82-5.14-17.35-1.41-3.8-5.38-8.56,1.58-12.48-1.7-3.12-2.61-3.78-6.11-8.71-6.22a10.37,10.37,0,0,0-8.28,4.26c3.22-7.49-.48-12.94-7-17.11-4.86-3.13-12.13-6.47-17.37-2.4-2.55-3.67-4.46-1.8-8-1.09,1.95-4.51,3.88-9.19,4-14.18.28-9.34-5.76-17.43-13.44-22.23-.69-.43-1.39-.83-2.1-1.21a31.68,31.68,0,0,0-9-3.13c-7.14-1.35-14.51-.38-21.88,1.13-.72-.35-1.5,0-2.33-.16h0a18.64,18.64,0,0,0-3.35-.48h0a43.09,43.09,0,0,0-13.06,1.71c-13.11,3.68-15.68,20.1-12.35,31.2-2.94.68-4.05,2.13-4.31,4.42a13,13,0,0,0-.05,2.28c-5.73-1-13.81-1.84-18.56,2.2a10,10,0,0,0-2.37,3c-3.46,6.63.61,15.41,4.56,20.93-3.61-.27-7.86.52-9.26,4.46-3.82-1-6,1.82-7.1,5.09-6.36-10.93-18.41-15.11-30.76-13.06a28.7,28.7,0,0,0-7.89,2.43h0a13.8,13.8,0,0,0-7.09,7c-1.85,4.67.18,9.53,2.27,13.8.17.36.35.71.52,1.06-2.32-.72-4.1.13-5.73,1.51l0,0c-.42.35-.83.75-1.24,1.15a9.32,9.32,0,0,0-.51-2.53c-3.86-10.93-27.63-14.19-26.24.18-3.75-4.43-6.86.42-6.76,4.43-6.75-5.7-14.24-10.16-23.41-9.91-6.86.19-14.79,2.89-18.32,9a13.68,13.68,0,0,0-1.27,2.95l-3.34-4c-.09.3,0,.64-.06,1a2.78,2.78,0,0,1-.9-.65c-1.05-1.11-1.12-2.84-2.4-3.84a6,6,0,0,0-4-.85h0c-.54,0-1.06,0-1.58,0,0-.31-.08-.6-.13-.89h0a22,22,0,0,0-.47-2.39h0c-.69-2.62-1.88-4.27-4.78-6-4.44-2.68-5.74-7-9.17-10.81-7.15-7.92-18.62-7.2-27.74-3.37-6.5,2.72-14.11,7.57-13.25,15.53-3.92-3.62-10-4.7-15.72-3.71h0c-7.1,1.24-13.71,5.66-15.18,12.38.61-3.29.84-9.75-.83-14.37-1.15-3.13-3.16-5.43-6.54-5.32.15-8.37-13.83-5.14-17.35-1.41-3.81-5.38-8.56,1.58-12.48-1.7-3.12-2.61-3.78-6.11-8.71-6.22a10.37,10.37,0,0,0-8.28,4.26c3.22-7.49-.48-12.94-7-17.11-4.87-3.13-12.13-6.47-17.38-2.4-2.55-3.67-4.45-1.8-8-1.09,1.94-4.51,3.88-9.19,4-14.18.27-9.34-5.76-17.43-13.45-22.23-.68-.43-1.38-.83-2.09-1.21a31.68,31.68,0,0,0-9-3.13c-7.14-1.35-14.51-.38-21.88,1.13v97.15H843.5V402.67C842.79,402.32,842,402.71,841.17,402.51Z"/><path class="cls-10" d="M214.06,486.06a44.14,44.14,0,0,0-16.88-4c-1.05-7.35-12-8.62-10.69,0-10-2.76-19.4,4.16-23.31,13.51-4.65-10.2-25.35-13.08-31.19-2.65-1.67-4.93-8.3-7.72-12.9-9-6.63-1.86-9.59.61-12.25,6.66-10-6.57-15.93-12.88-28.15-14.74-5.15-.78-17-2.81-19.32,3.63.31-17.71-16.51-27.2-32.49-22.93,6.09-10.05,5.23-20.47,4-31.78C29.8,414.11,27,407,20.66,401.54a31.68,31.68,0,0,1,9,3.13c8.65,4.57,15.84,13.27,15.54,23.44-.14,5-2.08,9.67-4,14.18,3.52-.71,5.42-2.58,8,1.09,5.25-4.07,12.51-.73,17.38,2.4,6.5,4.17,10.2,9.62,7,17.11a10.37,10.37,0,0,1,8.28-4.26c4.93.11,5.59,3.61,8.71,6.22,3.92,3.28,8.67-3.68,12.48,1.7,3.52-3.73,17.5-7,17.35,1.41,8.36-.26,8.39,14.17,7.37,19.69,2.66-12.16,22.14-16.78,30.91-8.67-.86-8,6.75-12.81,13.25-15.53,9.12-3.83,20.59-4.55,27.74,3.37,3.43,3.79,4.73,8.13,9.17,10.81C212.5,479.87,213.42,481.93,214.06,486.06Z"/><path class="cls-11" d="M222.19,491.65c0,.29,0,.58,0,.86a19.15,19.15,0,0,0-6.4-5.55,6,6,0,0,1,4,.85C221.07,488.81,221.14,490.54,222.19,491.65Z"/><path class="cls-11" d="M363.52,488.11v-.06l0,0C363.72,488.28,363.71,488.29,363.52,488.11Z"/><path class="cls-10" d="M404.9,430.07c-9.53,1.41-9.8,13.23-10,20.53-5.6.64-25.18,4-13.63,12.44-1.45,4.35,2,8.63,4.15,12.06-8.63.68-21.59,2.88-21.86,12.95-5.13-2.72-9.6.32-12.7,4.48C346.7,477.18,313,473,322.64,490.72a120,120,0,0,0-13.17-3.22c-2.09-4.27-4.12-9.13-2.27-13.8,2.33-5.85,9.26-8.5,15-9.45,12.35-2.05,24.4,2.13,30.76,13.06,1.07-3.27,3.28-6.13,7.1-5.09,1.4-3.94,5.65-4.73,9.26-4.46-3.95-5.52-8-14.3-4.56-20.93,3.84-7.35,14.08-6.39,20.93-5.19-.18-3.62.53-5.83,4.36-6.7-3.33-11.1-.76-27.52,12.35-31.2,4.48-1.25,11.37-2.47,16.41-1.23-7,2.85-16,7.31-18,11.78C399.13,418.06,401.69,427.58,404.9,430.07Z"/><path class="cls-10" d="M94.23,499.82H76.65c-2.74-3.14-5.53-4.68-7.43-1.26-1.15-5.68-11.39-7.82-15.91-8.65a35.52,35.52,0,0,0-25.75,4.65c-1-3.19-2.23-6.05-5.33-2.24-.9-4.45-3.73-3.08-6.7-1.68-1.64-8.22-5.24-15-9.6-22A27.83,27.83,0,0,0-1.22,461v-3.38c9.79,3.1,16.87,10,16.6,22.42,2.11-2.27,4.31-3.55,6.23-3.77,3-.34,5.38,1.95,5.69,7.24,3.1-5.05,7.79-2.28,6.62,3.11,9.69-5.82,30.93-7.13,35.59,6,4.93-6.4,11.43-4.65,17.15-.33A44.64,44.64,0,0,1,94.23,499.82Z"/><path class="cls-10" d="M421.14,457.51v3.07a4.92,4.92,0,0,0-3.63-.8c-2.66.44-5.1,2.26-7.15,3.92s-4.44,3.94-4.46,6.88c0,3.84,3.26,7.27,5.55,10-4.67-.21-3.25,6.58-2.59,9.34-5.52-.08-8.67,2-6.34,7.59-4.37-1.4-11.54-.14-16.65,2.27H369.54c3.47-5.39,13.09-7.93,18.66-5.82a5.76,5.76,0,0,1-1.41-3.24c-.13-2.55,2.46-4.06,6-2.64a3.86,3.86,0,0,1,6.55-1.12c-7.76-10.51-.9-22.28,8.59-30.36a16.68,16.68,0,0,1,6-1,10.14,10.14,0,0,1,2.11.31,8.68,8.68,0,0,1,1,.3,31.76,31.76,0,0,0,3.16,1Z"/><path class="cls-10" d="M302.49,488.71c-4.25-2.39-10.33-.25-11.75,4.58-2.66-1.93-13-4.57-12.52,1.49-1.1-.2-3.29-1-4.36-.52s-.87,2.64-.9,3.79a56.79,56.79,0,0,0-21.42-8.16c-8.48-1.51-16.21-1.15-23.78,2.5,3.53-6.09,11.46-8.79,18.32-9,9.17-.25,16.66,4.21,23.41,9.91-.1-4,3-8.86,6.76-4.43C274.86,474.52,298.63,477.78,302.49,488.71Z"/><path class="cls-10" d="M304.29,490.14l-.05-.05,0,0Z"/><path class="cls-10" d="M68.78,469.61l0,0s0,0,0,0S68.67,469.74,68.78,469.61Z"/><path class="cls-12" d="M124.59,480.31c-3.86-9-13.39-17.59-21.72-8.35-4.31-1.92-7.72-.81-12-1.25-3.24-.33-1.82-1.38-4.32-3.22a4.82,4.82,0,0,0-6.87,1.42c-1.71-4.12-8.43-1.3-10.83.68,1.22-8.77-3-26.76-14.94-18.55-4.35-3.93-11.52-3.94-16.66-1.5,2.43-7.49,6-14.16,4.89-22.18-1.14-8.57-5.23-15.12-10.31-21.48,7.69,4.8,13.72,12.89,13.45,22.23-.14,5-2.08,9.67-4,14.18,3.52-.71,5.42-2.58,8,1.09,5.25-4.07,12.51-.73,17.38,2.4,6.5,4.17,10.2,9.62,7,17.11a10.37,10.37,0,0,1,8.28-4.26c4.93.11,5.59,3.61,8.71,6.22,3.92,3.28,8.67-3.68,12.48,1.7,3.52-3.73,17.5-7,17.35,1.41,3.38-.11,5.39,2.19,6.54,5.32C124.51,473.63,123,476.76,124.59,480.31Z"/><path class="cls-12" d="M213.59,483.66c-2.91-2.73-6-6.13-9.08-5.59l-.12.57c-4.48-3.74-7.89-9-13-11.9-6-3.44-12.45-3.18-12.36,4.89-8.27-3.69-20.4,3.35-17.27,12.93-4.46-5.52-12.66-6.25-18.82-9.29,5.74-1,11.8.09,15.72,3.71-.86-8,6.75-12.81,13.25-15.53,9.12-3.83,20.59-4.55,27.74,3.37,3.43,3.79,4.73,8.13,9.17,10.81C211.71,479.39,212.9,481,213.59,483.66Z"/><path class="cls-12" d="M375.38,468c-3.5-.67-3.18,3.79-4.93,5.39-3,2.78-7.48,1.82-6.8,7.64-4.91-2.18-8.9.05-11.88,3.91-5.33-7.17-12.39-11.58-20.79-14.15-5.56-1.71-11.09-3.62-16.68-4.07a28.7,28.7,0,0,1,7.89-2.43c12.35-2.05,24.4,2.13,30.76,13.06,1.07-3.27,3.28-6.13,7.1-5.09,1.4-3.94,5.65-4.73,9.26-4.46-3.95-5.52-8-14.3-4.56-20.93a10,10,0,0,1,2.37-3c.16,2.84.6,5.92,3.25,7.41C364.67,456.07,372.41,463.43,375.38,468Z"/><path class="cls-12" d="M396,429c-2.91,2.28-5.17,5.7-3,9.29a51.31,51.31,0,0,0-7.24,1.07c.26-2.29,1.37-3.74,4.31-4.42-3.33-11.1-.76-27.52,12.35-31.2A43.09,43.09,0,0,1,415.45,402C403.19,405.71,383.94,415.75,396,429Z"/><path class="cls-12" d="M86.66,492.28c-2.9.11-5.24,1.27-8.1,1.58-2,.2-3.83-.62-5.8-.38-1.57.19-3.52,1.73-5.08,1.36-2.46-.59-5.34-5-7.89-6.42-9.35-5.08-18.76-1-28.24.88.13-4-2.16-5.18-5.68-3.32.52-4.8-.47-8.65-4.26-9.72,3-.34,5.38,1.95,5.69,7.24,3.1-5.05,7.79-2.28,6.62,3.11,9.69-5.82,30.93-7.13,35.59,6C74.44,486.21,80.94,488,86.66,492.28Z"/><path class="cls-12" d="M417,456.24a8.68,8.68,0,0,0-1-.3c-.31-.08-.62-.14-.93-.19H415a6.1,6.1,0,0,0-.87-.09l-.17,0h0a16.9,16.9,0,0,0-6,1c-9.49,8.08-16.35,19.85-8.59,30.36a3.86,3.86,0,0,0-6.55,1.12c-3.54-1.42-6.13.09-6,2.64a18.35,18.35,0,0,1,4,.55c1.15-3.92,6.15-3.27,9.36-2.68.07-2.62,2.64-3.87,4.68-5-6.63-8.19-1.49-27.64,11-26.66,0,0,2.84.13,4.28.3A31.76,31.76,0,0,1,417,456.24Z"/><path class="cls-10" d="M636.43,486.06a44.23,44.23,0,0,0-16.88-4c-1.06-7.35-12-8.62-10.7,0-10-2.76-19.4,4.16-23.31,13.51-4.64-10.2-25.34-13.08-31.19-2.65-1.67-4.93-8.3-7.72-12.89-9-6.63-1.86-9.6.61-12.25,6.66-10-6.57-15.94-12.88-28.16-14.74-5.15-.78-17-2.81-19.32,3.63.31-17.71-16.51-27.2-32.49-22.93,6.09-10.05,5.23-20.47,4.05-31.78-1.13-10.71-4-17.81-10.27-23.28a31.68,31.68,0,0,1,9,3.13c8.66,4.57,15.84,13.27,15.54,23.44-.14,5-2.07,9.67-4,14.18,3.52-.71,5.43-2.58,8,1.09,5.24-4.07,12.51-.73,17.37,2.4,6.5,4.17,10.2,9.62,7,17.11a10.37,10.37,0,0,1,8.28-4.26c4.93.11,5.59,3.61,8.71,6.22,3.92,3.28,8.68-3.68,12.48,1.7,3.53-3.73,17.5-7,17.35,1.41,8.37-.26,8.4,14.17,7.37,19.69,2.66-12.16,22.14-16.78,30.92-8.67-.86-8,6.75-12.81,13.24-15.53,9.12-3.83,20.59-4.55,27.74,3.37,3.43,3.79,4.73,8.13,9.17,10.81C634.87,479.87,635.79,481.93,636.43,486.06Z"/><path class="cls-11" d="M644.55,491.65c0,.29,0,.58,0,.86a19.35,19.35,0,0,0-6.4-5.55,6,6,0,0,1,4,.85C643.44,488.81,643.5,490.54,644.55,491.65Z"/><path class="cls-11" d="M785.88,488.11v-.06l0,0C786.08,488.28,786.07,488.29,785.88,488.11Z"/><path class="cls-10" d="M827.26,430.07c-9.53,1.41-9.79,13.23-10,20.53-5.59.64-25.18,4-13.63,12.44-1.45,4.35,2,8.63,4.15,12.06-8.62.68-21.58,2.88-21.86,12.95-5.13-2.72-9.6.32-12.69,4.48-4.13-15.35-37.88-19.53-28.19-1.81a119.4,119.4,0,0,0-13.17-3.22c-2.08-4.27-4.12-9.13-2.26-13.8,2.32-5.85,9.25-8.5,15-9.45,12.36-2.05,24.4,2.13,30.76,13.06,1.07-3.27,3.28-6.13,7.1-5.09,1.4-3.94,5.65-4.73,9.26-4.46-3.94-5.52-8-14.3-4.56-20.93,3.84-7.35,14.08-6.39,20.94-5.19-.19-3.62.52-5.83,4.35-6.7-3.32-11.1-.76-27.52,12.35-31.2,4.49-1.25,11.37-2.47,16.42-1.23-7,2.85-16,7.31-18,11.78C821.49,418.06,824.05,427.58,827.26,430.07Z"/><path class="cls-10" d="M516.59,499.82H499c-2.73-3.14-5.53-4.68-7.43-1.26-1.15-5.68-11.39-7.82-15.91-8.65a35.49,35.49,0,0,0-25.74,4.65c-1.05-3.19-2.24-6.05-5.34-2.24-.9-4.45-3.73-3.08-6.69-1.68-1.65-8.22-5.25-15-9.61-22a27.83,27.83,0,0,0-7.15-7.61v-3.38c9.79,3.1,16.87,10,16.6,22.42,2.11-2.27,4.31-3.55,6.23-3.77,3-.34,5.38,1.95,5.69,7.24,3.1-5.05,7.79-2.28,6.63,3.11,9.69-5.82,30.93-7.13,35.58,6,4.94-6.4,11.43-4.65,17.15-.33A44.28,44.28,0,0,1,516.59,499.82Z"/><path class="cls-10" d="M843.5,457.51v3.07a4.92,4.92,0,0,0-3.63-.8c-2.66.44-5.09,2.26-7.14,3.92s-4.45,3.94-4.47,6.88c0,3.84,3.26,7.27,5.55,10-4.67-.21-3.25,6.58-2.59,9.34-5.52-.08-8.67,2-6.34,7.59-4.37-1.4-11.54-.14-16.64,2.27H791.9c3.47-5.39,13.09-7.93,18.67-5.82a5.79,5.79,0,0,1-1.42-3.24c-.12-2.55,2.46-4.06,6-2.64A3.86,3.86,0,0,1,821.7,487c-7.76-10.51-.89-22.28,8.6-30.36a16.59,16.59,0,0,1,6-1,10.34,10.34,0,0,1,2.12.31,8.52,8.52,0,0,1,.94.3,32.62,32.62,0,0,0,3.16,1Z"/><path class="cls-10" d="M724.85,488.71c-4.24-2.39-10.33-.25-11.75,4.58-2.66-1.93-13-4.57-12.52,1.49-1.1-.2-3.29-1-4.35-.52-1.22.61-.88,2.64-.91,3.79a56.73,56.73,0,0,0-21.42-8.16c-8.48-1.51-16.21-1.15-23.78,2.5,3.53-6.09,11.46-8.79,18.32-9,9.17-.25,16.66,4.21,23.41,9.91-.1-4,3-8.86,6.76-4.43C697.22,474.52,721,477.78,724.85,488.71Z"/><path class="cls-10" d="M726.65,490.14l0-.05,0,0A.25.25,0,0,0,726.65,490.14Z"/><path class="cls-10" d="M491.14,469.61l0,0v0C491,469.75,491,469.74,491.14,469.61Z"/><path class="cls-12" d="M547,480.31c-3.86-9-13.39-17.59-21.72-8.35-4.3-1.92-7.71-.81-12-1.25-3.24-.33-1.82-1.38-4.32-3.22a4.81,4.81,0,0,0-6.86,1.42c-1.72-4.12-8.44-1.3-10.84.68,1.22-8.77-3-26.76-14.94-18.55-4.34-3.93-11.52-3.94-16.66-1.5,2.43-7.49,6-14.16,4.89-22.18-1.14-8.57-5.23-15.12-10.3-21.48,7.68,4.8,13.72,12.89,13.44,22.23-.14,5-2.07,9.67-4,14.18,3.52-.71,5.43-2.58,8,1.09,5.24-4.07,12.51-.73,17.37,2.4,6.5,4.17,10.2,9.62,7,17.11a10.37,10.37,0,0,1,8.28-4.26c4.93.11,5.59,3.61,8.71,6.22,3.92,3.28,8.68-3.68,12.48,1.7,3.53-3.73,17.5-7,17.35,1.41,3.38-.11,5.4,2.19,6.54,5.32C546.88,473.63,545.32,476.76,547,480.31Z"/><path class="cls-12" d="M636,483.66c-2.9-2.73-6-6.13-9.08-5.59,0,.19-.08.38-.11.57-4.49-3.74-7.9-9-13-11.9-6-3.44-12.45-3.18-12.36,4.89-8.27-3.69-20.4,3.35-17.27,12.93-4.46-5.52-12.66-6.25-18.82-9.29,5.74-1,11.8.09,15.73,3.71-.86-8,6.75-12.81,13.24-15.53,9.12-3.83,20.59-4.55,27.74,3.37,3.43,3.79,4.73,8.13,9.17,10.81C634.07,479.39,635.27,481,636,483.66Z"/><path class="cls-12" d="M797.74,468c-3.5-.67-3.18,3.79-4.92,5.39-3.05,2.78-7.49,1.82-6.81,7.64-4.91-2.18-8.9.05-11.88,3.91-5.33-7.17-12.39-11.58-20.79-14.15-5.55-1.71-11.08-3.62-16.68-4.07a28.7,28.7,0,0,1,7.89-2.43c12.36-2.05,24.4,2.13,30.76,13.06,1.07-3.27,3.28-6.13,7.1-5.09,1.4-3.94,5.65-4.73,9.26-4.46-3.94-5.52-8-14.3-4.56-20.93a10,10,0,0,1,2.37-3c.16,2.84.61,5.92,3.25,7.41C787,456.07,794.77,463.43,797.74,468Z"/><path class="cls-12" d="M818.37,429c-2.92,2.28-5.17,5.7-3,9.29a51.31,51.31,0,0,0-7.24,1.07c.27-2.29,1.37-3.74,4.31-4.42-3.32-11.1-.76-27.52,12.35-31.2A43.13,43.13,0,0,1,837.81,402C825.55,405.71,806.31,415.75,818.37,429Z"/><path class="cls-12" d="M509,492.28c-2.9.11-5.24,1.27-8.1,1.58-1.94.2-3.82-.62-5.8-.38-1.57.19-3.52,1.73-5.07,1.36-2.46-.59-5.35-5-7.9-6.42-9.35-5.08-18.76-1-28.24.88.13-4-2.16-5.18-5.67-3.32.52-4.8-.47-8.65-4.27-9.72,3-.34,5.38,1.95,5.69,7.24,3.1-5.05,7.79-2.28,6.63,3.11,9.69-5.82,30.93-7.13,35.58,6C496.81,486.21,503.3,488,509,492.28Z"/><path class="cls-12" d="M839.33,456.24a8.52,8.52,0,0,0-.94-.3c-.32-.08-.63-.14-.94-.19h-.1a6.4,6.4,0,0,0-.88-.09l-.17,0h0a16.84,16.84,0,0,0-6,1c-9.49,8.08-16.36,19.85-8.6,30.36a3.86,3.86,0,0,0-6.55,1.12c-3.54-1.42-6.12.09-6,2.64a18.25,18.25,0,0,1,4,.55c1.16-3.92,6.15-3.27,9.37-2.68.06-2.62,2.63-3.87,4.67-5-6.63-8.19-1.48-27.64,11-26.66,0,0,2.83.13,4.27.3A32.62,32.62,0,0,1,839.33,456.24Z"/></g></g></svg>