<svg xmlns="http://www.w3.org/2000/svg" xmlns:xlink="http://www.w3.org/1999/xlink" viewBox="0 0 841.89 595.28"><defs><style>.cls-1{isolation:isolate;}.cls-2{fill:#fffdfd;opacity:0.3;}.cls-2,.cls-4{mix-blend-mode:screen;}.cls-3{fill:url(#linear-gradient);}.cls-4{fill:#00f9f9;opacity:0.9;}</style><linearGradient id="linear-gradient" x1="421" y1="591.42" x2="421" y2="372.98" gradientUnits="userSpaceOnUse"><stop offset="0" stop-color="#00aeef"/><stop offset="0.05" stop-color="#13b2ef"/><stop offset="0.25" stop-color="#51bfef"/><stop offset="0.43" stop-color="#84caf0"/><stop offset="0.61" stop-color="#acd3f0"/><stop offset="0.76" stop-color="#c8d9f0"/><stop offset="0.9" stop-color="#daddf0"/><stop offset="1" stop-color="#e0def0"/></linearGradient></defs><title>Artboard 10</title><g class="cls-1"><g id="Layer_3" data-name="Layer 3"><path class="cls-2" d="M692.28,251.75h0Z"/><path class="cls-2" d="M715.66,239.52c-1.87.27-3.74.6-5.59.94A22.54,22.54,0,0,1,715.66,239.52Z"/><path class="cls-2" d="M700.9,220a6.84,6.84,0,0,1-1-.71,14,14,0,0,1,1.81.76Z"/><path class="cls-2" d="M715.66,239.52c-1.87.27-3.74.6-5.59.94A22.54,22.54,0,0,1,715.66,239.52Z"/><path class="cls-3" d="M846,136.54V596.09H-4V136.93c25.15-14.07,43.14,26.26,46.62,55.25,4.4-3.25,8-4.07,11-3,5,1.79,8.21,8.91,10.1,18.89,14-7.73,12.21,15.56,17,26.15,8.69,19.25,19.3-11.58,27.08-22.3,30.72-42.35,83.92-9,83,52.95,15.31-1.41,8.43,43.6,7,55.38,13.74-4.32,15.33,22.17,15.14,36.39,10.35-5.31,15,7.12,15.13,20.49,10.41-10.31,29.79-12.54,38.41,2a31.28,31.28,0,0,1,3.85,11.46c-.78-24.8,10.83-48.37,28.29-52.39,16.69-3.85,31.62,9.53,41.72,27.79,0,0,0,0,0,0A110.57,110.57,0,0,1,348,383.26c3.11-3.4,6.94-5.07,10.91-4.36a58.51,58.51,0,0,1-.75,16.85c13.51-11.79,17,.7,19.06,19.6,1.19-24.87,11.29-46.53,26.91-57.39,12.64-8.79,40.64-16,49.52,6,2.33-13.51,12-8.07,16.66-.46s2.64,22,7.71,27.36c6.27,6.6,15.16-3.64,20.16,9.78,3.6,9.61.19,28.15,1.22,39.09,5-4.41,13.83-10.73,17.22-.35,3.62-14.9,19.71-17.83,28.89-14.64.2-11.23,8.49-23.11,17.65-29.27a22.73,22.73,0,0,1,11-4.24c-6.57-6.51-4.73-27.73-3.33-37.13,2.81-19.11,10-40.1,20.87-53.69h0a43,43,0,0,1,13-11.39c8.37-4.49,29.9-11.71,32.7,6.2,1.17-13.79,29.7-11.94,37.18-11.43l1.62.22c4.08,4.34,9.24,4.69,13.37,9.45s10.34,12,11.46,19.62c1.63-7.66,5.82-15.45,10.73-19.23,3.52-2.7,8.8-1.6,10.76-7.45-14.31-13-16.15-41.46-4-58.92,7.77-11.19,28.62-19.95,35.24-1.8,2-10.61,16.09-6.59,21.46-4.88,5.75,1.83,7.62,6.45,8.79,15.09.8-11.67,10.38-10.4,15.68-13.93-11.05-18.32-6.56-42.12,5-55.87a31.94,31.94,0,0,1,13.1-9.64c-.22-14.67,13.12-17.61,20.78-14.37,1-.45,0-.62,0-1.54l6.63-3.64A7.84,7.84,0,0,1,846,136.54Z"/><path class="cls-4" d="M266.53,379.15c-6.57-.49-13.06-2.67-19.68-2-7.7.8-13.64,7.88-20.9,9.41-5.48,1.13-10.76-4.43-14.87-9.12-10.1-11.54-9.59-42.62-25.26-39.87,1.58-8.37,9.28-33.77,1-38.43.6-12.64-3.29-26.31-13.63-23.31-5-24.83-13.09-49.71-33-53.41-21.12-3.93-34.58,19.69-44.95,42.56-2.47-3.28-4.44-8.26-7.15-11-3.2-3.19-5.34-.06-8.07-1.85-3.4-2.26-4.93-15.06-6.13-20.27-.91-4-1.21-8.31-3.18-11.64-1.85-3.15-4.13-2.94-6.1-5.22-4.71-5.4-7.74-18.13-11-25.69a1.11,1.11,0,0,0-.07-.16c5,1.79,8.21,8.91,10.1,18.89,14-7.73,12.21,15.56,17,26.15,8.69,19.25,19.3-11.58,27.08-22.3,30.72-42.35,83.92-9,83,52.95,15.31-1.41,8.43,43.6,7,55.38,13.74-4.32,15.33,22.17,15.14,36.39,10.35-5.31,15,7.12,15.13,20.49C238.53,366.83,257.91,364.6,266.53,379.15Z"/><path class="cls-4" d="M564.84,400.36c-5.4,2.72-2.65,10.46-4.61,16.28-3.85,11.48-12.29,18.59-13.49,32.38a56.65,56.65,0,0,0-28.7.68c-7.74,2.13-19.53,4.71-25.27,13.37.09-6.11-1.14-28.06-8.09-24.06-.67-8.69-2.83-20.3-8.14-25.47a22.79,22.79,0,0,0-4.15,7.28c-10.31-21.5-28.16-23.58-45-20.38-20.27,3.85-36.39,16.07-45.61,42.78-3.29-9-6-23.24-14.67-18.07-4.47-10.77-8.43-17.12-17.17-11.64-1.75-14.29-4-29.2-7.92-42.62-.49-1.69-1-3.3-1.6-4.86A110.57,110.57,0,0,1,348,383.26c3.11-3.4,6.94-5.07,10.91-4.36a58.51,58.51,0,0,1-.75,16.85c13.51-11.79,17,.7,19.06,19.6,1.19-24.87,11.29-46.53,26.91-57.39,12.64-8.79,40.64-16,49.52,6,2.33-13.51,12-8.07,16.66-.46s2.64,22,7.71,27.36c6.27,6.6,15.16-3.64,20.16,9.78,3.6,9.61.19,28.15,1.22,39.09,5-4.41,13.83-10.73,17.22-.35,3.62-14.9,19.71-17.83,28.89-14.64.2-11.23,8.49-23.11,17.65-29.27A34.64,34.64,0,0,0,564.84,400.36Z"/><path class="cls-4" d="M815.23,217.18c-3.68,4.26-8.38,6.19-12,11.15-3,4.07-4.15,8.82-7.64,11.18-7.45,5-16,3-22.07,12.92-2.9-9.73-5.79-8.34-11.55-10.5-3.23-1.19-6.54-7.12-8.91-.26-4-10-16.85-9.54-21-.29-6.85,15.29,2.77,38.7,13,44.77-4.19,4.22-5.72,10.88-7.72,17.3-2.19,7.07-2.14,6.43-7.34,7.71-11.59,2.84-31,11.83-34,31-9.51-19.44-30.7-34.92-44.19-16.95-4.43-8.68-13.1-4.94-17.18,2.23-7.91-22.87-27.69-35.64-42.92-27a43,43,0,0,1,13-11.39c8.37-4.49,29.9-11.71,32.7,6.2,1.17-13.79,29.7-11.94,37.18-11.43l1.62.22c4.08,4.34,9.24,4.69,13.37,9.45s10.34,12,11.46,19.62c1.63-7.66,5.82-15.45,10.73-19.23,3.52-2.7,8.8-1.6,10.76-7.45-14.31-13-16.15-41.46-4-58.92,7.77-11.19,28.62-19.95,35.24-1.8,2-10.61,16.09-6.59,21.46-4.88,5.75,1.83,7.62,6.45,8.79,15.09.8-11.67,10.38-10.4,15.68-13.93-11.05-18.32-6.56-42.12,5-55.87C801.09,185.26,802.72,206.55,815.23,217.18Z"/></g></g></svg>