<svg xmlns="http://www.w3.org/2000/svg" viewBox="0 0 841.89 595.28"><defs><style>.cls-1{isolation:isolate;}.cls-2{opacity:0.3;mix-blend-mode:screen;}.cls-3{fill:#dfdfef;}</style></defs><title>Artboard 10</title><g class="cls-1"><g id="Layer_4" data-name="Layer 4"><g class="cls-2"><path class="cls-3" d="M390.63,286.28a10.49,10.49,0,0,0,3.48.93A17.94,17.94,0,0,0,390.63,286.28Z"/><path class="cls-3" d="M821.5,250.67c-29.59,10.11-24.89,35.09-26.33,55.44-5.52,2.17-8.3-2.56-13.91-3-9.18-.7-14.17,4.92-14.06,11.49C746.79,302.5,713.83,276.2,690,300.26,672.83,317.62,703.1,338.8,719.35,349l-7.21.94a40.27,40.27,0,0,0-16.19-5c-10.52-.85-13,3.7-21.14,7.77-.29-3,1.28-8.67-1.23-11.09-2.93-2.83-12-2.43-15.47-.66,5.73-16.29,8.94-32.83,3.94-49.62-3.57-12-13.1-28.31-30.31-27a133.6,133.6,0,0,1,.5-14c1.28-13.61,5.77-29.12-13.72-36-33.8-11.88-80.16,7.14-62.2,36.76-11.49-7.79-43.1-3.44-56.7-1.53,0-6.21,3.06-23-6.2-25.9-8.56-2.66-17.29,6.47-21.75,10.65-.33-26.77-36.11-35.14-60.72-19.42-26.54,17-31.68,35.26-17.56,58.36-3.15-.23-5.75.81-8.77.94a11.12,11.12,0,0,0,6,12,17.94,17.94,0,0,1,3.48.93,10.49,10.49,0,0,1-3.48-.93c-15.3-2.67-40.95,9.46-52,14.35-.28-4.69,1.51-15.38-4.65-18.16-6.58-3-20.87,4.31-26.15,6.74,0-8,9-25.77-1-31.8-7.51-4.53-17.77,2.88-24.23,6-.34-12-3.88-25.21-12.86-35.27-16.57-18.56-46.57-18.62-72.37-13-18.28,4-42.79,12.18-40,29.65,2,12.3,16.88,22.69,26.94,31.61-2.5,1.39-7.44,5.66-10.32,5.82-4.83.28-3.79-2.37-7.1-3-12.48-2.48-19.33,4.35-29.33,9.45-2.49-23.92-64.54-5.06-72.94,7.48-6.92-11.56-23.45-11.32-30.22,1.51C35.59,279.1,23.85,252.08,0,248.44V452.2c39.16,1.47,78.27,5.82,117.17,8.72,50.48,3.75,101.25,6.57,152,5.5,30.85-.66,61.26-1.94,92.14-.62,89.56,3.83,184.55,16.36,273-.1a18.84,18.84,0,0,1-.06-2.48c3,1.55,6.78,2.21,11.67,1.86,12.18-.88,24-2.54,36.31-3.12a33,33,0,0,0,13.34-3.16c8,1.29,17.12.87,24.82.38,30.66-2,60.46-7.23,91.39-7.47,10-.08,20.08.12,30.11.49V248.44A42.75,42.75,0,0,0,821.5,250.67Z"/></g></g></g></svg>