<svg xmlns="http://www.w3.org/2000/svg" xmlns:xlink="http://www.w3.org/1999/xlink" viewBox="0 0 841.89 595.28"><defs><style>.cls-1{isolation:isolate;}.cls-2{fill:url(#radial-gradient);}.cls-3{opacity:0.2;mix-blend-mode:multiply;}.cls-4{fill:#7ed3f7;}.cls-5{opacity:0.3;mix-blend-mode:screen;}.cls-6{fill:#dfdfef;}</style><radialGradient id="radial-gradient" cx="504.36" cy="226.34" r="299.59" gradientTransform="translate(0 -47.88) scale(1 1.19)" gradientUnits="userSpaceOnUse"><stop offset="0" stop-color="#f1f2f2"/><stop offset="0.16" stop-color="#f2ede9"/><stop offset="0.43" stop-color="#f5e1d0"/><stop offset="0.76" stop-color="#f9cca7"/><stop offset="1" stop-color="#fcbc86"/></radialGradient></defs><title>Artboard 10</title><g class="cls-1"><g id="Layer_4" data-name="Layer 4"><rect class="cls-2" width="841.89" height="595.28"/><g class="cls-3"><path class="cls-4" d="M837.72,96c-5.83.14-12.94-.08-17.89.22-3.75.22-7.38.41-11.15.35l-3-.09a2.39,2.39,0,0,0-1.63-1.09c-4.46-1-7.6-3.44-11.47-5.29-3.27-1.57-7.55-2.4-11.13-3.46-8.32-2.47-17.46-3.33-26.07-5.07-3.35-.68-6.82-1.42-10.37-2.12a64.94,64.94,0,0,1-7.77-4.27c-3.13-1.91-6.75-2.7-10.49-3.59-7.7-1.84-15.45-3.57-23.21-5.25A654.4,654.4,0,0,0,608.69,53c-32-2.13-64.28-2.85-96.37-3.78-32.46-.94-65-2-97.5-2.23-63.52-.4-126.9,7.44-188.57,18.88-62,11.49-123,26.39-187,29.2-13,.57-26.15.57-39.22.8v16.3c1.46.28,2.93.55,4.41.8C20,115.63,37,115.34,52.9,115.16c64.69-.69,127.2-15.1,189.94-25.83q6.56-1.11,13.14-2.16a6.33,6.33,0,0,0,1.64.21c14.68,0,29.33-.82,44-1,14.91-.2,29.84.25,44.73.91,30.19,1.34,60.36,3.06,90.58,4.13s60.67,1.36,90.74-1c14.77-1.19,29.32-2.86,44.17-3.4,11.1-.41,22.63-.23,33.83-1.22a5.79,5.79,0,0,0,2,1c4,1.21,7.75.61,11.87.14,2.78-.33,5.13-.71,7.06-1.88,3,.58,6.14.33,9.35.42,5.53.15,11.15,0,16.7.09,8.53.16,17.11-.15,25.65-.07,4.64,1.64,9.4,3.06,14.05,4.32,19.7,5.34,40.61,8,61.21,10.08,10.27,1,20.57,1.9,30.88,2.72,8.84.7,18,1,26.6,2.69,4,.81,7.52,2.14,11.23,2.83,6.68,1.24,13.26,2.76,19.93,4V95.89Z"/><path class="cls-4" d="M613.86,142.36c-5.85-2.67-12-4.41-18.18-6.6a144.87,144.87,0,0,0-21.87-6.38c-14.42-2.74-29.12-4.5-43.85-5.81s-29.83-2.14-44.74-3c-7.33-.43-14.13-2.29-21.42-3-7.56-.68-15.49-.07-23.06.31-14.36.73-28.68,2.33-42.89,4.06-14.73,1.79-29.57,3.56-44,6.49-27.9,5.65-55.52,12.22-83.88,16.35-19.8,2.88-40.88,5.07-61.81,5.1-10.36,0-20.77.27-31-1-10.48-1.33-21.08-3.92-31.66-4.37-20.4-.86-40.25-6.08-60.36-8.73s-40.23-3.37-60.26-.67c-1.45.2-.93,2,.54,1.85,27.87-2.62,56.42,1.45,83.22,7.39,6.49,1.44,13,3,19.41,4.52,7.16,1.71,13.42,5.23,20.52,7,13.45,3.29,27.4,5.59,40.72,9.15,27.94,7.48,59.88,6,88.58,2.21,29.14-3.87,57.59-9.88,86-16.13,19.29-4.24,37.94-9.91,57.63-13.1q14.88-2.4,30-3.61c6.17-.5,12.24-.89,18.36-1.7,5.28-.7,9.83-1.88,15.27-2a453.71,453.71,0,0,1,62.57,3.12c10.6,1.22,21.08,3.72,31.67,4.73,11.54,1.1,22.38,3.41,33.65,5.43C614.14,144.14,614.93,142.84,613.86,142.36Z"/><path class="cls-4" d="M799.43,123c-15.83,1.32-31.5,3.26-47.43,3.93s-31.92.44-47.78-.4a350.64,350.64,0,0,1-86.58-15.18c-24.38-7.6-47.64-17.22-72.35-24.2C517.86,79.42,489.45,77,460.4,77.72c-61.26,1.44-122.82,17-184.1,7.31-14.09-2.23-27.37-6.74-40.88-10.45s-27.07-8-40.82-11.49c-14-3.53-29.16-7.92-44-7.9-7.33,0-14.57,1.2-21.87,1.63-3.61.21-7.56-.6-11.15-.94-4.35-.4-8.72-.72-13.08-1.07-15.05-1.2-30.37-3.42-45.41-1.54-2.54.31-1.7,3.17.44,3.44,15.37,2,31.19,1,46.71,2.26,7.52.63,16.29.93,23.33,3.14,7.62,2.39,14.54,5.85,22.29,8.06,6.74,1.92,14,2.9,20.88,4.45,7.33,1.65,14.55,3.58,21.82,5.39,13.69,3.4,27.2,7.35,41,10.44s27.86,5.13,41.9,7a253.73,253.73,0,0,0,45,1.93c31.28-1.46,62-6.62,93.05-9.8,30.24-3.1,62.15-5.7,92.16-.2,26.09,4.78,50.08,13.4,74.12,22.46,24.39,9.19,49.22,17.36,75.94,21.28a390.34,390.34,0,0,0,95.94,2.19c15.57-1.57,31.38-3.58,46.32-7.45C803,127.1,803,122.71,799.43,123Z"/><path class="cls-4" d="M815.86,138.46c-47.26,20.4-100.18-5-145.47-16.76-47.95-12.42-99.7-6.41-147.41,3.45-51.67,10.68-101.46,26.4-153.78,35.22-25.69,4.33-51.92,6.72-78.2,5.67-21.14-.84-41.8-4.85-61.93-9.76-44.48-10.86-87.15-25.93-131.23-37.7-31.1-8.31-64.77-14.71-97.84-13v4.81c16.48-.23,32.91,1.57,49.19,3.85,46.3,6.5,89.51,21.75,133,35.21,20.78,6.42,41.74,12.59,63.33,17.15a285.83,285.83,0,0,0,65.54,6c53-1.16,104.17-14.74,154.15-27.39,49.08-12.41,99.64-25.6,151.84-24.79,25.14.4,48.28,5.26,71.57,12.34,23.73,7.23,47.35,15,72.71,18,19.78,2.3,40.27.48,57.56-7.76C822.29,141.42,819.58,136.85,815.86,138.46Z"/><path class="cls-4" d="M810.32,110.13A163.9,163.9,0,0,0,762.09,130c-.25.15,0,.53.33.38,18.91-10.15,40.14-16.48,62.83-18.94,5.65-.61,11.3-.93,17-1v-4.81A178.05,178.05,0,0,0,810.32,110.13Z"/></g><g class="cls-3"><path class="cls-4" d="M837.72,202.43c-5.83.14-12.94-.08-17.89.22-3.75.22-7.38.41-11.15.35l-3-.09a2.4,2.4,0,0,0-1.63-1.1c-4.46-1-7.6-3.43-11.47-5.29-3.27-1.56-7.55-2.39-11.13-3.46-8.32-2.47-17.46-3.33-26.07-5.06-3.35-.68-6.82-1.43-10.37-2.12a64.94,64.94,0,0,1-7.77-4.27c-3.13-1.91-6.75-2.7-10.49-3.59-7.7-1.85-15.45-3.57-23.21-5.25a654.4,654.4,0,0,0-94.89-13.3c-32-2.13-64.28-2.85-96.37-3.78-32.46-.94-65-2-97.5-2.23-63.52-.4-126.9,7.44-188.57,18.88-62,11.49-123,26.39-187,29.2-13,.57-26.15.56-39.22.8v16.29c1.46.28,2.93.56,4.41.81C20,222.08,37,221.78,52.9,221.61c64.69-.7,127.2-15.11,189.94-25.83,4.37-.75,8.75-1.46,13.14-2.16a6.33,6.33,0,0,0,1.64.21c14.68,0,29.33-.82,44-1,14.91-.19,29.84.26,44.73.91,30.19,1.34,60.36,3.07,90.58,4.14s60.67,1.36,90.74-1.05c14.77-1.18,29.32-2.85,44.17-3.4,11.1-.41,22.63-.22,33.83-1.21a5.79,5.79,0,0,0,2,1c4,1.21,7.75.61,11.87.13,2.78-.32,5.13-.7,7.06-1.87,3,.58,6.14.32,9.35.41,5.53.16,11.15,0,16.7.1,8.53.15,17.11-.16,25.65-.08,4.64,1.65,9.4,3.06,14.05,4.33,19.7,5.34,40.61,8,61.21,10.08,10.27,1,20.57,1.9,30.88,2.72,8.84.69,18,.94,26.6,2.68,4,.82,7.52,2.14,11.23,2.83,6.68,1.25,13.26,2.77,19.93,4V202.34C840.71,202.37,839.21,202.39,837.72,202.43Z"/><path class="cls-4" d="M613.86,248.8c-5.85-2.67-12-4.4-18.18-6.59a146.06,146.06,0,0,0-21.87-6.39c-14.42-2.73-29.12-4.49-43.85-5.8s-29.83-2.14-44.74-3c-7.33-.43-14.13-2.29-21.42-2.94-7.56-.68-15.49-.08-23.06.31-14.36.72-28.68,2.33-42.89,4.06-14.73,1.78-29.57,3.56-44,6.48-27.9,5.66-55.52,12.23-83.88,16.36-19.8,2.88-40.88,5.07-61.81,5.1-10.36,0-20.77.26-31-1-10.48-1.33-21.08-3.91-31.66-4.36-20.4-.87-40.25-6.08-60.36-8.74s-40.23-3.36-60.26-.66c-1.45.19-.93,2,.54,1.85,27.87-2.62,56.42,1.44,83.22,7.39,6.49,1.44,13,3,19.41,4.51,7.16,1.72,13.42,5.24,20.52,7,13.45,3.3,27.4,5.6,40.72,9.16,27.94,7.48,59.88,6,88.58,2.21,29.14-3.88,57.59-9.89,86-16.13,19.29-4.24,37.94-9.91,57.63-13.1q14.88-2.42,30-3.62c6.17-.49,12.24-.88,18.36-1.69,5.28-.7,9.83-1.89,15.27-2a453.71,453.71,0,0,1,62.57,3.12c10.6,1.22,21.08,3.72,31.67,4.73,11.54,1.09,22.38,3.41,33.65,5.42C614.14,250.59,614.93,249.29,613.86,248.8Z"/><path class="cls-4" d="M799.43,229.45c-15.83,1.33-31.5,3.26-47.43,3.93s-31.92.44-47.78-.39a351.57,351.57,0,0,1-86.58-15.18c-24.38-7.61-47.64-17.22-72.35-24.2-27.43-7.74-55.84-10.13-84.89-9.45-61.26,1.45-122.82,17-184.1,7.32-14.09-2.23-27.37-6.74-40.88-10.45s-27.07-8-40.82-11.5c-14-3.53-29.16-7.92-44-7.89-7.33,0-14.57,1.19-21.87,1.62-3.61.22-7.56-.6-11.15-.93-4.35-.4-8.72-.72-13.08-1.07-15.05-1.2-30.37-3.42-45.41-1.55-2.54.32-1.7,3.18.44,3.45,15.37,2,31.19,1,46.71,2.26,7.52.62,16.29.93,23.33,3.14,7.62,2.39,14.54,5.85,22.29,8.05,6.74,1.92,14,2.91,20.88,4.46,7.33,1.65,14.55,3.58,21.82,5.39,13.69,3.4,27.2,7.35,41,10.43s27.86,5.14,41.9,7a251.85,251.85,0,0,0,45,1.93c31.28-1.45,62-6.61,93.05-9.79,30.24-3.1,62.15-5.7,92.16-.2,26.09,4.77,50.08,13.4,74.12,22.46,24.39,9.19,49.22,17.36,75.94,21.28a390.83,390.83,0,0,0,95.94,2.19c15.57-1.57,31.38-3.58,46.32-7.45C803,233.55,803,229.16,799.43,229.45Z"/><path class="cls-4" d="M815.86,244.9c-47.26,20.41-100.18-5-145.47-16.75-47.95-12.43-99.7-6.41-147.41,3.45C471.31,242.28,421.52,258,369.2,266.82c-25.69,4.33-51.92,6.72-78.2,5.67-21.14-.84-41.8-4.85-61.93-9.77C184.59,251.87,141.92,236.8,97.84,225,66.74,216.72,33.07,210.32,0,212.08v4.8c16.48-.22,32.91,1.58,49.19,3.86,46.3,6.5,89.51,21.75,133,35.2,20.78,6.43,41.74,12.59,63.33,17.15a285.84,285.84,0,0,0,65.54,6c53-1.17,104.17-14.75,154.15-27.39C514.28,239.32,564.84,226.14,617,227c25.14.39,48.28,5.26,71.57,12.34,23.73,7.23,47.35,15,72.71,18,19.78,2.3,40.27.48,57.56-7.76C822.29,247.86,819.58,243.3,815.86,244.9Z"/><path class="cls-4" d="M810.32,216.57a163.65,163.65,0,0,0-48.23,19.88c-.25.15,0,.53.33.38,18.91-10.15,40.14-16.48,62.83-19,5.65-.61,11.3-.92,17-1v-4.8A178,178,0,0,0,810.32,216.57Z"/></g><g class="cls-3"><path class="cls-4" d="M837.72,297.34c-5.83.14-12.94-.08-17.89.22-3.75.22-7.38.41-11.15.35l-3-.09a2.36,2.36,0,0,0-1.63-1.09c-4.46-1-7.6-3.44-11.47-5.29-3.27-1.57-7.55-2.4-11.13-3.46-8.32-2.47-17.46-3.34-26.07-5.07-3.35-.68-6.82-1.43-10.37-2.12a64.94,64.94,0,0,1-7.77-4.27c-3.13-1.91-6.75-2.7-10.49-3.59-7.7-1.85-15.45-3.57-23.21-5.25a654.4,654.4,0,0,0-94.89-13.3c-32-2.13-64.28-2.85-96.37-3.78-32.46-.94-65-2-97.5-2.23-63.52-.4-126.9,7.44-188.57,18.88-62,11.49-123,26.39-187,29.2-13,.57-26.15.57-39.22.8v16.29c1.46.28,2.93.56,4.41.81C20,317,37,316.69,52.9,316.52c64.69-.7,127.2-15.11,189.94-25.83,4.37-.75,8.75-1.46,13.14-2.16a6.33,6.33,0,0,0,1.64.21c14.68,0,29.33-.82,44-1,14.91-.19,29.84.26,44.73.92,30.19,1.33,60.36,3.06,90.58,4.13s60.67,1.36,90.74-1c14.77-1.18,29.32-2.85,44.17-3.39,11.1-.42,22.63-.23,33.83-1.22a5.79,5.79,0,0,0,2,1.05c4,1.21,7.75.61,11.87.13,2.78-.32,5.13-.7,7.06-1.87,3,.58,6.14.33,9.35.42,5.53.15,11.15,0,16.7.09,8.53.15,17.11-.16,25.65-.08,4.64,1.65,9.4,3.06,14.05,4.33,19.7,5.34,40.61,8,61.21,10.08,10.27,1.05,20.57,1.9,30.88,2.72,8.84.7,18,.94,26.6,2.68,4,.82,7.52,2.14,11.23,2.83,6.68,1.25,13.26,2.77,19.93,4V297.25Z"/><path class="cls-4" d="M613.86,343.71c-5.85-2.67-12-4.4-18.18-6.59a146.06,146.06,0,0,0-21.87-6.39c-14.42-2.73-29.12-4.49-43.85-5.8s-29.83-2.14-44.74-3c-7.33-.43-14.13-2.29-21.42-2.94-7.56-.68-15.49-.08-23.06.31-14.36.72-28.68,2.33-42.89,4.06-14.73,1.79-29.57,3.56-44,6.48-27.9,5.66-55.52,12.23-83.88,16.36-19.8,2.88-40.88,5.07-61.81,5.1-10.36,0-20.77.26-31-1-10.48-1.33-21.08-3.91-31.66-4.36-20.4-.87-40.25-6.08-60.36-8.74s-40.23-3.36-60.26-.66c-1.45.19-.93,2,.54,1.85,27.87-2.62,56.42,1.44,83.22,7.39,6.49,1.44,13,3,19.41,4.51,7.16,1.72,13.42,5.24,20.52,7,13.45,3.29,27.4,5.59,40.72,9.15,27.94,7.48,59.88,6,88.58,2.21,29.14-3.88,57.59-9.88,86-16.13,19.29-4.24,37.94-9.91,57.63-13.1q14.88-2.41,30-3.62c6.17-.49,12.24-.88,18.36-1.69,5.28-.7,9.83-1.89,15.27-2a453.71,453.71,0,0,1,62.57,3.12c10.6,1.22,21.08,3.72,31.67,4.73,11.54,1.09,22.38,3.41,33.65,5.42C614.14,345.5,614.93,344.2,613.86,343.71Z"/><path class="cls-4" d="M799.43,324.36c-15.83,1.33-31.5,3.27-47.43,3.93s-31.92.44-47.78-.39a351.1,351.1,0,0,1-86.58-15.18c-24.38-7.6-47.64-17.22-72.35-24.2-27.43-7.74-55.84-10.13-84.89-9.45-61.26,1.45-122.82,17-184.1,7.32-14.09-2.23-27.37-6.74-40.88-10.45s-27.07-8-40.82-11.5c-14-3.52-29.16-7.92-44-7.89-7.33,0-14.57,1.19-21.87,1.62-3.61.22-7.56-.6-11.15-.93-4.35-.4-8.72-.72-13.08-1.07-15.05-1.2-30.37-3.42-45.41-1.55-2.54.32-1.7,3.18.44,3.45,15.37,2,31.19,1,46.71,2.26,7.52.62,16.29.93,23.33,3.14,7.62,2.39,14.54,5.85,22.29,8,6.74,1.92,14,2.91,20.88,4.46,7.33,1.65,14.55,3.58,21.82,5.39,13.69,3.4,27.2,7.35,41,10.43s27.86,5.14,41.9,7a251.85,251.85,0,0,0,45,1.93c31.28-1.45,62-6.61,93.05-9.79,30.24-3.1,62.15-5.7,92.16-.2,26.09,4.78,50.08,13.4,74.12,22.46,24.39,9.19,49.22,17.36,75.94,21.28a390.83,390.83,0,0,0,95.94,2.19c15.57-1.57,31.38-3.58,46.32-7.45C803,328.46,803,324.07,799.43,324.36Z"/><path class="cls-4" d="M815.86,339.81c-47.26,20.41-100.18-5-145.47-16.75-47.95-12.43-99.7-6.41-147.41,3.45-51.67,10.68-101.46,26.39-153.78,35.22-25.69,4.33-51.92,6.72-78.2,5.67-21.14-.84-41.8-4.85-61.93-9.77-44.48-10.85-87.15-25.92-131.23-37.69C66.74,311.63,33.07,305.23,0,307v4.8c16.48-.22,32.91,1.58,49.19,3.86,46.3,6.5,89.51,21.75,133,35.21,20.78,6.42,41.74,12.58,63.33,17.15a286.39,286.39,0,0,0,65.54,6c53-1.16,104.17-14.75,154.15-27.39,49.08-12.42,99.64-25.6,151.84-24.79,25.14.39,48.28,5.26,71.57,12.34,23.73,7.23,47.35,15,72.71,18,19.78,2.3,40.27.48,57.56-7.76C822.29,342.78,819.58,338.21,815.86,339.81Z"/><path class="cls-4" d="M810.32,311.48a163.65,163.65,0,0,0-48.23,19.88c-.25.15,0,.53.33.38,18.91-10.15,40.14-16.48,62.83-18.95,5.65-.61,11.3-.92,17-1V307A178,178,0,0,0,810.32,311.48Z"/></g><g class="cls-5"><path class="cls-6" d="M390.63,286.28a10.49,10.49,0,0,0,3.48.93A17.94,17.94,0,0,0,390.63,286.28Z"/><path class="cls-6" d="M821.5,250.67c-29.59,10.11-24.89,35.09-26.33,55.44-5.52,2.17-8.3-2.56-13.91-3-9.18-.7-14.17,4.92-14.06,11.49C746.79,302.5,713.83,276.2,690,300.26,672.83,317.62,703.1,338.8,719.35,349l-7.21.94a40.27,40.27,0,0,0-16.19-5c-10.52-.85-13,3.7-21.14,7.77-.29-3,1.28-8.67-1.23-11.09-2.93-2.83-12-2.43-15.47-.66,5.73-16.29,8.94-32.83,3.94-49.62-3.57-12-13.1-28.31-30.31-27a133.6,133.6,0,0,1,.5-14c1.28-13.61,5.77-29.12-13.72-36-33.8-11.88-80.16,7.14-62.2,36.76-11.49-7.79-43.1-3.44-56.7-1.53,0-6.21,3.06-23-6.2-25.9-8.56-2.66-17.29,6.47-21.75,10.65-.33-26.77-36.11-35.14-60.72-19.42-26.54,17-31.68,35.26-17.56,58.36-3.15-.23-5.75.81-8.77.94a11.12,11.12,0,0,0,6,12,17.94,17.94,0,0,1,3.48.93,10.49,10.49,0,0,1-3.48-.93c-15.3-2.67-40.95,9.46-52,14.35-.28-4.69,1.51-15.38-4.65-18.16-6.58-3-20.87,4.31-26.15,6.74,0-8,9-25.77-1-31.8-7.51-4.53-17.77,2.88-24.23,6-.34-12-3.88-25.21-12.86-35.27-16.57-18.56-46.57-18.62-72.37-13-18.28,4-42.79,12.18-40,29.65,2,12.3,16.88,22.69,26.94,31.61-2.5,1.39-7.44,5.66-10.32,5.82-4.83.28-3.79-2.37-7.1-3-12.48-2.48-19.33,4.35-29.33,9.45-2.49-23.92-64.54-5.06-72.94,7.48-6.92-11.56-23.45-11.32-30.22,1.51C35.59,279.1,23.85,252.08,0,248.44V452.2c39.16,1.47,78.27,5.82,117.17,8.72,50.48,3.75,101.25,6.57,152,5.5,30.85-.66,61.26-1.94,92.14-.62,89.56,3.83,184.55,16.36,273-.1a18.84,18.84,0,0,1-.06-2.48c3,1.55,6.78,2.21,11.67,1.86,12.18-.88,24-2.54,36.31-3.12a33,33,0,0,0,13.34-3.16c8,1.29,17.12.87,24.82.38,30.66-2,60.46-7.23,91.39-7.47,10-.08,20.08.12,30.11.49V248.44A42.75,42.75,0,0,0,821.5,250.67Z"/></g><g class="cls-3"><path class="cls-4" d="M837.72,392c-5.83.14-12.94-.08-17.89.22-3.75.22-7.38.41-11.15.35l-3-.09a2.39,2.39,0,0,0-1.63-1.09c-4.46-1-7.6-3.44-11.47-5.29-3.27-1.57-7.55-2.4-11.13-3.46-8.32-2.47-17.46-3.33-26.07-5.07-3.35-.68-6.82-1.42-10.37-2.12a64.94,64.94,0,0,1-7.77-4.27c-3.13-1.91-6.75-2.7-10.49-3.59-7.7-1.84-15.45-3.57-23.21-5.25A654.4,654.4,0,0,0,608.69,349c-32-2.13-64.28-2.85-96.37-3.78-32.46-.94-65-2-97.5-2.23-63.52-.4-126.9,7.44-188.57,18.88-62,11.49-123,26.39-187,29.2-13,.57-26.15.57-39.22.8v16.3c1.46.28,2.93.55,4.41.8C20,411.63,37,411.33,52.9,411.16c64.69-.69,127.2-15.1,189.94-25.83q6.56-1.11,13.14-2.16a6.33,6.33,0,0,0,1.64.21c14.68,0,29.33-.82,44-1,14.91-.2,29.84.25,44.73.91,30.19,1.34,60.36,3.06,90.58,4.13s60.67,1.36,90.74-1c14.77-1.19,29.32-2.86,44.17-3.4,11.1-.41,22.63-.23,33.83-1.22a5.79,5.79,0,0,0,2,1.05c4,1.21,7.75.61,11.87.14,2.78-.33,5.13-.71,7.06-1.88,3,.58,6.14.33,9.35.42,5.53.15,11.15,0,16.7.09,8.53.16,17.11-.15,25.65-.07,4.64,1.64,9.4,3.06,14.05,4.32,19.7,5.34,40.61,8,61.21,10.08,10.27,1,20.57,1.9,30.88,2.72,8.84.7,18,.95,26.6,2.69,4,.81,7.52,2.14,11.23,2.83,6.68,1.24,13.26,2.76,19.93,4v-16.3Z"/><path class="cls-4" d="M613.86,438.36c-5.85-2.67-12-4.41-18.18-6.6a144.87,144.87,0,0,0-21.87-6.38c-14.42-2.74-29.12-4.5-43.85-5.81s-29.83-2.14-44.74-3c-7.33-.43-14.13-2.29-21.42-2.95-7.56-.68-15.49-.07-23.06.31-14.36.73-28.68,2.33-42.89,4.06-14.73,1.79-29.57,3.56-44,6.49-27.9,5.65-55.52,12.22-83.88,16.35-19.8,2.88-40.88,5.07-61.81,5.1-10.36,0-20.77.27-31-1-10.48-1.33-21.08-3.92-31.66-4.37-20.4-.86-40.25-6.08-60.36-8.73s-40.23-3.37-60.26-.67c-1.45.2-.93,2,.54,1.85,27.87-2.62,56.42,1.45,83.22,7.39,6.49,1.44,13,3,19.41,4.52,7.16,1.71,13.42,5.23,20.52,7,13.45,3.29,27.4,5.59,40.72,9.15,27.94,7.48,59.88,6,88.58,2.21,29.14-3.88,57.59-9.88,86-16.13,19.29-4.24,37.94-9.91,57.63-13.1q14.88-2.4,30-3.61c6.17-.5,12.24-.89,18.36-1.7,5.28-.7,9.83-1.88,15.27-2a453.71,453.71,0,0,1,62.57,3.12c10.6,1.22,21.08,3.72,31.67,4.73,11.54,1.1,22.38,3.41,33.65,5.43C614.14,440.14,614.93,438.84,613.86,438.36Z"/><path class="cls-4" d="M799.43,419c-15.83,1.32-31.5,3.26-47.43,3.93s-31.92.44-47.78-.4a350.64,350.64,0,0,1-86.58-15.18c-24.38-7.6-47.64-17.22-72.35-24.2-27.43-7.74-55.84-10.13-84.89-9.44-61.26,1.44-122.82,17-184.1,7.31-14.09-2.23-27.37-6.74-40.88-10.45s-27.07-8-40.82-11.49c-14-3.53-29.16-7.92-44-7.9-7.33,0-14.57,1.2-21.87,1.63-3.61.21-7.56-.6-11.15-.94-4.35-.4-8.72-.72-13.08-1.07-15.05-1.2-30.37-3.42-45.41-1.54-2.54.31-1.7,3.17.44,3.44,15.37,2,31.19,1,46.71,2.26,7.52.63,16.29.93,23.33,3.14,7.62,2.39,14.54,5.85,22.29,8.06,6.74,1.92,14,2.9,20.88,4.45,7.33,1.65,14.55,3.58,21.82,5.39,13.69,3.4,27.2,7.35,41,10.44s27.86,5.13,41.9,7a253.73,253.73,0,0,0,45,1.93c31.28-1.46,62-6.62,93.05-9.8,30.24-3.1,62.15-5.7,92.16-.2,26.09,4.78,50.08,13.4,74.12,22.46,24.39,9.19,49.22,17.36,75.94,21.28a390.34,390.34,0,0,0,95.94,2.19c15.57-1.57,31.38-3.58,46.32-7.45C803,423.1,803,418.71,799.43,419Z"/><path class="cls-4" d="M815.86,434.46c-47.26,20.4-100.18-5-145.47-16.76-47.95-12.42-99.7-6.41-147.41,3.45-51.67,10.68-101.46,26.4-153.78,35.22-25.69,4.33-51.92,6.72-78.2,5.67-21.14-.84-41.8-4.85-61.93-9.76-44.48-10.86-87.15-25.93-131.23-37.7C66.74,406.27,33.07,399.87,0,401.63v4.81c16.48-.23,32.91,1.57,49.19,3.85,46.3,6.5,89.51,21.75,133,35.21,20.78,6.42,41.74,12.58,63.33,17.15a285.83,285.83,0,0,0,65.54,6c53-1.16,104.17-14.74,154.15-27.39,49.08-12.41,99.64-25.6,151.84-24.79,25.14.4,48.28,5.26,71.57,12.34,23.73,7.23,47.35,15,72.71,18,19.78,2.3,40.27.48,57.56-7.76C822.29,437.42,819.58,432.85,815.86,434.46Z"/><path class="cls-4" d="M810.32,406.13A163.9,163.9,0,0,0,762.09,426c-.25.15,0,.53.33.38,18.91-10.15,40.14-16.48,62.83-18.94,5.65-.61,11.3-.93,17-1v-4.81A178.05,178.05,0,0,0,810.32,406.13Z"/></g><g class="cls-3"><path class="cls-4" d="M837.72,498.43c-5.83.14-12.94-.08-17.89.22-3.75.22-7.38.41-11.15.35l-3-.09a2.4,2.4,0,0,0-1.63-1.1c-4.46-1-7.6-3.43-11.47-5.29-3.27-1.56-7.55-2.39-11.13-3.46-8.32-2.47-17.46-3.33-26.07-5.06-3.35-.68-6.82-1.43-10.37-2.12a64.94,64.94,0,0,1-7.77-4.27c-3.13-1.91-6.75-2.7-10.49-3.59-7.7-1.85-15.45-3.57-23.21-5.25a654.4,654.4,0,0,0-94.89-13.3c-32-2.14-64.28-2.85-96.37-3.78-32.46-.94-65-2-97.5-2.23-63.52-.4-126.9,7.44-188.57,18.88-62,11.49-123,26.39-187,29.2-13,.57-26.15.56-39.22.8v16.29c1.46.28,2.93.56,4.41.81C20,518.08,37,517.78,52.9,517.61c64.69-.7,127.2-15.11,189.94-25.83,4.37-.75,8.75-1.46,13.14-2.16a6.33,6.33,0,0,0,1.64.21c14.68,0,29.33-.82,44-1,14.91-.19,29.84.26,44.73.91,30.19,1.34,60.36,3.07,90.58,4.14s60.67,1.36,90.74-1.05c14.77-1.18,29.32-2.85,44.17-3.4,11.1-.41,22.63-.22,33.83-1.21a5.79,5.79,0,0,0,2,1.05c4,1.21,7.75.61,11.87.13,2.78-.32,5.13-.7,7.06-1.87,3,.58,6.14.32,9.35.41,5.53.16,11.15,0,16.7.1,8.53.15,17.11-.16,25.65-.08,4.64,1.65,9.4,3.06,14.05,4.33,19.7,5.34,40.61,8,61.21,10.08,10.27,1.05,20.57,1.9,30.88,2.72,8.84.69,18,.94,26.6,2.68,4,.82,7.52,2.14,11.23,2.83,6.68,1.24,13.26,2.77,19.93,4V498.34C840.71,498.37,839.21,498.39,837.72,498.43Z"/><path class="cls-4" d="M613.86,544.8c-5.85-2.67-12-4.4-18.18-6.59a146.06,146.06,0,0,0-21.87-6.39c-14.42-2.73-29.12-4.49-43.85-5.8s-29.83-2.14-44.74-3c-7.33-.43-14.13-2.29-21.42-2.94-7.56-.68-15.49-.08-23.06.31-14.36.72-28.68,2.33-42.89,4.06-14.73,1.78-29.57,3.56-44,6.48-27.9,5.66-55.52,12.23-83.88,16.36-19.8,2.88-40.88,5.07-61.81,5.1-10.36,0-20.77.26-31-1-10.48-1.33-21.08-3.91-31.66-4.36-20.4-.87-40.25-6.08-60.36-8.74s-40.23-3.36-60.26-.66c-1.45.19-.93,2,.54,1.85,27.87-2.62,56.42,1.44,83.22,7.39,6.49,1.44,13,3,19.41,4.51,7.16,1.72,13.42,5.24,20.52,7,13.45,3.3,27.4,5.6,40.72,9.16,27.94,7.48,59.88,6,88.58,2.21,29.14-3.88,57.59-9.89,86-16.13,19.29-4.24,37.94-9.91,57.63-13.1q14.88-2.41,30-3.62c6.17-.49,12.24-.88,18.36-1.69,5.28-.7,9.83-1.89,15.27-2a453.71,453.71,0,0,1,62.57,3.12c10.6,1.22,21.08,3.72,31.67,4.73,11.54,1.09,22.38,3.41,33.65,5.42C614.14,546.59,614.93,545.29,613.86,544.8Z"/><path class="cls-4" d="M799.43,525.45c-15.83,1.33-31.5,3.26-47.43,3.93s-31.92.44-47.78-.39a351.57,351.57,0,0,1-86.58-15.18c-24.38-7.61-47.64-17.22-72.35-24.2-27.43-7.74-55.84-10.13-84.89-9.45-61.26,1.45-122.82,17-184.1,7.32-14.09-2.23-27.37-6.74-40.88-10.45s-27.07-8-40.82-11.5c-14-3.53-29.16-7.92-44-7.89-7.33,0-14.57,1.19-21.87,1.62-3.61.22-7.56-.6-11.15-.93-4.35-.4-8.72-.72-13.08-1.07-15.05-1.2-30.37-3.42-45.41-1.55-2.54.32-1.7,3.18.44,3.45,15.37,2,31.19,1,46.71,2.26,7.52.62,16.29.93,23.33,3.14,7.62,2.39,14.54,5.85,22.29,8.05,6.74,1.92,14,2.91,20.88,4.46,7.33,1.65,14.55,3.58,21.82,5.39,13.69,3.4,27.2,7.35,41,10.43s27.86,5.14,41.9,7a251.85,251.85,0,0,0,45,1.93c31.28-1.45,62-6.61,93.05-9.79,30.24-3.1,62.15-5.7,92.16-.2,26.09,4.77,50.08,13.4,74.12,22.46,24.39,9.19,49.22,17.36,75.94,21.28a390.83,390.83,0,0,0,95.94,2.19c15.57-1.57,31.38-3.58,46.32-7.45C803,529.55,803,525.16,799.43,525.45Z"/><path class="cls-4" d="M815.86,540.9c-47.26,20.41-100.18-5-145.47-16.75-47.95-12.43-99.7-6.41-147.41,3.45C471.31,538.28,421.52,554,369.2,562.82c-25.69,4.33-51.92,6.72-78.2,5.67-21.14-.84-41.8-4.85-61.93-9.77C184.59,547.87,141.92,532.8,97.84,521,66.74,512.72,33.07,506.32,0,508.08v4.8c16.48-.22,32.91,1.58,49.19,3.86,46.3,6.5,89.51,21.75,133,35.2,20.78,6.43,41.74,12.59,63.33,17.15a285.84,285.84,0,0,0,65.54,6c53-1.17,104.17-14.75,154.15-27.39C514.28,535.32,564.84,522.14,617,523c25.14.39,48.28,5.26,71.57,12.34,23.73,7.23,47.35,15,72.71,18,19.78,2.3,40.27.48,57.56-7.76C822.29,543.86,819.58,539.3,815.86,540.9Z"/><path class="cls-4" d="M810.32,512.57a163.65,163.65,0,0,0-48.23,19.88c-.25.15,0,.53.33.38,18.91-10.15,40.14-16.48,62.83-19,5.65-.61,11.3-.92,17-1v-4.8A178,178,0,0,0,810.32,512.57Z"/></g></g></g></svg>