<svg xmlns="http://www.w3.org/2000/svg" xmlns:xlink="http://www.w3.org/1999/xlink" viewBox="0 0 246.94 153.79"><defs><style>.cls-1,.cls-2,.cls-3,.cls-4,.cls-5,.cls-6{stroke:#bcb9b3;stroke-miterlimit:10;stroke-width:0.27px;}.cls-1{fill:url(#linear-gradient);}.cls-2{fill:url(#linear-gradient-2);}.cls-3{fill:url(#linear-gradient-3);}.cls-4{fill:url(#linear-gradient-4);}.cls-5{fill:url(#linear-gradient-5);}.cls-6{fill:url(#linear-gradient-6);}.cls-7{fill:#a7a49d;}.cls-8{fill:#706b65;}.cls-9{fill:#8c8982;}.cls-10{fill:#cccac6;}.cls-11{fill:#bcb9b3;}.cls-12{fill:#514e47;}.cls-13{fill:#605d58;}.cls-14{fill:#7c7972;}.cls-15{fill:#ccc9c4;}.cls-16{fill:#68615a;}</style><linearGradient id="linear-gradient" x1="18.09" y1="30.19" x2="59.69" y2="41.78" gradientUnits="userSpaceOnUse"><stop offset="0" stop-color="#a7a49d"/><stop offset="1" stop-color="#bcb9b3"/></linearGradient><linearGradient id="linear-gradient-2" x1="161.1" y1="74.57" x2="190.42" y2="90.26" xlink:href="#linear-gradient"/><linearGradient id="linear-gradient-3" x1="207.15" y1="65.86" x2="172.99" y2="151.26" xlink:href="#linear-gradient"/><linearGradient id="linear-gradient-4" x1="59.63" y1="6.85" x2="25.47" y2="92.25" xlink:href="#linear-gradient"/><linearGradient id="linear-gradient-5" x1="93.64" y1="30.53" x2="113.07" y2="83.03" xlink:href="#linear-gradient"/><linearGradient id="linear-gradient-6" x1="235.06" y1="125.49" x2="210.86" y2="106.4" xlink:href="#linear-gradient"/></defs><title>Asset 1</title><g id="Layer_2" data-name="Layer 2"><g id="Layer_1-2" data-name="Layer 1"><polygon class="cls-1" points="15.21 62.69 17.52 56.65 15.21 30.82 15.21 19.77 26.71 14.77 40.5 11.83 74.44 13.92 92.66 11.83 97.59 13.92 58.51 54.83 19.43 69.69 15.21 66.55 15.21 62.69"/><polygon class="cls-2" points="112.7 131.52 118.82 136.39 164.99 141.85 177.21 138.41 184.95 109.4 183.41 89.48 197.59 53.93 207.13 14.77 201.75 14.77 177.93 54.83 140.5 85.11 112.7 131.52"/><polygon class="cls-3" points="207.13 14.77 216.62 15.86 225.18 19.07 230.66 30.66 225.94 38.52 230.66 51.61 229.06 62.21 218.28 69.69 201.75 86.69 189.93 118.59 177.21 138.41 184.95 109.4 183.41 89.48 197.59 53.93 207.13 14.77"/><polygon class="cls-4" points="19.43 69.69 15.21 72.72 15.21 93.96 17.29 96.02 47.02 77.35 58.51 54.83 19.43 69.69"/><path class="cls-5" d="M103.34,11.83l-5.75,2.09L58.51,54.83,47,77.35,27.86,89.48,17.29,96v6.89L21,105.29l-3.67,8.26-3.14,10.1L18.32,133l11.84,3.57,24.52-.21L65,141.57l27.64-5.1,17.54-1.1,12.2-18.75,18.1-31.51,37.43-30.28,23.83-40.06L186.48,13l-51.07,3.16-20.19-1.37L108,27.7,87.63,38.13l17.48-11.87s5.55-9.5,5.53-10.12S103.34,11.83,103.34,11.83Z"/><polygon class="cls-6" points="218.28 139.27 224.79 139.27 232.26 132.32 235.15 119.14 230.66 101.3 226.63 93.96 226.71 83.03 230.66 71.47 229.06 62.21 218.28 69.69 201.75 86.69 189.93 118.59 177.21 138.41 182.72 141.85 207.13 137.8 218.28 139.27"/><polygon class="cls-7" points="15.21 20.61 5.19 20.61 6.82 55.67 17.52 57.5 15.21 20.61"/><polygon class="cls-8" points="15.21 62.69 3.25 59.94 3.25 66.55 15.21 66.55 15.21 62.69"/><polygon class="cls-9" points="15.21 72.72 15.21 93.96 3.25 96.02 3.25 72.72 15.21 72.72"/><polygon class="cls-10" points="17.52 56.65 15.21 62.69 3.25 59.94 6.82 54.83 17.52 56.65"/><polygon class="cls-11" points="5.19 19.77 15.21 19.77 26.71 14.77 17.52 7.94 5.19 19.77"/><polygon class="cls-7" points="40.5 12.68 36.86 6.99 17.52 8.78 26.71 15.61 40.5 12.68"/><polygon class="cls-10" points="74.44 13.92 40.5 11.83 36.86 6.14 74.44 9.26 74.44 13.92"/><polygon class="cls-9" points="92.66 11.83 92.66 2.86 74.44 9.26 74.44 13.92 92.66 11.83"/><polygon class="cls-10" points="97.59 13.92 97.59 6.52 92.66 2.86 92.66 10.45 92.66 11.83 97.59 13.92"/><polygon class="cls-9" points="103.34 11.83 103.34 0.27 97.59 6.52 97.59 13.92 103.34 11.83"/><polygon class="cls-7" points="110.64 16.72 112 10.61 103.34 0.85 103.34 12.41 110.64 16.72"/><polygon class="cls-11" points="115.22 14.77 115.22 7.09 115.22 2.86 135.41 6.14 135.41 16.14 115.22 14.77"/><polygon class="cls-7" points="186.48 12.98 135.41 16.14 135.41 6.14 186.48 2.86 186.48 12.98"/><polygon class="cls-10" points="202.03 15.21 186.75 13.43 186.75 3.31 202.03 7.54 202.03 15.21"/><polygon class="cls-9" points="207.13 14.77 207.13 6.52 201.75 7.09 201.75 14.77 207.13 14.77"/><polygon class="cls-9" points="216.62 15.86 207.13 14.77 207.13 6.52 219.41 7.94 216.62 15.86"/><polygon class="cls-11" points="225.18 19.07 230.66 7.94 219.41 7.94 216.62 15.86 225.18 19.07"/><polygon class="cls-10" points="230.66 30.66 225.18 19.07 230.66 7.94 238.24 21.69 230.66 30.66"/><polygon class="cls-9" points="230.66 51.61 240.83 49.6 235.15 36.74 225.94 38.52 230.66 51.61"/><polygon class="cls-8" points="238.24 21.69 235.15 36.74 225.94 38.52 230.66 30.66 238.24 21.69"/><polygon class="cls-12" points="115.22 2.86 112 10.03 110.64 16.14 105.11 26.26 87.63 38.13 107.95 27.7 115.22 14.77 115.22 2.86"/><polygon class="cls-13" points="17.52 69.69 9.23 69.69 3.25 66.55 15.21 66.55 19.43 69.69 17.52 69.69"/><polygon class="cls-13" points="17.29 96.02 10.38 97.64 3.25 96.02 15.21 93.96 17.29 96.02"/><polygon class="cls-9" points="19.43 69.69 15.21 72.72 3.25 72.72 9.23 69.69 19.43 69.69"/><polygon class="cls-10" points="17.29 102.91 1.95 105.29 10.38 97.64 17.29 96.02 17.29 102.91"/><polygon class="cls-13" points="20.96 105.29 7.46 108.35 1.95 105.29 17.29 102.91 20.96 105.29"/><polygon class="cls-9" points="14.15 123.65 20.96 105.29 7.46 108.35 0 123.65 14.15 123.65"/><polygon class="cls-14" points="18.32 133.03 14.15 123.65 0 123.65 7.14 139.27 18.32 133.03"/><polygon class="cls-13" points="30.16 136.6 24.34 150.52 7.14 139.27 18.32 133.03 30.16 136.6"/><polygon class="cls-14" points="54.68 136.39 54.68 149.09 24.34 150.52 30.16 136.6 54.68 136.39"/><polygon class="cls-12" points="65.03 141.57 65.03 153.79 54.68 149.09 54.68 136.39 65.03 141.57"/><polygon class="cls-14" points="110.2 135.37 110.2 146.35 95.13 149.09 92.66 136.47 110.2 135.37"/><polygon class="cls-13" points="65.03 141.57 92.66 136.47 95.13 149.09 65.03 153.79 65.03 141.57"/><polygon class="cls-14" points="118.82 136.39 117.5 146.35 163.91 153.13 164.99 141.85 118.82 136.39"/><polygon class="cls-14" points="182.72 141.85 182.72 153.79 208.7 149.09 207.13 137.8 182.72 141.85"/><polygon class="cls-13" points="218.28 139.27 216.62 150.52 208.7 149.09 207.13 137.8 218.28 139.27"/><polygon class="cls-12" points="224.79 139.5 227.85 149.32 216.62 150.75 218.28 139.5 224.79 139.5"/><polygon class="cls-14" points="232.26 132.32 224.79 139.27 227.85 149.09 240.83 140.71 232.26 132.32"/><polygon class="cls-9" points="235.15 119.14 246.94 121.31 240.83 140.71 232.26 132.32 235.15 119.14"/><polygon class="cls-8" points="230.66 101.3 242.46 97.64 246.94 121.31 235.15 119.14 230.66 101.3"/><polygon class="cls-7" points="226.63 93.96 239.6 89.48 242.46 97.64 230.66 101.3 226.63 93.96"/><polygon class="cls-8" points="226.71 83.03 238.24 83.03 239.6 89.48 226.63 93.96 226.71 83.03"/><polygon class="cls-13" points="230.66 71.47 244.08 72.72 238.24 83.03 226.71 83.03 230.66 71.47"/><polygon class="cls-7" points="229.06 62.21 242.46 62.21 244.08 72.72 230.66 71.47 229.06 62.21"/><polygon class="cls-9" points="240.83 49.6 242.46 62.21 229.06 62.21 230.66 51.61 240.83 49.6"/><polygon class="cls-12" points="177.21 138.41 175.92 149.09 182.72 153.79 182.72 141.85 177.21 138.41"/><polygon class="cls-13" points="164.99 141.85 177.21 138.41 175.92 149.09 163.91 153.13 164.99 141.85"/><polygon class="cls-13" points="112.7 131.52 112.7 142.23 117.5 146.35 118.82 136.39 112.7 131.52"/><polygon class="cls-9" points="110.2 135.37 110.2 146.35 112.7 142.23 112.7 131.52 110.2 135.37"/><polygon class="cls-10" points="186.48 12.98 135.41 16.14 115.22 14.77 109 28.61 87.63 40.12 78.52 48.63 87.63 38.13 107.95 27.7 115.22 12.98 122.41 14.77 134.29 14.77 139.06 14.77 186.48 12.98"/><polygon class="cls-10" points="107.67 14.58 106.86 14.02 103.34 11.56 97.59 13.92 88.43 23.51 95.13 13.85 92.66 11.83 75.41 14.77 62.06 14.58 40.5 11.83 26.71 14.77 15.21 19.77 17.52 56.65 12.06 55.72 15.21 54.83 15.21 49.6 15.95 45.08 15.21 34.37 14.15 23.01 11.46 20.5 5.19 19.77 14.15 19.07 17.52 17.04 24.34 13.92 20.33 10.03 26.71 12.8 29.79 11.83 33.36 11.83 38.03 11.19 39.01 9.5 42.48 11.19 61.61 13.51 74.44 13.92 92.66 10.45 92.66 4.36 93.87 10.64 95.13 12.27 97.59 12.8 103.34 10.64 102.33 6.52 103.34 0 105.11 7.94 105.11 11.83 108.94 14.87 107.67 14.58"/><polygon class="cls-10" points="115.22 12.98 115.22 2.86 115.76 8.39 117.33 13.51 115.22 14.77 115.22 12.98"/><path class="cls-10" d="M197.77,14.77l2,1.09-4.06,8.49-4.57,6.38-3.52,4.91-4.9,11.13L199.77,20.5s.41-5.73,2-5.73h4.42l-1.74,11,4.26-9.94,4.57.28,3.35-.28,6.53,2.45,2,.76L223.64,23l2.3-1.32,1.66,2.52,2.53,5.32-5.34,9-.5,1.41-.65,1.81,1.53-1-2.93,6,3.7-4.14,4.72,9-4.72-13.09,4.72-7.86,3.88-3L237.12,23l-5.41,5.32-5-7.83V18l2.71-7.57,1.24-2.51-3.95,4.86-.77,3.34L225.17,18,217,14.77h-9.88V6.52l-1.39,4.67V13l-4,.53-6,.34-8.09-1.58-1.14-7.46,1.14,9Z"/><polygon class="cls-10" points="229.06 59.94 218.28 68.12 210.6 77.59 219.83 68.77 227.85 62.69 220.9 69.69 227.85 64.86 230.66 71.47 230.15 72.46 228.44 75.82 226.63 79.38 225.94 84.37 226.63 93.96 230.66 101.3 235.15 119.14 232.26 132.32 239.6 139.5 238.24 135.37 234.54 132.32 234.54 128.72 235.76 121.31 238.24 120.22 246.94 121.31 240.83 119.14 236.57 118.05 232.26 102.91 234.54 100.65 240.83 97.64 233.11 99.72 232.09 101.3 227.85 93.96 238.24 89.95 227.85 92.24 226.71 88.5 226.71 83.03 228.12 78.92 230.92 73.78 235.76 72.72 242.46 72.72 238.8 71.21 233.39 71.72 231.71 72.72 232.26 69.69 230.66 64.86 230.66 62.69 238.24 62.69 230.25 61.09 231.71 53.93 232.81 51.83 240.83 49.6 230.66 51.61 229.06 59.94"/><polygon class="cls-10" points="229.06 136.39 224.79 139.27 225.94 145.8 222.24 139.5 218.28 139.5 216.62 150.75 216.62 139.5 212.7 138.94 207.13 137.8 182.72 141.85 180.41 139.5 187.62 123.65 190.31 117.56 194.12 105.29 191.03 119.14 186.48 132.32 182.72 138.41 185.24 139.5 193.09 137.8 207.13 136.47 214.9 137.8 219.41 138.41 224.79 137.8 232.26 132.32 229.06 136.39"/><polygon class="cls-10" points="179.4 140.71 175.92 138.94 183.51 114.79 185.24 113.43 185.24 111.15 174.41 137.8 169.07 139.5 164.99 140.71 167.29 136.29 162.49 140.71 157.5 140.71 147.75 138.94 137.7 137.8 120.35 135.37 122.41 132.32 118.82 134.51 116.27 132.32 112.7 131.52 120.13 123.65 127.57 109.47 136.86 91.46 120.12 119.14 112.7 128.02 110.64 132.32 110.2 135.37 112 135.37 112.7 133.03 116.27 134.36 117.5 137.8 117.5 146.35 118.82 136.39 122.41 136.39 127.57 137.43 141.98 139.5 151.3 140.71 163.91 141.57 163.91 146.35 163.91 150.75 164.99 141.85 169.05 140.71 174.13 139.27 179.4 140.71"/><polygon class="cls-10" points="110.2 146.35 111.4 136.47 110.2 135.37 108.94 133.03 110.64 128.95 115.76 122.27 108.94 128.02 107.67 133.03 103.34 135.37 96.29 135.37 92.66 135.37 82.75 137.8 65.03 141.57 56.4 135.37 51.93 134.31 30.16 135.37 19.43 132.32 14.66 122.27 0.67 122.27 14.15 123.65 15.98 129.89 18.32 133.03 15.79 133.81 14.15 134.31 7.14 139.27 19.43 133.94 22.9 135.37 28.02 136.47 28.95 139.5 30.16 136.6 36.86 136.39 50.71 135.37 54.68 136.39 63.5 142.23 64.82 147.86 66.06 144.16 66.06 142.46 73.31 140.71 92.66 137.8 95.13 149.09 95.13 137.8 97.59 137.8 103.34 137.8 106.78 135.37 108.94 136.47 110.2 146.35"/><polygon class="cls-10" points="15.98 119.14 20.96 105.29 30.16 97.64 20.96 104.25 18.32 101.3 18.65 97.64 20.96 95.39 47.02 77.35 49.38 72.72 45.06 77.35 18.29 95.39 15.21 92.46 15.21 74.44 19.43 71.21 36.39 63.24 20.96 69.11 15.21 66.55 7.14 65.95 11.34 67.46 14.15 68.12 17.52 69.69 15.21 72.72 9.62 71.47 3.25 72.72 11.46 73.78 12.89 76.59 12.67 83.03 11.46 89.48 13.78 92.69 12.91 94.36 6.22 94.55 3.25 96.02 10.27 95.39 15.21 95.39 17.29 97.64 15.95 102.03 3.25 105.09 15.95 103.12 19.43 105.29 15.98 119.14"/><path class="cls-15" d="M37,109.38a8.14,8.14,0,0,1-1.61,1.09,8.11,8.11,0,0,0-2.61,2c-.27.37-.48.78-.76,1.14a11.15,11.15,0,0,1-2.63,2,9.31,9.31,0,0,0-3,3.52,99.18,99.18,0,0,0,9.76-5.72,17.19,17.19,0,0,1,1-2.68c.59-1,1.4-1.82,1-3.07A6,6,0,0,1,37,109.38Z"/><path class="cls-16" d="M35.86,110.66a16.19,16.19,0,0,1-1.92,1.78l-4.52,3.77-2.34,2c.79-1.17,1.58-2.33,2.38-3.49a10.36,10.36,0,0,1,2.06-2.45c.51-.39,1.09-.69,1.61-1.06,1.17-.82,2.81-3,4.27-2.39C36.93,109.41,36.4,110.05,35.86,110.66Z"/><path class="cls-15" d="M213,123.62c-.73.67-1.41,1.39-2.09,2.11l-3,3.19a106.76,106.76,0,0,0,8.67-7.37c.72-.7,1.41-1.44,2.1-2.17A41.23,41.23,0,0,0,213,123.62Z"/><path class="cls-16" d="M220,118.63a20.55,20.55,0,0,0-4.36-.23,2.33,2.33,0,0,0-1.14.26,2.45,2.45,0,0,0-.77.91c-1.26,2.1-3,4.45-3.69,6.8A51.8,51.8,0,0,1,214.7,122C215.64,121.28,218.79,118.44,220,118.63Z"/><path class="cls-15" d="M179.29,22.34a5.52,5.52,0,0,1-2.19,1.55l-.52,2.36a17.9,17.9,0,0,1,2.32-1.63,7,7,0,0,1,.23-2Z"/><path class="cls-16" d="M179.08,22.72a8.69,8.69,0,0,0-2.5,3.17,4.39,4.39,0,0,1-.26-1.75,1.57,1.57,0,0,1,1-1.34c.61-.16,1.55,0,1.6-.64Z"/><path class="cls-15" d="M11.77,40.63a19.25,19.25,0,0,1-1.18,4.67c-.09,2.36-.19,4.73-.28,7.09.39-1.82.81-3.46,1.25-4.89,0-2,0-4.12.12-6.1Z"/><path class="cls-16" d="M11.65,41.78a73.21,73.21,0,0,0-1.34,9.53c-.09-1.72-.17-3.49-.14-5.26a11.84,11.84,0,0,1,.55-4c.32-.49.82-.07.85-1.93Z"/><path class="cls-15" d="M242.68,123.85a4.61,4.61,0,0,1-.38.8,5.18,5.18,0,0,0-.62,1.48c-.06.26-.11.56-.18.83a7.56,7.56,0,0,1-.62,1.47,10.32,10.32,0,0,0-.71,2.58,43.58,43.58,0,0,0,2.32-4.18c0,.08.2-1.82.23-2a7,7,0,0,0,.24-2.25A7.71,7.71,0,0,1,242.68,123.85Z"/><path class="cls-16" d="M242.4,124.79a12.31,12.31,0,0,1-.45,1.3c-.36.92-.72,1.84-1.07,2.76-.19.47-.37,1-.56,1.42l.57-2.55a11.31,11.31,0,0,1,.49-1.78c.12-.29.25-.51.38-.78.27-.6.66-2.17,1-1.75C242.66,123.87,242.53,124.34,242.4,124.79Z"/><path class="cls-15" d="M105.13,18.37a8.14,8.14,0,0,1-1.61,1.09,8.11,8.11,0,0,0-2.61,2c-.27.37-.48.78-.76,1.14a11.15,11.15,0,0,1-2.63,2,9.31,9.31,0,0,0-3,3.52,99.18,99.18,0,0,0,9.76-5.72,17.19,17.19,0,0,1,1-2.68c.58-1.05,1.39-1.81,1-3.07A6,6,0,0,1,105.13,18.37Z"/><path class="cls-16" d="M104,19.65A17,17,0,0,1,102,21.43L97.51,25.2l-2.35,2,2.38-3.49a10.64,10.64,0,0,1,2.07-2.45c.51-.39,1.08-.69,1.61-1.06,1.17-.82,2.81-3,4.27-2.39C105,18.4,104.49,19,104,19.65Z"/><path class="cls-15" d="M224.13,123.42a5.76,5.76,0,0,1-2.46-.14l-1.33,1.21a19.2,19.2,0,0,1,2.6.16,3.75,3.75,0,0,1,.95-1.15Z"/><path class="cls-16" d="M223.8,123.55a7.41,7.41,0,0,0-3.33.71,2.55,2.55,0,0,1,.43-1.22,1.25,1.25,0,0,1,1.37-.32c.58.2,1.34.77,1.61.4Z"/><path class="cls-15" d="M230.51,112.85A6.74,6.74,0,0,1,228,114.2l-.6,2a21.48,21.48,0,0,1,2.7-1.4,4.59,4.59,0,0,1,.28-1.75Z"/><path class="cls-16" d="M230.26,113.19a8.46,8.46,0,0,0-2.92,2.73,2.88,2.88,0,0,1-.29-1.51,1.46,1.46,0,0,1,1.18-1.15c.7-.14,1.8,0,1.86-.56Z"/></g></g></svg>